<svg width="507" height="680" viewBox="0 0 507 680" fill="none" xmlns="http://www.w3.org/2000/svg">
<rect width="507" height="680" fill="#E4E8FC"/>
<rect width="507" height="680" fill="url(#paint0_linear_9292_48064)"/>
<path fill-rule="evenodd" clip-rule="evenodd" d="M507 0H0V37.0264C0.485339 36.6312 0.99233 36.2783 1.55508 36.0307C3.16668 35.3144 4.95251 35.4259 6.75363 35.5384C7.42004 35.58 8.08856 35.6218 8.75111 35.6218C8.95434 35.6218 9.1633 35.6183 9.37514 35.6149C10.9533 35.5889 12.6913 35.5603 13.4123 36.9302C13.706 37.4687 13.736 38.0659 13.7653 38.6515C13.785 39.044 13.8045 39.4314 13.9029 39.7924C14.0993 40.6172 14.6352 41.291 15.1664 41.959C15.7411 42.6818 16.3104 43.3976 16.4379 44.2901C16.5758 45.2096 16.2743 46.0516 15.9694 46.9032C15.732 47.5663 15.4924 48.2353 15.4566 48.9513C15.4566 49.564 15.5965 50.1894 15.7359 50.8125C15.9499 51.7695 16.1627 52.721 15.8655 53.6126C15.6519 54.1253 15.282 54.5264 14.9075 54.9325C14.5652 55.3037 14.219 55.679 13.9848 56.1476C13.6301 56.8126 13.5879 57.5738 13.5453 58.3399C13.5094 58.9869 13.4733 59.6374 13.2487 60.2364C12.9579 61.012 12.4084 61.5865 11.8558 62.1642C11.4762 62.5611 11.0952 62.9595 10.7955 63.4257C10.3926 64.03 10.1276 64.7308 9.8646 65.4262C9.487 66.4247 9.11358 67.4121 8.34234 68.087C7.47563 68.8959 6.3231 69.1333 5.14443 69.376C4.65498 69.4768 4.16103 69.5785 3.68116 69.7225C3.43584 69.8042 2.94521 69.9678 2.29102 70.2131C2.0048 70.3767 1.71858 70.5811 1.43235 70.7856C1.14613 70.99 0.859914 71.1945 0.573712 71.358C0.393719 71.4705 0.201346 71.5768 0 71.6752V97.3684C4.32491 99.8503 8.24968 101.544 11.6132 101.779C18.6458 102.269 23.7976 99.6526 29.3582 93.0287C32.3838 89.4306 35.3277 86.0777 38.2715 82.9702C37.6653 82.4743 37.0963 81.9411 36.5144 81.3959C36.2328 81.1321 35.9482 80.8654 35.6548 80.5987C34.4282 82.2342 32.4656 83.1338 30.4213 83.2973C28.3769 83.4609 26.4144 82.8884 24.5336 81.9889C22.9798 81.2529 21.5896 80.1898 20.5266 78.7996C18.4005 76.0192 18.3187 71.9305 20.036 68.823C21.7532 65.7972 25.106 63.7528 28.6223 63.5075C31.0755 63.3439 33.6923 64.0799 35.1642 66.0426C36.4357 67.7211 36.5684 69.8108 36.7035 71.938C36.7856 73.2308 36.8685 74.5374 37.2085 75.7739C37.5002 76.524 38.1317 77.359 38.7782 78.214C39.4005 79.0369 40.0368 79.8784 40.3977 80.6805C49.6382 71.358 58.5516 64.6524 69.0186 59.9911C69.0509 59.8834 69.0847 59.777 69.118 59.6721C69.3374 58.9808 69.5372 58.3511 69.1822 57.7831C68.8551 57.2925 68.2828 57.0472 67.7104 56.8019L67.7102 56.8018C65.522 56.0724 64.6189 55.343 62.5332 53.6582L62.4767 53.6126C60.7972 52.256 59.6789 50.7974 59.1623 50.1235C59.025 49.9443 58.9301 49.8206 58.8786 49.7691C56.4238 46.6128 55.3059 44.6635 54.5604 43.3636C53.7413 41.9354 53.3719 41.2912 52.1732 40.6919C50.9739 40.1297 50.0666 40.1344 49.1522 40.1391C48.0714 40.1446 46.9806 40.1502 45.3859 39.2199C44.7318 38.811 43.0962 37.748 42.1149 35.7035C41.2154 33.8227 41.2155 31.6965 41.7879 29.6521C42.4421 27.1988 43.2597 25.2362 45.5494 24.0913C46.9396 23.4371 49.0657 22.8647 50.5376 23.0282C53.8086 23.3553 56.9161 25.1544 58.5516 28.0166C60.187 30.8788 60.1052 34.6405 58.1427 37.2573C58.0784 37.343 58.0085 37.4288 57.9374 37.5159C57.7372 37.7615 57.5274 38.0187 57.4067 38.3204C56.9979 39.3017 57.4067 40.3648 57.8974 41.2643C60.5141 46.6616 64.521 51.7317 70.1635 53.6126C70.8176 51.977 71.1447 50.2597 71.063 48.5424C71.063 47.97 71.0629 47.3158 70.7358 46.7434C70.2979 45.7944 69.4039 45.2364 68.5773 44.7204C68.4778 44.6584 68.3793 44.5969 68.2827 44.5354C65.9112 42.8999 63.7851 40.4466 63.5398 37.5844C63.3762 34.8858 64.7663 32.3507 66.5654 30.3063C67.3831 29.4068 68.2009 28.9161 69.4275 28.7526C69.5866 28.7327 69.7941 28.6983 70.0252 28.66C70.7444 28.5407 71.6927 28.3835 72.126 28.5073C74.0885 28.8344 75.4787 29.1614 77.2777 30.1428C79.0768 31.1241 80.6304 32.5961 81.2029 34.5587C81.53 35.6218 81.53 36.8484 81.3664 37.9115C80.794 42.1639 77.9319 46.0074 74.0886 47.8882C74.0068 47.9427 73.9159 47.9882 73.8251 48.0336C73.6434 48.1245 73.4617 48.2153 73.3526 48.3789L73.3526 48.379C73.2708 48.5425 73.189 48.7061 73.189 48.9513C72.6166 52.1406 72.3714 55.3299 72.862 58.5191C78.668 56.2294 84.8827 54.5939 91.8335 53.5308C92.8148 51.8135 93.142 49.9326 93.0602 47.8882V47.4793C92.8149 44.5354 92.4877 40.9372 90.934 38.5657C90.0593 37.1913 89.1635 36.8138 88.3005 36.4502C87.469 36.0999 86.668 35.7625 85.9458 34.5587C84.3921 31.9418 84.801 27.6895 87.4178 25.318C89.1625 23.7318 91.2149 23.5301 92.0831 23.4448C92.1101 23.4421 92.136 23.4396 92.1607 23.4371C92.2258 23.4371 92.308 23.435 92.4053 23.4326C93.5305 23.4042 96.677 23.3248 98.7843 25.8086C100.583 27.853 100.91 30.797 100.011 33.0049C99.3937 34.5685 98.3832 35.2212 97.396 35.8587C96.4212 36.4882 95.4691 37.1031 94.941 38.5657C94.4357 39.9438 94.7045 40.9864 95.0661 42.3892C95.3483 43.4838 95.6871 44.7978 95.7588 46.6616C95.7588 49.442 95.1863 51.7317 94.6956 53.1219C97.1489 53.5308 100.747 53.8579 104.263 52.1406C106.774 50.9258 108.061 49.2899 109.297 47.7194C110.557 46.1184 111.764 44.5853 114.158 43.6358C117.592 42.2457 123.317 42.1639 126.424 46.0074C129.123 49.3602 128.877 54.5121 126.506 57.7831C123.971 61.3813 119.637 61.872 118.737 61.9537C115.592 62.3237 113.625 61.3075 111.207 60.0588C109.349 59.0995 107.226 58.003 104.1 57.2925C98.7843 56.0658 94.5321 56.8018 90.1163 57.6196C82.9202 58.928 77.3595 61.6266 73.8433 63.8346C74.661 64.8977 75.6423 65.7972 76.8689 66.615C76.9506 66.6559 77.012 66.6968 77.0733 66.7377C77.1346 66.7785 77.196 66.8194 77.2777 66.8603C78.0955 67.4327 85.2917 71.9304 85.7823 71.5216C88.4809 69.5589 92.1606 69.0683 95.268 70.2131C98.3754 71.358 100.829 74.2202 101.565 77.4095C101.81 78.4725 101.892 79.6174 101.565 80.6805C101.238 81.58 100.583 82.3978 99.9292 83.1338C98.0484 85.0964 95.7587 86.8137 93.0602 87.4679C90.3617 88.1221 87.336 87.4679 85.4551 85.5053C82.7566 82.5613 83.8197 77.3277 85.1281 74.2202C84.7192 75.2015 77.196 70.5402 76.1329 69.8043C75.3152 69.15 72.6985 66.8603 71.2266 64.7341L67.5466 66.4514C64.1121 68.2505 61.4136 69.886 59.6964 70.9491C57.3249 72.5029 54.6264 74.4655 51.7643 76.837C52.255 77.9001 52.9909 79.6992 53.5633 81.9071C54.2734 84.622 54.3221 86.4622 54.3632 88.0162C54.4026 89.5047 54.4351 90.7306 55.0352 92.2109C56.5071 95.8909 60.187 99.3255 63.3762 99.1619C66.5452 99.0035 69.7483 98.538 72.9415 98.074C74.6921 97.8195 76.4398 97.5656 78.1773 97.3628C79.9926 97.1175 81.808 96.9605 83.6233 96.8035C84.8336 96.6988 86.0439 96.5941 87.2542 96.4633H87.2543C87.5813 96.4633 87.9084 96.4633 88.1537 96.218C88.4808 96.0544 88.7262 95.7273 88.9715 95.4002C90.6888 93.1105 93.4691 91.7203 96.2494 91.1479C100.175 90.3301 104.345 90.2483 107.371 93.1105C109.824 95.4002 110.723 99.0802 110.642 102.351C110.642 107.094 108.597 112.083 104.672 114.781C100.665 117.48 94.6138 116.989 91.8335 113.064C90.8479 111.665 90.2949 109.907 89.7517 108.181C88.8977 105.466 88.0677 102.828 85.6187 101.779C84.2286 101.206 82.6748 101.288 81.1211 101.452C75.9694 101.942 70.8176 102.678 65.6659 103.578V107.176C69.9181 107.912 74.6611 108.812 77.3596 112.246C79.4857 114.945 79.8945 118.788 78.6679 121.978C77.3595 125.167 74.661 127.62 71.39 128.847C69.6728 129.501 67.7102 129.828 65.9112 129.256C63.1309 128.438 61.3319 125.821 60.3506 123.122C58.9604 119.279 59.0421 114.945 60.5141 111.183C60.6023 110.94 60.7025 110.698 60.8033 110.453C61.0762 109.792 61.3539 109.119 61.4136 108.403C61.6589 105.949 59.9417 103.823 58.1427 102.188C57.0796 101.288 54.79 99.4073 53.318 99.9797C52.2605 100.477 51.1083 102.584 50.2575 104.14C49.9898 104.629 49.752 105.064 49.5564 105.377C49.5339 105.422 49.5052 105.467 49.4755 105.514C49.397 105.637 49.3111 105.771 49.3111 105.949C49.3111 106.276 49.3928 106.522 49.5564 106.849C51.846 111.265 54.381 116.662 50.9465 121.242C48.9839 123.777 45.5494 124.921 42.3602 124.594C40.5612 124.349 38.6804 123.695 37.5356 122.305C34.51 118.788 35.573 111.755 38.4351 108.484C40.2341 106.358 42.9327 105.132 45.713 104.968C46.0401 104.968 46.449 104.968 46.7761 104.804C47.185 104.559 47.4303 104.15 47.512 103.987C53.1544 91.475 49.72 85.5871 49.72 85.5871C49.556 85.306 49.4122 84.9378 49.2501 84.5227C48.8461 83.4884 48.3286 82.1632 47.1031 81.1712C37.5356 90.739 30.6666 102.515 29.8488 112.164C29.8488 112.164 30.9119 170.471 31.8932 184.536C32.9562 198.602 36.309 257.235 36.309 257.235C36.309 257.235 38.5987 255.927 42.2785 253.637C41.4608 242.434 42.1967 223.462 52.9909 207.107C53.8904 205.716 54.8717 204.408 55.853 203.181L56.8343 201.955C59.6146 198.602 62.5584 195.74 65.6659 193.205C65.6659 192.878 65.5841 192.469 65.3388 192.06C65.3265 192.035 65.3123 192.006 65.2962 191.973C65.099 191.565 64.6168 190.569 63.7851 190.342C63.4561 190.248 63.2352 190.344 62.8274 190.519C62.5256 190.649 62.1215 190.823 61.4954 190.997C61.1274 191.078 60.7799 191.201 60.4323 191.324C60.0847 191.446 59.7372 191.569 59.3692 191.651C57.0796 192.06 54.7081 191.896 52.7456 190.67C50.2923 189.198 48.8204 186.172 49.3111 183.391C49.8835 180.611 52.582 178.321 55.4441 178.567C56.916 178.73 58.3062 179.466 59.4511 180.448C61.0048 181.838 62.5584 183.228 63.6215 185.109C64.1122 186.008 64.4393 186.908 64.6846 187.889C64.7115 188.024 64.7207 188.149 64.7297 188.272C64.748 188.522 64.7654 188.76 64.9299 189.034C64.9818 189.12 65.0336 189.21 65.0862 189.302C65.2826 189.643 65.4896 190.003 65.7476 190.261C65.8452 190.334 65.9429 190.422 66.0471 190.515C66.2919 190.736 66.5728 190.988 66.9743 191.16C67.4649 191.324 67.792 191.406 68.1191 191.406C68.1191 191.406 68.2009 191.406 68.2827 191.242L70.1635 189.934C71.1038 189.32 72.0646 188.727 73.0254 188.135C73.9863 187.542 74.9472 186.949 75.8876 186.335C76.4593 186.05 77.031 185.724 77.5747 185.414C77.8087 185.28 78.0376 185.15 78.259 185.027C78.3408 185.027 78.4021 184.986 78.4634 184.945C78.5248 184.904 78.5861 184.863 78.6679 184.863C77.8502 183.473 77.196 181.838 76.9507 181.184C76.7054 180.529 75.0698 174.805 75.4787 173.742C75.4787 173.742 74.3339 173.742 73.0255 173.497C71.3082 173.333 68.6916 172.679 67.1379 169.898C66.0748 167.936 66.4019 165.401 67.6285 163.438C67.7185 163.297 67.8106 163.135 67.912 162.957C68.4553 162.002 69.2667 160.577 71.4719 159.267C72.5077 158.62 73.4411 158.588 74.1907 158.562C74.3879 158.555 74.5725 158.549 74.7428 158.531C75.6423 158.531 76.9507 158.859 77.6866 159.349C79.9763 160.739 81.5301 163.438 81.6936 166.137C81.7754 168.835 80.4669 171.616 78.259 173.251C77.8501 173.578 79.4857 180.284 79.731 181.102V181.511L79.7761 181.628C80.1584 182.623 80.4005 183.252 80.7941 183.882C81.2076 183.694 81.6168 183.506 82.0216 183.32C83.3782 182.697 84.6862 182.096 85.9458 181.592L85.9465 181.592C86.6004 181.347 87.2544 181.102 87.9084 180.775C90.1163 179.957 92.0788 179.303 93.8779 178.73C95.1045 176.686 97.3941 174.56 98.4572 173.905C100.747 172.597 103.691 172.27 105.98 173.497C106.716 173.905 107.452 174.478 107.861 175.296C108.761 176.849 108.597 178.894 107.698 180.448C106.798 182.001 105.326 183.146 103.773 184.046C102.546 184.7 101.238 185.272 99.8475 185.191C97.9269 185.191 96.2413 184.094 94.6374 183.051L94.5321 182.983C94.433 182.983 94.364 182.923 94.2886 182.857C94.2395 182.814 94.1877 182.77 94.1232 182.737C91.1793 183.391 87.2542 184.536 83.0838 186.335C83.9833 187.235 85.0463 187.889 86.3547 188.38C86.4364 188.38 86.6 188.462 86.7636 188.543C86.8727 188.58 87.1223 188.668 87.4693 188.792C89.461 189.499 94.6624 191.345 94.941 190.997C96.74 188.952 98.9479 187.726 101.565 188.134C104.263 188.543 106.635 190.342 107.779 192.796C108.188 193.614 108.434 194.513 108.27 195.413C108.188 196.23 107.78 196.966 107.371 197.621C106.226 199.501 104.672 201.3 102.709 202.282C100.665 203.263 98.1301 203.345 96.3311 202.036C93.6326 200.156 92.4059 195.903 94.1232 193.123C94.1232 193.123 87.7448 191.569 87.0089 191.324C84.9645 190.67 82.1024 189.034 80.8758 187.399C77.4413 189.116 73.5979 191.487 70.2452 194.35C70.7358 195.085 71.8807 196.639 73.8433 197.375C74.4157 197.621 75.3152 197.948 76.5418 197.866C77.1415 197.816 77.5885 197.583 77.9574 197.39C78.1922 197.268 78.3954 197.162 78.5862 197.13C80.7941 196.639 83.1655 196.721 85.2098 197.866C87.6631 199.256 89.2985 202.118 88.8896 204.899C88.4808 207.679 85.864 210.051 83.0019 209.969C81.53 209.969 80.1399 209.233 78.9951 208.251C77.3596 206.943 75.8058 205.553 74.7428 203.836L73.5979 201.137C73.1891 200.074 72.9438 199.583 72.4531 198.929C71.8807 198.193 71.39 197.784 70.9811 197.457C70.4905 197.048 69.6728 196.557 68.6097 196.149C67.056 197.621 65.0935 199.665 63.2945 202.445C63.2945 202.445 62.4766 203.754 61.6589 205.144C51.6007 224.116 57.0796 240.308 58.4697 243.661C75.2334 233.03 96.3311 218.719 102.546 210.378C104.452 207.852 106.604 205.344 108.824 202.757C118.32 191.692 129.051 179.189 126.996 157.714C124.38 158.123 121.681 158.204 119.146 157.714C115.384 157.06 111.868 155.179 109.906 151.989C109.443 151.267 109.073 150.484 108.705 149.704C108.03 148.277 107.36 146.861 106.144 145.856C106.001 145.734 105.853 145.616 105.704 145.498C105.26 145.146 104.815 144.793 104.509 144.302C103.9 143.306 104.153 142.084 104.405 140.866C104.525 140.285 104.646 139.705 104.672 139.151C104.672 137.808 104.109 136.612 103.545 135.415C103.079 134.426 102.612 133.436 102.464 132.363C102.235 130.646 102.848 128.929 103.46 127.211C103.723 126.475 103.985 125.739 104.181 125.003C104.216 124.882 104.251 124.759 104.286 124.634C104.748 122.984 105.29 121.049 106.962 120.669C107.593 120.523 108.196 120.666 108.786 120.806C109.19 120.902 109.589 120.996 109.987 120.996C110.838 120.996 111.67 120.685 112.501 120.375C113.428 120.029 114.354 119.683 115.303 119.77C116.251 119.86 117 120.424 117.757 120.994C118.369 121.456 118.987 121.921 119.718 122.141C120.357 122.376 121.065 122.418 121.768 122.46C122.775 122.519 123.773 122.578 124.543 123.204C125.024 123.554 125.318 124.068 125.613 124.583C125.869 125.03 126.126 125.479 126.506 125.821C127.074 126.345 127.805 126.613 128.549 126.885C129.199 127.123 129.859 127.365 130.431 127.784C131.145 128.345 131.573 129.129 131.992 129.897C132.245 130.361 132.495 130.818 132.802 131.218C133.299 131.857 133.95 132.357 134.595 132.853C135.435 133.498 136.265 134.136 136.727 135.062C137.293 136.192 137.153 137.485 137.01 138.8C136.905 139.768 136.799 140.749 136.973 141.686C137.055 142.054 137.177 142.401 137.3 142.749C137.423 143.096 137.545 143.444 137.627 143.812C137.99 145.191 137.837 146.634 137.684 148.085C137.665 148.269 137.645 148.453 137.627 148.637C137.382 150.681 136.4 152.644 134.928 154.197C136.646 164.992 137.545 185.599 126.179 205.144C126.179 205.144 158.234 206.452 186.119 186.417C183.011 183.473 180.068 181.756 178.023 180.775C178.023 180.775 171.808 177.749 162.241 178.485C162.077 178.485 161.587 178.485 161.178 178.894C160.933 179.139 160.769 179.466 160.605 179.793C159.542 182.328 157.334 184.455 154.799 185.436C150.793 186.99 143.76 185.518 141.552 181.511C140.653 179.957 140.653 177.994 141.061 176.195C141.797 173.088 144.087 170.226 147.195 169.244C152.673 167.609 156.926 171.861 160.278 175.541C160.329 175.591 160.376 175.642 160.422 175.691C160.598 175.88 160.755 176.048 161.014 176.113H161.669C162.035 176.032 162.547 175.956 163.127 175.869C164.88 175.609 167.248 175.256 168.047 174.396C169.192 173.251 168.129 170.389 167.638 169.162C166.739 166.873 165.348 164.501 162.977 163.929C162.276 163.753 161.575 163.787 160.874 163.82C160.594 163.834 160.313 163.847 160.033 163.847C155.944 163.847 151.856 162.457 148.748 159.922C146.54 158.123 144.741 155.424 144.987 152.562C145.068 150.681 146.05 148.964 147.276 147.573C149.484 144.957 152.755 143.239 156.19 143.076C159.624 142.994 163.059 144.711 164.858 147.573C167.066 151.253 166.411 155.915 165.594 160.167C166.135 160.37 166.49 160.505 166.759 160.607C167.466 160.875 167.584 160.92 168.946 161.394C171.481 156.978 173.935 152.398 176.142 147.737L176.143 147.737C176.797 146.347 177.451 144.956 177.369 143.403C177.218 140.683 175.019 138.987 172.76 137.244C171.352 136.158 169.92 135.053 168.946 133.671C166.166 129.746 167.802 123.858 171.727 121.078C175.57 118.298 180.885 118.134 185.465 119.688C188.572 120.751 191.68 122.877 192.988 125.985C194.624 129.828 193.152 133.672 191.025 137.106C189.553 139.559 187.264 141.686 184.483 142.503C184.075 142.585 183.747 142.667 183.42 142.994C183.175 143.158 183.012 143.485 182.93 143.73C182.293 145.003 181.708 146.259 181.127 147.506C180.44 148.982 179.758 150.445 179.005 151.908C177.556 154.74 176.209 156.597 175.103 158.122C173.399 160.471 172.267 162.031 172.217 165.155C172.136 170.062 175.734 173.66 177.696 175.623C182.357 180.284 187.836 181.919 190.698 182.492C190.821 182.394 190.952 182.295 191.085 182.195C191.395 181.961 191.721 181.715 192.007 181.429C195.196 178.812 197.731 176.032 199.857 173.251C199.693 172.188 199.53 171.37 199.366 170.716C199.285 170.226 198.794 168.345 197.976 166.055C197.731 165.482 197.404 164.91 196.995 164.256C196.777 163.875 196.524 163.712 196.234 163.525C196.088 163.43 195.933 163.33 195.768 163.193C194.705 162.293 193.642 161.312 192.906 160.085C191.271 157.632 190.371 154.688 189.635 151.826C189.145 149.7 188.981 147.492 189.799 145.447C191.271 141.604 196.014 139.559 199.939 140.704C203.864 141.849 206.726 145.693 207.135 149.781C207.462 153.134 206.154 156.324 204.109 158.94C203.736 159.407 203.31 159.82 202.876 160.24C202.549 160.557 202.218 160.879 201.901 161.23C201.817 161.343 201.498 161.651 201.121 162.015C200.405 162.707 199.476 163.604 199.53 163.765C199.606 164.07 199.966 164.73 200.412 165.546C200.445 165.606 200.478 165.666 200.511 165.728C201.165 166.873 201.983 168.345 202.637 169.817C204.355 166.954 212.123 153.707 214.985 142.258C216.294 137.024 216.212 133.753 215.067 130.891C214.289 128.868 212.845 126.771 211.931 125.445C211.885 125.378 211.84 125.312 211.796 125.249C210.505 123.423 209.723 122.591 209.093 121.922C208.567 121.362 208.147 120.916 207.626 120.097C205.418 116.58 204.518 110.856 207.135 106.276C208.934 103.251 211.632 101.861 212.532 101.452C215.885 99.7344 219.973 99.6526 223.408 101.206C227.169 102.924 228.805 107.585 228.478 111.51C228.233 114.699 227.006 117.807 225.698 120.751C225.346 121.49 224.918 122.274 224.48 123.078C223.9 124.142 223.301 125.24 222.835 126.312C222.04 128.184 221.726 129.762 221.404 131.382C221.164 132.592 220.919 133.827 220.464 135.225C220.464 135.307 220.464 135.471 220.382 135.552C220.055 137.597 219.565 139.805 218.91 142.176C218.665 143.566 218.338 145.366 218.093 146.51C221.036 148.964 224.471 150.517 228.069 151.744C228.128 151.744 228.198 151.765 228.274 151.789C228.41 151.83 228.566 151.878 228.723 151.826C228.981 151.826 229.188 151.673 229.385 151.528C229.437 151.49 229.489 151.452 229.541 151.417C233.221 148.718 238.372 147.982 242.706 149.618C243.851 150.027 244.914 150.681 245.814 151.581C247.368 153.134 248.022 155.342 248.022 157.55C248.022 159.758 247.368 161.884 246.632 163.929C246.606 163.998 246.58 164.069 246.553 164.14C246.332 164.737 246.098 165.371 245.732 165.81C244.914 166.791 243.606 167.282 242.298 167.527C239.436 168.181 236.328 168.181 233.875 166.627C231.258 164.91 230.032 161.639 229.704 158.531L229.702 158.498C229.621 157.281 229.535 155.987 228.887 155.015C228.478 154.443 227.906 154.116 227.333 153.789L227.333 153.788C225.698 152.889 223.98 152.235 222.1 152.071C220.955 158.368 223.653 164.828 227.415 169.98C228.069 170.88 228.887 171.861 229.95 171.943C230.44 171.943 230.849 171.943 231.34 171.861C234.856 171.37 238.454 173.251 240.335 176.277C242.216 179.303 242.298 183.146 240.908 186.417C240.253 187.889 239.272 189.279 237.964 190.179C235.756 191.733 232.73 191.896 230.113 191.242C227.987 190.67 225.861 189.606 224.635 187.807C223.653 186.335 223.244 184.618 222.999 182.901C222.754 181.347 222.672 179.875 222.999 178.321C223.326 176.768 224.062 175.377 225.207 174.478C222.917 170.88 220.791 167.118 218.829 163.356C218.29 162.346 218.028 160.726 217.816 159.409C217.77 159.127 217.727 158.859 217.684 158.613C217.275 156.405 217.52 154.933 217.929 152.725C217.938 152.651 217.949 152.575 217.959 152.499C218.041 151.906 218.128 151.27 217.766 150.763C217.396 150.171 217.026 150.115 216.596 150.049C216.55 150.042 216.504 150.035 216.457 150.027C213.268 159.186 207.953 169.898 199.285 180.448C198.058 181.919 196.75 183.391 195.441 184.863C195.686 185.518 196.341 187.153 197.976 188.216C199.826 189.342 201.754 189.045 202.829 188.879L202.883 188.87C203.813 188.723 204.48 188.43 205.041 188.183C205.416 188.017 205.744 187.873 206.072 187.807C209.506 187.071 213.186 187.235 216.294 189.034C220.055 191.242 222.508 195.74 221.772 200.074C221.036 204.408 216.948 208.006 212.614 207.761C209.752 207.597 207.626 206.044 206.399 205.062C204.502 203.545 203.733 202.137 202.544 199.963C201.683 198.387 200.602 196.409 198.712 193.695C198.68 193.651 198.647 193.605 198.612 193.557C197.928 192.613 196.638 190.831 194.46 189.198C193.835 188.712 193.211 188.344 192.786 188.094C192.71 188.049 192.641 188.008 192.579 187.971C186.691 193.941 179.904 199.338 172.79 204.081C172.79 204.181 172.881 204.281 172.99 204.399C173.059 204.475 173.135 204.558 173.199 204.653C173.607 205.144 174.18 205.471 174.589 205.635C175.141 205.842 175.634 205.699 176.658 205.405C176.848 205.35 177.057 205.29 177.287 205.226C177.961 205.001 178.481 204.811 178.886 204.662C179.365 204.487 179.683 204.371 179.904 204.326C182.766 203.672 185.792 203.836 188.409 205.389C191.516 207.188 193.56 210.95 192.988 214.548C192.334 218.31 188.49 220.681 185.383 220.927C180.885 221.172 175.979 217.083 174.834 212.913C174.737 212.572 174.653 212.194 174.563 211.79C174.198 210.155 173.742 208.108 171.972 206.534C171.481 206.043 170.909 205.716 170.582 205.553C149.157 219.209 124.707 226.815 109.333 224.034C109.333 224.034 73.6797 248.404 64.6028 258.953C55.6076 269.502 37.2085 293.789 37.2085 293.789C37.2085 293.789 40.643 416.372 43.5051 417.599C44.5167 418.032 48.5114 416.28 54.3698 413.709C65.0861 409.007 82.0384 401.569 98.3755 399.771C99.275 399.69 100.174 399.608 101.074 399.444C101.238 392.902 101.892 384.479 103.691 374.83H102.709C98.7025 375.484 95.1863 377.937 91.9971 380.309C91.5882 380.554 91.2611 380.881 91.0976 381.29C90.934 381.699 91.0158 382.19 91.0976 382.598C91.3429 386.033 90.1981 389.549 87.9084 392.166C84.3921 396.173 75.8059 398.545 71.063 395.437C69.1822 394.211 68.0373 392.084 67.5466 389.876C66.5653 386.033 67.5467 381.535 70.327 378.755C75.4788 373.767 82.5113 376.056 88.3173 378.183C88.6444 378.346 89.0533 378.428 89.4621 378.346C89.7074 378.346 89.9528 378.101 90.1163 377.937C90.4858 377.629 91.0149 377.244 91.6094 376.811C93.3833 375.52 95.7388 373.806 96.1675 372.458C96.7399 370.577 94.0414 367.96 92.733 366.897C90.4434 364.935 87.4995 363.054 84.5556 363.79C83.5934 364.047 82.7821 364.504 81.9639 364.966C81.7392 365.093 81.5138 365.22 81.2847 365.344C76.8689 367.797 71.5536 368.533 66.5654 367.388C63.1309 366.652 59.6146 364.771 58.2244 361.5C57.3249 359.374 57.3249 356.921 57.8974 354.713C58.8786 350.542 61.4954 346.78 65.1752 344.736C68.8551 342.692 73.6798 342.528 77.3596 344.736C81.9389 347.516 83.8197 353.077 85.3734 358.147C86.6818 358.147 87.9084 358.147 89.2168 358.311C89.9528 349.97 90.0345 343.264 90.0345 338.521C90.0345 336.068 89.871 334.596 88.9715 333.042C87.264 330.129 83.8911 329.53 80.4247 328.913C78.2468 328.526 76.032 328.132 74.1703 327.154C68.9368 324.456 67.3831 316.932 69.9999 311.617C72.6166 306.301 78.5043 303.194 84.3921 302.294C88.399 301.722 93.0602 302.294 96.2494 304.911C100.256 308.182 100.747 313.334 100.42 318.322C100.174 321.839 98.8661 325.437 96.3311 327.972C96.2773 328.026 96.2214 328.079 96.1646 328.134C95.8762 328.411 95.5683 328.707 95.4316 329.117C95.268 329.444 95.2681 329.853 95.3499 330.262C95.3499 332.143 95.4316 334.023 95.5134 335.904C95.5951 337.785 95.6769 339.666 95.6769 341.547C95.6769 343.588 95.6316 345.648 95.5862 347.71C95.4953 351.844 95.4041 355.991 95.6769 360.028C96.0858 365.017 100.338 369.187 105.163 369.187C109.415 350.051 118.083 327.236 135.419 305.32C135.542 305.197 135.644 305.075 135.746 304.952C135.848 304.829 135.951 304.707 136.073 304.584C135.592 303.899 135.173 303.16 134.756 302.424C133.828 300.786 132.91 299.165 131.33 298.205C130.369 297.628 129.357 297.353 128.295 297.064C128.002 296.984 127.706 296.903 127.405 296.815C124.298 295.916 121.518 294.035 119.473 291.581C118.001 289.864 116.938 287.738 116.775 285.53C116.448 281.278 119.964 277.189 124.216 276.535C128.387 275.799 132.884 278.17 135.01 281.85C137.218 285.53 137.218 290.273 135.501 294.198C135.446 294.324 135.389 294.451 135.332 294.579C134.798 295.774 134.24 297.023 134.683 298.205C134.928 298.86 135.419 299.35 135.91 299.841C136.075 300.006 136.428 300.255 136.884 300.576C137.331 300.891 137.878 301.276 138.445 301.722C145.477 293.299 152.673 286.593 159.624 281.278C159.707 280.701 159.89 280.032 160.076 279.355C160.445 278.015 160.822 276.641 160.442 275.88C160.115 275.226 159.379 274.899 158.725 274.654C158.462 274.551 158.206 274.452 157.955 274.355C156.022 273.609 154.43 272.994 152.837 271.546C152.793 271.509 152.744 271.47 152.69 271.426C152.148 270.989 151.121 270.158 149.484 267.703C146.98 263.987 146.072 261.289 145.39 259.263C144.691 257.187 144.23 255.817 142.533 254.782C141.187 253.96 140.03 253.958 138.817 253.955C137.378 253.953 135.863 253.95 133.865 252.574C133.834 252.55 133.799 252.525 133.762 252.497C133.03 251.954 131.279 250.652 130.267 248.24C129.286 246.032 129.531 243.497 130.267 241.207C131.167 238.427 133.048 235.728 135.746 234.583C137.382 233.929 139.181 233.847 140.898 234.093C141.307 234.093 147.767 235.156 149.893 240.471C151.365 244.069 150.302 248.567 148.83 250.53C148.806 250.566 148.772 250.612 148.733 250.666C148.504 250.978 148.058 251.587 147.849 252.492C147.849 252.492 147.44 254.046 148.176 255.927C150.793 262.387 155.127 268.602 161.587 271.137C162.486 269.338 162.895 267.294 162.977 265.331C162.977 264.595 162.977 263.859 162.732 263.205C162.287 262.095 161.24 261.319 160.318 260.637C160.221 260.565 160.126 260.495 160.033 260.425C157.334 258.38 155.045 255.355 154.963 251.92C154.963 248.812 156.762 245.869 158.97 243.661C159.951 242.679 161.178 241.616 162.65 241.453C163.386 241.371 165.43 241.289 166.166 241.453C167.881 241.82 168.863 242.463 170.106 243.278C170.523 243.551 170.969 243.844 171.481 244.151C173.526 245.378 175.161 247.259 175.734 249.548C176.061 250.857 175.979 252.165 175.734 253.474C174.752 258.38 171.154 262.714 166.493 264.595C166.42 264.632 166.346 264.665 166.273 264.697C166.023 264.808 165.784 264.914 165.594 265.168C165.481 265.281 165.446 265.433 165.408 265.596C165.391 265.67 165.374 265.746 165.348 265.822C164.367 269.747 163.876 273.754 164.367 277.843C173.526 271.465 182.276 267.376 190.044 264.759C190.707 263.178 191.624 261.565 192.3 260.377C192.708 259.66 193.028 259.097 193.151 258.789C193.479 257.971 193.724 257.154 193.642 256.336C193.5 254.846 192.25 253.786 191.066 252.784C190.886 252.631 190.708 252.48 190.535 252.329C186.528 248.894 183.993 243.661 184.402 238.427C184.811 233.193 188.409 228.205 193.479 226.733C198.549 225.261 204.6 227.796 206.562 232.703C207.625 235.238 207.544 238.182 206.89 240.88C205.99 244.724 203.864 248.322 201.002 251.02C200.698 251.304 200.385 251.582 200.07 251.862C199.112 252.712 198.142 253.572 197.404 254.619C196.162 256.513 196.017 259.191 195.884 261.651C195.85 262.27 195.818 262.875 195.768 263.45C196.831 262.96 198.14 262.387 199.693 261.815C200.216 261.628 200.704 261.442 201.213 261.247C201.819 261.016 202.454 260.773 203.21 260.506C204.843 259.98 205.627 259.758 206.569 259.493C207.089 259.346 207.658 259.186 208.443 258.953C208.503 258.933 208.564 258.913 208.628 258.892C209.351 258.653 210.335 258.328 211.387 257.726C213.027 256.774 214.05 255.617 214.923 254.631C215.4 254.092 215.831 253.604 216.294 253.228C218.91 251.02 221.772 248.894 224.962 247.749C228.887 246.359 234.12 246.686 236.901 250.039C239.436 253.065 240.499 257.317 239.681 261.242C239.108 264.023 237.882 266.313 236.246 268.112C231.504 273.345 224.553 272.936 223.163 272.773C220.873 272.609 217.193 272.282 214.822 269.665C214.662 269.488 214.509 269.302 214.355 269.115C213.802 268.44 213.229 267.742 212.205 267.294C210.324 266.476 208.361 267.13 207.38 267.457C203.668 268.647 201.941 268.947 200.338 269.225C198.303 269.578 196.468 269.897 191.025 271.955C190.644 272.108 190.236 272.269 189.801 272.441C188.368 273.008 186.635 273.694 184.565 274.572C179.659 276.78 171.727 280.787 161.669 287.82C162.602 288.597 163.436 289.408 164.047 290.001C164.4 290.344 164.678 290.614 164.858 290.764C165.43 291.173 166.084 291.581 166.82 291.663C168.165 291.813 169.374 290.938 170.446 290.162C170.547 290.089 170.647 290.016 170.745 289.946C174.425 287.329 179.332 286.348 183.584 287.738C187.836 289.21 191.271 293.299 191.434 297.796C191.598 302.294 188.163 306.792 183.748 307.446C181.376 307.773 179.005 307.119 176.879 305.974C173.853 304.42 171.4 301.885 169.764 298.941C169.54 298.543 169.339 298.137 169.139 297.735C168.684 296.816 168.239 295.919 167.556 295.18C166.168 293.695 164.219 293.08 162.267 292.464C160.885 292.028 159.502 291.591 158.316 290.845C153.818 294.934 149.484 299.596 145.641 304.502C147.603 305.647 150.466 307.528 153.246 310.554C155.076 312.525 156.164 314.193 157.11 315.644C158.361 317.562 159.363 319.098 161.505 320.448C165.596 323.096 170.317 322.595 171.962 322.421L172.054 322.411C176.376 321.914 178.283 320.542 181.076 318.534C182.881 317.236 185.056 315.672 188.49 313.906C190.877 312.684 193.305 311.544 195.745 310.399C196.733 309.936 197.722 309.471 198.712 309C198.758 308.977 198.806 308.954 198.854 308.931C199.151 308.787 199.483 308.627 199.693 308.346C199.927 308.053 200.036 307.719 200.138 307.403C200.179 307.277 200.219 307.154 200.266 307.037C201.247 303.603 203.864 300.822 206.89 298.941C211.06 296.324 215.967 294.444 220.709 296.488C224.553 298.124 227.17 302.049 228.478 305.811C230.44 311.371 230.359 317.995 226.842 322.82C223.408 327.645 216.048 329.689 211.142 326.255C209.406 325.055 208.023 323.271 206.665 321.518C204.504 318.73 202.404 316.02 199.039 315.869C197.158 315.787 195.359 316.605 193.642 317.423C187.918 320.203 182.276 323.229 176.797 326.418C177.246 327.604 177.41 328.054 177.574 328.504C177.737 328.953 177.901 329.403 178.35 330.589C183.584 329.607 189.39 328.708 193.969 331.488C197.567 333.696 199.693 338.03 199.612 342.283C199.53 346.535 197.322 350.624 194.133 353.323C192.416 354.795 190.289 356.021 188 356.185C184.484 356.43 181.213 354.222 178.923 351.523C175.652 347.68 173.853 342.61 173.935 337.54C173.935 337.233 173.945 336.926 173.955 336.62C173.986 335.7 174.016 334.78 173.771 333.86C173.035 330.916 170.091 329.199 167.311 328.054C165.757 327.399 162.159 326.173 160.769 327.563C159.658 328.609 159.226 331.851 158.93 334.07C158.856 334.626 158.79 335.118 158.725 335.495C158.725 335.577 158.716 335.659 158.707 335.741C158.688 335.904 158.67 336.068 158.725 336.231C158.793 336.573 159.033 336.801 159.253 337.01C159.296 337.051 159.339 337.091 159.379 337.131C163.958 341.301 169.274 346.453 167.147 353.323C166.003 357.166 162.486 359.946 158.561 360.928C156.353 361.5 153.9 361.5 151.937 360.355C146.949 357.575 145.15 348.907 147.031 343.918C148.258 340.729 150.874 338.03 154.064 336.64C154.472 336.477 154.881 336.313 155.208 335.986C155.535 335.659 155.617 335.168 155.699 334.678C156.353 330.752 156.844 326.5 155.617 322.656C155.582 322.539 155.545 322.418 155.508 322.295C154.694 319.589 153.484 315.563 149.73 312.434C146.949 310.145 144.005 309.327 142.37 309C141.416 310.294 140.69 311.418 139.859 312.703C139.692 312.96 139.522 313.224 139.344 313.497C120.291 344.164 125.443 378.019 130.513 396.091C153.491 392.82 179.332 387.423 195.523 376.383C195.897 376.13 196.27 375.878 196.64 375.628C220.56 359.449 236.804 348.463 246.386 309.245C256.118 269.42 252.029 320.857 252.029 320.857C252.029 320.857 276.888 306.138 303.465 309.327C303.71 308.836 304.282 307.61 304.773 306.547C304.814 306.383 304.875 306.24 304.937 306.097C304.998 305.954 305.059 305.811 305.1 305.647C305.345 304.993 305.591 304.257 305.673 303.521C305.673 303.03 305.673 302.131 305.509 301.476C305.509 301.057 305.341 300.806 305.156 300.529C305.052 300.373 304.943 300.21 304.855 300.004C304.282 298.696 303.792 297.469 303.546 296.079C303.056 293.217 303.546 290.273 304.037 287.411C304.446 285.366 305.264 283.322 306.736 281.85C309.598 279.07 314.586 279.233 317.693 281.85C320.719 284.467 321.7 289.046 320.31 292.808C319.247 295.916 316.794 298.205 313.932 299.677C313.706 299.806 313.405 299.897 313.047 300.005C312.497 300.17 311.813 300.376 311.07 300.822C310.497 301.149 309.025 302.049 308.208 303.603C306.654 306.383 307.962 309.572 308.208 310.063C308.371 310.063 308.535 310.063 308.698 310.145C325.135 313.579 339.282 319.794 348.359 324.537C349.013 323.72 349.095 323.065 349.095 322.656C349.095 321.258 347.957 320.356 346.514 319.212C345.088 318.081 343.363 316.714 342.144 314.397C342.118 314.345 342.086 314.29 342.049 314.225C341.849 313.876 341.494 313.257 341.081 311.535C340.018 307.037 339.118 302.458 338.546 297.878C336.91 297.96 335.275 297.306 333.966 296.243C332.658 295.18 331.677 293.871 330.777 292.399C329.714 290.764 328.815 289.046 328.651 287.166C328.406 284.794 329.387 282.423 330.777 280.46C332.494 278.088 335.111 276.044 338.055 275.799C339.772 275.635 341.571 276.126 343.125 276.862C346.56 278.579 349.176 281.932 349.749 285.694C350.321 289.455 348.604 293.544 345.415 295.588C345.351 295.627 345.286 295.665 345.219 295.704C344.857 295.914 344.464 296.143 344.188 296.488C343.37 297.388 343.37 298.696 343.452 299.923C344.025 306.874 346.232 314.152 351.63 318.486C353.02 317.014 354.083 315.297 354.737 313.334C354.982 312.68 355.146 311.944 355.146 311.208C355.079 310.137 354.465 309.231 353.841 308.31C353.702 308.105 353.562 307.9 353.429 307.691C351.466 304.911 350.239 301.313 351.221 298.042C352.12 295.18 354.573 293.053 357.19 291.581C358.498 290.845 359.97 290.6 361.361 290.845C361.611 290.901 361.88 290.938 362.152 290.975C362.68 291.047 363.219 291.12 363.65 291.336C365.695 292.563 367.657 293.871 369.211 295.67C370.765 297.469 371.746 299.759 371.582 302.131C371.501 303.439 371.01 304.747 370.356 305.892C367.984 310.308 363.241 313.334 358.171 313.661C357.844 313.661 357.435 313.661 357.19 313.906C357.027 314.07 356.863 314.234 356.781 314.479C354.492 318.077 352.774 322.002 352.12 326.255C353.075 326.732 354.042 327.346 355.026 327.97C356.571 328.95 358.159 329.958 359.807 330.507C360.642 330.746 361.535 330.926 362.421 331.105C363.356 331.294 364.282 331.482 365.122 331.734L365.122 331.734C367.821 332.551 370.519 333.369 372.809 335.005C375.507 337.049 377.797 340.647 376.734 344.164C375.835 347.271 373.463 349.97 370.519 351.196C364.223 353.813 358.335 350.951 355.064 345.472C352.611 341.301 353.183 337.049 353.183 337.049C353.183 336.778 353.205 336.515 353.228 336.253C353.279 335.643 353.33 335.037 353.101 334.35C352.387 332.279 350.176 331.269 348.974 330.719C348.8 330.639 348.646 330.569 348.522 330.507C343.616 327.808 335.602 323.638 323.172 317.913C323.172 318.731 323.172 320.694 324.235 322.738C324.286 322.815 324.343 322.907 324.407 323.011C324.757 323.578 325.326 324.501 326.361 325.191C327.807 326.189 329.162 326.122 330.667 326.048C331.63 326 332.654 325.949 333.803 326.173C337.973 326.909 340.59 330.671 341.081 331.488C342.88 334.269 344.515 339.666 341.489 344.164C338.954 347.925 333.557 349.561 329.551 347.353C327.424 346.208 325.952 344.245 324.889 342.119C323.499 339.175 322.191 336.068 321.782 332.797C321.618 331.243 321.782 329.689 322.027 328.135C322.094 327.77 322.147 327.553 322.186 327.392C322.244 327.155 322.273 327.037 322.273 326.745C322.273 325.192 321.618 323.965 320.555 322.002C320.31 321.512 319.983 321.021 319.574 320.448L316.876 316.36C316.468 316.283 316.06 316.199 315.649 316.114C314.743 315.926 313.825 315.736 312.869 315.624C309.352 315.051 306.081 314.724 303.056 314.642C302.565 316.687 301.747 319.713 299.948 322.984C298.929 324.912 298.024 326.112 297.282 327.095C296.357 328.321 295.687 329.209 295.369 330.752C294.469 334.841 296.269 340.32 299.54 341.956C302.889 343.659 306.474 345.046 310.022 346.42C311.586 347.025 313.142 347.627 314.668 348.252C316.221 348.907 317.734 349.602 319.247 350.297C320.76 350.992 322.273 351.687 323.826 352.341C324.154 352.505 324.481 352.587 324.808 352.587C325.216 352.587 325.625 352.423 326.034 352.26L326.034 352.259C328.896 350.951 332.331 351.115 335.356 352.178C339.527 353.568 343.616 355.776 344.924 360.11C345.987 363.626 344.924 367.633 343.043 370.741C340.345 375.239 335.847 379 330.532 379.327C325.298 379.736 319.656 375.893 319.247 370.659C319.091 368.813 319.509 366.872 319.92 364.963C320.583 361.882 321.228 358.885 319.411 356.512C318.51 355.312 317.06 354.593 315.69 353.915C315.567 353.853 315.444 353.792 315.322 353.731C310.17 351.442 304.937 349.315 299.621 347.353C299.049 348.334 298.844 348.702 298.64 349.07C298.435 349.438 298.231 349.806 297.659 350.787C301.338 353.813 305.264 357.248 306 361.909C306.572 365.589 304.855 369.514 301.911 371.886C298.967 374.257 294.96 375.075 291.28 374.503C289.236 374.175 287.273 373.44 285.801 371.968C283.594 369.678 283.266 366.161 283.757 363.136C284.493 358.72 286.946 354.631 290.463 351.769C290.613 351.649 290.768 351.529 290.926 351.407C291.627 350.866 292.367 350.295 292.834 349.561C294.469 347.435 293.979 344.409 293.079 341.874C292.589 340.484 291.362 337.376 289.645 337.213C288.312 337.086 285.993 338.536 284.334 339.573C283.855 339.872 283.432 340.137 283.103 340.32C282.858 340.402 282.694 340.565 282.531 340.729C282.285 340.974 282.285 341.383 282.285 341.71C282.04 347.189 281.549 353.731 275.743 356.267C272.472 357.657 268.547 356.839 265.685 354.795C264.05 353.65 262.659 351.932 262.332 349.97C261.351 344.981 266.257 338.766 270.755 337.294C273.617 336.313 276.97 336.558 279.668 337.949C279.714 337.971 279.761 337.996 279.809 338.021C280.109 338.176 280.461 338.357 280.813 338.357C281.28 338.357 281.639 338.14 281.843 338.015C281.89 337.987 281.928 337.964 281.958 337.949C292.916 330.016 295.287 321.43 295.287 321.43C295.696 320.121 296.105 317.995 296.268 315.378C290.463 315.787 282.04 317.096 272.881 321.184C259.225 327.318 251.375 336.313 240.662 348.907C233.711 357.084 224.798 368.778 216.375 384.316C220.955 383.171 226.434 381.208 233.221 378.019C233.221 378.019 233.221 378.101 233.139 378.264L234.856 377.528C239.681 375.729 245.242 375.484 249.657 377.774C251.361 378.625 252.303 379.28 253.136 379.859C254.383 380.725 255.384 381.422 258.325 382.353C258.428 382.384 258.531 382.415 258.634 382.445C260.166 382.9 261.684 383.35 262.987 384.806C263.832 385.757 264.028 386.537 264.26 387.455C264.387 387.958 264.525 388.503 264.786 389.141C265.664 391.117 266.896 391.796 268.279 392.558C269.471 393.216 270.776 393.935 272.063 395.601C273.525 397.456 273.982 399.813 274.443 402.195C274.653 403.278 274.864 404.366 275.171 405.414C275.212 405.563 275.254 405.713 275.297 405.866C275.937 408.149 276.688 410.832 274.925 412.365C274.314 412.929 273.54 413.169 272.76 413.411C272.183 413.59 271.603 413.77 271.082 414.082C270.019 414.633 269.26 415.602 268.502 416.567C267.686 417.607 266.872 418.643 265.685 419.152C264.489 419.704 263.19 419.558 261.89 419.411C260.877 419.297 259.864 419.183 258.898 419.398C257.97 419.57 257.1 420.016 256.24 420.457C255.052 421.066 253.881 421.666 252.601 421.524C251.814 421.436 251.12 421.045 250.419 420.649C249.811 420.305 249.197 419.959 248.512 419.807C247.473 419.59 246.41 419.787 245.349 419.983C244.407 420.157 243.466 420.331 242.543 420.216C241.365 420.068 240.365 419.48 239.364 418.891C238.696 418.498 238.029 418.106 237.31 417.844C236.304 417.463 235.211 417.331 234.122 417.2C232.644 417.022 231.175 416.846 229.95 416.045C228.53 415.099 227.795 413.511 227.064 411.931C226.784 411.326 226.505 410.723 226.188 410.157C226.1 410.04 225.991 409.88 225.861 409.69C225.629 409.35 225.329 408.912 224.962 408.44C224.525 407.949 224.017 407.531 223.508 407.113C223.253 406.904 222.999 406.695 222.754 406.477C221.936 405.659 221.282 404.678 220.709 403.615C217.111 400.017 211.796 395.846 204.518 392.739C181.785 406.068 154.227 412.038 119.964 419.071C114.076 420.297 108.188 422.096 102.464 424.386C104.181 433.627 110.642 455.788 134.847 469.118C135.583 465.274 135.337 461.349 134.683 457.505C134.683 457.26 134.683 457.015 134.438 456.851C134.308 456.591 134.074 456.486 133.819 456.372C133.754 456.342 133.687 456.312 133.62 456.279C129.122 454.071 125.851 449.491 125.279 444.503C125.115 443.195 125.116 441.804 125.524 440.578C126.26 438.37 128.059 436.571 130.186 435.508C130.49 435.355 130.778 435.208 131.055 435.066C132.709 434.22 133.96 433.58 135.992 433.3C136.728 433.218 138.608 433.3 139.344 433.545C140.734 433.79 141.798 434.853 142.779 435.998C144.823 438.37 146.459 441.396 146.131 444.585C145.804 448.019 143.269 450.8 140.407 452.681C140.271 452.768 140.133 452.855 139.995 452.942C138.979 453.581 137.968 454.217 137.463 455.297C137.136 455.952 137.055 456.688 137.055 457.424C136.973 459.468 137.3 461.431 138.036 463.393C144.741 461.349 149.484 455.461 152.592 449.164C153.164 448.101 153.655 446.875 153.246 445.73C153.082 445.239 152.755 444.83 152.428 444.422L152.428 444.421C150.22 441.314 150.138 436.898 152.101 433.545C154.064 430.192 157.743 428.148 161.587 427.821C163.304 427.657 165.103 427.902 166.739 428.72C169.355 430.11 170.991 432.891 171.727 435.753C172.299 438.124 172.299 440.66 171.154 442.786C169.928 445.075 168.129 446.302 167.229 446.793C166.462 447.253 165.767 447.425 165.144 447.58L165.021 447.611C163.041 447.926 161.779 447.869 160.744 447.823C159.899 447.785 159.206 447.754 158.398 447.938C156.446 448.402 155.577 450.135 154.2 452.879C153.154 454.965 151.814 457.634 149.484 460.777C148.503 462.085 147.603 463.148 146.131 464.211C144.087 465.683 141.879 466.583 141.879 466.583C141.352 466.798 140.924 466.951 140.569 467.077C139.711 467.382 139.282 467.534 138.935 468.055C138.363 469.036 138.445 470.917 139.344 471.489C140.104 471.973 140.922 472.281 141.798 472.611C141.959 472.672 142.123 472.734 142.288 472.798C149.239 475.66 155.944 477.214 162.323 477.868C165.512 474.351 166.493 471.326 166.82 469.199C166.902 468.545 166.902 468.218 166.902 467.697C166.902 467.175 166.902 466.46 166.984 465.029L166.987 464.988C167.312 460.844 167.478 458.725 168.619 456.524C169.519 454.725 170.909 453.09 172.708 452.108C176.142 450.309 180.804 451.863 182.93 455.134C185.056 458.405 184.647 462.985 182.276 466.092C179.986 469.2 175.979 470.917 172.136 470.835C171.983 470.835 171.814 470.829 171.635 470.823C170.659 470.788 169.354 470.742 168.456 471.571C168.129 471.898 167.802 472.307 167.229 474.515C166.82 475.987 166.575 477.214 166.493 478.195C174.016 478.522 180.722 477.704 186.937 476.314C190.044 472.471 191.025 469.118 191.352 466.746C191.427 466.221 191.434 465.919 191.442 465.51C191.452 465.027 191.465 464.394 191.598 463.066C191.617 462.862 191.636 462.662 191.654 462.466C192.024 458.524 192.22 456.432 193.233 454.562C194.215 452.762 195.523 451.045 197.322 450.146C200.757 448.347 205.418 449.9 207.544 453.171C209.67 456.442 209.261 461.022 206.89 464.129C204.6 467.237 200.593 468.954 196.75 468.954C196.611 468.954 196.448 468.945 196.265 468.934C195.368 468.883 194.021 468.807 193.07 469.69C192.579 470.181 192.334 470.753 192.007 471.898C191.516 473.288 191.352 474.433 191.271 475.251C192.988 475.251 195.932 475.169 199.203 473.779C202.801 472.225 205.009 470.017 205.499 469.445C206.057 468.848 206.323 468.483 206.62 468.078C206.933 467.65 207.279 467.177 208.034 466.337C209.425 464.784 210.896 463.312 212.777 462.33C214.985 461.104 218.174 460.858 220.137 462.657C221.936 464.293 222.917 466.664 222.754 469.118C222.59 471.571 221.364 473.861 219.401 475.251C216.702 477.214 213.023 477.214 209.752 476.723C208.867 476.569 208.363 476.452 207.94 476.353C207.464 476.242 207.092 476.155 206.399 476.069C202.801 475.742 199.612 477.295 196.995 479.176C197.322 479.503 197.649 479.83 198.058 480.076C200.52 481.744 203.677 482.255 206.629 482.732L206.89 482.774C207.544 482.856 208.28 482.938 209.016 482.774C209.703 482.637 210.275 482.268 210.829 481.911C210.934 481.843 211.038 481.776 211.142 481.711C214.004 479.912 217.275 478.358 220.709 478.44C224.144 478.44 227.742 480.403 228.805 483.674C229.459 485.555 229.132 487.681 228.478 489.562C227.905 491.443 226.924 493.16 225.534 494.55C222.672 497.412 218.011 498.23 214.331 496.595C210.651 494.877 208.28 490.707 208.689 486.7C205.581 485.8 202.556 484.655 199.693 483.347C197.894 482.529 195.768 481.466 194.133 479.994C192.252 480.403 189.308 480.975 185.547 481.466C185.547 481.684 185.474 481.902 185.401 482.12C185.365 482.229 185.328 482.338 185.301 482.447C184.32 486.618 184.484 490.87 185.301 495.041C185.301 495.286 185.301 495.531 185.547 495.695C185.677 495.955 185.91 496.06 186.165 496.175C186.231 496.204 186.297 496.234 186.364 496.267C190.862 498.475 194.133 503.055 194.705 508.043C194.709 508.089 194.714 508.136 194.718 508.184C194.802 509.084 194.926 510.416 194.46 511.968C193.07 516.303 187.918 519.247 183.175 518.919C182.357 518.919 179.659 518.592 177.287 516.548C174.834 514.504 173.607 511.151 173.853 507.961C174.18 504.527 176.715 501.746 179.577 499.866C179.714 499.778 179.851 499.691 179.989 499.605C181.005 498.966 182.017 498.329 182.521 497.249C182.848 496.595 182.93 495.859 182.93 495.123C183.012 493.078 182.684 491.116 181.948 489.235C175.325 491.279 170.5 497.167 167.393 503.382C166.82 504.445 166.33 505.672 166.739 506.817C166.902 507.307 167.229 507.716 167.556 508.125C169.764 511.233 169.846 515.648 167.883 519.001C165.921 522.272 162.241 524.398 158.398 524.726C156.599 524.889 154.8 524.644 153.246 523.826C150.629 522.518 148.994 519.655 148.258 516.793C147.685 514.422 147.685 511.887 148.83 509.761C149.889 507.724 151.435 506.661 152.74 505.764L152.755 505.754C154.785 504.382 156.373 503.967 157.89 503.571C158.634 503.377 159.361 503.187 160.115 502.891C163 501.815 163.98 500.285 165.205 498.373C166.307 496.654 167.605 494.626 170.664 492.342C172.61 490.89 174.474 489.94 176.081 489.121C178.727 487.773 180.673 486.781 181.131 484.492C181.376 483.429 181.131 482.447 180.967 481.875C172.79 482.693 162.241 482.856 151.283 480.975C150.057 482.938 149.157 486.291 149.157 488.253C149.157 489.636 149.222 490.767 149.279 491.762C149.414 494.119 149.505 495.708 148.585 498.066C148.258 498.966 146.867 502.401 143.515 503.546C140.162 504.69 135.828 503.218 134.274 500.356C133.775 499.429 133.711 498.626 133.649 497.839C133.64 497.723 133.63 497.609 133.62 497.494C133.375 493.242 135.583 488.908 139.262 486.618C140.188 486.045 141.162 485.614 142.131 485.185C142.96 484.819 143.786 484.453 144.578 484.001C146.131 483.183 147.522 481.875 148.094 480.239C140.98 478.767 133.865 476.314 127.16 472.552C106.962 461.104 91.5883 443.849 83.738 433.872C63.1309 446.22 47.5938 463.148 47.4303 475.578C47.4303 481.221 48.1662 500.356 48.1662 500.356C48.2578 502.005 48.3494 503.691 48.4427 505.411C48.6829 509.835 48.9349 514.477 49.2293 519.247L48.0845 518.919C48.0845 519.176 48.1515 519.41 48.2155 519.634C48.2739 519.838 48.3298 520.033 48.3298 520.228C48.5817 524.511 48.773 528.903 48.9644 533.296C49.27 540.312 49.5757 547.332 50.1289 553.92C50.8648 562.752 52.0096 571.011 54.4629 578.616C57.6521 588.184 61.9042 596.362 68.0373 603.558C74.1703 610.591 81.3664 616.233 89.135 621.222L173.444 677.811C173.905 678.917 173.69 679.608 173.415 680H507V0ZM129.898 680C128.621 679.515 128.223 678.792 128.223 678.792C125.456 677.251 120.261 673.431 114.183 668.962C106.069 662.996 96.3824 655.874 88.8079 651.479C88.8079 651.479 35.0975 612.787 33.6959 680H129.898Z" fill="#E4E8FC"/>
<defs>
<linearGradient id="paint0_linear_9292_48064" x1="388.5" y1="340" x2="-266.5" y2="954.5" gradientUnits="userSpaceOnUse">
<stop stop-color="#CAD1F9"/>
<stop offset="1" stop-color="white" stop-opacity="0"/>
</linearGradient>
</defs>
</svg>
