<svg width="375" height="151" viewBox="0 0 375 151" fill="none" xmlns="http://www.w3.org/2000/svg">
<path d="M0 0H375V151H0V0Z" fill="#E4E8FC"/>
<path d="M0 0H375V151H0V0Z" fill="url(#paint0_linear_9302_48148)"/>
<path fill-rule="evenodd" clip-rule="evenodd" d="M171.398 151H195.341C201.147 145.85 202.497 140.967 202.497 140.967C202.798 140.003 203.1 138.436 203.221 136.507C198.937 136.808 192.724 137.773 185.967 140.786C180.071 143.432 175.642 146.8 171.398 151ZM202.515 151H222.351C222.218 150.455 222.112 149.904 222.043 149.346C221.922 148.2 222.043 147.055 222.224 145.91C222.273 145.641 222.312 145.481 222.341 145.362C222.383 145.187 222.405 145.1 222.405 144.885C222.405 143.74 221.922 142.836 221.138 141.389C220.957 141.028 220.715 140.666 220.414 140.244L218.423 137.23C218.122 137.174 217.821 137.112 217.518 137.049C216.85 136.911 216.173 136.771 215.467 136.688C212.873 136.266 210.46 136.025 208.228 135.964C207.866 137.471 207.262 139.701 205.935 142.113C205.184 143.534 204.515 144.419 203.968 145.143C203.286 146.047 202.791 146.701 202.557 147.839C202.339 148.828 202.336 149.927 202.515 151ZM237.45 151H245.258C245.24 150.836 245.206 150.667 245.148 150.491C244.621 148.964 242.99 148.219 242.103 147.814C241.974 147.755 241.861 147.704 241.769 147.658C238.15 145.669 232.238 142.595 223.068 138.375V138.376C223.068 138.978 223.068 140.425 223.852 141.932C223.89 141.988 223.932 142.056 223.979 142.133C224.237 142.55 224.657 143.231 225.421 143.74C226.488 144.475 227.487 144.426 228.597 144.371C229.307 144.336 230.063 144.299 230.911 144.463C233.987 145.006 235.918 147.778 236.28 148.381C236.725 149.069 237.157 149.975 237.45 151ZM259.722 151H374.778V0H148.172C148.109 0.296013 148.05 0.59017 147.991 0.886259C147.814 1.77847 147.633 2.68823 147.298 3.71923C147.298 3.77951 147.297 3.90006 147.237 3.96034C146.996 5.46723 146.634 7.09467 146.151 8.84267C145.97 9.86735 145.729 11.1934 145.548 12.0373C147.72 13.8456 150.253 14.9908 152.908 15.8949C152.951 15.8949 153.003 15.9106 153.059 15.9279C153.159 15.9584 153.275 15.9937 153.39 15.9552C153.581 15.9552 153.734 15.8427 153.879 15.736C153.917 15.7074 153.955 15.6793 153.994 15.6538C156.708 13.6647 160.509 13.1222 163.706 14.3278C164.551 14.6291 165.335 15.1114 165.999 15.7744C167.145 16.9196 167.628 18.5471 167.628 20.1745C167.628 21.802 167.145 23.3691 166.602 24.876C166.583 24.9273 166.564 24.9793 166.544 25.0316C166.381 25.4716 166.208 25.9392 165.939 26.2624C165.335 26.9857 164.37 27.3474 163.405 27.5282C161.293 28.0104 159.001 28.0104 157.191 26.8651C155.261 25.5994 154.356 23.1883 154.114 20.8978L154.113 20.8729C154.053 19.976 153.989 19.0226 153.511 18.306C153.21 17.8841 152.787 17.643 152.365 17.4019L152.365 17.4018C151.158 16.7388 149.892 16.2566 148.504 16.136C147.659 20.7773 149.65 25.5391 152.425 29.3365C152.908 29.9995 153.511 30.7228 154.295 30.7831H154.296C154.657 30.7831 154.959 30.7831 155.321 30.7228C157.915 30.3611 160.569 31.7475 161.957 33.9777C163.344 36.2079 163.405 39.0408 162.379 41.4519C161.897 42.5368 161.173 43.5615 160.207 44.2246C158.579 45.3698 156.346 45.4904 154.416 45.0082C152.848 44.5862 151.279 43.8026 150.374 42.4766C149.65 41.3916 149.349 40.1258 149.168 38.86C148.987 37.7148 148.926 36.6298 149.168 35.4846C149.409 34.3393 149.952 33.3147 150.796 32.6516C149.107 29.9995 147.539 27.2268 146.091 24.4541C145.693 23.7096 145.501 22.5155 145.344 21.5449C145.31 21.3368 145.278 21.139 145.246 20.9581C144.945 19.3307 145.126 18.2457 145.427 16.6182C145.434 16.5634 145.442 16.5077 145.45 16.4515C145.51 16.0141 145.574 15.5455 145.307 15.1716C145.034 14.7356 144.761 14.6938 144.444 14.6453C144.41 14.6401 144.376 14.6349 144.341 14.6291C141.989 21.38 138.067 29.2762 131.673 37.0517C130.768 38.1367 129.803 39.2217 128.837 40.3066L128.837 40.3066C129.018 40.7889 129.501 41.9944 130.708 42.778C132.072 43.6077 133.494 43.3885 134.287 43.2663L134.327 43.2601C135.014 43.1518 135.506 42.9353 135.919 42.7533C136.196 42.6314 136.438 42.5249 136.68 42.4766C139.214 41.9341 141.928 42.0546 144.221 43.3807C146.996 45.0081 148.806 48.3233 148.263 51.518C147.72 54.7126 144.703 57.3647 141.506 57.1839C139.395 57.0633 137.826 55.9181 136.921 55.1948C135.522 54.0763 134.954 53.0389 134.077 51.4361C133.442 50.2749 132.644 48.817 131.251 46.8164C131.227 46.784 131.202 46.75 131.176 46.7142C130.672 46.0183 129.72 44.7052 128.113 43.5013C127.653 43.1432 127.192 42.872 126.879 42.6876C126.823 42.6547 126.772 42.6245 126.726 42.5971C122.382 46.9973 117.375 50.9755 112.127 54.4715C112.127 54.545 112.194 54.6186 112.274 54.7059C112.325 54.7616 112.381 54.8229 112.428 54.8934C112.73 55.255 113.152 55.4962 113.454 55.6167C113.861 55.7692 114.225 55.6645 114.981 55.4471C115.121 55.4068 115.275 55.3625 115.445 55.3153C115.942 55.1497 116.326 55.0094 116.624 54.9001C116.977 54.7708 117.212 54.685 117.375 54.6523C119.487 54.1701 121.719 54.2906 123.649 55.4359C125.942 56.7619 127.45 59.5346 127.028 62.1868C126.545 64.9595 123.71 66.7075 121.417 66.8883C118.099 67.0691 114.48 64.0553 113.635 60.9813C113.563 60.7305 113.501 60.4513 113.435 60.1535C113.166 58.9485 112.83 57.4397 111.524 56.2797C111.162 55.9181 110.739 55.677 110.498 55.5564C94.6924 65.6225 76.6546 71.2281 65.3131 69.1788C65.3131 69.1788 39.0105 87.141 32.3143 94.9165C25.6783 102.692 12.1048 120.594 12.1048 120.594C12.1048 120.594 12.4878 134.252 13.08 151H50.8728C50.7544 150.48 50.5713 150.009 50.2917 149.526C49.0321 147.379 46.5438 146.937 43.9866 146.483C42.3798 146.198 40.7459 145.908 39.3725 145.187C35.5116 143.197 34.3654 137.652 36.2959 133.734C38.2263 129.816 42.5698 127.526 46.9134 126.863C49.8694 126.441 53.3081 126.863 55.6608 128.792C58.6169 131.203 58.9788 135 58.7375 138.677C58.5565 141.269 57.5913 143.921 55.7211 145.789C55.6815 145.829 55.6402 145.869 55.5984 145.909C55.3856 146.113 55.1584 146.331 55.0575 146.633C54.9369 146.874 54.9369 147.176 54.9972 147.477C54.9972 148.651 55.0405 149.826 55.0904 151H70.8888C74.3403 143.768 78.8011 136.364 84.5574 129.093C84.6479 129.003 84.7233 128.912 84.7987 128.822C84.8742 128.731 84.9496 128.641 85.04 128.55C84.6847 128.046 84.3757 127.501 84.0682 126.958C83.3838 125.751 82.7065 124.556 81.5411 123.849C80.8316 123.424 80.0851 123.221 79.3015 123.007C79.0856 122.949 78.8669 122.889 78.6454 122.824C76.353 122.161 74.3019 120.775 72.7937 118.967C71.7078 117.701 70.9235 116.134 70.8029 114.506C70.5616 111.372 73.1556 108.358 76.2927 107.876C79.3693 107.333 82.6873 109.081 84.2558 111.794C85.8846 114.506 85.8846 118.002 84.6177 120.895C84.577 120.988 84.5352 121.082 84.4932 121.176C84.0992 122.057 83.6874 122.977 84.0145 123.849C84.1955 124.331 84.5574 124.693 84.9194 125.054C85.0412 125.176 85.3014 125.359 85.6379 125.596C85.968 125.829 86.3713 126.112 86.7895 126.441C91.9776 120.232 97.2864 115.29 102.414 111.372C102.475 110.947 102.611 110.454 102.748 109.955C103.019 108.967 103.298 107.954 103.017 107.394C102.776 106.911 102.233 106.67 101.751 106.489C101.557 106.413 101.368 106.341 101.183 106.269C99.757 105.719 98.582 105.266 97.4071 104.199C97.3744 104.172 97.3383 104.143 97.2987 104.111C96.8992 103.788 96.1411 103.176 94.9337 101.366C93.0863 98.6272 92.4163 96.6382 91.9132 95.1449C91.3978 93.6148 91.0576 92.6051 89.8058 91.8425C88.8129 91.2362 87.9587 91.2347 87.0645 91.2331C86.0028 91.2313 84.8847 91.2293 83.4112 90.215C83.3877 90.1975 83.3622 90.1785 83.3346 90.158C82.7952 89.7575 81.5029 88.7981 80.7568 87.0204C80.0329 85.3929 80.2138 83.5244 80.7568 81.8367C81.4204 79.7873 82.808 77.7982 84.7988 76.9543C86.0053 76.4721 87.3324 76.4119 88.5993 76.5927C88.9009 76.5927 93.6668 77.3763 95.2353 81.2942C96.3212 83.9463 95.5369 87.2615 94.451 88.7081C94.4331 88.735 94.4086 88.7685 94.3791 88.8086C94.2103 89.0388 93.8813 89.4875 93.7271 90.1547C93.7271 90.1547 93.4255 91.3 93.9684 92.6863C95.8989 97.4481 99.0962 102.029 103.862 103.898C104.526 102.572 104.827 101.065 104.888 99.618V99.618C104.888 99.0755 104.888 98.533 104.707 98.0509C104.379 97.2324 103.606 96.661 102.926 96.1576C102.855 96.1049 102.784 96.0529 102.716 96.0015C100.725 94.4946 99.0359 92.2644 98.9755 89.7328C98.9755 87.4423 100.303 85.2724 101.932 83.645C102.656 82.9216 103.56 82.1381 104.646 82.0175C105.189 81.9572 106.697 81.897 107.24 82.0175C108.506 82.2885 109.23 82.7624 110.147 83.3633C110.454 83.5644 110.783 83.7798 111.162 84.0066C112.67 84.9107 113.876 86.2971 114.299 87.9848C114.54 88.9492 114.48 89.9137 114.299 90.8781C113.575 94.4946 110.92 97.6892 107.482 99.0755C107.427 99.1027 107.373 99.1267 107.319 99.1505C107.135 99.2324 106.958 99.3106 106.818 99.4975C106.735 99.5807 106.709 99.6927 106.681 99.8135C106.669 99.8677 106.656 99.9237 106.637 99.9797C105.913 102.873 105.551 105.826 105.913 108.84C112.67 104.139 119.125 101.125 124.856 99.1961C125.345 98.0309 126.022 96.8423 126.52 95.9663C126.821 95.4376 127.057 95.0229 127.148 94.796C127.39 94.1932 127.571 93.5905 127.51 92.9877C127.405 91.8892 126.483 91.1084 125.61 90.3696C125.477 90.2572 125.345 90.1457 125.218 90.0342C122.262 87.5026 120.392 83.645 120.693 79.7873C120.995 75.9296 123.649 72.2528 127.39 71.1679C131.13 70.0829 135.594 71.9515 137.042 75.568C137.826 77.4366 137.766 79.6065 137.283 81.5956C136.62 84.4286 135.051 87.0807 132.94 89.0698C132.716 89.2786 132.484 89.4838 132.252 89.6898C131.546 90.3163 130.83 90.9508 130.285 91.7219C129.369 93.1186 129.262 95.0923 129.164 96.9055C129.139 97.3616 129.115 97.8076 129.079 98.2317C129.863 97.87 130.828 97.4481 131.974 97.0262C132.36 96.8886 132.72 96.7511 133.095 96.6078C133.543 96.4372 134.011 96.2584 134.569 96.0618C135.773 95.6735 136.352 95.5103 137.047 95.3145C137.431 95.2063 137.85 95.0882 138.429 94.9165C138.473 94.902 138.519 94.887 138.565 94.8715C139.099 94.6953 139.825 94.4557 140.601 94.0124C141.811 93.3107 142.566 92.4578 143.21 91.7308C143.561 91.3336 143.88 90.974 144.221 90.6972C146.151 89.0698 148.263 87.5026 150.615 86.6587C153.511 85.634 157.372 85.8751 159.423 88.3465C161.293 90.5767 162.078 93.711 161.474 96.6043C161.052 98.6536 160.147 100.341 158.941 101.667C155.442 105.525 150.314 105.224 149.288 105.103C147.599 104.983 144.884 104.741 143.135 102.813C143.017 102.682 142.905 102.545 142.791 102.407C142.383 101.91 141.96 101.395 141.204 101.065C139.817 100.462 138.369 100.944 137.645 101.185C134.907 102.062 133.633 102.283 132.45 102.488C130.949 102.748 129.595 102.983 125.58 104.5C125.298 104.613 124.997 104.732 124.676 104.859C123.619 105.277 122.34 105.782 120.814 106.429C117.194 108.057 111.343 111.01 103.922 116.194C104.611 116.767 105.227 117.365 105.677 117.802C105.937 118.054 106.143 118.254 106.275 118.364C106.697 118.665 107.18 118.967 107.723 119.027C108.715 119.137 109.607 118.492 110.398 117.92C110.472 117.866 110.546 117.813 110.619 117.761C113.333 115.832 116.953 115.109 120.09 116.134C123.227 117.219 125.761 120.232 125.881 123.548C126.002 126.863 123.468 130.178 120.211 130.66C118.461 130.901 116.712 130.419 115.143 129.575C112.911 128.43 111.101 126.561 109.895 124.391C109.729 124.098 109.581 123.798 109.434 123.502C109.098 122.825 108.769 122.164 108.266 121.619C107.242 120.525 105.804 120.071 104.364 119.617C103.345 119.296 102.324 118.974 101.449 118.424C98.131 121.438 94.9336 124.874 92.0983 128.49C93.5461 129.334 95.6576 130.72 97.7087 132.951C99.0593 134.404 99.8619 135.633 100.56 136.702C101.482 138.116 102.221 139.248 103.802 140.244C106.82 142.195 110.302 141.826 111.516 141.698L111.584 141.691C114.772 141.324 116.18 140.313 118.24 138.833C119.572 137.876 121.176 136.723 123.71 135.422C125.47 134.521 127.262 133.681 129.062 132.837C129.791 132.495 130.521 132.153 131.251 131.805C131.284 131.788 131.319 131.772 131.355 131.754C131.574 131.649 131.819 131.53 131.974 131.323C132.147 131.108 132.227 130.861 132.303 130.628C132.333 130.535 132.362 130.445 132.397 130.359C133.121 127.827 135.051 125.778 137.283 124.391C140.36 122.463 143.98 121.076 147.478 122.583C150.314 123.789 152.244 126.682 153.21 129.455C154.657 133.553 154.597 138.436 152.003 141.992C149.469 145.548 144.04 147.055 140.42 144.524C139.14 143.639 138.12 142.325 137.117 141.033C135.523 138.977 133.974 136.98 131.492 136.868C130.104 136.808 128.777 137.411 127.51 138.014C123.287 140.063 119.125 142.293 115.083 144.644C115.415 145.518 115.535 145.85 115.656 146.181C115.777 146.513 115.897 146.844 116.229 147.718C120.09 146.995 124.373 146.332 127.752 148.381C128.819 149.036 129.711 149.944 130.392 151H159.772C162.341 145.812 164.553 139.626 166.421 131.986C173.6 102.632 170.584 140.545 170.584 140.545C170.584 140.545 188.923 129.696 208.529 132.046C208.71 131.685 209.133 130.781 209.495 129.997C209.525 129.876 209.57 129.771 209.615 129.666C209.66 129.56 209.706 129.455 209.736 129.334C209.917 128.852 210.098 128.309 210.158 127.767C210.158 127.405 210.158 126.742 210.037 126.26C210.037 125.951 209.914 125.766 209.777 125.561C209.7 125.447 209.62 125.326 209.555 125.175C209.133 124.211 208.771 123.306 208.59 122.282C208.228 120.172 208.59 118.002 208.952 115.892C209.253 114.386 209.856 112.879 210.942 111.794C213.054 109.744 216.734 109.865 219.026 111.794C221.258 113.723 221.982 117.098 220.957 119.871C220.172 122.161 218.363 123.849 216.251 124.934C216.085 125.029 215.862 125.096 215.599 125.175C215.192 125.297 214.688 125.449 214.14 125.778C213.717 126.019 212.632 126.682 212.028 127.827C210.882 129.877 211.847 132.227 212.028 132.589H212.028C212.149 132.589 212.27 132.589 212.39 132.649C224.516 135.181 234.953 139.762 241.649 143.258C242.131 142.655 242.192 142.173 242.192 141.871C242.192 140.841 241.353 140.176 240.288 139.333C239.236 138.499 237.964 137.491 237.064 135.784C237.045 135.745 237.021 135.704 236.994 135.656C236.847 135.4 236.585 134.943 236.28 133.674C235.496 130.359 234.832 126.983 234.41 123.608C233.203 123.668 231.996 123.186 231.031 122.402C230.066 121.619 229.342 120.654 228.678 119.569C227.894 118.364 227.231 117.098 227.11 115.712C226.929 113.964 227.653 112.216 228.678 110.769C229.945 109.021 231.876 107.514 234.048 107.333C235.314 107.213 236.642 107.574 237.788 108.117C240.322 109.383 242.252 111.854 242.674 114.627C243.097 117.399 241.83 120.413 239.477 121.92C239.43 121.948 239.382 121.976 239.333 122.005C239.066 122.16 238.776 122.329 238.572 122.583C237.969 123.246 237.969 124.211 238.029 125.115C238.451 130.238 240.08 135.603 244.062 138.797C245.087 137.712 245.872 136.447 246.354 135C246.535 134.518 246.656 133.975 246.656 133.433C246.607 132.644 246.154 131.976 245.693 131.297C245.591 131.146 245.488 130.994 245.389 130.841C243.941 128.792 243.036 126.139 243.76 123.728C244.424 121.619 246.234 120.052 248.164 118.967C249.129 118.424 250.215 118.243 251.241 118.424C251.425 118.465 251.624 118.492 251.825 118.52C252.214 118.573 252.612 118.627 252.93 118.786C254.438 119.69 255.886 120.654 257.032 121.98C258.178 123.306 258.902 124.994 258.782 126.742C258.721 127.707 258.359 128.671 257.877 129.515C256.127 132.77 252.628 135 248.888 135.241C248.647 135.241 248.345 135.241 248.164 135.422C248.043 135.542 247.923 135.663 247.863 135.844C246.173 138.496 244.906 141.389 244.424 144.524C245.128 144.875 245.842 145.328 246.568 145.788C247.708 146.511 248.879 147.253 250.095 147.658C250.711 147.834 251.37 147.967 252.023 148.099C252.713 148.238 253.396 148.376 254.016 148.562L254.016 148.562C256.007 149.165 257.997 149.768 259.687 150.973C259.698 150.982 259.71 150.991 259.722 151ZM80.3465 151H99.4707C99.4885 150.912 99.5035 150.822 99.5185 150.732C100.001 147.839 100.363 144.704 99.4582 141.871C99.4319 141.785 99.4051 141.696 99.3778 141.605C98.7774 139.61 97.8841 136.643 95.1146 134.337C93.0635 132.649 90.8918 132.046 89.6852 131.805C88.9818 132.759 88.4457 133.588 87.833 134.535C87.7101 134.724 87.5841 134.919 87.4531 135.12C84.2038 140.346 81.9087 145.696 80.3465 151ZM101.804 151H112.987C112.968 150.71 112.928 150.419 112.851 150.129C112.308 147.959 110.136 146.693 108.085 145.85C106.939 145.367 104.284 144.463 103.259 145.488C102.439 146.259 102.12 148.648 101.902 150.284C101.867 150.545 101.835 150.787 101.804 151ZM6.94287 0C7.23444 13.5326 7.72125 33.446 8.18347 40.0655C8.96772 50.433 11.4412 93.6508 11.4412 93.6508C11.4412 93.6508 13.1303 92.6863 15.845 90.9986C15.2417 82.7408 15.7847 68.7568 23.7478 56.7017C24.4114 55.677 25.1354 54.7126 25.8593 53.8084L26.5832 52.9043C28.6343 50.433 30.8061 48.3233 33.0985 46.4548C33.0985 46.2137 33.0382 45.9123 32.8573 45.6109C32.8482 45.5928 32.8377 45.5712 32.8259 45.5467C32.6803 45.2464 32.3246 44.5123 31.711 44.3451C31.4684 44.2758 31.3054 44.3459 31.0045 44.4752C30.7819 44.571 30.4837 44.6992 30.0219 44.8273C29.7504 44.8876 29.494 44.978 29.2376 45.0684C28.9812 45.1588 28.7248 45.2493 28.4533 45.3095C26.7642 45.6109 25.0147 45.4904 23.5669 44.5862C21.7571 43.5013 20.6712 41.2711 21.0331 39.2217C21.4554 37.1723 23.4462 35.4846 25.5577 35.6654C26.6435 35.786 27.6691 36.3284 28.5137 37.0517C29.6599 38.0764 30.8061 39.1011 31.5904 40.4875C31.9523 41.1505 32.1937 41.8135 32.3746 42.5368C32.3945 42.6361 32.4013 42.7287 32.4079 42.8192C32.4214 43.0035 32.4342 43.1785 32.5556 43.3807C32.5939 43.4444 32.6321 43.5108 32.6709 43.5781C32.8157 43.8295 32.9685 44.0947 33.1588 44.2849C33.2309 44.3388 33.3029 44.4036 33.3798 44.4726C33.5604 44.6349 33.7676 44.821 34.0638 44.9479C34.4257 45.0684 34.6671 45.1287 34.9084 45.1287C34.9084 45.1287 34.9687 45.1287 35.029 45.0082L36.4165 44.0437C37.1103 43.5917 37.8191 43.1547 38.528 42.7177C39.2368 42.2807 39.9456 41.8437 40.6394 41.3916C41.0612 41.1809 41.483 40.9407 41.8841 40.7123C42.0567 40.614 42.2255 40.5179 42.3888 40.4272C42.4492 40.4272 42.4944 40.3971 42.5397 40.3669C42.5849 40.3368 42.6302 40.3066 42.6905 40.3066C42.0872 39.282 41.6047 38.0764 41.4237 37.5942C41.2427 37.112 40.0361 32.8927 40.3377 32.1091C40.3377 32.1091 39.4932 32.1091 38.5279 31.9283C37.2611 31.8078 35.3307 31.3255 34.1845 29.2762C33.4002 27.8295 33.6415 25.961 34.5464 24.5144C34.6128 24.4101 34.6808 24.2909 34.7556 24.1596C35.1564 23.4561 35.755 22.4054 37.3818 21.4403C38.146 20.9631 38.8345 20.9393 39.3876 20.9201C39.5331 20.9151 39.6692 20.9104 39.7948 20.8978C40.4584 20.8978 41.4237 21.1389 41.9666 21.5006C43.6558 22.5253 44.802 24.5144 44.9227 26.5035C44.983 28.4926 44.0177 30.542 42.3888 31.7475C42.0872 31.9886 43.2938 36.9312 43.4748 37.534V37.8353L43.5081 37.922C43.7901 38.655 43.9687 39.1192 44.2591 39.5833C44.5642 39.4448 44.8661 39.3062 45.1648 39.1691C46.1655 38.7098 47.1304 38.267 48.0596 37.8956L48.06 37.8954C48.5425 37.7147 49.025 37.5339 49.5075 37.2929C51.1363 36.6901 52.5841 36.2079 53.9113 35.786C54.8162 34.2791 56.5054 32.7119 57.2896 32.2297C58.9788 31.2653 61.1506 31.0242 62.8398 31.9283C63.3827 32.2297 63.9256 32.6516 64.2273 33.2544C64.8909 34.3996 64.7702 35.9065 64.1066 37.0517C63.443 38.197 62.3571 39.0408 61.2109 39.7039C60.306 40.1861 59.3408 40.608 58.3152 40.5478C56.8984 40.5478 55.6548 39.7397 54.4715 38.9707C54.4456 38.9539 54.4198 38.9371 54.3939 38.9203C54.3209 38.9203 54.2699 38.8761 54.2143 38.8278C54.1781 38.7964 54.1399 38.7632 54.0923 38.7395C51.9205 39.2217 49.0249 40.0655 45.9482 41.3916C46.6118 42.0546 47.396 42.5369 48.3612 42.8985C48.4216 42.8985 48.5422 42.9588 48.6629 43.0191C48.7434 43.0459 48.9274 43.1111 49.1833 43.2019C50.6525 43.723 54.4901 45.084 54.6956 44.8273C56.0228 43.3204 57.6516 42.4163 59.5821 42.7177C61.5729 43.019 63.3223 44.3451 64.1669 46.1534C64.4685 46.7562 64.6496 47.4192 64.5289 48.0822C64.4686 48.685 64.1669 49.2275 63.8653 49.7097C63.0207 51.096 61.8745 52.4221 60.4266 53.1454C58.9185 53.8687 57.0483 53.929 55.7211 52.9646C53.7303 51.5782 52.8254 48.4439 54.0923 46.3945C54.0923 46.3945 49.3868 45.2493 48.8439 45.0684C47.3357 44.5862 45.2243 43.3807 44.3193 42.1752C41.7856 43.441 38.9502 45.189 36.4768 47.2986C36.8388 47.8411 37.6834 48.9864 39.1312 49.5288C39.5535 49.7097 40.2171 49.9508 41.122 49.8905C41.5644 49.8537 41.8942 49.6818 42.1663 49.5399C42.3396 49.4496 42.4894 49.3715 42.6302 49.348C44.259 48.9864 46.0085 49.0466 47.5167 49.8905C49.3265 50.9152 50.533 53.0248 50.2314 55.0742C49.9297 57.1236 47.9993 58.8716 45.8878 58.8113C44.8019 58.8113 43.7764 58.2688 42.9319 57.5455C41.7253 56.5811 40.5791 55.5564 39.7948 54.2906L38.9503 52.3015C38.6486 51.5179 38.4676 51.1563 38.1057 50.6741C37.6834 50.1316 37.3214 49.8302 37.0197 49.5891C36.6578 49.2877 36.0546 48.9261 35.2703 48.6247C34.1241 49.7097 32.6763 51.2166 31.3491 53.2659C31.3491 53.2659 30.7457 54.2304 30.1425 55.255C22.7223 69.239 26.7642 81.1736 27.7897 83.645C40.1568 75.8091 55.7211 65.2608 60.306 59.1127C61.712 57.251 63.3 55.4022 64.9378 53.4955C71.9432 45.3399 79.8595 36.1238 78.3437 20.2951C76.4133 20.5965 74.4225 20.6567 72.5523 20.2951C69.7773 19.8129 67.1833 18.4265 65.7354 16.0758C65.3945 15.5435 65.1213 14.9661 64.8494 14.3914C64.3514 13.3391 63.8578 12.2958 62.9604 11.5551C62.8548 11.4647 62.7455 11.378 62.6361 11.2914C62.3081 11.0314 61.9801 10.7715 61.7538 10.4098C61.3046 9.67529 61.4913 8.77495 61.6775 7.8772C61.7663 7.44894 61.855 7.02127 61.8745 6.61247C61.8745 5.62265 61.4588 4.7412 61.0428 3.85936C60.6989 3.13018 60.3549 2.40074 60.2457 1.60956C60.1741 1.07304 60.214 0.53652 60.3182 0L6.94287 0ZM82.1434 0C82.2927 0.269314 82.4463 0.531026 82.627 0.765706C82.9936 1.23659 83.4737 1.60529 83.9492 1.97036C84.5692 2.44645 85.1812 2.91636 85.5227 3.59868C85.9395 4.43166 85.8363 5.38455 85.7313 6.35378C85.654 7.0678 85.5757 7.79068 85.7036 8.48103C85.764 8.75227 85.8545 9.00844 85.945 9.26461C86.0354 9.52078 86.1259 9.77695 86.1863 10.0482C86.454 11.0647 86.3415 12.1287 86.2285 13.198C86.2142 13.3334 86.1998 13.4689 86.1863 13.6045C86.0053 15.1114 85.2814 16.558 84.1955 17.7032C85.4623 25.6596 86.1259 40.8491 77.7404 55.255C77.7404 55.255 101.389 56.2195 121.96 41.4519C119.668 39.2819 117.496 38.0162 115.988 37.2929C115.988 37.2929 111.403 35.0627 104.345 35.6051C104.224 35.6051 103.862 35.6051 103.56 35.9065C103.379 36.0873 103.259 36.3284 103.138 36.5696C102.354 38.4381 100.725 40.0053 98.8549 40.7286C95.8989 41.8738 90.7108 40.7889 89.0819 37.8353C88.4183 36.6901 88.4184 35.2435 88.72 33.9174C89.2629 31.6269 90.9521 29.5173 93.2445 28.794C97.2864 27.5885 100.423 30.7228 102.897 33.4352C102.934 33.4724 102.969 33.5096 103.002 33.5457C103.133 33.6853 103.248 33.8093 103.44 33.8571H103.922C104.192 33.7972 104.571 33.741 104.999 33.6773C106.292 33.4851 108.039 33.2254 108.628 32.5914C109.472 31.7475 108.688 29.6378 108.326 28.7337C107.663 27.046 106.637 25.298 104.888 24.876C104.37 24.7469 103.853 24.7715 103.336 24.7961C103.129 24.8059 102.923 24.8158 102.716 24.8158C99.6994 24.8158 96.6832 23.7911 94.3907 21.9225C92.7619 20.5965 91.4347 18.6073 91.6157 16.4977C91.676 15.1114 92.3999 13.8456 93.3048 12.8209C94.9336 10.892 97.3468 9.62626 99.8805 9.5057C102.414 9.44543 104.948 10.7112 106.275 12.8209C107.904 15.5333 107.421 18.969 106.818 22.1033C107.217 22.2529 107.479 22.3521 107.678 22.4274C108.199 22.6252 108.287 22.6583 109.292 23.0075C111.162 19.7526 112.971 16.3771 114.6 12.9414L114.6 12.9411C115.083 11.9165 115.565 10.8919 115.505 9.74681C115.394 7.74186 113.771 6.49163 112.105 5.20722C111.066 4.40648 110.01 3.59245 109.292 2.57398C108.74 1.79631 108.424 0.914124 108.313 0H82.1434ZM127.52 0C127.376 1.77186 126.575 3.49938 125.58 5.10557C124.494 6.91385 122.805 8.48102 120.754 9.08377C120.452 9.14405 120.211 9.20433 119.969 9.44544C119.788 9.56599 119.668 9.80709 119.607 9.98792C119.138 10.9264 118.706 11.8522 118.278 12.7711C117.77 13.859 117.268 14.9372 116.712 16.0155C115.643 18.1035 114.649 19.4723 113.833 20.5962C112.576 22.3274 111.741 23.4776 111.705 25.7802C111.644 29.3967 114.299 32.0489 115.746 33.4955C119.185 36.9312 123.227 38.1367 125.338 38.5586C125.429 38.4861 125.525 38.4136 125.624 38.3395C125.852 38.1671 126.093 37.9858 126.304 37.7751C128.656 35.8462 130.527 33.7968 132.095 31.7475C131.974 30.9639 131.854 30.3611 131.733 29.8789C131.673 29.5173 131.311 28.1309 130.708 26.4432C130.527 26.0213 130.285 25.5993 129.984 25.1171C129.823 24.8367 129.636 24.716 129.423 24.5782C129.315 24.5086 129.2 24.4346 129.079 24.3335C128.294 23.6705 127.51 22.9472 126.967 22.0431C125.761 20.2348 125.097 18.0649 124.554 15.9552C124.192 14.388 124.072 12.7606 124.675 11.2537C125.761 8.42074 129.26 6.91384 132.155 7.7577C135.051 8.60156 137.163 11.4345 137.464 14.4483C137.705 16.9196 136.74 19.2704 135.232 21.1992C134.957 21.5429 134.643 21.8473 134.322 22.1573C134.081 22.391 133.837 22.6278 133.603 22.8869C133.541 22.9701 133.306 23.1969 133.028 23.4657C132.499 23.9757 131.814 24.637 131.854 24.7555C131.91 24.9801 132.176 25.4665 132.505 26.0682L132.578 26.2021C133.06 27.046 133.664 28.1309 134.146 29.2159C135.413 27.1062 141.144 17.3416 143.256 8.90295C144.221 5.0453 144.16 2.63425 143.316 0.524597C143.249 0.350146 143.175 0.174947 143.096 0H127.52Z" fill="#E4E8FC"/>
<defs>
<linearGradient id="paint0_linear_9302_48148" x1="83" y1="56.5" x2="-22" y2="301" gradientUnits="userSpaceOnUse">
<stop stop-color="#D4DAFA"/>
<stop offset="1" stop-color="white" stop-opacity="0"/>
</linearGradient>
</defs>
</svg>
