<svg width="1440" height="960" viewBox="0 0 1440 960" fill="none" xmlns="http://www.w3.org/2000/svg">
<rect width="1440" height="960" fill="#E4E8FC"/>
<rect width="1440" height="960" fill="url(#paint0_linear_7754_40725)"/>
<path fill-rule="evenodd" clip-rule="evenodd" d="M1440 72.1791V22.6327C1431.55 31.29 1423.26 42.2902 1416.52 56.1926C1419.6 58.2849 1422.66 60.3713 1425.68 62.4393C1430.53 65.7499 1435.3 69.0134 1440 72.1791ZM1416.49 0H1312.38C1321.98 3.42922 1331.9 7.32712 1342.25 11.7929C1361.98 20.4988 1381.71 32.3966 1400.86 45.1652C1408.73 40.1932 1416.89 28.2703 1416.49 0ZM1186.77 0H1217.76C1238.01 0.936132 1261.68 3.86232 1286.55 10.6321C1284.23 14.6949 1281.04 18.4674 1277.27 21.9497C1276.98 22.0948 1276.76 22.3124 1276.54 22.53C1276.32 22.7477 1276.11 22.9654 1275.82 23.1105C1273.21 25.432 1250 44.5848 1247.97 43.4241C1237.81 37.9104 1224.47 37.9104 1214.02 43.4241C1203.58 48.9378 1196.32 59.6749 1195.16 71.5728C1194.87 75.3453 1195.16 79.408 1196.91 82.8904C1198.65 86.0825 1201.26 89.5648 1203.87 91.8864C1211.41 97.9805 1220.4 101.753 1229.98 102.914C1239.55 104.075 1250 100.592 1255.8 92.7569C1264.21 81.1492 1256.09 49.8082 1254.35 51.2592C1256.15 49.7332 1261.4 46.1513 1266.65 42.5743C1272.37 38.6689 1278.09 34.7692 1279.3 33.5575C1279.67 33.1879 1280.19 32.6846 1280.84 32.0698C1284.74 28.3405 1292.93 20.5095 1296.42 13.534C1308.6 17.5967 1321.95 22.8203 1336.45 29.7849C1348.64 35.879 1359.37 42.2632 1368.65 48.3573C1367.49 53.5808 1366.04 61.9964 1365.75 72.1532C1365.49 80.2831 1365.94 85.6282 1366.3 89.8753C1366.73 95.0271 1367.03 98.5632 1365.75 103.494C1362.27 116.843 1351.54 131.063 1339.64 131.933C1328.02 132.708 1316.13 132.448 1304.33 132.19C1298.47 132.061 1292.62 131.933 1286.84 131.933C1281.29 131.933 1275.82 132.154 1270.38 132.373C1265.01 132.589 1259.68 132.804 1254.35 132.804C1253.19 132.804 1252.32 132.804 1251.16 132.514C1250 131.933 1248.84 130.772 1247.97 129.902C1241 122.647 1230.56 119.165 1220.4 118.294C1206.19 117.133 1191.39 118.584 1182.11 130.192C1174.57 139.478 1172.83 152.827 1174.57 164.145C1177.18 180.976 1185.88 197.517 1201.26 205.062C1216.63 212.607 1237.81 208.254 1245.64 193.164C1248.44 187.8 1249.55 181.446 1250.65 175.213C1252.39 165.26 1254.09 155.614 1262.47 150.796C1267.11 148.184 1272.63 147.604 1278.14 147.604C1296.42 147.023 1314.98 147.313 1333.26 148.184C1333.73 151.931 1333.86 153.158 1334.02 154.622C1334.15 155.879 1334.31 157.311 1334.71 160.662C1319.92 165.015 1303.96 170.529 1295.84 183.588C1289.45 194.035 1290.03 207.674 1295.84 218.411C1301.93 229.148 1312.66 236.403 1324.56 239.305C1330.94 241.046 1337.9 241.046 1343.99 238.434C1353.28 234.081 1358.5 224.215 1360.82 214.348C1363.72 200.129 1361.69 185.039 1354.73 172.27C1354.32 171.522 1353.9 170.79 1353.48 170.062C1352.1 167.686 1350.75 165.36 1350.09 162.694C1348.06 154.278 1352.99 145.862 1358.79 139.478C1361.98 135.706 1369.23 127.87 1374.75 129.612C1378.57 130.885 1383.31 137.433 1386.95 142.45C1388.29 144.294 1389.48 145.931 1390.41 147.023C1390.99 147.604 1391.57 148.184 1391.57 149.055C1391.78 149.882 1391.55 150.563 1391.29 151.306C1391.18 151.605 1391.08 151.914 1390.99 152.247C1384.9 168.788 1378.52 189.101 1392.73 203.611C1400.86 211.446 1413.62 214.058 1424.65 211.446C1430.68 210.076 1436.44 207.152 1440 202.187V514.883C1436.6 581.948 1433.93 634.259 1433.93 634.259C1429 630.486 1423.49 626.423 1417.1 622.361C1417.97 582.024 1411.59 524.565 1378.23 474.072C1375.04 469.138 1371.56 464.495 1368.07 460.142L1364.59 455.789C1354.44 443.601 1343.41 433.154 1332.1 423.868C1332.76 422.88 1333.51 421.891 1334.3 420.85C1334.91 420.057 1335.53 419.233 1336.16 418.354C1337.61 416.323 1340.8 412.841 1341.38 412.26C1341.76 411.887 1344.06 412.476 1345.88 412.942C1346.88 413.2 1347.75 413.421 1348.06 413.421C1349.36 413.711 1350.59 414.147 1351.83 414.582C1353.06 415.017 1354.29 415.453 1355.6 415.743C1363.43 417.484 1372.14 416.613 1379.1 412.26C1387.8 407.037 1393.31 396.3 1391.28 386.433C1389.54 376.567 1379.68 368.441 1369.53 369.312C1364.3 369.892 1359.37 372.504 1355.31 375.986C1349.51 380.919 1344.28 386.143 1340.51 392.527C1338.77 395.719 1337.61 398.911 1336.74 402.394C1336.65 402.944 1336.62 403.408 1336.59 403.83C1336.52 404.743 1336.47 405.464 1335.87 406.457L1335.87 406.458C1335.29 407.618 1334.71 408.779 1332.97 410.809C1332.16 411.71 1331.49 412.499 1330.91 413.184C1329.61 414.708 1328.75 415.723 1327.75 416.323C1326.01 417.484 1323.98 417.774 1323.98 417.774C1322.82 417.049 1321.73 416.251 1320.64 415.453C1319.55 414.654 1318.46 413.856 1317.3 413.131C1310.63 408.488 1303.67 404.135 1297 400.362C1296.56 400.072 1296.13 399.855 1295.69 399.637C1295.26 399.419 1294.82 399.202 1294.38 398.912C1299.03 392.527 1303.09 382.661 1303.38 381.79C1306.48 374.179 1307.18 369.512 1307.72 365.96C1308.29 362.198 1308.67 359.686 1311.5 356.253C1315.47 351.437 1319.78 349.94 1323.86 348.522C1328.14 347.034 1332.17 345.634 1335.29 340.583C1339.35 333.908 1339.35 325.492 1336.74 318.818C1332.6 308.312 1322.13 304.918 1318.89 303.868C1318.73 303.815 1318.59 303.769 1318.46 303.728C1318.21 303.676 1317.91 303.613 1317.59 303.543C1314.27 302.827 1307.66 301.401 1301.06 304.308C1291.77 308.661 1286.84 319.398 1286.84 328.394C1286.84 334.212 1288.81 337.26 1291.06 340.753C1293.31 344.229 1295.84 348.146 1297 355.673C1298.45 366.41 1295.84 375.696 1293.51 382.661C1291.77 388.465 1289.74 392.237 1287.42 394.849C1278.43 390.206 1270.01 386.143 1261.89 382.951L1261.89 382.95C1260.73 382.37 1259.57 381.79 1258.41 381.5C1261.19 374.819 1260.51 360.662 1260.19 354.14C1260.18 353.863 1260.16 353.6 1260.15 353.351C1259.61 344.27 1258.5 339.24 1257.67 335.512C1256.73 331.259 1256.17 328.7 1257.25 323.751C1258.81 316.959 1261.81 313.272 1264.62 309.829C1267.56 306.213 1270.29 302.866 1270.89 296.473C1271.47 288.057 1268.27 278.481 1261.02 272.387C1253.31 265.74 1244.39 265.914 1240.49 265.99C1240.13 265.997 1239.82 266.003 1239.55 266.003C1236.36 266.003 1224.76 266.583 1217.21 276.159C1209.96 285.446 1209.96 299.375 1215.47 308.081C1218.81 313.456 1222.95 314.904 1227.42 316.466C1231.88 318.024 1236.66 319.696 1241.29 325.492C1244.19 329.265 1246.51 338.841 1250.58 357.994C1250.65 358.542 1250.74 359.126 1250.83 359.745C1251.47 364.044 1252.35 370.007 1250.58 376.857C1250.5 377.012 1250.42 377.147 1250.35 377.272C1250.15 377.613 1250 377.883 1250 378.308C1247.9 377.608 1245.87 376.908 1243.91 376.232C1240.17 374.945 1236.69 373.745 1233.46 372.794C1229.11 365.539 1220.98 357.994 1217.21 355.673C1209.09 350.739 1198.65 349.869 1190.52 354.222C1187.91 355.963 1185.59 357.994 1183.85 360.606C1180.37 366.12 1181.24 373.374 1184.43 378.888C1187.62 384.112 1193.13 388.174 1198.65 391.366C1203 393.978 1207.64 395.719 1212.57 395.719C1219.39 395.719 1225.37 391.829 1231.06 388.127L1231.43 387.884C1232.01 387.594 1232.59 387.304 1232.88 387.014C1243.61 389.335 1257.25 393.398 1272.05 399.782C1273.49 400.447 1274.76 401.028 1275.84 401.523C1277.6 402.325 1278.87 402.906 1279.59 403.264C1289.45 408.198 1301.93 415.452 1314.98 426.48C1312.37 430.252 1310.05 432.864 1308.31 434.605C1308.02 434.862 1307.74 435.109 1307.47 435.347C1305.6 436.998 1304.21 438.234 1301.93 439.248C1300.77 439.829 1298.16 440.699 1294.67 440.409C1292.63 440.239 1290.99 439.368 1289.68 438.678C1288.77 438.193 1288.02 437.797 1287.42 437.797C1279.59 436.056 1271.18 436.347 1263.92 440.409C1255.22 445.052 1249.42 455.499 1250.87 465.366C1252.32 475.523 1261.89 483.938 1271.76 483.358C1276.98 483.068 1281.91 480.456 1285.97 477.264C1291.48 472.621 1297.29 467.687 1301.06 461.593C1302.8 458.691 1304.25 455.499 1305.12 452.017L1305.7 450.856V450.276C1307.73 444.472 1314.69 439.829 1314.69 439.829C1315.24 439.488 1315.75 439.16 1316.25 438.846C1319.96 436.486 1322.35 434.964 1325.43 435.476C1329.2 436.056 1331.23 439.249 1341.67 456.95C1343.2 459.528 1344.44 461.539 1345.37 463.057C1346.75 465.3 1347.48 466.471 1347.48 466.817C1379.1 526.597 1369.53 574.769 1364.01 592.471C1363.14 591.89 1362.56 591.6 1361.69 591.31C1299.81 562.02 1273 541.534 1244.4 519.683C1230.5 509.06 1216.18 498.115 1197.2 485.679C1139.85 448.107 1121.61 390.407 1114.19 366.935L1113.93 366.12C1110.07 353.899 1111.15 335.33 1112.21 317.092C1113.13 301.116 1114.05 285.394 1111.61 274.418C1106.68 251.203 1094.78 277.32 1094.78 277.32C1055.91 373.084 1126.7 481.036 1126.7 481.036C1097.68 489.452 1043.14 491.774 954.076 447.084C944.502 442.15 935.509 436.927 927.095 431.703C929.996 426.19 937.249 414.582 951.465 406.747C951.465 406.747 965.391 399.202 999.625 402.104C999.881 402.168 1000.15 402.217 1000.43 402.269C1001.41 402.45 1002.49 402.65 1003.4 403.555C1004.3 404.229 1004.67 405.078 1005.07 405.966C1005.18 406.224 1005.3 406.485 1005.43 406.747C1008.91 415.743 1016.74 423.288 1025.74 427.06C1039.95 432.864 1064.9 428.221 1073.02 414.002C1076.22 408.488 1076.51 401.523 1075.06 395.139C1072.44 384.112 1064.61 373.665 1053.59 370.182C1034.15 363.798 1019.06 378.888 1006.88 391.657C1006.3 392.527 1005.43 393.688 1004.27 393.688H1001.95C1000.73 393.418 999.066 393.149 997.174 392.843C990.921 391.831 982.212 390.423 979.317 387.304C975.545 383.241 979.317 373.084 981.057 368.731C984.249 360.606 989.471 352.19 997.884 350.449C1000.21 350.062 1002.53 350.191 1004.85 350.32C1006.01 350.385 1007.17 350.449 1008.33 350.449C1022.83 351.029 1037.34 346.096 1048.65 337.1C1056.49 330.716 1063.16 321.43 1062.58 311.273C1062.29 304.889 1059.1 298.795 1054.75 293.571C1047.2 284.285 1035.6 277.901 1023.41 277.32C1011.23 276.74 998.754 282.834 992.372 292.991C984.249 306.049 986.569 322.591 989.18 337.681C985.68 338.993 984.38 339.5 983.067 339.973C981.769 340.442 980.458 340.879 976.996 342.033C968.002 326.073 959.879 309.822 952.045 293.281C951.858 292.826 951.668 292.37 951.478 291.914C949.608 287.432 947.721 282.905 947.984 277.901C948.694 268.483 956.476 262.656 964.534 256.621C969.635 252.801 974.847 248.898 978.446 243.948C988.6 230.309 983.088 209.125 969.453 198.968C955.817 188.811 936.959 188.231 920.713 193.454C909.978 196.937 898.664 204.482 893.732 215.219C887.639 228.568 892.861 242.497 900.114 254.685C905.336 263.391 913.17 270.936 923.034 274.128C923.381 274.267 923.712 274.39 924.03 274.507C925.04 274.881 925.923 275.207 926.805 275.869C927.385 276.256 927.708 276.901 928.03 277.546C928.191 277.868 928.353 278.191 928.546 278.481C930.3 282.209 931.971 285.896 933.638 289.572C936.382 295.626 939.113 301.652 942.182 307.791C947.193 317.929 951.891 324.669 955.749 330.205C961.72 338.771 965.681 344.453 965.681 355.382C965.681 360.606 964.23 371.923 941.021 395.429C934.638 402.104 925.064 410.809 912.879 419.805C898.373 411.68 888.509 402.684 882.127 396.01C868.696 382.015 868.759 375.309 868.78 373.028C868.781 372.944 868.782 372.866 868.782 372.794C868.782 371.501 868.872 371.288 869.904 368.847C870.725 366.905 872.142 363.552 874.584 357.124C875.009 356.273 875.901 354.799 877.033 352.931C877.445 352.249 877.89 351.515 878.355 350.739C879.126 349.389 880.026 348.808 881.054 348.145C881.572 347.81 882.123 347.453 882.707 346.967C886.769 343.484 890.25 340.292 893.152 335.939C899.244 327.234 902.725 316.787 905.336 306.63C907.657 299.085 907.948 291.25 905.336 283.995C900.404 270.356 883.578 262.811 869.652 266.583C855.726 270.356 845.282 283.995 843.832 298.504C842.671 310.402 847.023 322.01 853.985 331.296C855.253 333.107 856.859 334.692 858.523 336.334C859.525 337.322 860.547 338.331 861.529 339.422C862.399 340.292 869.652 347.547 869.652 348.418C869.444 349.25 868.64 350.678 867.56 352.596C867.133 353.354 866.663 354.188 866.17 355.092C865.317 356.587 864.384 358.121 863.446 359.665C861.833 362.318 860.201 365.002 858.917 367.571C858.605 366.917 858.25 366.181 857.858 365.365C849.887 348.792 826.293 299.737 817.721 259.909C814.529 244.528 813.369 230.309 821.202 221.893C823.243 219.724 825.284 218.453 827.546 217.043C830.43 215.246 833.675 213.225 837.739 208.834C844.354 201.391 847.303 193.947 848.576 190.734C848.643 190.565 848.706 190.407 848.764 190.262C850.214 186.49 858.337 164.145 845.862 143.831C841.51 136.866 835.128 130.772 826.714 126.419C814.819 120.325 800.314 119.745 788.129 124.968C774.493 130.772 768.691 147.313 769.561 161.243C770.431 172.85 774.493 183.878 779.135 194.325C780.506 197.677 782.357 201.189 784.226 204.736C785.916 207.943 787.621 211.178 788.999 214.348C791.595 220.677 792.013 226.915 792.436 233.214C792.769 238.18 793.104 243.184 794.511 248.301C795.672 257.877 798.573 270.646 804.085 286.606C793.641 295.022 781.746 300.246 768.981 304.308C768.111 304.598 767.53 304.599 766.66 304.599C765.745 304.599 765.01 304.057 764.313 303.543C764.126 303.405 763.942 303.27 763.759 303.147C750.703 293.281 732.426 290.379 717.05 296.183C712.988 297.634 709.217 299.665 706.026 302.857C700.803 308.371 698.192 316.206 698.192 324.041C698.192 324.552 698.182 325.116 698.17 325.726C698.078 330.664 697.928 338.67 702.834 346.677C704.575 349.579 709.217 356.253 718.21 359.735C727.784 363.798 739.389 362.637 748.093 357.124C757.376 351.32 762.018 339.712 763.179 328.685C763.285 327.889 763.371 327.085 763.458 326.279C763.846 322.674 764.236 319.052 766.37 316.206C767.821 314.465 769.851 313.014 771.882 311.853C777.394 308.371 783.777 306.34 790.45 305.759C794.221 328.104 784.357 350.739 770.722 369.021C768.401 372.214 765.5 375.696 761.728 375.986C760.858 375.986 760.06 375.841 759.262 375.696C758.464 375.551 757.667 375.406 756.796 375.406C744.611 373.374 731.556 380.049 724.883 390.496C718.21 400.943 717.34 414.872 722.272 426.48C724.303 431.703 727.784 436.637 732.426 440.119C733.879 441.173 735.374 442.036 736.88 442.738C735.783 445.327 735.202 448.092 735.488 450.856C735.802 454.472 737.531 457.774 739.574 460.918C741.303 463.748 743.189 466.263 745.704 468.307C748.219 470.351 751.362 471.608 754.506 471.451C755.606 480.255 757.335 489.059 759.378 497.706C760.172 501.016 760.855 502.208 761.238 502.877C761.31 503.002 761.372 503.109 761.421 503.209C763.765 507.663 767.08 510.292 769.821 512.466C772.595 514.665 774.781 516.399 774.781 519.087C774.781 519.873 774.624 521.131 773.367 522.703C755.92 513.585 728.729 501.636 697.137 495.033C696.823 494.876 696.509 494.876 696.195 494.876H696.194C695.723 493.933 693.208 487.802 696.194 482.456C697.766 479.469 700.595 477.74 701.695 477.111C703.125 476.253 704.438 475.858 705.496 475.539C706.184 475.332 706.763 475.158 707.197 474.91C712.698 472.08 717.413 467.678 719.456 461.704C722.128 454.472 720.242 445.668 714.427 440.637C708.454 435.606 698.866 435.292 693.365 440.637C690.536 443.467 688.964 447.397 688.178 451.328C687.235 456.83 686.292 462.49 687.235 467.993C687.707 470.665 688.65 473.023 689.75 475.539C689.92 475.934 690.13 476.248 690.329 476.547C690.685 477.079 691.008 477.563 691.008 478.369C691.322 479.626 691.322 481.356 691.322 482.299C691.165 483.714 690.693 485.129 690.222 486.387C690.143 486.701 690.025 486.976 689.908 487.251C689.79 487.526 689.672 487.802 689.593 488.116C688.65 490.16 687.55 492.518 687.078 493.461C635.997 487.33 588.216 515.629 588.216 515.629C588.216 515.629 596.075 416.741 577.372 493.304C558.953 568.699 527.732 589.821 481.757 620.924L481.629 621.011C480.959 621.464 480.286 621.919 479.61 622.377C448.49 643.601 398.823 653.977 354.657 660.266C344.913 625.521 335.011 560.435 371.632 501.479C371.973 500.954 372.301 500.446 372.621 499.951L372.622 499.95C374.218 497.481 375.615 495.32 377.447 492.832C380.591 493.461 386.249 495.033 391.593 499.435C398.808 505.45 401.136 513.19 402.7 518.392C402.771 518.629 402.841 518.861 402.909 519.087C405.267 526.476 404.324 534.651 403.067 542.198C402.909 543.141 402.752 544.084 402.124 544.713C401.495 545.342 400.709 545.656 399.923 545.971C393.793 548.644 388.764 553.832 386.406 559.963C382.791 569.553 386.249 586.218 395.837 591.563C399.609 593.764 404.324 593.764 408.568 592.664C416.112 590.777 422.87 585.432 425.071 578.043C429.157 564.837 418.941 554.932 410.139 546.914C410.062 546.837 409.981 546.76 409.898 546.681C409.475 546.28 409.014 545.842 408.882 545.185C408.777 544.87 408.812 544.556 408.847 544.242C408.865 544.084 408.882 543.927 408.882 543.77C409.008 543.045 409.134 542.099 409.277 541.029C409.845 536.763 410.675 530.531 412.811 528.52C415.483 525.847 422.399 528.206 425.385 529.463C430.729 531.664 436.387 534.966 437.802 540.626C438.273 542.394 438.214 544.163 438.156 545.932C438.136 546.521 438.116 547.111 438.116 547.7C437.959 557.448 441.417 567.195 447.704 574.584C452.105 579.772 458.392 584.017 465.15 583.545C469.551 583.231 473.637 580.872 476.938 578.043C483.068 572.855 487.311 564.994 487.469 556.819C487.626 548.643 483.539 540.311 476.624 536.066C467.822 530.721 456.663 532.45 446.604 534.337C445.739 532.057 445.425 531.193 445.11 530.328L445.11 530.326C444.796 529.462 444.481 528.597 443.617 526.319C454.148 520.188 464.993 514.371 475.995 509.026C479.295 507.453 482.753 505.881 486.368 506.038C492.835 506.328 496.871 511.538 501.025 516.899C503.636 520.269 506.294 523.699 509.63 526.005C519.06 532.608 533.206 528.677 539.807 519.402C546.566 510.126 546.723 497.392 542.951 486.701C540.436 479.469 535.406 471.923 528.019 468.779C518.903 464.848 509.473 468.464 501.457 473.495C495.642 477.111 490.612 482.456 488.726 489.059C488.637 489.283 488.56 489.52 488.481 489.762C488.284 490.37 488.075 491.013 487.626 491.575C487.22 492.115 486.583 492.424 486.012 492.699L486.012 492.699C485.919 492.744 485.828 492.788 485.74 492.832C483.843 493.736 481.946 494.626 480.053 495.515L480.037 495.523C475.347 497.724 470.68 499.915 466.093 502.265C459.492 505.659 455.312 508.666 451.843 511.161C446.474 515.023 442.808 517.661 434.501 518.616L434.324 518.634C431.163 518.97 422.089 519.932 414.226 514.842C410.109 512.246 408.183 509.293 405.779 505.605C403.961 502.817 401.87 499.61 398.352 495.82C393.008 490.003 387.506 486.387 383.734 484.186C391.121 474.753 399.452 465.792 408.096 457.931C410.377 459.365 413.035 460.204 415.691 461.043C419.442 462.227 423.188 463.41 425.857 466.263C427.168 467.685 428.024 469.41 428.899 471.175L428.9 471.177C429.283 471.95 429.67 472.73 430.1 473.495C433.244 479.155 437.959 484.029 443.775 487.016C447.861 489.217 452.419 490.474 456.977 489.845C465.464 488.588 472.066 479.941 471.751 471.294C471.437 462.647 464.836 454.787 456.663 451.957C448.49 449.284 439.059 451.171 431.987 456.202C431.797 456.337 431.605 456.476 431.411 456.617C429.35 458.108 427.027 459.79 424.442 459.503C423.028 459.346 421.77 458.56 420.67 457.774C420.325 457.486 419.79 456.967 419.112 456.308C417.938 455.167 416.334 453.609 414.54 452.114C433.873 438.594 449.118 430.89 458.549 426.645C462.526 424.958 465.856 423.64 468.61 422.55L468.611 422.549C468.933 422.422 469.246 422.298 469.552 422.177C470.043 421.982 470.514 421.795 470.965 421.614C481.425 417.658 484.954 417.045 488.865 416.366C491.946 415.831 495.265 415.254 502.4 412.968C504.286 412.339 508.058 411.081 511.673 412.653C513.641 413.514 514.743 414.857 515.807 416.154C516.103 416.514 516.395 416.871 516.703 417.212C521.261 422.243 528.334 422.872 532.734 423.186C535.406 423.501 548.766 424.287 557.882 414.225C561.026 410.767 563.383 406.365 564.483 401.019C566.055 393.473 564.012 385.298 559.14 379.481C553.796 373.035 543.736 372.406 536.192 375.079C530.062 377.28 524.561 381.368 519.532 385.612C518.644 386.334 517.814 387.272 516.898 388.307L516.898 388.308C515.22 390.204 513.253 392.429 510.102 394.259C508.079 395.415 506.188 396.04 504.797 396.5L504.786 396.504C504.668 396.543 504.554 396.581 504.443 396.617C502.933 397.065 501.841 397.373 500.841 397.655C499.031 398.166 497.523 398.592 494.384 399.604C492.932 400.117 491.712 400.583 490.547 401.028L490.547 401.029L490.543 401.03C489.567 401.403 488.629 401.762 487.626 402.12C484.639 403.22 482.125 404.321 480.081 405.264C480.176 404.158 480.239 402.995 480.304 401.805C480.56 397.076 480.839 391.928 483.225 388.285C484.644 386.274 486.509 384.619 488.349 382.985C488.954 382.447 489.557 381.912 490.141 381.368C495.642 376.18 499.728 369.262 501.457 361.873C502.714 356.685 502.871 351.025 500.828 346.152C497.056 336.719 485.425 331.845 475.681 334.675C465.936 337.505 459.02 347.095 458.234 357.157C457.449 367.218 462.321 377.28 470.022 383.883C470.355 384.174 470.698 384.465 471.044 384.758C473.318 386.685 475.722 388.721 475.995 391.587C476.152 393.159 475.681 394.731 475.052 396.303C474.815 396.895 474.2 397.976 473.416 399.355L473.416 399.355C472.117 401.64 470.354 404.74 469.079 407.78C454.148 412.81 437.33 420.671 419.727 432.934C418.784 425.073 419.727 417.37 421.613 409.823C421.662 409.677 421.695 409.531 421.728 409.39C421.8 409.075 421.868 408.783 422.085 408.566C422.45 408.078 422.91 407.874 423.391 407.661C423.531 407.599 423.672 407.536 423.813 407.465C432.772 403.849 439.688 395.517 441.574 386.084C442.046 383.569 442.203 381.053 441.574 378.538C440.474 374.136 437.33 370.52 433.401 368.161C432.416 367.57 431.559 367.008 430.758 366.484C428.367 364.916 426.482 363.68 423.185 362.974C421.77 362.659 417.841 362.816 416.426 362.974C413.597 363.288 411.24 365.332 409.354 367.218C405.11 371.463 401.652 377.123 401.652 383.097C401.809 389.7 406.21 395.517 411.397 399.447C411.575 399.581 411.759 399.717 411.944 399.854C413.717 401.167 415.73 402.658 416.583 404.792C417.055 406.05 417.055 407.465 417.055 408.88V408.88C416.898 412.653 416.112 416.584 414.383 420.042C401.966 415.169 393.636 403.22 388.607 390.8C387.192 387.184 387.978 384.197 387.978 384.197C388.38 382.457 389.237 381.287 389.677 380.686L389.677 380.686C389.753 380.582 389.817 380.494 389.864 380.424C392.693 376.651 394.736 368.004 391.907 361.087C387.821 350.868 375.404 348.824 374.618 348.824C371.318 348.353 367.86 348.51 364.716 349.767C359.53 351.968 355.915 357.157 354.186 362.502C352.771 366.904 352.3 371.777 354.186 376.022C356.13 380.659 359.496 383.161 360.902 384.206L360.904 384.208C360.975 384.26 361.041 384.309 361.101 384.355C364.94 387 367.853 387.005 370.619 387.01C372.949 387.014 375.175 387.018 377.762 388.599C381.023 390.589 381.909 393.222 383.252 397.213C384.563 401.108 386.309 406.296 391.121 413.439C394.267 418.159 396.242 419.756 397.283 420.598C397.386 420.681 397.48 420.757 397.566 420.828C400.627 423.612 403.688 424.794 407.403 426.228L407.403 426.228C407.885 426.414 408.377 426.604 408.882 426.802C410.139 427.274 411.554 427.903 412.183 429.161C412.913 430.623 412.188 433.264 411.48 435.841C411.122 437.143 410.769 438.428 410.611 439.537C397.251 449.756 383.42 462.647 369.903 478.84C368.814 477.984 367.763 477.244 366.903 476.638L366.903 476.637L366.902 476.637C366.026 476.019 365.348 475.542 365.031 475.224C364.088 474.281 363.145 473.338 362.673 472.08C361.821 469.807 362.894 467.406 363.92 465.108C363.957 465.027 363.993 464.945 364.029 464.864C364.102 464.701 364.174 464.538 364.245 464.377C367.545 456.83 367.545 447.712 363.302 440.637C359.215 433.563 350.571 429.004 342.555 430.418C334.382 431.676 327.624 439.537 328.252 447.712C328.567 451.957 330.61 456.044 333.439 459.346C337.368 464.062 342.712 467.678 348.685 469.408C349.262 469.577 349.832 469.732 350.394 469.886C352.436 470.441 354.381 470.971 356.229 472.08C359.265 473.924 361.03 477.041 362.813 480.19L362.813 480.191C363.615 481.606 364.419 483.027 365.345 484.343C365.109 484.579 364.913 484.815 364.716 485.05C364.52 485.286 364.323 485.522 364.088 485.758C330.767 527.891 314.107 571.754 305.934 608.542C296.66 608.542 288.487 600.524 287.702 590.934C287.177 583.173 287.353 575.202 287.527 567.254V567.253V567.252C287.614 563.287 287.702 559.328 287.702 555.404C287.702 551.788 287.544 548.173 287.387 544.558L287.387 544.556L287.387 544.554C287.23 540.939 287.073 537.323 287.073 533.708C286.916 532.922 286.916 532.136 287.23 531.507C287.493 530.719 288.085 530.15 288.639 529.618C288.748 529.513 288.856 529.409 288.959 529.306C293.831 524.432 296.346 517.515 296.818 510.755C297.446 501.165 296.503 491.26 288.802 484.972C282.672 479.941 273.713 478.84 266.012 479.941C254.695 481.67 243.379 487.644 238.349 497.863C233.32 508.082 236.306 522.546 246.365 527.734C249.943 529.615 254.2 530.372 258.386 531.116C265.049 532.301 271.532 533.453 274.813 539.053C276.542 542.04 276.857 544.87 276.857 549.587C276.857 558.705 276.699 571.597 275.285 587.633C272.77 587.318 270.413 587.318 267.898 587.318C264.911 577.571 261.297 566.88 252.495 561.535C245.422 557.29 236.149 557.605 229.076 561.535C222.003 565.465 216.974 572.697 215.088 580.715C213.987 584.96 213.987 589.676 215.716 593.764C218.388 600.053 225.147 603.668 231.748 605.083C241.335 607.284 251.552 605.869 260.039 601.153C260.478 600.917 260.909 600.673 261.34 600.43L261.345 600.427L261.345 600.427C262.918 599.539 264.477 598.659 266.326 598.166C271.984 596.751 277.642 600.367 282.043 604.14C284.558 606.184 289.745 611.215 288.645 614.831C287.82 617.421 283.293 620.717 279.884 623.2L279.883 623.2C278.74 624.032 277.724 624.772 277.014 625.364C276.7 625.678 276.228 626.15 275.756 626.15C274.971 626.307 274.185 626.15 273.556 625.836C262.397 621.748 248.88 617.346 238.978 626.936C233.634 632.281 231.748 640.928 233.634 648.317C234.577 652.562 236.778 656.65 240.393 659.008C249.509 664.982 266.012 660.423 272.77 652.719C277.171 647.688 279.371 640.928 278.9 634.325C278.743 633.539 278.586 632.596 278.9 631.81C279.214 631.024 279.843 630.395 280.629 629.923C286.759 625.364 293.517 620.648 301.218 619.39H303.104C299.647 637.941 298.389 654.134 298.075 666.711C296.347 667.026 294.619 667.183 292.89 667.34L292.888 667.34C261.488 670.796 228.905 685.096 208.307 694.135C197.047 699.077 189.369 702.446 187.425 701.613C181.924 699.255 175.323 463.591 175.323 463.591C175.323 463.591 210.687 416.898 227.976 396.617C245.422 376.337 313.949 329.487 313.949 329.487C343.498 334.832 390.493 320.211 431.672 293.956C432.301 294.271 433.401 294.9 434.344 295.843C437.747 298.869 438.623 302.804 439.323 305.947C439.496 306.723 439.658 307.452 439.845 308.106C442.046 316.124 451.476 323.984 460.12 323.513C466.093 323.041 473.48 318.482 474.738 311.25C475.838 304.333 471.908 297.101 465.936 293.642C460.906 290.655 455.091 290.341 449.59 291.598C449.164 291.683 448.553 291.907 447.633 292.244L447.632 292.245L447.632 292.245C446.854 292.53 445.855 292.896 444.56 293.328C444.117 293.451 443.716 293.566 443.351 293.671C441.383 294.238 440.434 294.511 439.374 294.114C438.588 293.799 437.487 293.17 436.702 292.227C436.579 292.043 436.433 291.884 436.3 291.738L436.3 291.738C436.091 291.51 435.916 291.319 435.916 291.127C449.59 282.008 462.635 271.632 473.952 260.155C474.071 260.227 474.204 260.306 474.35 260.391L474.35 260.392C475.166 260.873 476.366 261.58 477.567 262.514C481.753 265.654 484.232 269.079 485.546 270.894L485.547 270.894C485.614 270.987 485.678 271.076 485.74 271.16C489.372 276.378 491.45 280.181 493.105 283.21C495.39 287.39 496.868 290.096 500.514 293.013C502.872 294.9 506.958 297.887 512.459 298.201C520.789 298.673 528.648 291.755 530.062 283.423C531.477 275.091 526.762 266.444 519.532 262.199C513.559 258.74 506.487 258.426 499.885 259.841C499.255 259.967 498.625 260.245 497.904 260.563C496.826 261.038 495.544 261.602 493.755 261.885L493.651 261.901C491.586 262.219 487.88 262.791 484.325 260.627C481.182 258.583 479.924 255.439 479.453 254.181L479.455 254.179C481.969 251.35 484.483 248.521 486.84 245.692C503.5 225.411 513.717 204.816 519.846 187.208C519.937 187.223 520.025 187.237 520.113 187.25C520.94 187.377 521.65 187.486 522.361 188.623C523.058 189.598 522.89 190.82 522.733 191.961C522.713 192.108 522.693 192.253 522.675 192.396C521.889 196.641 521.418 199.471 522.204 203.715C522.229 203.858 522.254 204.004 522.279 204.154C522.338 204.501 522.397 204.867 522.458 205.246L522.458 205.247C522.866 207.778 523.369 210.892 524.404 212.834C528.176 220.066 532.263 227.298 536.664 234.215C534.463 235.944 533.049 238.617 532.42 241.604C531.792 244.591 531.949 247.421 532.42 250.408C532.892 253.71 533.678 257.011 535.564 259.841C537.921 263.3 542.008 265.343 546.094 266.444C551.124 267.702 556.939 267.387 561.183 264.4C563.698 262.671 565.584 259.998 566.841 257.168C569.513 250.88 569.356 243.491 565.741 237.674C562.126 231.857 555.21 228.241 548.452 229.184C547.509 229.341 546.723 229.341 545.78 229.341C543.737 229.184 542.165 227.298 540.907 225.568C533.677 215.664 528.491 203.244 530.691 191.138C534.306 191.453 537.607 192.711 540.75 194.44C541.851 195.069 542.951 195.698 543.737 196.798C544.982 198.667 545.148 201.154 545.304 203.493L545.308 203.558C545.937 209.532 548.295 215.821 553.324 219.122C558.039 222.11 564.012 222.11 569.513 220.852C572.028 220.38 574.543 219.437 576.114 217.55C576.817 216.707 577.268 215.488 577.692 214.34C577.743 214.204 577.793 214.068 577.843 213.934C579.258 210.004 580.515 205.916 580.515 201.672C580.515 197.427 579.258 193.182 576.271 190.195C574.542 188.466 572.499 187.208 570.299 186.422C561.969 183.278 552.067 184.693 544.994 189.881C544.895 189.947 544.796 190.02 544.695 190.094L544.694 190.095C544.316 190.373 543.918 190.667 543.422 190.667C543.121 190.767 542.82 190.675 542.559 190.595C542.412 190.55 542.278 190.51 542.165 190.51C535.249 188.151 528.648 185.164 522.99 180.448C523.461 178.247 524.09 174.788 524.562 172.115C525.819 167.556 526.762 163.311 527.391 159.381C527.548 159.224 527.548 158.909 527.548 158.752C528.422 156.063 528.893 153.69 529.355 151.363C529.974 148.248 530.576 145.215 532.106 141.616C533.001 139.556 534.151 137.446 535.266 135.4L535.267 135.399L535.267 135.398C536.109 133.853 536.931 132.346 537.607 130.925C540.122 125.266 542.479 119.291 542.951 113.16C543.579 105.614 540.436 96.6526 533.206 93.3511C526.605 90.364 518.746 90.5212 512.302 93.8227C510.573 94.6088 505.386 97.2814 501.929 103.098C496.899 111.902 498.628 122.907 502.872 129.668C503.874 131.243 504.68 132.101 505.693 133.177C506.902 134.464 508.406 136.062 510.887 139.572L511.148 139.951C512.903 142.499 515.679 146.531 517.174 150.42C519.375 155.922 519.532 162.211 517.017 172.273C511.516 194.283 496.585 219.751 493.284 225.254C492.027 222.424 490.455 219.594 489.198 217.393L489.007 217.043L489.006 217.043C488.15 215.474 487.458 214.206 487.311 213.62C487.208 213.311 488.993 211.586 490.37 210.256C491.095 209.555 491.707 208.963 491.87 208.746C492.477 208.071 493.114 207.453 493.743 206.844L493.743 206.843L493.744 206.843C494.577 206.035 495.396 205.241 496.113 204.344C500.042 199.313 502.557 193.182 501.929 186.736C501.143 178.876 495.641 171.487 488.097 169.286C480.553 167.085 471.437 171.015 468.608 178.404C467.036 182.334 467.35 186.579 468.294 190.667C469.708 196.169 471.437 201.829 474.58 206.545C475.995 208.904 478.038 210.79 480.081 212.519C480.398 212.783 480.696 212.976 480.977 213.157L480.977 213.158C481.534 213.517 482.021 213.832 482.439 214.563C483.225 215.821 483.854 216.922 484.325 218.022C485.897 222.424 486.84 226.04 486.997 226.983C487.312 228.241 487.626 229.813 487.94 231.857C483.854 237.202 478.981 242.547 472.851 247.578C472.302 248.128 471.676 248.601 471.08 249.05C470.824 249.244 470.573 249.433 470.337 249.622C464.836 248.522 454.305 245.377 445.346 236.416C441.574 232.643 434.658 225.725 434.816 216.293C434.911 210.287 437.087 207.287 440.362 202.771C442.488 199.84 445.077 196.27 447.861 190.824C449.309 188.012 450.619 185.199 451.941 182.362C453.057 179.965 454.182 177.55 455.405 175.103C455.562 174.631 455.877 174.002 456.348 173.688C456.977 173.059 457.606 172.901 458.392 172.744C463.735 171.172 468.136 167.085 470.965 162.368C475.052 155.765 477.881 148.376 474.738 140.987C472.223 135.013 466.25 130.925 460.278 128.881C451.476 125.894 441.26 126.209 433.873 131.554C426.328 136.899 423.185 148.219 428.529 155.765C430.4 158.422 433.152 160.545 435.859 162.633C440.201 165.983 444.427 169.244 444.718 174.474C444.875 177.46 443.617 180.133 442.36 182.805L442.36 182.806C438.116 191.767 433.401 200.571 428.529 209.061C425.911 208.15 425.683 208.064 424.324 207.548C423.806 207.351 423.125 207.093 422.085 206.703C423.656 198.527 424.914 189.566 420.67 182.492C417.212 176.989 410.611 173.688 404.01 173.845C397.409 174.159 391.121 177.461 386.878 182.492C384.52 185.164 382.634 188.466 382.477 192.082C382.005 197.584 385.463 202.772 389.707 206.231C395.68 211.105 403.538 213.777 411.397 213.777C411.936 213.777 412.474 213.752 413.013 213.726C414.361 213.662 415.708 213.598 417.055 213.934C421.613 215.035 424.285 219.594 426.014 223.996C426.957 226.354 429 231.857 426.8 234.058C425.265 235.712 420.713 236.389 417.344 236.89C416.229 237.056 415.244 237.203 414.54 237.359H413.283C412.784 237.234 412.483 236.911 412.144 236.547C412.056 236.453 411.965 236.356 411.868 236.259C405.424 229.184 397.251 221.009 386.721 224.153C380.748 226.04 376.347 231.542 374.933 237.517C374.147 240.975 374.147 244.748 375.876 247.735C380.119 255.439 393.636 258.269 401.338 255.282C406.21 253.395 410.454 249.308 412.497 244.434C412.811 243.805 413.126 243.176 413.597 242.705C414.383 241.919 415.326 241.919 415.64 241.919C434.03 240.504 445.975 246.321 445.975 246.321C449.904 248.207 455.562 251.509 461.535 257.168C407.939 295.686 346.327 293.17 346.327 293.17C368.174 255.596 366.445 215.978 363.145 195.226C365.974 192.239 367.86 188.466 368.331 184.535C368.367 184.182 368.404 183.828 368.441 183.475V183.475C368.736 180.686 369.029 177.911 368.331 175.26C368.174 174.552 367.939 173.885 367.703 173.217L367.703 173.216L367.702 173.215C367.467 172.547 367.231 171.879 367.074 171.172C366.741 169.372 366.945 167.486 367.146 165.624C367.42 163.096 367.689 160.61 366.602 158.438C365.713 156.658 364.118 155.432 362.503 154.191C361.264 153.239 360.013 152.277 359.058 151.049C358.467 150.28 357.987 149.4 357.501 148.51C356.695 147.032 355.873 145.525 354.5 144.446C353.402 143.64 352.133 143.176 350.884 142.718C349.452 142.194 348.047 141.68 346.956 140.673C346.225 140.015 345.732 139.153 345.24 138.293C344.674 137.303 344.109 136.315 343.184 135.642C341.703 134.438 339.786 134.325 337.851 134.211C336.499 134.131 335.138 134.05 333.91 133.598C332.504 133.176 331.317 132.281 330.14 131.394C328.686 130.298 327.247 129.212 325.423 129.039C323.6 128.873 321.821 129.537 320.039 130.203C318.441 130.8 316.842 131.397 315.207 131.397C314.441 131.397 313.675 131.215 312.898 131.031C311.763 130.762 310.605 130.488 309.391 130.768C306.177 131.499 305.136 135.218 304.248 138.39C304.21 138.525 304.173 138.658 304.135 138.791C304.106 138.895 304.077 138.998 304.048 139.1C303.671 140.515 303.166 141.93 302.662 143.345L302.661 143.345C301.484 146.647 300.307 149.948 300.747 153.25C301.031 155.313 301.928 157.216 302.824 159.118C303.908 161.418 304.991 163.717 304.991 166.298C304.94 167.365 304.709 168.48 304.477 169.597C303.992 171.939 303.506 174.287 304.676 176.203C305.266 177.146 306.12 177.824 306.975 178.502C307.26 178.728 307.545 178.954 307.82 179.19C310.158 181.122 311.444 183.843 312.741 186.588C313.45 188.087 314.161 189.593 315.05 190.981C318.822 197.112 325.58 200.728 332.81 201.986C337.682 202.929 342.869 202.772 347.899 201.986C351.848 243.271 331.223 267.309 312.972 288.581C308.705 293.554 304.567 298.376 300.904 303.232C288.959 319.268 248.408 346.78 216.188 367.218C213.516 360.772 202.985 329.644 222.317 293.17C223.889 290.498 225.461 287.982 225.461 287.982C228.919 282.637 232.691 278.707 235.677 275.877C237.72 276.663 239.292 277.606 240.235 278.392C241.021 279.021 241.964 279.807 243.064 281.222C244.007 282.48 244.479 283.423 245.265 285.467C247.465 290.655 247.465 290.655 247.465 290.655C249.508 293.956 252.495 296.629 255.638 299.145C257.839 301.031 260.51 302.446 263.34 302.446C268.841 302.603 273.87 298.044 274.656 292.699C275.442 287.353 272.299 281.851 267.583 279.178C263.654 276.977 259.096 276.82 254.852 277.763C254.486 277.825 254.095 278.028 253.644 278.264L253.644 278.264C252.935 278.634 252.076 279.082 250.923 279.178C248.565 279.336 246.837 278.707 245.736 278.235C241.964 276.82 239.764 273.833 238.821 272.418C245.265 266.916 252.652 262.356 259.253 259.055C261.611 262.199 267.112 265.343 271.041 266.601C272.456 267.073 284.715 270.06 284.715 270.06C281.415 275.405 283.772 283.58 288.959 287.196C292.417 289.712 297.289 289.554 301.218 287.668C304.991 285.781 307.977 282.323 310.177 278.707C310.963 277.449 311.749 276.034 311.906 274.462C312.221 272.733 311.749 271.003 310.963 269.431C308.763 264.715 304.205 261.256 299.018 260.47C293.988 259.684 289.745 262.042 286.287 265.972C285.752 266.642 275.753 263.092 271.925 261.733C271.259 261.496 270.779 261.326 270.57 261.256C270.255 261.099 269.941 260.941 269.784 260.941C267.269 259.998 265.226 258.74 263.497 257.011C271.513 253.552 279.057 251.351 284.715 250.094C284.839 250.156 284.939 250.242 285.033 250.324C285.178 250.45 285.311 250.565 285.501 250.565L285.703 250.697C288.786 252.702 292.026 254.81 295.717 254.81C298.389 254.967 300.904 253.867 303.262 252.609C306.248 250.88 309.077 248.679 310.806 245.692C312.535 242.705 312.849 238.774 311.12 235.787C310.335 234.215 308.92 233.115 307.505 232.328C303.105 229.97 297.446 230.599 293.045 233.115C291.002 234.372 286.601 238.46 284.244 242.39C280.786 243.491 277.014 244.748 272.77 246.321C271.513 246.949 270.256 247.421 269 247.892L268.998 247.893C266.577 248.861 264.063 250.016 261.455 251.214L261.455 251.215C260.677 251.572 259.891 251.933 259.096 252.295C258.34 251.084 257.874 249.873 257.139 247.961L257.053 247.735V246.949C256.581 245.377 253.438 232.486 254.224 231.857C258.467 228.713 260.982 223.367 260.825 218.179C260.511 212.991 257.524 207.803 253.123 205.13C251.709 204.187 249.194 203.558 247.465 203.558C247.138 203.591 246.783 203.603 246.404 203.616C244.963 203.666 243.169 203.728 241.178 204.973C236.94 207.49 235.38 210.231 234.336 212.066C234.141 212.408 233.964 212.719 233.791 212.991C231.434 216.764 230.805 221.638 232.848 225.411C235.835 230.756 240.864 232.014 244.164 232.328C246.679 232.8 248.88 232.8 248.88 232.8C248.094 234.844 251.237 245.849 251.709 247.107C252.18 248.364 253.438 251.509 255.009 254.181C254.852 254.181 254.734 254.26 254.617 254.338C254.499 254.417 254.381 254.496 254.224 254.496C253.798 254.732 253.359 254.983 252.909 255.239L252.909 255.239L252.908 255.24C251.863 255.835 250.764 256.462 249.666 257.011C247.858 258.19 246.011 259.33 244.165 260.47C242.318 261.61 240.471 262.749 238.664 263.929L235.049 266.444C234.891 266.758 234.734 266.758 234.734 266.758C234.106 266.758 233.477 266.601 232.534 266.287C231.762 265.956 231.222 265.47 230.752 265.047C230.551 264.867 230.364 264.698 230.176 264.557C229.68 264.061 229.282 263.37 228.905 262.714C228.804 262.538 228.704 262.365 228.604 262.199C228.288 261.672 228.255 261.215 228.22 260.735V260.734C228.202 260.498 228.185 260.257 228.133 259.998C227.661 258.112 227.033 256.382 226.09 254.653C224.046 251.037 221.06 248.364 218.074 245.692C215.873 243.805 213.201 242.39 210.372 242.076C204.871 241.604 199.685 246.006 198.584 251.351C197.641 256.697 200.47 262.514 205.186 265.343C208.958 267.702 213.516 268.016 217.917 267.23C218.624 267.073 219.291 266.837 219.959 266.601L219.96 266.601L219.961 266.601C220.628 266.365 221.296 266.129 222.003 265.972C223.206 265.638 223.983 265.304 224.563 265.054C225.347 264.717 225.772 264.534 226.404 264.715C228.003 265.151 228.93 267.065 229.309 267.849C229.326 267.884 229.342 267.917 229.357 267.948C229.369 267.972 229.38 267.995 229.39 268.016C229.862 268.802 230.019 269.588 230.019 270.217C224.046 275.091 218.388 280.593 213.044 287.039L211.158 289.397C209.272 291.755 207.386 294.271 205.657 296.944C184.91 328.386 183.496 364.86 185.068 386.398C177.995 390.8 173.594 393.316 173.594 393.316C173.594 393.316 167.15 280.593 165.106 253.552C163.22 226.512 161.177 114.418 161.177 114.418C162.749 95.8665 175.951 73.2277 194.341 54.8336C196.696 56.7408 197.691 59.2885 198.467 61.2769L198.467 61.2771C198.779 62.0751 199.055 62.7829 199.37 63.3232C199.37 63.3232 205.972 74.6426 195.127 98.6964C194.969 99.0108 194.498 99.7969 193.712 100.269C193.083 100.583 192.297 100.583 191.669 100.583C186.325 100.897 181.138 103.256 177.68 107.343C172.179 113.632 170.136 127.152 175.951 133.912C178.152 136.585 181.767 137.843 185.225 138.314C191.354 138.943 197.956 136.742 201.728 131.869C208.329 123.065 203.457 112.688 199.056 104.199C198.742 103.57 198.584 103.098 198.584 102.469C198.584 102.128 198.75 101.868 198.9 101.632C198.958 101.542 199.013 101.455 199.056 101.369C199.432 100.767 199.889 99.9312 200.403 98.9905C202.039 95.9997 204.253 91.9496 206.286 90.9929C209.115 89.8924 213.516 93.5083 215.559 95.2377C219.017 98.3819 222.317 102.469 221.846 107.186C221.731 108.563 221.197 109.857 220.673 111.128C220.479 111.598 220.287 112.065 220.117 112.531C217.288 119.763 217.131 128.095 219.803 135.485C221.689 140.673 225.147 145.703 230.49 147.276C233.948 148.376 237.72 147.747 241.021 146.489C247.308 144.131 252.495 139.415 255.009 133.284C257.367 127.152 256.581 119.763 252.495 114.575C247.308 107.972 238.192 106.243 230.019 104.828V97.9103C239.921 96.181 249.823 94.766 259.725 93.8227C262.711 93.5083 265.697 93.3511 268.369 94.4516C273.076 96.4694 274.672 101.541 276.313 106.759C277.357 110.079 278.42 113.458 280.314 116.147C285.658 123.693 297.289 124.637 304.991 119.449C312.535 114.261 316.464 104.671 316.464 95.5521C316.621 89.2635 314.893 82.1889 310.177 77.7869C304.362 72.2844 296.346 72.4416 288.802 74.0138C283.458 75.1143 278.114 77.7869 274.813 82.1889C274.342 82.8178 273.87 83.4466 273.242 83.761C272.77 84.2327 272.141 84.2327 271.513 84.2327C269.187 84.4842 266.86 84.6854 264.534 84.8867C261.045 85.1885 257.556 85.4904 254.066 85.962C250.727 86.3517 247.368 86.84 244.003 87.3291L244.003 87.3291C237.866 88.2212 231.709 89.1161 225.618 89.4207C219.488 89.7352 212.416 83.1321 209.586 76.0575C208.433 73.2115 208.371 70.8548 208.295 67.993C208.216 65.0056 208.122 61.4678 206.757 56.2485C205.657 52.0037 204.243 48.5451 203.3 46.5013C208.801 41.9421 213.987 38.1689 218.545 35.1818C221.846 33.138 227.033 29.9938 233.634 26.5351L240.707 23.2336C243.536 27.3211 248.565 31.7231 250.137 32.9808C252.18 34.3958 266.64 43.357 267.426 41.4704C264.911 47.4446 262.868 57.5062 268.055 63.1659C271.67 66.9391 277.485 68.1968 282.672 66.9391C287.859 65.6814 292.26 62.3799 295.875 58.6068C297.132 57.1918 298.389 55.6197 299.018 53.8903C299.647 51.8465 299.49 49.6455 299.018 47.6018C297.603 41.4704 292.888 35.9679 286.916 33.7669C280.943 31.5659 273.87 32.5092 268.684 36.2823C267.741 37.0684 253.909 28.4216 252.338 27.3211C252.18 27.2425 252.063 27.1639 251.945 27.0853C251.827 27.0067 251.709 26.9281 251.552 26.8495C249.194 25.2773 247.308 23.548 245.736 21.5042C252.495 17.2594 263.183 12.0713 277.014 9.55589C285.501 7.98374 293.674 6.5688 303.89 8.92702C309.899 10.2931 313.98 12.401 317.55 14.2452C322.198 16.6458 325.98 18.5996 332.024 17.8883C333.753 17.7311 342.083 16.7878 346.956 9.87032C348.975 7.08474 350.192 3.58967 350.471 0H1088.06C1090.19 5.34482 1093.84 10.1876 1098.26 13.8243C1106.39 20.2086 1117.12 23.4006 1127.57 24.8516C1135.69 26.0124 1144.1 26.3026 1151.65 23.1105C1161.8 19.0478 1168.76 9.76156 1175.15 0.765549C1178.65 0.466612 1182.54 0.199098 1186.77 0ZM771.765 438.102C773.97 441.021 775.491 444.427 776.038 448.026C777.139 455.258 773.838 463.119 767.708 467.049C767.586 467.123 767.46 467.196 767.332 467.27C766.637 467.675 765.882 468.115 765.351 468.779C763.779 470.508 763.779 473.023 763.936 475.382C765.036 488.745 769.28 502.737 779.653 511.069C782.325 508.239 784.369 504.938 785.626 501.165C786.098 499.907 786.412 498.492 786.412 497.077C786.283 495.02 785.103 493.278 783.903 491.507C783.636 491.113 783.369 490.718 783.111 490.317C779.339 484.972 776.981 478.054 778.867 471.766C780.59 466.285 785.275 462.208 790.282 459.379C793.436 450.021 800.191 441.753 808.727 436.927C819.752 430.543 832.807 429.962 844.992 432.864C847.147 433.362 849.302 434.238 851.457 435.115C853.074 435.772 854.69 436.429 856.306 436.927C856.496 437.003 856.834 437.143 857.28 437.328C860.251 438.56 868.025 441.784 868.782 441.28C869.942 440.409 871.683 438.088 874.004 434.896C874.342 434.444 874.691 433.977 875.051 433.496C878.387 429.028 882.578 423.417 886.769 419.225C844.992 370.472 821.782 329.555 809.017 298.504C807.567 299.085 806.406 299.665 805.826 300.826C804.665 302.857 804.956 305.469 805.246 307.791C806.696 315.626 807.276 325.492 805.826 333.328C804.955 338.261 803.795 340.873 801.474 345.516C794.511 358.865 786.678 371.923 778.265 384.692C782.616 387.884 785.228 393.108 786.098 398.621C787.258 405.876 786.388 411.68 785.808 414.872C785.365 417.085 781.886 429.763 771.765 438.102ZM803.87 498.448C800.293 500.353 796.316 501.53 792.227 501.794C791.599 501.794 790.813 501.794 790.341 502.265C790.027 502.58 789.713 502.894 789.555 503.366C785.155 510.283 781.854 517.83 780.596 526.005C782.432 526.922 784.29 528.102 786.182 529.303C789.152 531.187 792.203 533.123 795.371 534.18C796.976 534.639 798.693 534.986 800.395 535.33C802.192 535.693 803.972 536.054 805.587 536.538L805.588 536.538C810.774 538.11 815.961 539.682 820.361 542.827C825.548 546.757 829.949 553.674 827.905 560.435C826.177 566.409 821.619 571.597 815.96 573.955C803.858 578.986 792.542 573.483 786.255 562.95C781.539 554.932 782.64 546.757 782.64 546.757C782.64 546.237 782.682 545.731 782.725 545.226C782.824 544.053 782.922 542.888 782.482 541.569C781.11 537.587 776.86 535.644 774.549 534.587L774.547 534.586C774.213 534.433 773.919 534.299 773.681 534.18C764.25 528.992 748.847 520.974 724.957 509.969V509.969C724.957 511.542 724.957 515.314 727 519.244C727.098 519.391 727.208 519.569 727.331 519.77C728.002 520.858 729.097 522.634 731.087 523.961C733.866 525.878 736.47 525.75 739.362 525.607C741.213 525.515 743.182 525.418 745.39 525.847C753.405 527.262 758.435 534.494 759.378 536.066C762.836 541.412 765.979 551.788 760.164 560.435C755.291 567.666 744.918 570.811 737.217 566.566C733.13 564.365 730.301 560.592 728.258 556.504C725.586 550.844 723.071 544.87 722.285 538.582C721.971 535.595 722.285 532.608 722.757 529.621C722.884 528.919 722.986 528.502 723.062 528.191C723.173 527.736 723.228 527.508 723.228 526.948C723.228 523.961 721.971 521.603 719.928 517.83C719.456 516.886 718.827 515.943 718.042 514.842L712.855 506.982C712.071 506.835 711.288 506.673 710.5 506.509L710.498 506.509C708.757 506.149 706.992 505.783 705.153 505.567C698.395 504.466 692.108 503.837 686.292 503.68C685.349 507.611 683.778 513.428 680.32 519.716C678.361 523.424 676.621 525.731 675.195 527.621C673.417 529.977 672.129 531.685 671.518 534.651C669.789 542.512 673.247 553.046 679.534 556.19C685.971 559.464 692.863 562.132 699.683 564.772L699.687 564.774C702.69 565.936 705.68 567.094 708.611 568.295C711.597 569.553 714.505 570.889 717.413 572.226C720.321 573.562 723.228 574.898 726.215 576.156C726.843 576.47 727.472 576.628 728.101 576.628C728.886 576.628 729.672 576.313 730.458 575.999C735.959 573.483 742.56 573.798 748.376 575.842C756.392 578.514 764.25 582.759 766.765 591.091C768.808 597.852 766.765 605.555 763.15 611.529C757.963 620.176 749.319 627.408 739.103 628.037C729.044 628.823 718.199 621.434 717.413 611.372C717.112 607.824 717.916 604.091 718.706 600.421C719.981 594.497 721.221 588.736 717.727 584.174C715.997 581.867 713.21 580.486 710.577 579.181L710.574 579.179C710.337 579.062 710.102 578.945 709.869 578.829C699.967 574.427 689.908 570.339 679.691 566.566C678.591 568.453 678.198 569.16 677.805 569.867C677.412 570.575 677.019 571.282 675.919 573.169C682.992 578.986 690.536 585.589 691.951 594.55C693.051 601.625 689.75 609.171 684.092 613.73C678.434 618.289 670.732 619.862 663.66 618.761C659.73 618.132 655.958 616.717 653.129 613.887C648.885 609.485 648.257 602.725 649.2 596.908C650.614 588.419 655.33 580.558 662.088 575.055C662.224 574.946 662.363 574.837 662.503 574.728C662.66 574.606 662.819 574.483 662.979 574.36C664.326 573.32 665.748 572.223 666.646 570.811C669.789 566.723 668.846 560.906 667.117 556.033C666.174 553.36 663.817 547.386 660.516 547.071C657.954 546.827 653.497 549.615 650.308 551.61L650.306 551.611C649.388 552.185 648.575 552.694 647.942 553.045C647.471 553.203 647.156 553.517 646.842 553.832C646.371 554.303 646.371 555.089 646.371 555.718C645.899 566.251 644.956 578.829 633.797 583.702C627.51 586.375 619.966 584.803 614.464 580.872C611.321 578.672 608.649 575.37 608.02 571.597C606.134 562.007 615.565 550.058 624.209 547.229C629.71 545.342 636.154 545.814 641.341 548.486C641.428 548.53 641.519 548.577 641.611 548.625C642.188 548.923 642.865 549.272 643.541 549.272C644.439 549.272 645.128 548.854 645.522 548.614C645.61 548.56 645.684 548.515 645.742 548.486C666.803 533.237 671.361 516.729 671.361 516.729C672.147 514.214 672.933 510.126 673.247 505.095C662.088 505.881 645.899 508.397 628.296 516.257C602.048 528.048 586.959 545.342 566.369 569.553C553.01 585.274 535.878 607.756 519.689 637.627C528.491 635.426 539.021 631.653 552.067 625.521C552.067 625.521 552.067 625.678 551.909 625.993L555.21 624.578C564.483 621.119 575.171 620.648 583.658 625.05C586.932 626.687 588.744 627.946 590.345 629.059C592.741 630.725 594.666 632.063 600.319 633.854C600.507 633.91 600.694 633.966 600.882 634.021L600.912 634.03C603.856 634.905 606.774 635.771 609.278 638.57C610.902 640.398 611.28 641.897 611.726 643.662L611.726 643.663C611.912 644.4 612.11 645.183 612.415 646.056C615.726 641.711 619.963 637.986 624.225 634.24C627.001 631.799 629.788 629.35 632.335 626.714L632.671 626.361C638.417 620.322 645.541 612.835 653.224 615.396C655.945 616.417 657.968 618.435 659.995 620.456C661.426 621.883 662.858 623.311 664.538 624.392C667.874 626.617 671.943 627.309 676.01 628.001C680.432 628.754 684.853 629.506 688.328 632.227C691.911 634.997 693.574 639.229 695.267 643.539C696.591 646.906 697.932 650.321 700.223 653.121C702.243 655.618 704.946 657.53 707.611 659.416C711.453 662.135 715.218 664.799 716.76 669.082C717.86 671.754 717.853 674.596 717.847 677.47C717.841 679.903 717.835 682.358 718.5 684.752C719.428 688.31 721.757 691.29 724.081 694.265C726.118 696.871 728.151 699.473 729.235 702.454C730.647 706.341 730.555 710.55 730.463 714.754C730.404 717.456 730.345 720.156 730.685 722.768C731.185 726.64 732.598 730.296 733.999 733.923C735.854 738.723 737.689 743.471 737.358 748.595C736.858 754.773 733.283 759.894 729.675 765.064C727.012 768.879 724.331 772.721 722.852 777.034C722.156 779.123 721.773 781.213 721.39 783.302C721.135 784.695 720.88 786.088 720.531 787.481C718.501 795.026 713.859 801.41 709.217 807.505C708.205 836.1 711.384 893.602 744.726 960H852.048C839.061 959.344 825.846 952.436 818.011 941.864C805.826 924.743 805.246 901.237 812.208 881.504C816.85 867.865 826.425 854.226 839.77 848.422C856.597 841.167 873.713 847.841 888.799 857.128C899.534 863.802 908.818 873.669 912.299 885.857C912.426 886.236 912.538 886.615 912.649 886.988C913.047 888.329 913.422 889.592 914.33 890.5C915.2 891.37 916.361 892.241 917.811 892.821C923.904 895.868 929.924 898.698 935.944 901.527C941.964 904.357 947.984 907.186 954.076 910.233C960.566 913.577 967.055 917.154 973.579 920.75C986.303 927.764 999.156 934.85 1012.39 940.413C1025.74 946.217 1042.56 942.735 1052.43 931.707C1055.45 928.224 1060.14 919.918 1064.76 911.741C1068.99 904.252 1073.15 896.87 1075.93 893.402C1079.99 888.759 1087.82 882.665 1093.62 880.924C1085.79 869.896 1077.38 859.449 1068.67 850.163C1047.49 846.1 1035.02 850.163 1027.77 854.806C1024.1 857.1 1023.15 857.943 1019.47 861.206C1018.5 862.07 1017.33 863.105 1015.87 864.382C1006.88 872.218 995.273 877.441 983.378 879.182C974.965 880.343 966.261 879.763 958.718 875.7C944.502 868.155 938.7 849.002 944.792 834.202C950.885 819.402 967.131 809.826 983.088 810.406C999.044 810.697 1014.13 819.983 1023.12 833.332C1023.37 833.71 1023.62 834.134 1023.9 834.588C1025.95 837.964 1029.03 843.046 1034.15 844.069C1037.34 844.649 1040.24 843.779 1045.46 842.037C1050.11 840.586 1053.59 838.845 1055.91 837.685C987.15 772.101 900.404 749.756 885.318 746.274C880.386 745.113 876.035 745.113 876.035 745.113C870.015 745.865 866.164 749.004 862.606 751.903C862.049 752.358 861.499 752.806 860.948 753.238C860.948 753.238 852.535 759.913 837.739 764.266C820.912 769.489 797.993 762.815 784.357 747.724C780.586 743.372 774.783 734.956 772.172 723.348C769.271 709.709 773.043 694.619 782.036 683.592C791.9 671.403 810.468 670.533 824.394 675.176C834.258 678.658 846.733 685.042 855.146 694.619C855.375 694.886 855.62 695.175 855.882 695.485C859.606 699.885 866.738 708.311 878.936 713.192C879.276 713.192 879.516 713.291 879.715 713.374C879.856 713.432 879.976 713.482 880.096 713.482L880.759 713.693C888.687 716.226 911.481 723.507 942.761 738.729C943.922 725.67 942.182 712.611 938.99 699.552C938.99 698.682 938.7 697.811 938.12 697.231C937.25 696.36 936.089 695.78 934.929 695.49C918.392 688.815 905.627 673.435 902.145 656.023C901.565 652.831 900.695 647.898 902.145 642.094C905.917 626.423 923.324 614.235 940.731 614.235C943.342 614.235 952.626 614.235 961.619 621.2C970.613 627.874 976.125 639.192 975.835 650.51C975.835 662.698 967.422 673.145 957.848 680.69C957.368 681.059 956.883 681.424 956.399 681.788C953.08 684.285 949.793 686.757 948.274 690.556C947.403 692.878 947.113 695.49 947.403 698.101C947.403 705.356 949.434 712.321 952.335 718.705C975.255 709.709 990.631 687.654 999.915 664.729C1001.66 660.666 1003.11 656.313 1001.08 652.251C1000.41 650.925 999.582 649.936 998.711 648.899C998.438 648.574 998.161 648.244 997.884 647.898C989.181 637.451 988.02 621.781 993.823 609.592C999.915 597.404 1012.39 588.988 1025.74 586.957C1031.83 586.086 1038.21 586.377 1044.01 588.698C1053.59 592.761 1060.26 602.337 1063.45 612.204C1066.06 620.329 1066.93 629.325 1063.45 637.161C1059.97 644.996 1054.46 649.639 1050.69 652.541C1038.5 661.827 1024.86 662.698 1018.48 662.698C1013.28 673.325 1007.43 682.331 1001.29 691.776C999.215 694.968 997.108 698.211 994.983 701.584C991.792 706.517 985.699 713.772 981.347 717.835C974.094 724.509 970.613 727.411 961.909 730.893C959.588 731.764 956.978 732.925 955.817 735.246C954.529 737.824 955.624 740.719 956.751 743.697C957.147 744.743 957.546 745.798 957.848 746.854C981.057 759.042 1007.75 775.293 1036.18 796.477C1039.08 795.026 1043.72 792.124 1048.07 787.191C1049.53 785.45 1052.43 781.967 1054.17 776.744C1056.36 769.879 1054.92 763.533 1054.27 760.658C1054.23 760.495 1054.2 760.343 1054.17 760.203C1054.08 759.801 1053.93 759.179 1053.73 758.368C1051.9 750.98 1046.21 727.98 1053.01 714.642C1059.97 700.423 1075.93 690.847 1091.59 692.298C1107.26 694.039 1121.18 707.968 1121.18 723.638C1121.18 731.764 1117.7 739.889 1112.77 746.564C1105.81 756.14 1095.94 763.685 1084.92 768.038C1082.28 769.096 1080.38 769.806 1078.89 770.363C1075.49 771.639 1074.23 772.112 1070.99 774.132C1063.74 778.485 1055.62 787.481 1051.27 807.795C1069.83 821.434 1089.85 838.265 1109.87 859.449C1118.86 869.025 1126.99 878.312 1134.53 887.598C1134.62 887.44 1134.71 887.278 1134.81 887.109C1135.96 885.109 1137.54 882.35 1138.88 878.602C1139.75 875.99 1140.62 873.088 1140.62 870.477C1140.36 865.265 1136.36 861.457 1134.49 859.683C1134.28 859.482 1134.1 859.307 1133.95 859.159C1125.54 850.453 1116.83 831.881 1118.57 818.242C1120.6 803.151 1131.92 789.512 1146.71 786.03C1161.51 782.548 1178.63 790.963 1183.27 805.473C1185.88 813.018 1185.01 821.434 1182.69 828.979C1179.5 840.006 1172.83 849.873 1164.12 857.128C1162.47 858.488 1161.18 859.531 1160.12 860.391C1156.86 863.014 1155.72 863.934 1153.1 866.994C1147.29 873.959 1143.23 884.406 1144.1 901.527C1154.68 917.893 1165.8 937.415 1176.44 960H1250.19C1250.35 955.997 1250.49 951.991 1250.58 947.958V947.956C1250.58 946.506 1250.58 945.056 1250.29 943.896C1249.8 942.441 1248.71 941.391 1247.69 940.408C1247.48 940.215 1247.29 940.024 1247.1 939.833C1238.1 931.127 1233.46 918.359 1232.59 905.59C1231.14 888.178 1233.17 869.606 1247.39 857.998C1258.99 848.712 1275.24 846.681 1289.45 848.712C1310.34 851.614 1330.94 862.931 1340.51 881.794C1349.8 900.657 1344.58 927.064 1325.72 936.931C1319.1 940.41 1311.18 941.849 1303.4 943.263C1291.06 945.504 1279.08 947.681 1273.21 957.825C1272.78 958.534 1272.4 959.259 1272.07 960H1423.42C1428.81 869.545 1432.71 782.328 1430.74 742.501C1430.74 742.501 1361.4 657.184 1317.3 625.843C1273.21 594.792 1197.78 536.754 1197.78 536.754C1197.78 536.754 1081.44 547.201 977.286 492.644C975.255 494.095 972.934 495.546 970.903 496.707C968.872 497.868 966.841 499.028 965.101 500.479C964.023 501.378 963.279 502.498 962.525 503.635C962.06 504.334 961.592 505.04 961.039 505.703C960.285 506.835 960.143 507.721 959.977 508.761C959.888 509.321 959.792 509.925 959.588 510.636C958.428 514.989 956.687 519.052 954.366 522.824C954.168 523.102 953.872 523.586 953.48 524.227C951.004 528.275 944.696 538.589 934.929 542.848C919.842 549.522 894.602 543.428 889.96 527.467C886.479 515.279 896.343 501.06 906.787 495.256C916.071 490.032 926.805 489.452 936.959 492.064C938.972 492.613 940.87 493.393 942.798 494.186C943.927 494.649 945.065 495.118 946.243 495.546C946.594 495.634 947.608 496.04 948.877 496.548C951.802 497.72 956.08 499.433 956.687 499.028C957.558 498.158 959.008 496.417 961.039 493.805C961.554 493.119 962.068 492.407 962.59 491.685C963.834 489.965 965.121 488.185 966.551 486.55C941.891 472.33 917.811 454.048 896.633 430.833C893.97 433.254 890.903 435.272 887.938 437.222C887.349 437.609 886.765 437.993 886.189 438.378C885.689 438.69 885.176 439.003 884.658 439.318C882.77 440.467 880.82 441.655 879.226 443.021C877.585 444.427 876.513 446.213 875.396 448.071C875.131 448.513 874.863 448.959 874.584 449.405C873.581 450.809 873.41 451.936 873.209 453.265C873.119 453.858 873.023 454.492 872.843 455.209C871.393 460.433 869.362 465.366 866.461 470.009C860.368 479.585 851.665 487.13 842.961 494.095C836.579 499.028 829.035 502.801 820.912 503.381C814.868 503.609 808.958 501.73 803.87 498.448ZM1133.77 960C1126.18 938.718 1116.37 917.542 1104.07 897.174L1104.07 897.175C1099.71 899.497 1095.36 901.818 1091.59 905.009C1079.99 913.715 1074.77 927.935 1070.41 941.284C1068.5 947.404 1067.77 953.692 1067.76 960H1133.77ZM1053.45 960C1053.13 959.498 1052.79 959.059 1052.43 958.695C1047.79 954.058 1036.23 957.627 1030.28 960H1053.45ZM993.55 960C993.998 958.785 994.593 957.192 995.563 954.633C976.125 943.315 956.107 932.578 935.799 922.711C929.706 919.809 923.324 916.908 916.651 917.198C904.715 917.732 897.264 927.349 889.597 937.245C884.777 943.465 879.872 949.796 873.714 954.052C868.46 957.793 862.36 959.675 856.067 960H993.55ZM686.027 960C642.369 918.94 596.577 897.222 566.188 885.857C566.188 894.258 567.451 900.976 568.363 905.832C568.522 906.679 568.67 907.469 568.799 908.202C568.799 908.202 574.498 933.283 599.433 960H686.027ZM561.675 960C563.982 953.718 565.104 946.758 564.738 940.413C564.423 935.376 563.084 932.046 561.183 927.321C559.58 923.336 557.578 918.357 555.454 910.523C552.553 899.496 550.232 890.21 549.652 884.406C538.047 883.825 526.152 884.116 512.227 885.276C503.233 885.857 495.11 887.018 487.276 888.178C487.192 888.284 487.067 888.438 486.907 888.635C484.872 891.142 477.137 900.669 473.641 908.202C472.48 910.813 471.9 913.135 471.32 916.037C470.895 917.736 471.092 918.969 471.342 920.532C471.434 921.105 471.532 921.721 471.61 922.421C471.9 927.935 471.61 933.449 470.74 938.962C469.232 946.316 466.254 953.302 462.682 960H561.675ZM393.519 960C391.698 946.872 397.334 934.215 403.142 927.064C410.773 917.852 420.79 914.37 423.67 913.368C423.966 913.266 424.186 913.189 424.321 913.135C432.873 910.751 440.952 911.62 447.606 912.336C454.721 913.101 460.208 913.692 462.907 909.943C462.907 909.841 463.049 909.454 463.297 908.782C463.756 907.536 464.575 905.311 465.518 902.108C466.213 899.556 467.094 896.634 468.161 893.637C464.418 895.652 460.065 896.69 455.877 896.401C454.52 896.401 450.472 895.933 446.459 893.279C439.974 894.334 432.898 895.904 425.413 898.17C421.464 903.541 414.989 906.99 408.253 907.564C406.136 907.756 404.018 907.654 402.009 907.185C387.011 914.277 375.467 922.672 367.168 929.676C366.007 930.837 364.557 932.288 363.686 933.739C363.512 934.029 363.326 934.319 363.141 934.61C362.398 935.77 361.655 936.931 361.655 938.092C361.655 939.833 362.526 941.574 363.396 943.315C365.773 948.704 365.207 954.439 363.306 960H393.519ZM279.129 960C280.1 950.626 286.422 941.694 293.768 936.35C301.891 930.547 311.465 927.355 321.039 924.453C323.637 923.632 326.622 923.069 329.69 922.491C333.131 921.842 336.676 921.173 339.896 920.1C345.964 918.203 351.66 914.447 357.227 910.776C360.178 908.83 363.092 906.908 366.007 905.3C364.267 873.959 355.273 862.351 347.149 857.708C344.647 856.342 342.278 855.602 339.78 854.821C335.908 853.61 331.728 852.303 326.261 848.422C321.619 845.23 312.626 838.845 308.854 826.947C305.082 815.049 307.984 801.12 316.687 791.254C317.639 790.165 318.658 789.125 319.734 788.14C294.917 768.848 275.895 747.06 264.754 732.899C225.147 756.638 195.284 789.181 194.969 813.078C194.969 823.926 196.384 860.714 196.384 860.714C196.56 863.882 196.736 867.125 196.915 870.431C197.377 878.935 197.861 887.861 198.427 897.03L196.227 896.401C196.227 896.895 196.356 897.345 196.479 897.774C196.591 898.167 196.698 898.542 196.698 898.917C197.183 907.151 197.55 915.594 197.918 924.041C198.449 936.227 198.98 948.42 199.861 960H279.129ZM363.245 782.147C362.114 781.45 360.909 780.805 359.625 780.226C351.51 776.636 342.641 776.74 334.596 779.409C310.934 755.669 303.24 728.08 300.747 714.662C311.749 710.26 323.065 706.801 334.382 704.443C400.237 690.922 453.205 679.446 496.899 653.82C510.887 659.794 521.104 667.812 528.019 674.729C529.12 676.773 530.377 678.66 531.949 680.232C532.42 680.651 532.909 681.053 533.398 681.455C534.376 682.258 535.354 683.062 536.192 684.005C536.898 684.912 537.474 685.755 537.921 686.409C538.171 686.775 538.381 687.081 538.55 687.306C539.159 688.394 539.695 689.554 540.233 690.716C541.639 693.753 543.051 696.807 545.78 698.626C548.134 700.166 550.958 700.505 553.8 700.847C555.891 701.099 557.993 701.352 559.925 702.085C561.309 702.588 562.591 703.342 563.874 704.097C565.797 705.229 567.721 706.361 569.984 706.644C571.758 706.866 573.567 706.531 575.378 706.196C577.418 705.819 579.46 705.441 581.458 705.858C582.773 706.15 583.953 706.816 585.123 707.477C586.247 708.112 587.361 708.741 588.579 709.03C588.793 711.288 589.64 713.546 590.486 715.804C590.812 716.674 591.139 717.545 591.429 718.415C593.686 725.565 593.016 733.203 592.345 740.855C591.981 745.004 591.617 749.157 591.719 753.238C592.299 770.94 601.873 787.771 615.219 799.669C626.533 809.826 640.169 816.791 654.675 822.014C681.075 851.614 682.526 898.915 682.526 898.915C638.428 876.57 590.558 859.449 546.751 860.03H541.529L541.466 859.779C540.988 857.873 539.739 852.893 539.068 847.539C540.818 845.288 542.112 842.716 542.951 839.961C544.208 836.346 544.837 832.258 543.579 828.642C543.516 828.445 543.447 828.251 543.374 828.06C545.456 824.343 547.445 820.367 548.491 815.92C551.102 806.053 550.812 795.316 549.942 785.159C549.362 777.614 547.041 770.36 542.109 764.556C532.825 753.819 515.128 752.368 503.523 760.493C501.497 761.912 499.674 763.57 498.064 765.412C493.593 762.517 487.74 761.736 483.068 764.184C479.61 765.914 477.095 769.215 475.209 772.674C473.262 776.269 472.885 780.292 472.174 787.871C472.139 788.247 472.103 788.631 472.065 789.024C471.81 791.576 471.785 792.794 471.766 793.722V793.723C471.75 794.509 471.738 795.089 471.594 796.099C470.965 800.658 469.079 807.104 463.107 814.493C451.162 817.165 438.273 818.738 423.813 818.109C423.911 816.943 424.128 815.597 424.465 814.071C424.607 813.896 424.746 813.754 424.901 813.599C429.188 809.437 433.091 807.467 437.039 805.475C438.497 804.74 439.961 804.001 441.453 803.147C446.467 801.835 451.099 798.979 454.148 794.841C455.816 792.654 456.979 790.089 457.583 787.406C459.795 784.084 461.811 780.118 462.907 775.003C464.647 766.587 462.036 757.881 457.684 750.626C452.462 741.63 444.049 733.795 433.605 731.764C433.089 731.666 432.571 731.582 432.051 731.512C430.325 727.952 427.754 724.837 424.285 722.994C421.142 721.422 417.684 720.95 414.383 721.265C406.996 721.894 399.923 725.824 396.151 732.27C393.083 737.513 392.614 744.109 394.83 749.603C392.098 753.526 390.057 757.898 388.926 762.524C387.843 766.959 387.629 771.629 388.24 776.191C383.568 781.815 377.9 786.423 371.135 788.967C370.166 787.825 369.095 786.708 367.911 785.643C367.356 783.192 367.129 780.717 367.231 778.176C367.231 776.761 367.388 775.346 368.017 774.089C368.986 772.012 370.93 770.788 372.884 769.559C373.002 769.485 373.121 769.41 373.239 769.336C373.385 769.243 373.53 769.151 373.675 769.058C379.176 765.442 384.049 760.097 384.677 753.494C385.306 747.362 382.163 741.545 378.233 736.986C376.347 734.785 374.304 732.741 371.632 732.27C370.217 731.798 366.603 731.641 365.188 731.798C361.283 732.337 358.878 733.568 355.699 735.195C355.515 735.289 355.328 735.385 355.137 735.482C354.78 735.664 354.411 735.852 354.029 736.043C349.942 738.087 346.484 741.545 345.07 745.79C344.284 748.148 344.284 750.821 344.598 753.336C345.698 762.926 351.985 771.73 360.63 775.975C360.758 776.039 360.887 776.097 361.012 776.154C361.502 776.374 361.952 776.575 362.202 777.076C362.673 777.39 362.673 777.862 362.673 778.333C362.889 779.601 363.081 780.872 363.245 782.147ZM380.315 808.939C380.062 807.296 379.78 806.174 379.643 805.763C379.26 804.233 378.206 800.407 375.889 796.031C376.086 795.953 376.291 795.872 376.504 795.784C376.504 795.784 380.748 794.055 384.677 791.225C387.258 789.361 388.923 787.496 390.627 785.274C392.792 790.648 396.22 795.482 400.821 799.089C401.209 799.399 401.596 799.688 401.978 799.973C403.026 800.756 404.032 801.507 404.883 802.571C407.494 805.763 407.204 810.697 406.334 814.759C406.251 815.216 406.167 815.672 406.08 816.129C397.735 814.66 389.131 812.34 380.315 808.939ZM380.561 820.191C380.187 823.672 379.337 827.473 377.685 831.239C379.043 830.635 380.392 830.014 381.691 829.271C384.677 827.699 387.349 825.183 388.45 822.039C385.818 821.495 383.187 820.88 380.561 820.191ZM363.975 863.409C365.199 867.378 367.391 872.007 370.939 877.441C388.668 865.702 398.875 845.58 404.149 824.844C400.986 824.466 397.792 824.006 394.579 823.454C392.222 827.227 390.493 833.673 390.493 837.446C390.493 840.105 390.617 842.279 390.727 844.19C390.986 848.722 391.161 851.778 389.393 856.312C388.764 858.041 386.092 864.644 379.648 866.845C374.363 868.65 367.808 867.071 363.975 863.409ZM419.125 826.073C417.718 829.541 415.901 834.054 413.524 839.955C412.184 843.283 410.667 847.052 408.945 851.324C408.945 851.324 405.292 860.458 399.555 869.768C402.47 868.15 404.919 867.511 407.278 866.895C408.708 866.521 410.106 866.157 411.554 865.587C417.099 863.518 418.984 860.576 421.338 856.9C423.455 853.596 425.951 849.698 431.829 845.307C435.57 842.515 439.154 840.689 442.241 839.115C447.327 836.523 451.067 834.616 451.947 830.214C452.419 828.17 451.948 826.284 451.633 825.183C442.174 826.129 431.064 826.62 419.125 826.073ZM388.207 884.022C387.584 884.571 386.954 885.088 386.315 885.567L385.735 886.147C385.446 886.379 385.165 886.603 384.893 886.82C381.082 889.862 379.024 891.506 378.482 893.402C378.482 893.478 378.467 893.588 378.448 893.733C378.319 894.69 377.991 897.125 380.513 900.657H380.803C382.621 899.444 384.862 898.513 387.132 897.57C388.122 897.158 389.118 896.744 390.087 896.304C390.096 896.304 390.104 896.304 390.113 896.303C389.558 895.003 389.11 893.658 388.764 892.314C388.105 889.584 387.841 886.741 388.207 884.022ZM428.497 881.278C431.595 880.229 434.744 879.201 437.942 878.199C437.881 877.244 437.886 876.285 437.959 875.335C438.588 868.732 443.46 863.386 448.961 859.771C449.224 859.602 449.488 859.435 449.752 859.269C451.706 858.04 453.65 856.817 454.619 854.74C455.248 853.482 455.405 852.067 455.405 850.652C455.562 846.722 454.934 842.948 453.519 839.333C440.788 843.263 431.515 854.582 425.542 866.531C424.442 868.574 423.499 870.933 424.285 873.134C424.599 874.077 425.228 874.863 425.857 875.649L425.857 875.649C427.069 877.356 427.948 879.267 428.497 881.278ZM476.144 868.153C492.428 864.701 509.558 862.139 527.313 860.9C527.343 860.84 527.377 860.773 527.414 860.699C527.942 859.653 529.152 857.257 529.89 854.055C525.31 855.569 520.168 855.442 515.76 853.482C508.687 850.18 504.129 842.162 504.915 834.459C498.942 832.73 493.127 830.529 487.626 828.013C484.168 826.441 480.082 824.397 476.938 821.567C473.323 822.354 467.665 823.454 460.435 824.397C460.435 824.817 460.295 825.236 460.155 825.655C460.086 825.865 460.016 826.074 459.963 826.284C458.077 834.302 458.392 842.477 459.963 850.495C459.963 850.966 459.963 851.438 460.435 851.753C460.685 852.253 461.134 852.455 461.624 852.675L461.626 852.676C461.751 852.732 461.879 852.789 462.006 852.853C468.376 855.981 473.466 861.584 476.144 868.153ZM510.038 824.614C505.614 821.61 501.579 818.042 498.28 813.94C492.275 814.051 486.92 816.774 482.439 819.995C483.068 820.624 483.696 821.253 484.482 821.725C489.215 824.931 495.282 825.913 500.955 826.831L501.457 826.913C502.714 827.07 504.129 827.227 505.543 826.913C506.865 826.648 507.965 825.939 509.029 825.253L509.034 825.249C509.233 825.121 509.432 824.993 509.63 824.869C509.765 824.784 509.901 824.699 510.038 824.614ZM493.226 806.012C492.126 803.742 491.244 801.352 490.619 798.846C487.833 799.832 484.876 800.344 481.967 800.344C481.702 800.344 481.388 800.326 481.038 800.306H481.037C479.312 800.207 476.724 800.06 474.895 801.758C473.952 802.702 473.48 803.802 472.851 806.003C471.908 808.676 471.594 810.877 471.437 812.449C474.738 812.449 480.396 812.292 486.683 809.619C489.24 808.515 491.432 807.238 493.226 806.012ZM1440 120.841C1429.92 104.169 1413.96 82.659 1388.67 61.9965C1387.78 64.0468 1386.99 65.6445 1386.25 67.1642C1385.3 69.086 1384.42 70.8833 1383.45 73.314C1373.88 95.0786 1384.32 123.808 1397.38 141.51L1397.38 141.511C1398.25 142.671 1399.12 143.831 1400.28 144.121C1401.44 144.702 1402.89 144.411 1404.05 144.121C1413.91 143.251 1424.07 146.733 1431.32 153.117C1434.71 156.158 1437.7 160.472 1440 165.391V120.841ZM0 960H54.8359C56.319 951.671 57.3366 942.842 57.7572 933.347C57.7572 929.134 58.1336 925.046 58.55 920.524C58.5998 919.984 58.6501 919.437 58.7004 918.883C58.8307 916.864 58.9069 914.493 58.9851 912.063C59.0956 908.628 59.2099 905.072 59.4861 902.218C59.8004 898.288 59.9578 894.358 60.1149 890.27C60.5864 870.461 60.7435 850.966 60.7435 832.101C60.7435 822.196 61.0579 813.235 61.5294 805.531C62.6296 786.509 36.8533 769.844 36.8533 769.844L0 745.319V960ZM67.3447 707.901C67.3447 707.901 38.0674 693.151 0 681.738V670.427C7.45631 677.183 22.3801 680.772 30.8807 675.201C34.4957 672.843 36.5388 668.755 37.639 664.51C39.5251 656.964 37.7963 648.475 32.2952 643.129C23.0596 634.184 10.6791 637.412 0 641.204V614.261C1.62794 613.948 3.2876 613.944 4.94727 614.359C6.63437 614.721 8.22901 615.637 9.80213 616.541L9.80592 616.543C10.2833 616.817 10.7587 617.09 11.2341 617.346C19.7214 621.905 30.0949 623.478 39.5253 621.277C46.1265 619.862 52.8848 616.246 55.5568 609.957C57.2857 605.87 57.1286 601.153 56.1856 596.908C54.2995 589.048 49.27 581.658 42.1972 577.728C34.9672 573.641 25.6939 573.483 18.7783 577.728C9.97663 582.916 6.36172 593.607 3.37543 603.511C1.68252 603.285 0.739226 603.161 0 603.065V551.392C3.44884 548.93 8.16082 548.074 12.9726 547.2C17.1876 546.434 21.4791 545.655 25.0654 543.77C35.2816 538.425 38.1107 524.118 33.0811 513.899C27.8944 503.68 16.7352 497.549 5.41876 495.977C3.65572 495.725 1.83501 495.588 0 495.588V360.369C7.29852 365.764 14.4487 370.97 20.5072 375.236C44.3975 392.215 81.962 438.436 81.962 438.436C84.6339 492.518 67.3447 707.901 67.3447 707.901ZM44.5547 356.528C24.1789 346.884 10.8216 339.001 0 331.644V296.945C1.26584 296.36 2.4556 295.589 3.53247 294.742C6.51876 292.227 9.66232 289.554 11.7056 286.253C12.6486 284.681 13.4345 282.951 13.906 281.065L14.2204 280.436V280.122C15.3206 276.977 19.0927 274.462 19.0927 274.462C19.3877 274.277 19.6676 274.1 19.9349 273.93C21.9459 272.651 23.2433 271.826 24.9081 272.104C26.9513 272.418 28.0515 274.147 33.7097 283.738C34.5343 285.133 35.2053 286.222 35.7125 287.045L35.713 287.045C36.4621 288.261 36.8533 288.895 36.8533 289.083C53.9852 321.469 48.7984 347.566 45.8121 357.157C45.3406 356.842 45.0262 356.685 44.5547 356.528ZM4.31842 273.361C2.90227 273.047 1.45112 272.854 0 272.82V254.616L0.074646 254.653C5.41853 257.326 12.177 261.256 19.2498 267.23C17.8353 269.274 16.5779 270.689 15.6349 271.632C15.4762 271.771 15.325 271.905 15.1791 272.034C14.1691 272.928 13.4131 273.598 12.1771 274.147C11.5484 274.462 10.1338 274.934 8.24774 274.776C7.14038 274.684 6.24974 274.212 5.544 273.839C5.04772 273.576 4.64288 273.361 4.31842 273.361ZM4.31842 250.094C2.8519 249.337 1.41386 248.608 0 247.912V116.125C9.67216 115.84 19.4868 116.001 29.1518 116.462C29.4055 118.492 29.4772 119.156 29.5627 119.95L29.5628 119.95C29.6362 120.631 29.7199 121.406 29.9377 123.222C21.9219 125.58 13.2774 128.567 8.87659 135.642C5.41878 141.301 5.73312 148.691 8.87659 154.507C12.1772 160.324 17.9924 164.255 24.4365 165.827C27.8943 166.77 31.6665 166.77 34.9671 165.355C39.9966 162.997 42.8258 157.652 44.0832 152.306C45.6549 144.603 44.5549 136.428 40.7827 129.51C40.5617 129.105 40.332 128.708 40.1038 128.314C39.3584 127.027 38.6289 125.767 38.2679 124.322C37.1677 119.763 39.8396 115.204 42.9831 111.745C44.712 109.701 48.6412 105.457 51.6274 106.4C53.6961 107.09 56.2691 110.637 58.2402 113.355C58.9648 114.354 59.608 115.241 60.1149 115.833C60.4293 116.147 60.7435 116.462 60.7435 116.933C60.8556 117.382 60.728 117.75 60.5885 118.153C60.5324 118.315 60.4744 118.482 60.4293 118.663C57.1287 127.624 53.6708 138.629 61.3723 146.489C65.7732 150.734 72.6887 152.149 78.6613 150.734C82.1191 149.948 85.4197 148.219 87.3058 145.232C92.1782 137.843 88.4061 124.637 82.2764 119.134C78.347 115.676 72.846 113.789 67.5021 114.261C66.8734 114.418 66.0874 114.575 65.4587 114.261C64.8302 114.103 64.359 113.475 63.8876 112.846L63.8875 112.846L63.8871 112.846C56.8144 103.256 51.1559 87.6914 56.3427 75.9003C56.8692 74.5835 57.3468 73.6099 57.8575 72.5688L57.8576 72.5687C58.2615 71.7453 58.6861 70.8798 59.1719 69.769C80.7746 87.4228 89.8201 106.218 93.601 114.075L93.6011 114.075C94.0289 114.964 94.3894 115.713 94.6929 116.304C97.6203 122.161 96.4476 136.83 95.4642 149.131L95.4641 149.131C95.1276 153.342 94.8132 157.275 94.6929 160.482C94.2214 173.216 83.6909 379.795 83.6909 379.795C81.0189 377.752 78.0326 375.551 74.5748 373.35C75.0463 351.497 71.5886 320.368 53.5137 293.013C51.7848 290.341 49.8986 287.825 48.0125 285.467L46.1265 283.109C40.6255 276.506 34.6529 270.846 28.5232 265.815C28.8801 265.28 29.2877 264.744 29.7173 264.18C30.0443 263.75 30.3839 263.304 30.7236 262.828C31.5095 261.728 33.2383 259.841 33.5526 259.527C33.755 259.324 35 259.643 35.9869 259.896L35.9877 259.896C36.5332 260.036 36.9997 260.155 37.1675 260.155C37.8748 260.313 38.5428 260.548 39.2109 260.784C39.8789 261.02 40.5469 261.256 41.2542 261.413C45.4979 262.356 50.213 261.885 53.9852 259.527C58.7004 256.697 61.6866 250.88 60.5864 245.534C59.6434 240.189 54.2995 235.787 48.7984 236.259C45.9693 236.573 43.2973 237.988 41.0969 239.875C37.9534 242.547 35.1244 245.377 33.0811 248.836C32.1381 250.565 31.5093 252.295 31.0378 254.181C30.9881 254.479 30.9698 254.73 30.9532 254.959C30.9172 255.454 30.8887 255.845 30.5663 256.382L30.5659 256.383C30.2517 257.012 29.9373 257.64 28.9947 258.74C28.5557 259.228 28.1924 259.656 27.8766 260.027C27.1747 260.853 26.7075 261.402 26.1655 261.728C25.2224 262.356 24.1221 262.514 24.1221 262.514C23.4934 262.121 22.9041 261.688 22.3147 261.256L22.3139 261.255C21.7248 260.823 21.1356 260.391 20.5072 259.998C16.8922 257.483 13.1201 255.125 9.50513 253.081C9.26937 252.924 9.03362 252.806 8.79788 252.688C8.56214 252.57 8.3264 252.452 8.09064 252.295C10.6054 248.836 12.8058 243.491 12.963 243.019C14.6423 238.896 15.0241 236.367 15.3147 234.443C15.6224 232.405 15.8279 231.044 17.3638 229.184C19.5118 226.575 21.8469 225.764 24.0585 224.996C26.3783 224.19 28.5622 223.431 30.2519 220.695C32.4523 217.079 32.4523 212.519 31.0378 208.904C28.7917 203.212 23.1222 201.373 21.3676 200.804C21.2805 200.776 21.203 200.751 21.136 200.728C20.9958 200.7 20.8367 200.666 20.6606 200.628C18.8629 200.24 15.2842 199.468 11.7056 201.043C6.67603 203.401 4.00403 209.218 4.00403 214.092C4.00403 217.244 5.07012 218.895 6.29194 220.787C7.50784 222.67 8.87796 224.792 9.50513 228.87C10.291 234.687 8.87653 239.718 7.61914 243.491C6.6761 246.635 5.57581 248.679 4.31842 250.094ZM4.00403 107.658C2.66201 107.658 1.32793 107.681 0 107.718V54.2802C0.193017 54.0898 0.448174 53.8459 0.751109 53.5562L0.751394 53.5559L0.751422 53.5559C2.86455 51.5355 7.30175 47.2931 9.19073 43.5142C15.792 45.7152 23.022 48.545 30.8807 52.3182C37.4819 55.6197 43.2974 59.0784 48.3269 62.3799C47.6982 65.2097 46.9123 69.7689 46.7551 75.2714C46.6131 79.6759 46.8561 82.5717 47.0493 84.8725C47.2835 87.6635 47.4443 89.5792 46.7551 92.2506C44.869 99.4825 39.0537 107.186 32.6096 107.658C26.3112 108.078 19.8725 107.937 13.4809 107.797H13.4807C10.3025 107.727 7.13593 107.658 4.00403 107.658ZM3.84692 41.942C2.84009 43.7045 1.53084 45.3661 0 46.9269V40.946C1.27568 41.2595 2.55834 41.5913 3.84692 41.942ZM4.47552 32.0375C2.96377 31.6193 1.47176 31.2257 0 30.8558V12.0441C0.384225 12.176 0.786362 12.3528 1.01788 12.7002C1.055 12.7744 1.10088 12.8574 1.14931 12.9451C1.306 13.2286 1.48944 13.5605 1.48944 13.8007C3.37552 19.7748 4.6327 25.749 4.47552 32.0375ZM9.66223 4.2106C11.1114 2.97579 12.4689 1.55765 13.6159 0H26.8419C23.0657 9.29393 17.1673 17.7852 8.24774 21.9758C6.67601 18.9888 5.57576 15.8445 5.26141 12.543C5.10424 11.4425 5.10442 10.1848 5.41876 9.08427C6.08891 7.34143 7.55897 6.05586 8.95201 4.83765C9.19255 4.62729 9.4308 4.41894 9.66223 4.2106ZM27.4229 14.9012C29.8961 9.95329 32.2087 5.00541 34.3603 0H72.0116C71.0614 3.50826 70.8552 7.28419 71.274 10.9708C71.3344 11.3331 71.418 11.6722 71.4981 11.997C71.6264 12.5179 71.7458 13.0021 71.7458 13.4862L71.4314 13.1718C78.0327 45.7152 71.7457 56.8774 65.7731 60.6505C55.3997 53.7331 44.7119 47.2873 34.0241 42.5709C26.0083 39.1122 18.464 36.2823 11.2341 33.9241C11.147 33.7282 11.054 33.5293 10.9599 33.3282C10.3744 32.0768 9.74943 30.7411 10.2911 29.5221C10.7626 28.4216 11.8627 27.7928 12.963 27.3211C13.8319 26.9228 14.6424 26.5828 15.4099 26.2609L15.4099 26.2609C17.9744 25.1852 20.0587 24.311 22.2361 22.133C23.3364 21.0325 26.3226 17.1022 27.4229 14.9012ZM134.301 1.85242C134.502 1.24777 134.582 0.628761 134.582 0H221.79C222.429 0.613517 223.129 1.23841 223.889 1.85242L223.998 1.94026C228.007 5.17914 229.742 6.58146 233.948 7.98377L233.949 7.98398C235.049 8.45555 236.149 8.92717 236.778 9.87032C237.46 10.9623 237.076 12.1728 236.654 13.5017L236.654 13.5023C236.59 13.7038 236.525 13.9081 236.463 14.1151C216.345 23.0763 199.213 35.9679 181.453 53.8903C180.759 52.3483 179.536 50.7306 178.34 49.1486C177.097 47.5048 175.883 45.8995 175.323 44.4575C174.669 42.0803 174.51 39.5683 174.352 37.0829C174.092 32.9935 173.837 28.9759 171.393 25.749C168.564 21.9759 163.535 20.5609 158.82 20.8753C152.061 21.347 145.617 25.2774 142.316 31.0943C139.016 37.0684 139.173 44.9291 143.259 50.2744C145.303 52.947 147.975 54.9908 150.961 56.4057C154.576 58.1351 158.348 59.2356 162.277 58.9212C166.207 58.6067 169.979 56.8774 172.336 53.7331C172.9 54.2457 173.447 54.7582 173.988 55.2653L173.989 55.2657C175.107 56.3139 176.201 57.3388 177.366 58.2923C171.708 64.2665 166.05 70.7123 160.234 77.6297C149.546 90.364 139.644 95.3949 126.128 94.4516C113.731 93.5865 97.368 82.4069 79.2216 70.0087L79.2189 70.0069C77.5801 68.8872 75.9267 67.7575 74.2604 66.6247C81.6475 51.3749 92.4925 42.5709 100.508 37.6973C102.08 37.3828 103.652 36.754 104.909 35.9679C105.459 35.6535 106.009 35.2604 106.559 34.8674C107.11 34.4744 107.66 34.0813 108.21 33.7669C109.467 33.2952 110.41 32.9808 110.882 32.8236C111.804 32.5468 112.754 32.3513 113.694 32.1575C115.96 31.6908 118.175 31.2346 119.841 29.6794C121.323 28.3819 122.041 26.4836 122.767 24.564C123.272 23.2271 123.781 21.8799 124.556 20.7181C125.132 19.8218 125.864 19.0558 126.594 18.2928C127.656 17.1822 128.712 16.0778 129.271 14.5867C129.703 13.435 129.772 12.1845 129.841 10.9406C129.923 9.46785 130.004 8.00452 130.686 6.72603C131.136 5.82519 131.801 5.10359 132.459 4.39006C133.179 3.60928 133.89 2.83816 134.301 1.85242ZM238.664 1.85242C237.153 1.34889 235.704 0.726465 234.315 0H239.325C239.129 0.622656 238.908 1.24052 238.664 1.85242ZM243.85 11.2853C243.272 7.5235 243.226 3.76175 243.53 0H281.163C280.914 0.573979 280.632 1.13904 280.314 1.69517C266.955 3.73896 255.01 6.88326 243.85 11.2853ZM285.815 0.909115C285.916 0.625269 286.018 0.321917 286.12 0H301.902C295.905 2.17934 289.996 1.606 285.815 0.909115Z" fill="#E4E8FC"/>
<defs>
<linearGradient id="paint0_linear_7754_40725" x1="378.5" y1="480" x2="388.5" y2="1236.5" gradientUnits="userSpaceOnUse">
<stop stop-color="#D6DBFA"/>
<stop offset="1" stop-color="#E4E8FC" stop-opacity="0"/>
</linearGradient>
</defs>
</svg>
