<svg width="375" height="813" viewBox="0 0 375 813" fill="none" xmlns="http://www.w3.org/2000/svg">
<rect y="1" width="375" height="812" fill="#E4E8FC"/>
<rect width="375" height="812" fill="url(#paint0_linear_7982_41058)"/>
<path fill-rule="evenodd" clip-rule="evenodd" d="M375 0H0V26.3357C0.0327741 26.3352 0.0656082 26.3347 0.0984959 26.3341C2.14146 26.3005 4.39142 26.2635 5.32474 28.0373C5.705 28.7346 5.74377 29.5078 5.78179 30.2661C5.80728 30.7743 5.83243 31.2759 5.95987 31.7433C6.21408 32.8113 6.90782 33.6838 7.59544 34.5487C8.33951 35.4846 9.07641 36.4114 9.24146 37.5671C9.42 38.7577 9.02973 39.8479 8.635 40.9506C8.32762 41.8093 8.01754 42.6755 7.97119 43.6026C7.97119 44.3959 8.15226 45.2057 8.33265 46.0125C8.60973 47.2517 8.88522 48.4838 8.50052 49.6382C8.22396 50.3021 7.74512 50.8214 7.26028 51.3473C6.8172 51.8279 6.36911 52.3139 6.06583 52.9206C5.60671 53.7817 5.55203 54.7673 5.497 55.7592C5.45052 56.597 5.40379 57.4392 5.11298 58.2149C4.73647 59.2192 4.02519 59.963 3.30987 60.7111C2.81846 61.2249 2.32514 61.7408 1.93716 62.3445C1.41567 63.127 1.0726 64.0344 0.732166 64.9348C0.504469 65.537 0.277947 66.1362 0 66.6927V111.535C1.03269 111.778 2.03205 111.938 2.99582 112.005C12.0997 112.641 18.7688 109.252 25.9672 100.675C29.884 96.0165 33.6949 91.6751 37.5058 87.6514C36.7211 87.0093 35.9845 86.319 35.2312 85.613C34.8666 85.2714 34.4981 84.926 34.1183 84.5807C32.5305 86.6984 29.9899 87.8632 27.3434 88.075C24.6969 88.2867 22.1563 87.5455 19.7216 86.3808C17.7102 85.4278 15.9106 84.0513 14.5344 82.2512C11.7821 78.6511 11.6762 73.3568 13.8993 69.3331C16.1223 65.4153 20.4626 62.7681 25.0145 62.4504C28.1903 62.2386 31.5778 63.1916 33.4832 65.7329C35.1293 67.9063 35.3011 70.6122 35.4759 73.3665C35.5821 75.0405 35.6895 76.7323 36.1297 78.3334C36.5073 79.3046 37.3247 80.3859 38.1617 81.493C38.9673 82.5585 39.791 83.648 40.2582 84.6866C52.2203 72.6155 63.7589 63.9328 77.3088 57.8973C77.3506 57.7577 77.3943 57.62 77.4374 57.4841C77.7214 56.5891 77.9801 55.7738 77.5206 55.0384C77.0971 54.4031 76.3561 54.0854 75.6151 53.7678L75.6151 53.7677C72.7823 52.8232 71.6133 51.8787 68.9132 49.6972L68.8401 49.6382C66.6659 47.8816 65.2183 45.9929 64.5495 45.1203C64.3717 44.8883 64.249 44.7282 64.1823 44.6615C61.0045 40.5747 59.5572 38.0506 58.5922 36.3674C57.5319 34.5182 57.0536 33.6841 55.5019 32.9081C53.9494 32.1801 52.7749 32.1861 51.5911 32.1922C50.192 32.1994 48.78 32.2066 46.7156 31.0021C45.8687 30.4727 43.7514 29.0961 42.4811 26.449C41.3167 24.0136 41.3168 21.2605 42.0578 18.6134C42.9046 15.4368 43.9631 12.8955 46.9272 11.4131C48.7268 10.566 51.4791 9.82478 53.3846 10.0366C57.6189 10.4601 61.6417 12.7896 63.7589 16.4956C65.876 20.2017 65.7701 25.0725 63.2296 28.4608C63.1463 28.5718 63.0558 28.6829 62.9638 28.7958C62.7046 29.1137 62.4331 29.4467 62.2769 29.8373C61.7476 31.108 62.2768 32.4845 62.912 33.6493C66.2995 40.6378 71.4866 47.2028 78.7908 49.6382C79.6377 47.5204 80.0611 45.2968 79.9553 43.0732C79.9553 42.3319 79.9552 41.4849 79.5317 40.7437C78.9648 39.515 77.8076 38.7925 76.7375 38.1244C76.6087 38.044 76.4812 37.9643 76.3561 37.8847C73.2863 35.767 70.5339 32.5904 70.2163 28.8844C70.0046 25.3901 71.8041 22.1076 74.133 19.4605C75.1916 18.2957 76.2502 17.6604 77.8381 17.4486C78.0441 17.4229 78.3127 17.3783 78.6118 17.3287C79.5429 17.1743 80.7706 16.9707 81.3314 17.131C83.8719 17.5545 85.6716 17.978 88.0005 19.2487C90.3294 20.5193 92.3406 22.4253 93.0817 24.9666C93.5051 26.3431 93.5052 27.9314 93.2935 29.3079C92.5524 34.814 88.8474 39.7907 83.872 42.2261C83.7662 42.2967 83.6486 42.3555 83.5309 42.4143C83.2957 42.532 83.0605 42.6496 82.9193 42.8614L82.9192 42.8617C82.8134 43.0734 82.7076 43.2851 82.7076 43.6026C81.9666 47.7322 81.649 51.8618 82.2842 55.9913C89.8002 53.0265 97.8454 50.9088 106.843 49.5322C108.114 47.3086 108.537 44.8732 108.431 42.2261V41.6967C108.114 37.8847 107.69 33.2257 105.679 30.155C104.547 28.3753 103.387 27.8866 102.27 27.4158C101.193 26.9622 100.156 26.5252 99.2215 24.9666C97.2102 21.5782 97.7396 16.0721 101.127 13.0014C103.386 10.9475 106.043 10.6864 107.166 10.5759C107.201 10.5725 107.235 10.5692 107.267 10.566C107.351 10.566 107.458 10.5633 107.584 10.5601C109.04 10.5234 113.113 10.4206 115.841 13.6367C118.17 16.2839 118.594 20.0958 117.429 22.9547C116.63 24.9793 115.322 25.8244 114.044 26.6499C112.782 27.465 111.55 28.2611 110.866 30.155C110.212 31.9394 110.56 33.2894 111.028 35.1058C111.393 36.5232 111.832 38.2245 111.925 40.6378C111.925 44.2379 111.184 47.2027 110.548 49.0028C113.724 49.5323 118.382 49.9558 122.934 47.7322C126.184 46.1592 127.851 44.041 129.451 42.0075C131.082 39.9344 132.643 37.9494 135.743 36.72C140.189 34.9199 147.599 34.814 151.622 39.7907C155.115 44.132 154.797 50.8029 151.728 55.0384C148.446 59.6974 142.835 60.3327 141.671 60.4386C137.6 60.9177 135.053 59.6018 131.922 57.9849C129.518 56.7428 126.769 55.3231 122.722 54.403C115.841 52.8147 110.337 53.7677 104.62 54.8266C95.3048 56.5208 88.1064 60.015 83.5544 62.874C84.613 64.2505 85.8833 65.4153 87.4712 66.4741C87.577 66.5271 87.6564 66.58 87.7358 66.6329C87.8152 66.6859 87.8946 66.7388 88.0005 66.7918C89.0591 67.533 98.3748 73.3567 99.0099 72.8273C102.503 70.286 107.267 69.6507 111.289 71.1331C115.312 72.6155 118.488 76.3216 119.441 80.4511C119.758 81.8277 119.864 83.3101 119.441 84.6866C119.017 85.8513 118.17 86.9102 117.323 87.8632C114.889 90.4045 111.925 92.6281 108.431 93.4752C104.938 94.3223 101.021 93.4752 98.5864 90.9339C95.093 87.122 96.4693 80.3453 98.163 76.3216C97.6337 77.5922 87.8947 71.5567 86.5185 70.6037C85.4599 69.7566 82.0725 66.7918 80.1671 64.0387L75.4033 66.2623C70.9572 68.5919 67.4639 70.7096 65.2409 72.0861C62.171 74.0979 58.6776 76.6392 54.9726 79.7099C55.6077 81.0865 56.5605 83.416 57.3015 86.2749C58.2206 89.7902 58.2837 92.1729 58.337 94.185C58.388 96.1125 58.43 97.6998 59.2069 99.6166C61.1123 104.381 65.876 108.829 70.0045 108.617C74.1068 108.412 78.2533 107.809 82.3869 107.208C84.6533 106.879 86.9157 106.55 89.165 106.287C91.5151 105.97 93.8652 105.766 96.2152 105.563C97.7819 105.428 99.3486 105.292 100.915 105.123C101.339 105.123 101.762 105.123 102.08 104.805C102.503 104.593 102.821 104.17 103.138 103.746C105.361 100.781 108.961 98.9813 112.56 98.2401C117.641 97.1812 123.04 97.0753 126.957 100.781C130.132 103.746 131.297 108.511 131.191 112.747C131.191 118.888 128.544 125.347 123.463 128.841C118.276 132.336 110.443 131.7 106.843 126.618C105.567 124.806 104.852 122.531 104.148 120.295C103.043 116.78 101.968 113.364 98.7982 112.005C96.9985 111.264 94.9872 111.37 92.9759 111.582C86.3068 112.217 79.6377 113.17 72.9686 114.335V118.994C78.4732 119.947 84.6131 121.112 88.1064 125.559C90.8588 129.053 91.3879 134.03 89.8 138.159C88.1063 142.289 84.613 145.465 80.3787 147.054C78.1556 147.901 75.6151 148.324 73.2861 147.583C69.687 146.524 67.3581 143.136 66.0878 139.642C64.2882 134.665 64.3939 129.053 66.2994 124.182C66.4136 123.868 66.5433 123.554 66.6738 123.237C67.0271 122.381 67.3866 121.51 67.4639 120.582C67.7814 117.406 65.5585 114.653 63.2296 112.535C61.8534 111.37 58.8894 108.935 56.9839 109.676C55.6149 110.32 54.1234 113.048 53.0219 115.062C52.6755 115.696 52.3676 116.259 52.1143 116.664C52.0852 116.723 52.0481 116.781 52.0096 116.841C51.9081 117.001 51.7968 117.175 51.7968 117.406C51.7968 117.829 51.9026 118.147 52.1143 118.57C55.0784 124.288 58.36 131.277 53.9139 137.206C51.3733 140.489 46.9272 141.971 42.7987 141.548C40.4698 141.23 38.0351 140.383 36.5531 138.583C32.6363 134.03 34.0125 124.924 37.7175 120.688C40.0464 117.935 43.5397 116.347 47.1389 116.135C47.5624 116.135 48.0917 116.135 48.5152 115.923C49.0445 115.605 49.362 115.076 49.4679 114.864C56.7721 98.6636 52.3261 91.0398 52.3261 91.0398C52.1139 90.6759 51.9277 90.1991 51.7178 89.6616C51.1949 88.3224 50.5249 86.6065 48.9385 85.3219C36.553 97.7107 27.6609 112.958 26.6023 125.453C26.6023 125.453 27.9785 200.95 29.2488 219.163C30.6249 237.375 34.9652 313.296 34.9652 313.296C34.9652 313.296 37.9293 311.602 42.6929 308.637C41.6343 294.13 42.587 269.565 56.5604 248.387C57.7249 246.587 58.9952 244.893 60.2655 243.305L61.5358 241.716C65.1349 237.375 68.9459 233.669 72.9686 230.387C72.9686 229.963 72.8627 229.434 72.5452 228.904C72.5292 228.872 72.5108 228.834 72.49 228.791C72.2347 228.264 71.6105 226.974 70.5338 226.68C70.108 226.559 69.822 226.682 69.2941 226.909C68.9034 227.077 68.3803 227.302 67.5698 227.528C67.0934 227.633 66.6435 227.792 66.1936 227.951C65.7437 228.11 65.2938 228.269 64.8174 228.375C61.8533 228.904 58.7834 228.692 56.2428 227.104C53.067 225.198 51.1616 221.28 51.7968 217.68C52.5378 214.08 56.0312 211.115 59.7362 211.433C61.6417 211.645 63.4413 212.598 64.9233 213.868C66.9346 215.668 68.9459 217.468 70.3221 219.904C70.9572 221.069 71.3807 222.233 71.6983 223.504C71.7331 223.678 71.745 223.841 71.7567 224C71.7803 224.324 71.8028 224.631 72.0159 224.986C72.083 225.098 72.1501 225.215 72.2182 225.333C72.4723 225.775 72.7404 226.241 73.0743 226.575C73.2008 226.669 73.3272 226.783 73.4621 226.905C73.779 227.19 74.1426 227.517 74.6624 227.739C75.2975 227.951 75.7209 228.057 76.1443 228.057C76.1443 228.057 76.2503 228.057 76.3561 227.845L78.7908 226.151C80.0082 225.357 81.252 224.589 82.4959 223.822C83.7397 223.054 84.9836 222.286 86.2009 221.492C86.9409 221.122 87.6809 220.7 88.3847 220.299C88.6877 220.126 88.984 219.957 89.2708 219.798C89.3766 219.798 89.456 219.745 89.5354 219.692C89.6148 219.639 89.6942 219.586 89.8 219.586C88.7415 217.786 87.8947 215.668 87.5771 214.821C87.2596 213.974 85.1423 206.562 85.6716 205.186C85.6716 205.186 84.1895 205.186 82.4958 204.868C80.2728 204.656 76.8854 203.809 74.8741 200.209C73.4979 197.668 73.9213 194.385 75.5092 191.844C75.6258 191.661 75.745 191.451 75.8763 191.22C76.5796 189.985 77.63 188.139 80.4846 186.444C81.8256 185.605 83.0338 185.563 84.0043 185.53C84.2596 185.521 84.4984 185.513 84.7189 185.491C85.8833 185.491 87.5771 185.914 88.5298 186.55C91.4939 188.35 93.5052 191.844 93.717 195.338C93.8228 198.832 92.129 202.432 89.2708 204.55C88.7415 204.974 90.8587 213.656 91.1763 214.715V215.245L91.2347 215.397C91.7296 216.685 92.043 217.5 92.5525 218.315C93.088 218.072 93.6179 217.829 94.1422 217.588C95.8981 216.781 97.5911 216.003 99.2215 215.351L99.223 215.35C100.069 215.033 100.916 214.715 101.762 214.292C104.62 213.233 107.161 212.386 109.49 211.645C111.078 208.997 114.042 206.244 115.418 205.397C118.382 203.703 122.193 203.28 125.157 204.868C126.11 205.397 127.062 206.138 127.592 207.197C128.756 209.209 128.544 211.856 127.38 213.868C126.216 215.88 124.31 217.362 122.299 218.527C120.711 219.374 119.017 220.116 117.218 220.01C114.731 220.01 112.549 218.59 110.473 217.239L110.337 217.151C110.209 217.151 110.119 217.073 110.022 216.988C109.958 216.933 109.891 216.875 109.807 216.833C105.996 217.68 100.915 219.163 95.5165 221.492C96.681 222.657 98.0571 223.504 99.7509 224.139C99.8567 224.139 100.068 224.245 100.28 224.351L100.28 224.351C100.421 224.398 100.745 224.513 101.194 224.672C103.772 225.588 110.505 227.979 110.866 227.528C113.195 224.88 116.053 223.292 119.441 223.822C122.934 224.351 126.004 226.681 127.486 229.857C128.015 230.916 128.333 232.081 128.121 233.245C128.015 234.304 127.486 235.257 126.957 236.104C125.475 238.54 123.463 240.869 120.923 242.14C118.276 243.411 114.995 243.516 112.666 241.822C109.172 239.387 107.584 233.881 109.807 230.281C109.807 230.281 101.55 228.269 100.598 227.951C97.9512 227.104 94.2462 224.986 92.6583 222.869C88.2123 225.092 83.2368 228.163 78.8966 231.869C79.5317 232.822 81.0139 234.834 83.5544 235.787C84.2955 236.104 85.4599 236.528 87.0478 236.422C87.8241 236.357 88.4027 236.055 88.8803 235.806C89.1843 235.648 89.4473 235.51 89.6943 235.469C92.5525 234.834 95.6223 234.94 98.2688 236.422C101.445 238.222 103.562 241.928 103.032 245.528C102.503 249.128 99.1157 252.199 95.4106 252.093C93.5051 252.093 91.7056 251.14 90.2236 249.87C88.1064 248.176 86.095 246.375 84.7189 244.152L83.2369 240.658C82.7076 239.281 82.39 238.646 81.7549 237.799C81.0139 236.846 80.3786 236.316 79.8493 235.893C79.2142 235.363 78.1556 234.728 76.7795 234.198C74.7682 236.104 72.2277 238.752 69.8987 242.352C69.8987 242.352 68.84 244.046 67.7814 245.846C54.7608 270.412 61.8533 291.377 63.6529 295.719C85.354 281.953 112.666 263.423 120.711 252.623C123.178 249.352 125.965 246.105 128.839 242.755C141.131 228.428 155.023 212.238 152.363 184.432C148.975 184.961 145.482 185.067 142.2 184.432C137.331 183.585 132.779 181.149 130.238 177.02C129.64 176.085 129.161 175.07 128.683 174.061C127.81 172.212 126.943 170.379 125.369 169.078C125.183 168.919 124.992 168.767 124.8 168.615C124.224 168.158 123.649 167.702 123.252 167.066C122.463 165.776 122.791 164.194 123.118 162.617C123.273 161.865 123.429 161.114 123.463 160.396C123.463 158.657 122.734 157.108 122.004 155.559C121.4 154.278 120.797 152.997 120.605 151.607C120.309 149.383 121.102 147.16 121.894 144.936C122.234 143.983 122.574 143.03 122.828 142.077C122.873 141.92 122.918 141.76 122.963 141.598C123.561 139.462 124.263 136.957 126.427 136.465C127.245 136.276 128.025 136.461 128.789 136.643C129.312 136.766 129.828 136.889 130.344 136.889C131.445 136.889 132.523 136.486 133.599 136.084C134.799 135.636 135.997 135.189 137.225 135.3C138.453 135.417 139.423 136.148 140.402 136.886C141.195 137.484 141.994 138.087 142.941 138.371C143.768 138.676 144.685 138.73 145.595 138.784C146.899 138.861 148.19 138.937 149.187 139.748C149.81 140.201 150.191 140.866 150.572 141.533C150.903 142.112 151.235 142.693 151.728 143.136C152.463 143.815 153.409 144.161 154.373 144.514C155.214 144.822 156.069 145.135 156.809 145.677C157.733 146.404 158.287 147.419 158.83 148.414C159.157 149.014 159.481 149.607 159.879 150.124C160.522 150.952 161.365 151.599 162.199 152.241C163.287 153.077 164.361 153.903 164.96 155.101C165.691 156.564 165.51 158.238 165.326 159.941C165.19 161.195 165.053 162.465 165.278 163.678C165.383 164.154 165.542 164.605 165.701 165.055C165.86 165.505 166.019 165.955 166.124 166.431C166.594 168.217 166.397 170.086 166.198 171.964C166.173 172.202 166.148 172.44 166.124 172.678C165.807 175.326 164.536 177.867 162.631 179.879C164.854 193.856 166.018 220.539 151.304 245.846C151.304 245.846 192.801 247.54 228.899 221.598C224.876 217.786 221.065 215.562 218.419 214.292C218.419 214.292 210.373 210.374 197.988 211.327C197.776 211.327 197.141 211.327 196.612 211.856C196.294 212.174 196.082 212.598 195.871 213.021C194.495 216.304 191.636 219.057 188.355 220.327C183.168 222.339 174.064 220.433 171.206 215.245C170.041 213.233 170.041 210.692 170.57 208.362C171.523 204.338 174.487 200.632 178.51 199.362C185.602 197.244 191.107 202.75 195.447 207.515C195.513 207.58 195.574 207.646 195.633 207.709C195.861 207.954 196.064 208.172 196.4 208.256H197.247C197.721 208.151 198.384 208.052 199.135 207.94C201.404 207.603 204.47 207.146 205.504 206.033C206.986 204.55 205.61 200.844 204.975 199.256C203.81 196.291 202.01 193.22 198.941 192.479C198.033 192.252 197.126 192.295 196.219 192.339C195.856 192.356 195.493 192.373 195.13 192.373C189.837 192.373 184.544 190.573 180.521 187.291C177.663 184.961 175.334 181.467 175.652 177.761C175.758 175.326 177.028 173.102 178.616 171.302C181.474 167.913 185.708 165.69 190.154 165.478C194.6 165.372 199.047 167.596 201.375 171.302C204.234 176.067 203.387 182.102 202.328 187.608C203.028 187.871 203.487 188.045 203.836 188.177C204.752 188.525 204.905 188.583 206.668 189.197C209.95 183.479 213.126 177.549 215.984 171.514L215.984 171.513C216.831 169.713 217.678 167.913 217.572 165.902C217.376 162.38 214.53 160.183 211.605 157.927C209.782 156.52 207.929 155.09 206.668 153.301C203.069 148.219 205.186 140.595 210.268 136.995C215.243 133.394 222.124 133.183 228.052 135.194C232.074 136.571 236.097 139.324 237.791 143.348C239.908 148.324 238.003 153.301 235.25 157.748C233.345 160.925 230.381 163.678 226.781 164.737C226.252 164.843 225.829 164.949 225.405 165.372C225.088 165.584 224.876 166.008 224.77 166.325C223.946 167.974 223.189 169.6 222.437 171.215C221.547 173.126 220.664 175.02 219.689 176.914C217.814 180.582 216.07 182.986 214.638 184.961C212.432 188.002 210.967 190.022 210.903 194.067C210.797 200.421 215.455 205.08 217.995 207.621C224.029 213.656 231.122 215.774 234.827 216.515C234.986 216.388 235.155 216.261 235.327 216.13C235.729 215.827 236.15 215.509 236.521 215.139C240.649 211.75 243.931 208.15 246.683 204.55C246.471 203.174 246.26 202.115 246.048 201.268C245.942 200.632 245.307 198.197 244.248 195.232C243.931 194.491 243.507 193.75 242.978 192.903C242.696 192.41 242.368 192.198 241.993 191.956C241.804 191.834 241.603 191.704 241.39 191.526C240.014 190.361 238.638 189.091 237.685 187.502C235.568 184.326 234.403 180.514 233.451 176.808C232.816 174.055 232.604 171.196 233.662 168.549C235.568 163.572 241.708 160.925 246.789 162.407C251.87 163.89 255.575 168.866 256.104 174.161C256.528 178.502 254.834 182.632 252.188 186.02C251.705 186.624 251.153 187.159 250.591 187.703C250.168 188.114 249.739 188.53 249.33 188.985C249.22 189.131 248.808 189.529 248.319 190.002C247.392 190.898 246.19 192.059 246.26 192.267C246.358 192.662 246.824 193.516 247.401 194.573C247.444 194.65 247.486 194.729 247.53 194.809C248.377 196.291 249.435 198.197 250.282 200.103C252.505 196.397 262.562 179.243 266.267 164.419C267.961 157.642 267.855 153.407 266.373 149.701C265.366 147.082 263.496 144.367 262.314 142.65C262.254 142.562 262.195 142.477 262.138 142.395C260.467 140.031 259.454 138.954 258.639 138.088C257.958 137.363 257.415 136.785 256.74 135.724C253.881 131.171 252.717 123.759 256.104 117.829C258.433 113.911 261.927 112.111 263.091 111.582C267.431 109.358 272.724 109.252 277.17 111.264C282.04 113.488 284.157 119.523 283.734 124.606C283.416 128.735 281.828 132.759 280.134 136.571C279.679 137.528 279.125 138.543 278.558 139.584C277.807 140.962 277.032 142.384 276.429 143.771C275.399 146.196 274.993 148.238 274.577 150.336C274.265 151.904 273.948 153.502 273.359 155.313C273.359 155.419 273.359 155.631 273.254 155.737C272.83 158.384 272.195 161.243 271.348 164.313C271.031 166.113 270.607 168.443 270.289 169.925C274.1 173.102 278.547 175.114 283.204 176.702C283.281 176.702 283.371 176.73 283.47 176.76C283.645 176.814 283.848 176.876 284.051 176.808C284.385 176.808 284.653 176.61 284.908 176.423C284.976 176.373 285.043 176.323 285.11 176.279C289.873 172.784 296.542 171.831 302.153 173.949C303.635 174.478 305.011 175.326 306.176 176.49C308.187 178.502 309.034 181.361 309.034 184.22C309.034 187.079 308.187 189.832 307.234 192.479C307.201 192.569 307.167 192.66 307.133 192.752C306.847 193.525 306.543 194.347 306.07 194.915C305.011 196.185 303.318 196.821 301.624 197.138C297.919 197.985 293.896 197.985 290.72 195.973C287.333 193.75 285.745 189.514 285.321 185.491L285.319 185.447C285.214 183.872 285.102 182.197 284.263 180.938C283.734 180.196 282.993 179.773 282.252 179.349C280.134 178.184 277.911 177.337 275.477 177.126C273.995 185.279 277.488 193.644 282.357 200.315C283.204 201.48 284.263 202.75 285.639 202.856H285.639C286.274 202.856 286.804 202.856 287.439 202.75C291.991 202.115 296.648 204.55 299.083 208.468C301.518 212.386 301.624 217.362 299.824 221.598C298.977 223.504 297.707 225.304 296.013 226.469C293.155 228.481 289.238 228.692 285.851 227.845C283.098 227.104 280.346 225.728 278.758 223.398C277.488 221.492 276.959 219.268 276.641 217.045C276.324 215.033 276.218 213.127 276.641 211.115C277.065 209.103 278.017 207.303 279.499 206.139C276.535 201.48 273.783 196.609 271.242 191.738C270.545 190.43 270.206 188.332 269.931 186.627C269.872 186.262 269.816 185.914 269.76 185.597C269.231 182.738 269.548 180.832 270.078 177.973C270.09 177.876 270.103 177.778 270.117 177.68C270.222 176.911 270.335 176.088 269.866 175.431C269.388 174.665 268.909 174.592 268.352 174.507C268.293 174.498 268.233 174.489 268.172 174.478C264.044 186.338 257.163 200.209 245.942 213.868C244.355 215.773 242.662 217.678 240.969 219.584L240.967 219.586C241.284 220.433 242.131 222.551 244.248 223.927C246.642 225.385 249.139 225 250.53 224.785L250.6 224.775C251.805 224.584 252.668 224.204 253.394 223.884C253.879 223.67 254.304 223.483 254.728 223.398C259.174 222.445 263.938 222.657 267.961 224.986C272.83 227.845 276.006 233.669 275.053 239.281C274.1 244.893 268.807 249.552 263.197 249.234C259.492 249.023 256.74 247.011 255.152 245.74C252.696 243.775 251.7 241.953 250.162 239.137C249.047 237.097 247.647 234.536 245.201 231.022C245.16 230.965 245.116 230.905 245.071 230.842C244.186 229.62 242.516 227.313 239.696 225.198C238.888 224.569 238.079 224.093 237.529 223.769C237.431 223.711 237.342 223.658 237.262 223.61C229.64 231.34 220.853 238.328 211.644 244.469C211.644 244.599 211.762 244.728 211.902 244.881C211.992 244.979 212.09 245.087 212.173 245.211C212.702 245.846 213.443 246.27 213.973 246.481C214.687 246.749 215.326 246.565 216.651 246.183C216.898 246.113 217.167 246.035 217.466 245.952C218.339 245.661 219.011 245.414 219.535 245.222C220.155 244.995 220.567 244.845 220.853 244.787C224.559 243.94 228.475 244.152 231.863 246.164C235.885 248.493 238.532 253.364 237.791 258.023C236.944 262.894 231.969 265.964 227.946 266.282C222.124 266.6 215.772 261.305 214.29 255.905C214.164 255.465 214.055 254.974 213.939 254.451C213.467 252.334 212.877 249.684 210.585 247.646C209.95 247.011 209.209 246.587 208.786 246.375C181.05 264.058 149.399 273.906 129.497 270.306C129.497 270.306 83.3427 301.86 71.5923 315.519C59.9479 329.179 36.1297 360.627 36.1297 360.627C36.1297 360.627 40.5757 519.351 44.2807 520.939C45.5903 521.501 50.7616 519.231 58.3455 515.903C72.2181 509.815 94.1634 500.184 115.312 497.856C116.477 497.75 117.641 497.644 118.805 497.433C119.017 488.962 119.864 478.055 122.193 465.561H120.923C115.736 466.408 111.184 469.584 107.055 472.655C106.526 472.973 106.102 473.396 105.891 473.926C105.679 474.455 105.785 475.09 105.891 475.62C106.208 480.067 104.726 484.62 101.762 488.009C97.2103 493.197 86.0951 496.268 79.9553 492.244C77.5205 490.656 76.0384 487.903 75.4033 485.044C74.1329 480.067 75.4034 474.243 79.0026 470.643C85.6717 464.184 94.7755 467.149 102.292 469.902C102.715 470.114 103.244 470.22 103.773 470.114C104.091 470.114 104.409 469.796 104.62 469.584C105.099 469.186 105.784 468.687 106.553 468.127C108.85 466.455 111.899 464.235 112.454 462.49C113.195 460.055 109.702 456.666 108.008 455.29C105.044 452.748 101.233 450.313 97.4219 451.266C96.1763 451.598 95.1261 452.191 94.0669 452.789C93.7759 452.953 93.4842 453.118 93.1876 453.278C87.4713 456.454 80.5904 457.407 74.133 455.925C69.687 454.972 65.1349 452.537 63.3354 448.301C62.1709 445.548 62.171 442.371 62.912 439.513C64.1823 434.112 67.5698 429.242 72.3334 426.594C77.0971 423.947 83.3428 423.735 88.1064 426.594C94.0345 430.195 96.4693 437.395 98.4806 443.96C100.174 443.96 101.762 443.96 103.456 444.172C104.409 433.371 104.514 424.688 104.514 418.547C104.514 415.37 104.303 413.464 103.138 411.453C100.928 407.681 96.5616 406.905 92.0743 406.107C89.2549 405.605 86.3878 405.095 83.9778 403.829C77.2028 400.334 75.1915 390.593 78.579 383.71C81.9666 376.828 89.5883 372.804 97.2101 371.639C102.397 370.898 108.431 371.639 112.56 375.028C117.747 379.263 118.382 385.934 117.959 392.393C117.641 396.946 115.947 401.605 112.666 404.888C112.596 404.957 112.524 405.027 112.45 405.097C112.077 405.456 111.678 405.839 111.501 406.37C111.289 406.794 111.29 407.323 111.395 407.852C111.395 410.288 111.501 412.723 111.607 415.159C111.713 417.594 111.819 420.029 111.819 422.465C111.819 425.108 111.76 427.775 111.701 430.445C111.584 435.799 111.466 441.168 111.819 446.395C112.348 452.854 117.853 458.254 124.098 458.254C129.603 433.477 140.824 403.935 163.266 375.557C163.425 375.398 163.557 375.239 163.69 375.081C163.822 374.922 163.954 374.763 164.113 374.604C163.49 373.718 162.947 372.76 162.408 371.807C161.207 369.686 160.018 367.587 157.973 366.345C156.728 365.598 155.418 365.241 154.043 364.867C153.664 364.764 153.281 364.659 152.892 364.545C148.869 363.38 145.27 360.945 142.624 357.768C140.718 355.544 139.342 352.791 139.13 349.933C138.707 344.426 143.259 339.132 148.764 338.285C154.162 337.332 159.984 340.403 162.737 345.168C165.595 349.932 165.595 356.074 163.372 361.156C163.301 361.32 163.227 361.484 163.153 361.649C162.462 363.197 161.74 364.814 162.313 366.345C162.631 367.192 163.266 367.827 163.901 368.463C164.115 368.676 164.572 368.998 165.162 369.414C165.741 369.822 166.449 370.321 167.183 370.898C176.287 359.992 185.602 351.309 194.6 344.426C194.707 343.68 194.945 342.814 195.186 341.937C195.663 340.202 196.151 338.423 195.659 337.438C195.235 336.591 194.283 336.167 193.436 335.85C193.096 335.716 192.764 335.588 192.44 335.463C189.938 334.497 187.876 333.701 185.814 331.826C185.757 331.778 185.694 331.727 185.624 331.671C184.923 331.104 183.593 330.028 181.474 326.849C178.232 322.038 177.057 318.544 176.174 315.921C175.269 313.233 174.672 311.459 172.476 310.119C170.733 309.054 169.235 309.051 167.665 309.049C165.802 309.045 163.841 309.042 161.255 307.26C161.214 307.229 161.169 307.196 161.12 307.16C160.174 306.457 157.906 304.771 156.597 301.648C155.327 298.789 155.644 295.507 156.597 292.542C157.761 288.942 160.196 285.448 163.69 283.965C165.807 283.118 168.136 283.012 170.359 283.33C170.888 283.33 179.251 284.706 182.003 291.589C183.909 296.248 182.532 302.072 180.627 304.613C180.596 304.66 180.553 304.719 180.501 304.789C180.205 305.194 179.627 305.982 179.357 307.154C179.357 307.154 178.827 309.166 179.78 311.602C183.168 319.967 188.778 328.014 197.141 331.296C198.305 328.967 198.835 326.32 198.941 323.779C198.941 322.826 198.941 321.873 198.623 321.025C198.048 319.588 196.692 318.584 195.498 317.699C195.373 317.607 195.25 317.516 195.13 317.425C191.636 314.778 188.672 310.86 188.566 306.413C188.566 302.389 190.895 298.578 193.754 295.719C195.024 294.448 196.612 293.071 198.517 292.86C199.47 292.754 202.116 292.648 203.069 292.86C205.29 293.336 206.56 294.168 208.17 295.224C208.709 295.577 209.286 295.955 209.95 296.354C212.596 297.942 214.714 300.378 215.455 303.342C215.878 305.037 215.772 306.731 215.455 308.425C214.184 314.778 209.526 320.39 203.493 322.826C203.397 322.873 203.302 322.915 203.208 322.957C202.884 323.101 202.574 323.238 202.328 323.567C202.182 323.713 202.137 323.91 202.088 324.122C202.066 324.217 202.043 324.315 202.011 324.414C200.74 329.496 200.105 334.685 200.74 339.979C212.596 331.72 223.923 326.426 233.98 323.037C234.838 320.99 236.026 318.902 236.901 317.363C237.429 316.435 237.843 315.706 238.003 315.308C238.426 314.249 238.743 313.19 238.638 312.131C238.454 310.201 236.835 308.83 235.303 307.532C235.07 307.334 234.839 307.138 234.615 306.943C229.428 302.495 226.146 295.719 226.676 288.942C227.205 282.165 231.863 275.706 238.426 273.8C244.989 271.894 252.823 275.177 255.363 281.53C256.74 284.812 256.634 288.624 255.787 292.118C254.622 297.095 251.87 301.754 248.165 305.248C247.772 305.615 247.366 305.976 246.958 306.338C245.719 307.438 244.463 308.553 243.507 309.907C241.9 312.361 241.712 315.828 241.54 319.013C241.496 319.815 241.454 320.598 241.39 321.343C242.766 320.708 244.46 319.967 246.471 319.225C247.148 318.984 247.78 318.742 248.438 318.491C249.223 318.191 250.045 317.877 251.023 317.531C253.137 316.849 254.153 316.563 255.372 316.219C256.045 316.028 256.781 315.821 257.798 315.519C257.875 315.494 257.955 315.467 258.037 315.44C258.974 315.131 260.247 314.71 261.609 313.931C263.731 312.698 265.057 311.2 266.186 309.923C266.804 309.225 267.362 308.594 267.961 308.107C271.348 305.248 275.053 302.495 279.182 301.013C284.263 299.213 291.038 299.636 294.637 303.978C297.919 307.896 299.295 313.402 298.236 318.484C297.495 322.084 295.907 325.049 293.79 327.379C287.65 334.155 278.652 333.626 276.853 333.414C273.889 333.202 269.125 332.779 266.055 329.391C265.848 329.16 265.651 328.92 265.452 328.677C264.735 327.804 263.993 326.9 262.668 326.32C260.233 325.261 257.692 326.108 256.422 326.532C251.616 328.072 249.381 328.46 247.306 328.82C244.672 329.278 242.295 329.69 235.25 332.355C234.757 332.553 234.229 332.762 233.665 332.985C231.81 333.719 229.566 334.607 226.887 335.744C220.536 338.603 210.268 343.791 197.247 352.897C198.455 353.904 199.535 354.954 200.326 355.722C200.783 356.166 201.143 356.515 201.375 356.709C202.116 357.239 202.963 357.768 203.916 357.874C205.657 358.068 207.222 356.935 208.61 355.93C208.74 355.835 208.87 355.742 208.997 355.65C213.761 352.262 220.112 350.991 225.617 352.791C231.122 354.697 235.568 359.992 235.78 365.815C235.991 371.639 231.545 377.463 225.829 378.31C222.759 378.734 219.689 377.887 216.937 376.404C213.02 374.392 209.844 371.11 207.727 367.298C207.437 366.782 207.176 366.256 206.918 365.735C206.328 364.546 205.752 363.384 204.869 362.427C203.071 360.505 200.548 359.709 198.022 358.911C196.233 358.346 194.443 357.781 192.907 356.815C187.084 362.109 181.474 368.145 176.499 374.498C179.039 375.981 182.744 378.416 186.344 382.334C188.713 384.887 190.122 387.047 191.346 388.924C192.965 391.408 194.262 393.397 197.035 395.146C202.331 398.574 208.442 397.926 210.572 397.7L210.691 397.687C216.286 397.044 218.755 395.268 222.371 392.667C224.707 390.986 227.523 388.961 231.969 386.675C235.058 385.092 238.201 383.617 241.359 382.134C242.638 381.534 243.92 380.932 245.201 380.322C245.26 380.292 245.322 380.263 245.384 380.232C245.769 380.047 246.198 379.839 246.471 379.475C246.774 379.096 246.914 378.664 247.047 378.254C247.1 378.091 247.152 377.931 247.212 377.781C248.483 373.333 251.87 369.733 255.787 367.298C261.186 363.91 267.537 361.474 273.677 364.121C278.652 366.239 282.04 371.322 283.734 376.192C286.274 383.393 286.168 391.969 281.617 398.217C277.17 404.464 267.643 407.111 261.291 402.664C259.044 401.111 257.255 398.801 255.496 396.531C252.698 392.92 249.98 389.411 245.624 389.216C243.19 389.111 240.861 390.169 238.638 391.228C231.228 394.828 223.923 398.746 216.831 402.876C217.413 404.411 217.625 404.993 217.836 405.576C218.048 406.158 218.26 406.741 218.842 408.276C225.617 407.005 233.133 405.841 239.061 409.441C243.719 412.3 246.471 417.912 246.365 423.418C246.26 428.924 243.401 434.218 239.273 437.712C237.05 439.618 234.298 441.207 231.333 441.419C226.782 441.736 222.547 438.877 219.583 435.383C215.349 430.406 213.02 423.841 213.126 417.276C213.126 416.879 213.139 416.482 213.152 416.085C213.192 414.894 213.232 413.703 212.914 412.511C211.961 408.7 208.15 406.476 204.551 404.993C202.54 404.146 197.882 402.558 196.083 404.358C194.644 405.713 194.085 409.91 193.702 412.783C193.606 413.503 193.521 414.141 193.436 414.629C193.436 414.735 193.424 414.841 193.413 414.947C193.389 415.159 193.365 415.37 193.436 415.582C193.525 416.025 193.835 416.32 194.12 416.59C194.176 416.643 194.231 416.695 194.283 416.747C200.211 422.147 207.092 428.818 204.339 437.712C202.857 442.689 198.305 446.289 193.224 447.56C190.366 448.301 187.19 448.301 184.65 446.819C178.192 443.219 175.863 431.995 178.298 425.536C179.886 421.406 183.273 417.912 187.402 416.112C187.931 415.9 188.461 415.688 188.884 415.265C189.307 414.841 189.413 414.206 189.519 413.571L189.519 413.57C190.366 408.488 191.001 402.982 189.413 398.005C189.367 397.853 189.32 397.696 189.272 397.537C188.219 394.033 186.651 388.82 181.792 384.769C178.192 381.804 174.381 380.745 172.264 380.322C171.03 381.998 170.089 383.453 169.014 385.117C168.798 385.45 168.577 385.792 168.347 386.146C143.682 425.853 150.352 469.69 156.915 493.091C186.661 488.856 220.112 481.867 241.073 467.573C241.557 467.245 242.039 466.919 242.519 466.594C273.484 445.646 294.512 431.42 306.917 380.64C319.514 329.073 314.221 395.676 314.221 395.676C314.221 395.676 342.868 378.709 375 380.26V0ZM375 400.614C374.185 401.92 373.446 402.899 372.803 403.753C371.605 405.34 370.737 406.49 370.326 408.488C369.23 413.472 371.229 420.051 375 422.572V400.614ZM375 431.422C374.817 431.744 374.689 431.975 374.56 432.206C374.296 432.683 374.031 433.159 373.29 434.43C373.858 434.897 374.431 435.372 375 435.856V431.422ZM375 463.992C371.878 465.296 368.353 465.654 365.033 465.137C362.387 464.714 359.846 463.761 357.941 461.855C355.082 458.89 354.659 454.337 355.294 450.419C356.247 444.701 359.423 439.407 363.975 435.701C364.169 435.545 364.371 435.389 364.575 435.232C365.482 434.532 366.44 433.792 367.045 432.842C369.162 430.089 368.527 426.171 367.362 422.888C366.727 421.088 365.139 417.065 362.916 416.853C361.19 416.688 358.189 418.566 356.04 419.91C355.422 420.297 354.874 420.64 354.447 420.876C354.13 420.982 353.918 421.194 353.707 421.406L353.706 421.406C353.389 421.724 353.389 422.253 353.389 422.677C353.071 429.771 352.436 438.242 344.92 441.524C340.686 443.324 335.605 442.266 331.899 439.618C329.782 438.136 327.983 435.912 327.559 433.371C326.289 426.912 332.64 418.865 338.463 416.959C342.168 415.688 346.508 416.006 350.001 417.806C350.06 417.835 350.121 417.867 350.184 417.899C350.572 418.1 351.027 418.335 351.483 418.335C352.088 418.335 352.552 418.053 352.817 417.892C352.877 417.855 352.926 417.825 352.965 417.806C367.15 407.535 370.22 396.417 370.22 396.417C370.75 394.723 371.279 391.97 371.491 388.581C363.975 389.111 353.071 390.805 341.215 396.099C323.537 404.041 313.374 415.688 299.507 431.995C290.509 442.583 278.97 457.725 268.067 477.844C273.995 476.361 281.087 473.82 289.873 469.69C289.873 469.69 289.873 469.796 289.768 470.008L291.991 469.055C298.236 466.725 305.435 466.408 311.151 469.373C313.356 470.475 314.576 471.323 315.654 472.073C317.268 473.195 318.565 474.096 322.372 475.302C322.505 475.342 322.638 475.382 322.772 475.421C324.754 476.01 326.72 476.594 328.406 478.479C329.5 479.71 329.755 480.72 330.055 481.908C330.219 482.56 330.398 483.266 330.735 484.091C331.872 486.65 333.467 487.529 335.257 488.516C336.801 489.367 338.49 490.299 340.156 492.456C342.048 494.858 342.64 497.91 343.237 500.994C343.509 502.396 343.782 503.805 344.179 505.162C344.232 505.354 344.287 505.55 344.342 505.747C345.17 508.704 346.144 512.177 343.861 514.163C343.07 514.893 342.068 515.204 341.058 515.517C340.312 515.748 339.561 515.981 338.886 516.386C337.51 517.1 336.527 518.353 335.546 519.603C334.49 520.95 333.437 522.292 331.899 522.951C330.352 523.666 328.67 523.476 326.986 523.286C325.676 523.139 324.364 522.991 323.113 523.269C321.912 523.491 320.786 524.069 319.672 524.64C318.134 525.429 316.619 526.206 314.962 526.022C313.942 525.909 313.044 525.401 312.137 524.889C311.349 524.444 310.555 523.995 309.669 523.798C308.323 523.518 306.948 523.772 305.574 524.026C304.354 524.252 303.136 524.477 301.941 524.328C300.417 524.137 299.121 523.375 297.826 522.612C296.962 522.104 296.098 521.596 295.166 521.257C293.865 520.763 292.449 520.593 291.041 520.424C289.126 520.193 287.225 519.964 285.639 518.927C283.801 517.702 282.85 515.646 281.903 513.6C281.541 512.817 281.18 512.036 280.77 511.304C280.656 511.152 280.515 510.945 280.346 510.699C280.045 510.259 279.657 509.691 279.182 509.08C278.617 508.445 277.958 507.903 277.3 507.362C276.97 507.092 276.641 506.821 276.324 506.539C275.265 505.48 274.418 504.209 273.677 502.833C269.019 498.174 262.138 492.773 252.717 488.75C223.288 506.009 187.614 513.739 143.259 522.845C135.637 524.434 128.015 526.763 120.605 529.728C122.828 541.693 131.191 570.388 162.525 587.648C163.478 582.671 163.16 577.589 162.313 572.612C162.313 572.294 162.313 571.977 161.996 571.765C161.827 571.428 161.525 571.292 161.195 571.144C161.11 571.106 161.024 571.067 160.937 571.024C155.115 568.165 150.881 562.235 150.14 555.776C149.928 554.082 149.928 552.282 150.457 550.693C151.41 547.835 153.739 545.505 156.491 544.128C156.886 543.931 157.258 543.741 157.616 543.557C159.757 542.462 161.377 541.632 164.007 541.27C164.96 541.164 167.395 541.27 168.347 541.587C170.147 541.905 171.523 543.281 172.794 544.764C175.44 547.835 177.557 551.752 177.134 555.882C176.71 560.329 173.429 563.929 169.724 566.365C169.547 566.478 169.368 566.591 169.19 566.703C167.875 567.53 166.565 568.354 165.913 569.753C165.489 570.6 165.383 571.553 165.383 572.506C165.277 575.153 165.701 577.695 166.654 580.236C175.334 577.589 181.474 569.965 185.497 561.812C186.238 560.435 186.873 558.847 186.344 557.364C186.132 556.729 185.708 556.2 185.285 555.67C182.427 551.646 182.321 545.929 184.861 541.587C187.402 537.246 192.166 534.599 197.141 534.175C199.364 533.963 201.693 534.281 203.81 535.34C207.198 537.14 209.315 540.74 210.268 544.446C211.009 547.517 211.008 550.799 209.526 553.552C207.939 556.517 205.61 558.106 204.445 558.741C203.452 559.337 202.553 559.56 201.746 559.76L201.587 559.8C199.023 560.208 197.39 560.135 196.051 560.074C194.957 560.025 194.06 559.985 193.013 560.223C190.486 560.825 189.361 563.068 187.579 566.622C186.224 569.322 184.49 572.779 181.474 576.847C180.204 578.542 179.039 579.918 177.134 581.295C174.487 583.201 171.629 584.365 171.629 584.365C170.947 584.645 170.392 584.842 169.932 585.005C168.822 585.4 168.267 585.598 167.818 586.271C167.077 587.542 167.183 589.977 168.347 590.719C169.331 591.344 170.389 591.744 171.523 592.172C171.732 592.251 171.944 592.33 172.158 592.413C181.156 596.119 189.837 598.131 198.094 598.978C202.222 594.425 203.492 590.507 203.916 587.754C204.022 586.907 204.022 586.483 204.022 585.808C204.022 585.133 204.022 584.207 204.128 582.354L204.132 582.3C204.553 576.935 204.768 574.191 206.245 571.341C207.409 569.012 209.209 566.894 211.538 565.623C215.984 563.294 222.018 565.306 224.77 569.541C227.522 573.777 226.993 579.706 223.923 583.73C220.959 587.754 215.772 589.977 210.797 589.871C210.599 589.871 210.381 589.864 210.149 589.856C208.886 589.811 207.195 589.752 206.033 590.824C205.61 591.248 205.186 591.777 204.445 594.636C203.916 596.542 203.598 598.131 203.493 599.401C213.232 599.825 221.912 598.766 229.957 596.966C233.98 591.989 235.25 587.648 235.674 584.577C235.771 583.897 235.779 583.507 235.79 582.977C235.802 582.351 235.819 581.532 235.991 579.812C236.016 579.547 236.04 579.289 236.064 579.036C236.543 573.931 236.797 571.221 238.108 568.8C239.379 566.471 241.073 564.247 243.401 563.082C247.847 560.753 253.881 562.765 256.634 567C259.386 571.235 258.857 577.165 255.787 581.189C252.823 585.212 247.636 587.436 242.66 587.436C242.482 587.436 242.27 587.424 242.034 587.411C240.872 587.344 239.128 587.245 237.897 588.389C237.262 589.024 236.944 589.766 236.521 591.248C235.885 593.048 235.674 594.531 235.568 595.589C237.791 595.589 241.602 595.483 245.836 593.683C250.494 591.672 253.352 588.813 253.987 588.071C254.708 587.299 255.054 586.827 255.437 586.302C255.843 585.748 256.291 585.135 257.269 584.048C259.069 582.036 260.974 580.13 263.409 578.859C266.267 577.271 270.395 576.953 272.936 579.283C275.265 581.401 276.535 584.471 276.324 587.648C276.112 590.824 274.524 593.789 271.983 595.589C268.49 598.131 263.726 598.131 259.492 597.495C258.347 597.296 257.694 597.144 257.147 597.016C256.531 596.873 256.049 596.76 255.152 596.648C250.494 596.225 246.365 598.237 242.978 600.672L242.978 600.672C243.402 601.096 243.825 601.519 244.354 601.837C247.542 603.997 251.628 604.658 255.449 605.276L255.787 605.331C256.634 605.437 257.586 605.543 258.539 605.331C259.429 605.153 260.17 604.675 260.887 604.213C261.022 604.125 261.157 604.039 261.291 603.954C264.997 601.625 269.231 599.613 273.677 599.719C278.123 599.719 282.781 602.26 284.157 606.496C285.004 608.931 284.581 611.684 283.734 614.12C282.993 616.555 281.722 618.779 279.923 620.579C276.218 624.285 270.184 625.344 265.42 623.226C260.656 621.002 257.586 615.602 258.116 610.414C254.093 609.249 250.176 607.766 246.471 606.072C244.142 605.013 241.39 603.637 239.273 601.731C236.838 602.26 233.027 603.001 228.158 603.637C228.158 603.919 228.064 604.201 227.97 604.484C227.922 604.625 227.875 604.766 227.84 604.907C226.57 610.308 226.782 615.814 227.84 621.214C227.84 621.532 227.84 621.849 228.158 622.061C228.326 622.398 228.629 622.534 228.959 622.682C229.043 622.72 229.13 622.759 229.216 622.802C235.038 625.661 239.273 631.591 240.014 638.05C240.019 638.109 240.025 638.17 240.031 638.232C240.139 639.398 240.299 641.122 239.696 643.132C237.897 648.744 231.228 652.556 225.088 652.133C224.029 652.133 220.536 651.709 217.466 649.062C214.29 646.415 212.702 642.074 213.02 637.944C213.443 633.497 216.725 629.897 220.43 627.461C220.607 627.348 220.785 627.235 220.963 627.123C222.279 626.296 223.588 625.472 224.241 624.073C224.664 623.226 224.77 622.273 224.77 621.32C224.876 618.673 224.453 616.131 223.5 613.696C214.925 616.343 208.68 623.967 204.657 632.014C203.916 633.391 203.281 634.979 203.81 636.462C204.022 637.097 204.445 637.626 204.869 638.156C207.727 642.18 207.833 647.897 205.292 652.239C202.752 656.474 197.988 659.227 193.013 659.651C190.684 659.863 188.355 659.545 186.344 658.486C182.956 656.792 180.839 653.086 179.886 649.38C179.145 646.309 179.145 643.027 180.627 640.273C181.998 637.637 183.999 636.26 185.689 635.098L185.708 635.085C188.336 633.309 190.392 632.772 192.356 632.26C193.319 632.008 194.26 631.762 195.236 631.379C198.971 629.985 200.24 628.004 201.825 625.528C203.251 623.302 204.932 620.677 208.891 617.72C211.411 615.84 213.824 614.609 215.904 613.549C219.329 611.803 221.848 610.519 222.441 607.555C222.759 606.178 222.441 604.907 222.23 604.166C211.644 605.225 197.988 605.437 183.803 603.001C182.215 605.543 181.051 609.884 181.051 612.425C181.051 614.216 181.134 615.68 181.208 616.968C181.383 620.02 181.501 622.078 180.309 625.132C179.886 626.296 178.086 630.744 173.746 632.226C169.406 633.708 163.795 631.803 161.784 628.097C161.138 626.895 161.055 625.856 160.974 624.836C160.963 624.687 160.951 624.539 160.937 624.391C160.62 618.884 163.478 613.272 168.242 610.308C169.44 609.565 170.7 609.008 171.956 608.453C173.028 607.978 174.098 607.505 175.122 606.919C177.134 605.86 178.933 604.166 179.674 602.048C170.465 600.143 161.255 596.966 152.574 592.095C126.427 577.271 106.526 554.929 96.3635 542.011C69.687 558 49.5738 579.918 49.3621 596.013C49.3621 603.319 50.3148 628.097 50.3148 628.097C50.4333 630.23 50.5518 632.414 50.6726 634.64C50.9835 640.369 51.3098 646.38 51.691 652.556L50.209 652.133C50.209 652.465 50.2957 652.768 50.3786 653.058C50.4542 653.322 50.5265 653.574 50.5265 653.827C50.8526 659.372 51.1003 665.059 51.348 670.748C51.7436 679.833 52.1394 688.923 52.8554 697.452C53.8082 708.888 55.2902 719.583 58.4659 729.43C62.5945 741.819 68.099 752.407 76.0384 761.725C83.9778 770.832 93.2934 778.138 103.35 784.597L144.167 812H375V463.992ZM79.2763 812C70.3824 809.184 60.3587 808.003 51.8014 812H79.2763Z" fill="#E4E8FC"/>
<defs>
<linearGradient id="paint0_linear_7982_41058" x1="283.5" y1="320" x2="-156" y2="998.5" gradientUnits="userSpaceOnUse">
<stop stop-color="#CAD1F9"/>
<stop offset="1" stop-color="white" stop-opacity="0"/>
</linearGradient>
</defs>
</svg>
