<svg width="222" height="211" viewBox="0 0 222 211" fill="none" xmlns="http://www.w3.org/2000/svg">
<path fill-rule="evenodd" clip-rule="evenodd" d="M195.574 64.4994C195.431 64.397 195.098 64.3608 194.943 64.3299C194.296 64.2027 193.631 64.1473 192.971 64.1473C190.941 64.1504 188.877 64.3497 186.881 64.6947C185.612 64.9136 184.081 65.6508 182.819 65.2504C180.622 64.553 178.401 64.5873 176.316 65.583C174.41 66.4934 172.963 68.2226 172.119 70.0909C171.991 70.373 171.475 71.4112 171.328 72.111C171.266 72.254 171.206 72.3979 171.151 72.5441C170.998 72.9593 170.86 73.3817 170.732 73.8051C170.677 73.9856 170.539 74.3842 170.703 74.4613C170.442 74.9435 170.21 75.4403 170.017 75.9532C169.456 77.4451 168.843 79.0816 168.646 80.6627C168.573 81.2482 168.57 81.8371 168.638 82.4236C168.671 82.7137 168.658 83.2965 168.854 83.5172C169.271 83.9849 169.485 83.33 169.438 83.018C169.079 80.6408 169.773 78.4083 170.594 76.1736C171.126 74.7286 171.999 73.4065 172.978 72.2094C173.769 71.2401 174.618 70.477 175.703 69.8346C177.031 69.0487 178.449 68.4137 179.855 67.7765C180.78 67.3573 181.705 66.9492 182.656 66.5881C182.867 66.5076 183.199 66.3015 183.434 66.3007C183.93 66.2991 184.632 66.6647 185.11 66.8006C186.683 67.2483 188.278 67.8213 189.906 68.0499C190.949 68.1967 191.928 68.0315 192.902 67.6838C193.003 67.6484 193.169 67.5571 193.375 67.4267C194.101 67.148 194.784 66.7972 195.381 66.2909C195.727 65.9995 196.038 65.6226 196.323 65.2776C196.408 65.1746 196.445 65.0564 196.447 64.9439C196.511 64.9104 196.553 64.8708 196.563 64.8249C196.635 64.4854 195.988 64.4793 195.574 64.4994Z" fill="#D4DAFC"/>
<path fill-rule="evenodd" clip-rule="evenodd" d="M59.5425 83.3782C57.2181 80.9843 54.8857 78.6206 52.2889 76.5129C50.7584 75.2707 49.1456 74.1414 47.5661 72.9637C47.7482 73.1234 47.9269 73.2875 48.1014 73.4559C47.6083 73.1212 46.9629 72.932 46.4403 72.6221C45.8572 72.2766 45.2997 71.8814 44.7531 71.4828C43.6859 70.7052 42.6348 69.9128 41.5378 69.1758C40.3156 68.3547 39.0492 67.596 37.8062 66.806C36.7511 66.1353 35.6834 65.4012 34.5547 64.8532C33.9397 64.5544 33.3233 64.2002 32.7057 63.8884C32.499 63.7842 30.4016 62.4599 30.4068 62.4559C30.5227 62.3686 31.5783 62.8645 31.7414 62.9311C32.2181 63.1259 32.6743 63.3589 33.1325 63.591C32.8809 63.0947 32.6819 62.5734 32.5734 62.0244C32.5399 61.8552 32.2717 60.6217 32.409 60.5182C32.4773 60.4667 33.1465 62.6732 33.1808 62.8854C33.2088 63.0575 33.2046 63.3059 33.261 63.469C33.3521 63.7324 33.3476 63.653 33.5482 63.8013C33.9159 64.0735 34.404 64.2435 34.8018 64.471C35.0166 64.5908 35.681 65.0657 36.0812 65.2011C37.292 65.7895 38.5194 66.6941 39.67 67.4453C39.368 66.8778 39.1381 66.2844 38.9708 65.6628C38.9309 65.515 38.5006 64.1907 38.6052 64.112C38.7226 64.0236 39.542 66.0463 39.5905 66.2377C39.6805 66.5935 39.6993 66.9895 39.8123 67.3355C39.9361 67.7153 40.3228 67.85 40.6712 68.0714C41.9533 68.886 43.1915 69.7515 44.4089 70.6569C45.7374 68.2942 44.2056 65.4413 42.9149 63.459C41.9841 62.0304 40.7316 60.8054 39.4089 59.7361C37.6436 58.3091 35.624 57.1688 33.6068 56.1259C31.2565 54.9109 28.7162 54.1581 26.075 53.8102C24.6937 53.6283 23.2807 53.6333 21.8854 53.6917C21.2039 53.7202 20.5495 53.8105 19.8965 54.0327C19.6019 54.133 19.3173 54.2594 19.0402 54.4009C18.8295 54.5084 18.3198 54.6221 18.199 54.7824C17.2017 56.08 16.6917 57.3731 16.7696 59.0039C16.8433 60.5475 17.3308 62.0919 17.9923 63.469C18.7292 65.0024 19.6769 66.394 20.9164 67.5617C21.8619 68.4528 22.9191 69.2286 23.9694 69.9938C27.7047 72.7161 32.4404 75.0838 37.2783 74.4756C38.8443 74.2787 40.3339 73.731 41.7257 72.9869C42.0538 72.8114 42.3798 72.634 42.6894 72.427C42.8982 72.2874 43.4562 71.6584 43.6661 71.6357C43.9541 71.6043 44.5738 72.1897 44.8439 72.3679C46.8959 73.7223 48.8941 75.1503 50.8503 76.6359C52.9319 78.2167 54.911 79.9048 56.8321 81.6722C57.6491 82.4243 58.4611 83.1776 59.2543 83.9547C59.439 84.1355 59.8907 84.8012 60.2256 84.8316C60.4373 84.8506 60.5801 84.6698 60.55 84.4736C60.4975 84.1331 59.7806 83.6232 59.5425 83.3782Z" fill="#D4DAFC"/>
<path fill-rule="evenodd" clip-rule="evenodd" d="M193.132 74.088C192.232 73.8913 191.236 73.9064 190.321 73.9225C185.403 73.9895 180.572 76.3182 177.428 80.0389C174.752 83.2065 174.017 87.1447 173.488 91.1258C173.436 91.5209 173.413 91.9137 173.384 92.3099C173.377 92.3949 173.368 92.4707 173.357 92.5422C173.15 92.728 173.04 92.9447 173.164 93.1828C172.706 94.1851 172.318 95.2127 171.986 96.2728C171.007 99.3928 170.012 102.572 170.625 105.853C170.768 104.047 171.07 102.201 171.43 100.425C171.451 100.323 171.473 100.222 171.496 100.122C171.499 100.111 171.501 100.1 171.503 100.09C171.631 99.5459 171.797 99.0185 171.998 98.4993C172 98.4934 172.002 98.4879 172.005 98.4824C172.031 98.414 172.06 98.3459 172.087 98.2781C172.145 98.1374 172.205 97.9969 172.268 97.8573C172.289 97.8095 172.309 97.7615 172.329 97.7132C172.623 96.9936 172.746 96.1827 173.01 95.4384C173.072 95.2692 173.138 95.1005 173.207 94.9326C173.211 94.9229 173.215 94.9131 173.219 94.9033C173.406 94.4517 173.611 94.0059 173.829 93.5645C173.947 93.4756 174.01 93.2552 174.113 93.0548C174.133 93.0152 174.298 92.7521 174.348 92.6003C174.476 92.3524 174.603 92.1046 174.732 91.857C174.729 91.8585 174.725 91.8599 174.721 91.8614C174.85 91.6236 174.979 91.3871 175.108 91.1514C175.136 91.0997 175.165 91.0479 175.193 90.9959C175.239 90.9133 175.286 90.8307 175.332 90.7483C175.762 89.9773 176.219 89.2218 176.694 88.4756C176.863 88.2093 177.267 87.8273 177.345 87.5285C177.348 87.5172 177.348 87.5069 177.35 87.4963C178.38 86.0504 179.565 84.7168 180.986 83.6602C180.814 83.846 180.449 84.4761 180.353 84.601C180.057 84.9829 179.736 85.3385 179.415 85.6985C178.838 86.3434 178.275 87.0085 177.775 87.712C176.86 88.9985 176.071 90.3524 175.325 91.7337C175.318 91.7416 175.31 91.7493 175.303 91.7577C174.928 92.2199 174.692 92.9183 174.422 93.4471C175.49 92.9524 176.672 92.6301 177.768 92.1909C178.861 91.753 179.924 91.2652 180.951 90.6926C182.315 89.9314 183.731 89.0722 185.02 88.0998C186.498 87.1833 187.739 85.9218 188.834 84.5981C190.133 83.0317 191.321 81.4519 192.055 79.5501C192.416 78.6157 192.699 77.6411 192.868 76.6552C192.876 76.6125 192.886 76.5658 192.894 76.5175C193.068 76.1769 193.221 75.8288 193.351 75.4727C193.557 74.9078 194.04 74.2865 193.132 74.088Z" fill="#A9B5F9"/>
<path fill-rule="evenodd" clip-rule="evenodd" d="M21.904 77.0844C21.5471 76.7289 21.1464 76.4079 20.6761 76.179C20.557 76.1212 19.6712 75.7335 19.6134 75.8187C19.479 76.0167 21.7968 76.9709 21.904 77.0844ZM26.1044 74.7085C26.1015 74.7236 26.4087 75.2034 26.4924 75.351C26.6703 75.6648 26.8348 75.9848 26.9895 76.3052C26.7606 75.739 26.5254 75.214 26.1044 74.7085ZM4.62148 78.6156C4.32558 78.7033 3.97003 78.3575 4.35357 78.2722C4.66425 78.2039 4.64894 78.1878 4.78831 77.9576C4.90155 77.7705 4.97149 77.5424 5.07074 77.3463C5.28138 76.9297 5.52053 76.5327 5.81406 76.1608C6.44281 75.3634 7.20909 74.6761 8.06854 74.0972C9.56837 73.0865 11.2498 72.1631 13.0336 71.6991C15.8699 70.9613 19.0981 70.9157 21.9389 71.4272C23.6981 71.744 25.3062 72.2946 26.4742 73.5991C27.0581 74.2508 27.5166 75.0147 27.7169 75.8557C27.7692 76.0753 27.7594 76.3197 27.8249 76.5351C27.9255 76.8659 27.8811 76.7777 28.3014 76.8421C28.7604 76.9123 29.2189 76.9841 29.6771 77.0572C30.8773 77.2483 32.0847 77.4513 33.254 77.7615C33.6391 77.8636 34.0156 77.9882 34.3833 78.1334C34.6612 78.2427 35.7688 78.5866 35.9034 78.9195C36.1275 79.473 35.3768 79.222 35.1437 79.1016C34.9394 78.9958 34.7296 78.8973 34.5168 78.8068C33.981 78.5784 33.4227 78.4018 32.8518 78.2612C32.2349 78.1091 31.6053 77.9959 30.9782 77.8821C30.3935 77.7763 29.8064 77.6799 29.2186 77.5881C28.8921 77.5368 28.5653 77.4872 28.2385 77.4373C28.1269 77.4204 27.9302 77.3315 27.945 77.465C27.2579 77.3431 26.5149 77.3608 25.8151 77.327C24.958 77.2861 24.0975 77.2523 23.2375 77.2768C22.6172 77.2948 21.9964 77.3323 21.3793 77.4088C21.0187 77.4537 20.6639 77.5194 20.31 77.6026C20.1157 77.6482 19.3494 77.7448 19.2436 77.9008C19.289 77.8338 20.1347 77.899 20.2424 77.895C20.6729 77.8803 21.1003 77.8409 21.5292 77.7968C22.3253 77.715 23.1219 77.6723 23.9204 77.6783C23.9175 77.8074 23.3719 78.0373 23.2386 78.1228C22.9401 78.3147 22.6542 78.5241 22.3873 78.7537C21.9175 79.1581 21.3547 79.6588 21.0295 80.1379C21.1253 79.9967 21.5981 79.813 21.7657 79.7053C22.0344 79.5324 22.2976 79.3479 22.5467 79.1507C22.7767 78.9688 22.9913 78.7722 23.2022 78.5713C23.4131 78.3704 23.6995 77.9528 23.9766 77.819C23.9935 77.8108 24.1144 77.8987 24.183 77.8689C24.2522 77.8388 24.3382 77.6881 24.3559 77.682C24.6141 77.5904 25.104 77.7045 25.3753 77.7161C26.0791 77.7459 26.782 77.785 27.4849 77.8206C27.7027 77.8314 27.888 77.786 27.9701 77.9338C28.0577 78.0917 27.8972 78.5064 27.8516 78.6782C27.6818 79.3165 27.3809 79.889 26.9068 80.3834C26.0194 81.3096 24.9248 81.927 23.6884 82.3401C18.9527 83.9223 13.9142 84.5558 9.17981 82.91C7.21991 82.2287 4.26804 81.0111 4.62148 78.6156Z" fill="#D4DAFC"/>
<g opacity="0.6">
<path fill-rule="evenodd" clip-rule="evenodd" d="M221.37 153.152C224.593 173.235 146.489 186.334 79.2647 177.193C12.0399 168.051 -18.7996 132.351 13.2789 113.329C45.3574 94.3069 218.15 133.069 221.37 153.152Z" fill="#D4DAFC" fill-opacity="0.63"/>
</g>
<path d="M89.6647 33H51.9184C50.7522 33 49.8068 33.9454 49.8068 35.1117V110.604C49.8068 111.771 50.7522 112.716 51.9184 112.716H89.6647C90.831 112.716 91.7764 111.771 91.7764 110.604V35.1117C91.7764 33.9454 90.831 33 89.6647 33Z" fill="#A9B5F9" fill-opacity="0.63"/>
<path fill-rule="evenodd" clip-rule="evenodd" d="M70.6594 107.701C72.846 107.701 74.6188 105.928 74.6188 103.741C74.6188 101.555 72.846 99.7821 70.6594 99.7821C68.4727 99.7821 66.7 101.555 66.7 103.741C66.7 105.928 68.4727 107.701 70.6594 107.701Z" fill="white"/>
<path fill-rule="evenodd" clip-rule="evenodd" d="M67.2279 38.2793C67.5195 38.2793 67.7558 38.0431 67.7558 37.7514C67.7558 37.4597 67.5195 37.2235 67.2279 37.2235C66.9362 37.2235 66.7 37.4597 66.7 37.7514C66.7 38.0431 66.9362 38.2793 67.2279 38.2793Z" fill="white"/>
<path d="M74.0911 37.2236H69.6038C69.3123 37.2236 69.0759 37.4599 69.0759 37.7515C69.0759 38.0431 69.3123 38.2794 69.6038 38.2794H74.0911C74.3827 38.2794 74.6191 38.0431 74.6191 37.7515C74.6191 37.4599 74.3827 37.2236 74.0911 37.2236Z" fill="white"/>
<path d="M87.0247 40.3912H54.5576C53.9745 40.3912 53.5018 40.864 53.5018 41.4471V53.5892C53.5018 54.1724 53.9745 54.6451 54.5576 54.6451H87.0247C87.6079 54.6451 88.0806 54.1724 88.0806 53.5892V41.4471C88.0806 40.864 87.6079 40.3912 87.0247 40.3912Z" fill="white"/>
<path d="M82.2734 44.6674H64.5881C64.1507 44.6674 63.7962 45.0219 63.7962 45.4593V46.0136C63.7962 46.4509 64.1507 46.8055 64.5881 46.8055H82.2734C82.7107 46.8055 83.0653 46.4509 83.0653 46.0136V45.4593C83.0653 45.0219 82.7107 44.6674 82.2734 44.6674Z" fill="#EFF1FE"/>
<path d="M75.9385 48.2308H64.5882C64.1508 48.2308 63.7963 48.5853 63.7963 49.0227V49.577C63.7963 50.0143 64.1508 50.3689 64.5882 50.3689H75.9385C76.3758 50.3689 76.7303 50.0143 76.7303 49.577V49.0227C76.7303 48.5853 76.3758 48.2308 75.9385 48.2308Z" fill="#EFF1FE"/>
<path fill-rule="evenodd" clip-rule="evenodd" d="M59.0451 50.6856C60.7943 50.6856 62.2126 49.2673 62.2126 47.518C62.2126 45.7688 60.7943 44.3505 59.0451 44.3505C57.2958 44.3505 55.8775 45.7688 55.8775 47.518C55.8775 49.2673 57.2958 50.6856 59.0451 50.6856Z" fill="#D4DAFC"/>
<path d="M87.0245 56.7569H54.5574C53.9743 56.7569 53.5016 57.2296 53.5016 57.8128V66.7874C53.5016 67.3705 53.9743 67.8433 54.5574 67.8433H87.0245C87.6076 67.8433 88.0804 67.3705 88.0804 66.7874V57.8128C88.0804 57.2296 87.6076 56.7569 87.0245 56.7569Z" fill="white"/>
<path d="M82.2734 60.0828H64.5881C64.1507 60.0828 63.7962 60.4374 63.7962 60.8747V60.9539C63.7962 61.3912 64.1507 61.7458 64.5881 61.7458H82.2734C82.7108 61.7458 83.0653 61.3912 83.0653 60.9539V60.8747C83.0653 60.4374 82.7108 60.0828 82.2734 60.0828Z" fill="#EFF1FE"/>
<path d="M75.9384 62.8542H64.5881C64.1507 62.8542 63.7962 63.2087 63.7962 63.6461V63.7253C63.7962 64.1626 64.1507 64.5171 64.5881 64.5171H75.9384C76.3757 64.5171 76.7302 64.1626 76.7302 63.7253V63.6461C76.7302 63.2087 76.3757 62.8542 75.9384 62.8542Z" fill="#EFF1FE"/>
<path fill-rule="evenodd" clip-rule="evenodd" d="M59.0449 65.4675C60.7942 65.4675 62.2125 64.0492 62.2125 62.3C62.2125 60.5507 60.7942 59.1324 59.0449 59.1324C57.2957 59.1324 55.8774 60.5507 55.8774 62.3C55.8774 64.0492 57.2957 65.4675 59.0449 65.4675Z" fill="#D4DAFC"/>
<path d="M87.0245 69.9545H54.5574C53.9743 69.9545 53.5016 70.4272 53.5016 71.0103V79.985C53.5016 80.5681 53.9743 81.0408 54.5574 81.0408H87.0245C87.6076 81.0408 88.0804 80.5681 88.0804 79.985V71.0103C88.0804 70.4272 87.6076 69.9545 87.0245 69.9545Z" fill="white"/>
<path d="M82.2734 73.2805H64.5881C64.1507 73.2805 63.7962 73.635 63.7962 74.0723V74.1515C63.7962 74.5889 64.1507 74.9434 64.5881 74.9434H82.2734C82.7108 74.9434 83.0653 74.5889 83.0653 74.1515V74.0723C83.0653 73.635 82.7108 73.2805 82.2734 73.2805Z" fill="#EFF1FE"/>
<path d="M75.9384 76.0521H64.5881C64.1507 76.0521 63.7962 76.4067 63.7962 76.844V76.9232C63.7962 77.3605 64.1507 77.7151 64.5881 77.7151H75.9384C76.3757 77.7151 76.7302 77.3605 76.7302 76.9232V76.844C76.7302 76.4067 76.3757 76.0521 75.9384 76.0521Z" fill="#EFF1FE"/>
<path fill-rule="evenodd" clip-rule="evenodd" d="M59.0449 78.6656C60.7942 78.6656 62.2125 77.2474 62.2125 75.4981C62.2125 73.7489 60.7942 72.3306 59.0449 72.3306C57.2957 72.3306 55.8774 73.7489 55.8774 75.4981C55.8774 77.2474 57.2957 78.6656 59.0449 78.6656Z" fill="#D4DAFC"/>
<path d="M87.0245 83.1526H54.5574C53.9743 83.1526 53.5016 83.6253 53.5016 84.2084V93.1831C53.5016 93.7662 53.9743 94.2389 54.5574 94.2389H87.0245C87.6076 94.2389 88.0804 93.7662 88.0804 93.1831V84.2084C88.0804 83.6253 87.6076 83.1526 87.0245 83.1526Z" fill="white"/>
<path d="M82.2734 86.4786H64.5881C64.1507 86.4786 63.7962 86.8332 63.7962 87.2705V87.3497C63.7962 87.787 64.1507 88.1416 64.5881 88.1416H82.2734C82.7108 88.1416 83.0653 87.787 83.0653 87.3497V87.2705C83.0653 86.8332 82.7108 86.4786 82.2734 86.4786Z" fill="#EFF1FE"/>
<path d="M75.9384 89.2504H64.5881C64.1507 89.2504 63.7962 89.6049 63.7962 90.0423V90.1214C63.7962 90.5588 64.1507 90.9133 64.5881 90.9133H75.9384C76.3757 90.9133 76.7302 90.5588 76.7302 90.1214V90.0423C76.7302 89.6049 76.3757 89.2504 75.9384 89.2504Z" fill="#EFF1FE"/>
<path fill-rule="evenodd" clip-rule="evenodd" d="M59.0449 91.8633C60.7942 91.8633 62.2125 90.445 62.2125 88.6958C62.2125 86.9465 60.7942 85.5283 59.0449 85.5283C57.2957 85.5283 55.8774 86.9465 55.8774 88.6958C55.8774 90.445 57.2957 91.8633 59.0449 91.8633Z" fill="#D4DAFC"/>
<path d="M170.964 46.4619H86.7609C85.5947 46.4619 84.6493 47.4073 84.6493 48.5736V135.68C84.6493 136.847 85.5947 137.792 86.7609 137.792H170.964C172.13 137.792 173.076 136.847 173.076 135.68V48.5736C173.076 47.4073 172.13 46.4619 170.964 46.4619Z" fill="#C9D0FB"/>
<path d="M166.741 57.812H152.487C151.321 57.812 150.375 58.7574 150.375 59.9237V77.0811C150.375 78.2474 151.321 79.1928 152.487 79.1928H166.741C167.907 79.1928 168.853 78.2474 168.853 77.0811V59.9237C168.853 58.7574 167.907 57.812 166.741 57.812Z" fill="white"/>
<path fill-rule="evenodd" clip-rule="evenodd" d="M159.614 70.2184C161.946 70.2184 163.837 68.3277 163.837 65.9951C163.837 63.6624 161.946 61.7717 159.614 61.7717C157.281 61.7717 155.39 63.6624 155.39 65.9951C155.39 68.3277 157.281 70.2184 159.614 70.2184Z" fill="#D4DAFC"/>
<path d="M165.421 71.2744H153.806C153.369 71.2744 153.015 71.629 153.015 72.0663C153.015 72.5036 153.369 72.8582 153.806 72.8582H165.421C165.858 72.8582 166.213 72.5036 166.213 72.0663C166.213 71.629 165.858 71.2744 165.421 71.2744Z" fill="#D4DAFC"/>
<path d="M163.309 73.9138H155.918C155.481 73.9138 155.126 74.2683 155.126 74.7056C155.126 75.143 155.481 75.4975 155.918 75.4975H163.309C163.746 75.4975 164.101 75.143 164.101 74.7056C164.101 74.2683 163.746 73.9138 163.309 73.9138Z" fill="#D4DAFC"/>
<path d="M84.6493 48.5736C84.6493 47.4074 85.5948 46.4619 86.7609 46.4619H170.964C172.13 46.4619 173.076 47.4074 173.076 48.5736V53.5888H84.6493V48.5736Z" fill="#6175DB"/>
<path fill-rule="evenodd" clip-rule="evenodd" d="M88.0808 51.2132C88.6639 51.2132 89.1366 50.7404 89.1366 50.1573C89.1366 49.5742 88.6639 49.1015 88.0808 49.1015C87.4977 49.1015 87.025 49.5742 87.025 50.1573C87.025 50.7404 87.4977 51.2132 88.0808 51.2132Z" fill="#F2F2F2"/>
<path fill-rule="evenodd" clip-rule="evenodd" d="M91.2482 51.2131C91.8313 51.2131 92.304 50.7403 92.304 50.1573C92.304 49.5742 91.8313 49.1014 91.2482 49.1014C90.6651 49.1014 90.1923 49.5742 90.1923 50.1573C90.1923 50.7403 90.6651 51.2131 91.2482 51.2131Z" fill="#F2F2F2"/>
<path fill-rule="evenodd" clip-rule="evenodd" d="M94.4156 51.2131C94.9987 51.2131 95.4714 50.7403 95.4714 50.1573C95.4714 49.5742 94.9987 49.1014 94.4156 49.1014C93.8325 49.1014 93.3597 49.5742 93.3597 50.1573C93.3597 50.7403 93.8325 51.2131 94.4156 51.2131Z" fill="#F2F2F2"/>
<path d="M166.741 81.3045H152.487C151.321 81.3045 150.375 82.2499 150.375 83.4162V130.401C150.375 131.567 151.321 132.513 152.487 132.513H166.741C167.907 132.513 168.853 131.567 168.853 130.401V83.4162C168.853 82.2499 167.907 81.3045 166.741 81.3045Z" fill="white"/>
<path d="M163.045 86.0557H156.182C155.599 86.0557 155.126 86.5284 155.126 87.1115V91.8628C155.126 92.4459 155.599 92.9187 156.182 92.9187H163.045C163.628 92.9187 164.101 92.4459 164.101 91.8628V87.1115C164.101 86.5284 163.628 86.0557 163.045 86.0557Z" fill="#D4DAFC"/>
<path d="M163.045 95.0303H156.182C155.599 95.0303 155.127 95.503 155.127 96.0861V100.573C155.127 101.157 155.599 101.629 156.182 101.629H163.045C163.629 101.629 164.101 101.157 164.101 100.573V96.0861C164.101 95.503 163.629 95.0303 163.045 95.0303Z" fill="#D4DAFC"/>
<path d="M163.045 103.741H156.182C155.599 103.741 155.127 104.214 155.127 104.797V109.284C155.127 109.867 155.599 110.34 156.182 110.34H163.045C163.629 110.34 164.101 109.867 164.101 109.284V104.797C164.101 104.214 163.629 103.741 163.045 103.741Z" fill="#D4DAFC"/>
<path d="M163.045 121.163H156.182C155.599 121.163 155.127 121.635 155.127 122.218V126.706C155.127 127.289 155.599 127.762 156.182 127.762H163.045C163.629 127.762 164.101 127.289 164.101 126.706V122.218C164.101 121.635 163.629 121.163 163.045 121.163Z" fill="#D4DAFC"/>
<path d="M163.045 112.452H156.182C155.599 112.452 155.127 112.925 155.127 113.508V117.995C155.127 118.578 155.599 119.051 156.182 119.051H163.045C163.629 119.051 164.101 118.578 164.101 117.995V113.508C164.101 112.925 163.629 112.452 163.045 112.452Z" fill="#D4DAFC"/>
<path d="M147.208 58.0761H89.9286C89.3455 58.0761 88.8728 58.5488 88.8728 59.1319V69.4264C88.8728 70.0095 89.3455 70.4822 89.9286 70.4822H147.208C147.791 70.4822 148.264 70.0095 148.264 69.4264V59.1319C148.264 58.5488 147.791 58.0761 147.208 58.0761Z" fill="white"/>
<path d="M134.538 61.7978H92.0404C91.6031 61.7978 91.2485 62.1523 91.2485 62.5897V62.8668C91.2485 63.3042 91.6031 63.6587 92.0404 63.6587H134.538C134.975 63.6587 135.33 63.3042 135.33 62.8668V62.5897C135.33 62.1523 134.975 61.7978 134.538 61.7978Z" fill="#EFF1FE"/>
<path d="M120.046 64.8993H92.0404C91.6031 64.8993 91.2485 65.2538 91.2485 65.6912V65.9683C91.2485 66.4057 91.6031 66.7602 92.0404 66.7602H120.046C120.483 66.7602 120.837 66.4057 120.837 65.9683V65.6912C120.837 65.2538 120.483 64.8993 120.046 64.8993Z" fill="#EFF1FE"/>
<path fill-rule="evenodd" clip-rule="evenodd" d="M141.917 66.1267C142.937 66.1267 143.764 65.2995 143.764 64.279C143.764 63.2585 142.937 62.4313 141.917 62.4313C140.896 62.4313 140.069 63.2585 140.069 64.279C140.069 65.2995 140.896 66.1267 141.917 66.1267Z" fill="#EFF1FE"/>
<path fill-rule="evenodd" clip-rule="evenodd" d="M141.917 65.071C142.354 65.071 142.709 64.7165 142.709 64.2791C142.709 63.8417 142.354 63.4872 141.917 63.4872C141.479 63.4872 141.125 63.8417 141.125 64.2791C141.125 64.7165 141.479 65.071 141.917 65.071Z" fill="#F2F2F2"/>
<path d="M147.208 72.5937H89.9287C89.3456 72.5937 88.8729 73.0664 88.8729 73.6495V81.8323C88.8729 82.4154 89.3456 82.8881 89.9287 82.8881H147.208C147.791 82.8881 148.264 82.4154 148.264 81.8323V73.6495C148.264 73.0664 147.791 72.5937 147.208 72.5937Z" fill="white"/>
<path d="M134.558 75.6822H92.0207C91.5943 75.6822 91.2486 76.0278 91.2486 76.4542C91.2486 76.8806 91.5943 77.2263 92.0207 77.2263H134.558C134.984 77.2263 135.33 76.8806 135.33 76.4542C135.33 76.0278 134.984 75.6822 134.558 75.6822Z" fill="#EFF1FE"/>
<path d="M120.065 78.2554H92.0207C91.5943 78.2554 91.2486 78.6011 91.2486 79.0275C91.2486 79.4539 91.5943 79.7996 92.0207 79.7996H120.065C120.492 79.7996 120.837 79.4539 120.837 79.0275C120.837 78.6011 120.492 78.2554 120.065 78.2554Z" fill="#EFF1FE"/>
<path fill-rule="evenodd" clip-rule="evenodd" d="M141.917 79.5884C142.937 79.5884 143.765 78.7611 143.765 77.7406C143.765 76.7202 142.937 75.8929 141.917 75.8929C140.896 75.8929 140.069 76.7202 140.069 77.7406C140.069 78.7611 140.896 79.5884 141.917 79.5884Z" fill="#EFF1FE"/>
<path fill-rule="evenodd" clip-rule="evenodd" d="M141.917 78.5324C142.354 78.5324 142.709 78.1779 142.709 77.7405C142.709 77.3031 142.354 76.9486 141.917 76.9486C141.479 76.9486 141.125 77.3031 141.125 77.7405C141.125 78.1779 141.479 78.5324 141.917 78.5324Z" fill="#F2F2F2"/>
<path d="M147.208 84.9998H89.9287C89.3456 84.9998 88.8729 85.4725 88.8729 86.0556V94.2384C88.8729 94.8215 89.3456 95.2942 89.9287 95.2942H147.208C147.791 95.2942 148.264 94.8215 148.264 94.2384V86.0556C148.264 85.4725 147.791 84.9998 147.208 84.9998Z" fill="white"/>
<path d="M134.558 88.0879H92.0207C91.5943 88.0879 91.2486 88.4336 91.2486 88.86C91.2486 89.2864 91.5943 89.6321 92.0207 89.6321H134.558C134.984 89.6321 135.33 89.2864 135.33 88.86C135.33 88.4336 134.984 88.0879 134.558 88.0879Z" fill="#EFF1FE"/>
<path d="M120.065 90.6616H92.0207C91.5943 90.6616 91.2486 91.0072 91.2486 91.4336C91.2486 91.86 91.5943 92.2057 92.0207 92.2057H120.065C120.492 92.2057 120.837 91.86 120.837 91.4336C120.837 91.0072 120.492 90.6616 120.065 90.6616Z" fill="#EFF1FE"/>
<path fill-rule="evenodd" clip-rule="evenodd" d="M141.917 91.9949C142.937 91.9949 143.765 91.1676 143.765 90.1472C143.765 89.1267 142.937 88.2994 141.917 88.2994C140.896 88.2994 140.069 89.1267 140.069 90.1472C140.069 91.1676 140.896 91.9949 141.917 91.9949Z" fill="#EFF1FE"/>
<path fill-rule="evenodd" clip-rule="evenodd" d="M141.917 90.9393C142.354 90.9393 142.709 90.5848 142.709 90.1474C142.709 89.71 142.354 89.3555 141.917 89.3555C141.479 89.3555 141.125 89.71 141.125 90.1474C141.125 90.5848 141.479 90.9393 141.917 90.9393Z" fill="#D4DAFC"/>
<path d="M147.208 122.218H89.9287C89.3456 122.218 88.8729 122.691 88.8729 123.274V131.457C88.8729 132.04 89.3456 132.513 89.9287 132.513H147.208C147.791 132.513 148.264 132.04 148.264 131.457V123.274C148.264 122.691 147.791 122.218 147.208 122.218Z" fill="white"/>
<path d="M134.558 125.307H92.0207C91.5943 125.307 91.2486 125.652 91.2486 126.079C91.2486 126.505 91.5943 126.851 92.0207 126.851H134.558C134.984 126.851 135.33 126.505 135.33 126.079C135.33 125.652 134.984 125.307 134.558 125.307Z" fill="#EFF1FE"/>
<path d="M120.065 127.88H92.0207C91.5943 127.88 91.2486 128.226 91.2486 128.652C91.2486 129.079 91.5943 129.425 92.0207 129.425H120.065C120.492 129.425 120.837 129.079 120.837 128.652C120.837 128.226 120.492 127.88 120.065 127.88Z" fill="#EFF1FE"/>
<path fill-rule="evenodd" clip-rule="evenodd" d="M141.917 129.213C142.937 129.213 143.765 128.386 143.765 127.366C143.765 126.345 142.937 125.518 141.917 125.518C140.896 125.518 140.069 126.345 140.069 127.366C140.069 128.386 140.896 129.213 141.917 129.213Z" fill="#EFF1FE"/>
<path fill-rule="evenodd" clip-rule="evenodd" d="M141.917 128.158C142.354 128.158 142.709 127.803 142.709 127.366C142.709 126.928 142.354 126.574 141.917 126.574C141.479 126.574 141.125 126.928 141.125 127.366C141.125 127.803 141.479 128.158 141.917 128.158Z" fill="#F2F2F2"/>
<path d="M147.208 109.812H89.9287C89.3456 109.812 88.8729 110.285 88.8729 110.868V119.051C88.8729 119.634 89.3456 120.107 89.9287 120.107H147.208C147.791 120.107 148.264 119.634 148.264 119.051V110.868C148.264 110.285 147.791 109.812 147.208 109.812Z" fill="white"/>
<path d="M134.558 112.9H92.0207C91.5943 112.9 91.2486 113.246 91.2486 113.672C91.2486 114.099 91.5943 114.444 92.0207 114.444H134.558C134.984 114.444 135.33 114.099 135.33 113.672C135.33 113.246 134.984 112.9 134.558 112.9Z" fill="#EFF1FE"/>
<path d="M120.065 115.474H92.0207C91.5943 115.474 91.2486 115.82 91.2486 116.246C91.2486 116.672 91.5943 117.018 92.0207 117.018H120.065C120.492 117.018 120.837 116.672 120.837 116.246C120.837 115.82 120.492 115.474 120.065 115.474Z" fill="#EFF1FE"/>
<path fill-rule="evenodd" clip-rule="evenodd" d="M141.917 116.807C142.937 116.807 143.765 115.98 143.765 114.959C143.765 113.939 142.937 113.112 141.917 113.112C140.896 113.112 140.069 113.939 140.069 114.959C140.069 115.98 140.896 116.807 141.917 116.807Z" fill="#EFF1FE"/>
<path fill-rule="evenodd" clip-rule="evenodd" d="M141.917 115.751C142.354 115.751 142.709 115.396 142.709 114.959C142.709 114.521 142.354 114.167 141.917 114.167C141.479 114.167 141.125 114.521 141.125 114.959C141.125 115.396 141.479 115.751 141.917 115.751Z" fill="#F2F2F2"/>
<path d="M147.208 97.4059H89.9287C89.3456 97.4059 88.8729 97.8787 88.8729 98.4618V106.645C88.8729 107.228 89.3456 107.7 89.9287 107.7H147.208C147.791 107.7 148.264 107.228 148.264 106.645V98.4618C148.264 97.8787 147.791 97.4059 147.208 97.4059Z" fill="white"/>
<path d="M134.558 100.494H92.0207C91.5943 100.494 91.2486 100.84 91.2486 101.267C91.2486 101.693 91.5943 102.039 92.0207 102.039H134.558C134.984 102.039 135.33 101.693 135.33 101.267C135.33 100.84 134.984 100.494 134.558 100.494Z" fill="#EFF1FE"/>
<path d="M120.065 103.068H92.0207C91.5943 103.068 91.2486 103.414 91.2486 103.84C91.2486 104.267 91.5943 104.612 92.0207 104.612H120.065C120.492 104.612 120.837 104.267 120.837 103.84C120.837 103.414 120.492 103.068 120.065 103.068Z" fill="#EFF1FE"/>
<path fill-rule="evenodd" clip-rule="evenodd" d="M141.917 104.401C142.937 104.401 143.765 103.574 143.765 102.553C143.765 101.533 142.937 100.705 141.917 100.705C140.896 100.705 140.069 101.533 140.069 102.553C140.069 103.574 140.896 104.401 141.917 104.401Z" fill="#EFF1FE"/>
<path fill-rule="evenodd" clip-rule="evenodd" d="M141.917 103.345C142.354 103.345 142.709 102.991 142.709 102.553C142.709 102.116 142.354 101.761 141.917 101.761C141.479 101.761 141.125 102.116 141.125 102.553C141.125 102.991 141.479 103.345 141.917 103.345Z" fill="#F2F2F2"/>
<path fill-rule="evenodd" clip-rule="evenodd" d="M175.404 116.411C177.377 116.411 179.134 116.668 180.952 117.452C182.522 118.129 183.951 119.025 185.342 120.001C187.296 121.373 188.835 122.97 189.912 125.087C190.556 126.351 191.028 128.139 190.595 129.518C190.086 131.142 188.687 132.497 186.847 132.211C185.709 132.034 184.664 131.28 183.8 130.571C182.764 129.722 181.936 128.702 181.252 127.569C180.136 125.721 179.48 123.631 178.532 121.699C178.082 120.783 177.647 119.86 177.108 118.988C176.842 118.557 176.558 118.13 176.153 117.809C175.937 117.637 175.024 117.341 175.373 116.955C170.255 117.023 165.72 120.953 164.738 125.819C164.646 126.273 164.575 126.73 164.499 127.186C164.451 127.474 164.471 128.537 164.213 128.721C163.645 129.127 163.884 127.893 163.908 127.716C163.971 127.257 164.038 126.798 164.109 126.34C164.493 123.85 165.601 121.535 167.45 119.759C169.564 117.729 172.417 116.411 175.404 116.411Z" fill="#D4DAFC"/>
<path fill-rule="evenodd" clip-rule="evenodd" d="M7.29291 125.052C12.22 133.319 17.9588 141.322 21.405 150.36C21.2662 149.295 21.1189 148.23 20.9539 147.168C20.0797 141.535 18.9927 135.943 17.8508 130.358C17.2693 127.514 16.654 124.68 16.0231 121.847C15.6839 120.326 15.3487 118.803 15.0024 117.283C14.9185 116.915 14.8464 116.271 14.7416 115.62C18.0907 126.61 21.3205 137.609 23.683 148.863C23.9929 150.34 24.2568 151.815 24.473 153.287C24.5469 152.951 24.6198 152.615 24.6992 152.28C25.6553 148.266 27.0891 144.284 28.7964 140.531C29.6126 138.736 30.5499 136.98 31.6538 135.344C32.3422 134.325 33.9656 133.112 34.5933 132.068C31.1594 138.367 29.9193 146.247 27.9364 153.095C27.4526 154.766 26.9656 156.434 26.4884 158.105C29.4785 152.109 34.1179 147.182 40.5683 145.047C32.7603 150.205 28.0771 159.24 24.9212 168.48C24.9109 168.59 24.8985 168.699 24.8877 168.809C25.8166 167.047 26.9862 165.452 28.5715 164.336C31.965 161.946 35.7291 162.642 39.0207 164.692C36.4373 163.05 31.7686 164.546 29.5949 166.215C28.0389 167.409 26.709 169.012 25.5542 170.576C25.2776 170.951 24.8998 171.388 24.501 171.855C23.9419 175.484 23.0307 179.089 21.7405 182.665C21.9535 181.639 21.7996 179.997 21.8588 179.232C21.8651 179.149 21.8704 179.066 21.8767 178.984C21.6806 179.767 21.4911 180.541 21.3087 181.303C21.6714 179.849 21.8683 178.332 22.0222 176.799C22.0618 176.141 22.1005 175.482 22.1412 174.823C22.1283 173.573 22.0768 172.318 21.9897 171.061C21.6811 169.839 21.3353 168.687 21.05 167.728C20.0213 164.27 18.5128 160.957 16.6564 157.867C14.9625 155.046 12.9348 152.492 10.5943 150.181C9.33227 148.936 8.01168 147.75 6.70983 146.548C6.23892 146.113 5.39742 145.044 4.66968 144.487C9.97 147.409 15.4258 150.57 19.2925 155.279C18.8391 153.538 18.3468 151.822 17.826 150.14C15.1835 141.607 11.847 132.765 7.29291 125.052Z" fill="#A9B5F9"/>
<path fill-rule="evenodd" clip-rule="evenodd" d="M12.5882 171.843C12.5882 181.318 13.3386 189 23.4106 189C33.4825 189 34.2329 181.318 34.2329 171.843" fill="#343956"/>
<path fill-rule="evenodd" clip-rule="evenodd" d="M64.1349 93.6116C66.0272 94.4148 67.8132 94.6805 68.5889 94.3607C70.5341 93.5584 69.6853 86.1713 67.7159 83.4889C65.7465 80.8065 57.541 80.6698 57.9443 86.4765C58.0843 88.4917 59.1752 90.1544 60.6212 91.4331L59.8485 102.092L66.3162 101.183L64.1349 93.6116Z" fill="#B28B67"/>
<path fill-rule="evenodd" clip-rule="evenodd" d="M64.7174 80.687C63.7958 80.5427 62.5003 80.632 61.9692 80.7693C62.1732 79.993 62.1802 79.1589 61.9689 78.3774C61.7638 77.6179 61.325 77.0085 60.9077 76.364C60.7153 76.0668 60.5034 75.7742 60.2197 75.5659C59.9308 75.354 59.5862 75.2357 59.2376 75.2051C58.8811 75.174 58.5209 75.2311 58.1855 75.3522C58.0369 75.4057 57.9094 75.495 57.7648 75.5546C57.6168 75.6161 57.5287 75.5305 57.4037 75.4501C57.1022 75.2556 56.6922 75.1963 56.3464 75.203C55.9584 75.2106 55.5707 75.3238 55.2246 75.4999C54.8873 75.6714 54.5752 75.9166 54.3596 76.2407C54.2636 76.3847 54.1804 76.5453 54.1358 76.7159C54.1177 76.7859 54.1187 76.8256 54.0557 76.859C53.9979 76.8902 53.9263 76.9009 53.8661 76.9311C53.2846 77.2231 52.8287 77.7668 52.6293 78.4107C52.5128 78.7862 52.5214 79.4175 52.6406 80.1098C52.7599 80.802 53.6447 82.5277 54.3266 83.1068C54.9353 83.6235 55.7627 83.9045 56.5326 83.9705C56.1168 84.6041 55.8862 85.3553 55.7434 86.1063C55.5881 86.9223 55.5383 87.7543 55.5936 88.5872C55.6462 89.3785 55.7572 90.2077 56.0492 90.9482C56.3222 91.6411 56.7732 92.1773 57.4407 92.4638C57.7468 92.595 58.0678 92.6809 58.3891 92.7555C58.7059 92.8289 59.023 92.8989 59.3471 92.9194C59.9598 92.9585 60.6435 92.8411 61.0358 92.3039C61.1773 92.1101 61.329 91.8704 61.4204 91.6453C61.4534 91.5643 61.4727 91.5117 61.4097 91.446C61.3342 91.3671 61.2226 91.3142 61.1318 91.257C60.6144 90.9311 60.2546 90.4495 60.0953 89.8395C59.9335 89.2204 59.9889 88.3844 60.564 88.0233C61.274 87.5779 62.1628 87.85 62.8871 88.1181C63.0317 87.0709 63.4919 86.0818 64.348 85.4905C65.2956 84.8361 66.4565 84.612 67.4423 84.0265C67.6991 83.8739 67.9587 83.7052 68.1269 83.444C68.1972 83.3349 68.2779 83.1948 68.2935 83.0615C68.3137 82.8863 68.1843 82.7601 68.0816 82.6402C67.5355 82.0045 65.6389 80.8317 64.7174 80.687Z" fill="#191847"/>
<path fill-rule="evenodd" clip-rule="evenodd" d="M62.1647 123.459L82.3853 157.162L97.5447 185.656H100.81L75.4101 123.459H62.1647Z" fill="#997659"/>
<path fill-rule="evenodd" clip-rule="evenodd" d="M96.3689 184.066C96.0409 183.924 95.6519 184.07 95.5312 184.406C95.3364 184.949 95.0921 185.718 95.0921 186.159C95.0921 186.893 95.3373 188.301 95.3373 188.301C96.1913 188.301 110.686 188.301 110.686 188.301C110.686 188.301 111.284 186.329 109.995 186.172C108.706 186.015 107.853 185.888 107.853 185.888L100.751 182.731C100.594 182.661 100.41 182.735 100.344 182.894L99.8986 183.971C99.8986 183.971 98.7055 184.526 97.9595 184.526C97.5253 184.526 96.8542 184.275 96.3689 184.066Z" fill="#E4E8FC"/>
<path fill-rule="evenodd" clip-rule="evenodd" d="M93.3341 181.093L99.6312 179.194C99.6312 179.194 95.4928 166.86 89.4871 152.048C83.4811 137.235 76.587 123.459 76.587 123.459H58.8021C58.8021 123.459 66.4671 140.885 75.0539 155.127C83.6404 169.369 93.3341 181.093 93.3341 181.093Z" fill="#1D2939"/>
<path fill-rule="evenodd" clip-rule="evenodd" d="M60.8358 123.459C58.9273 135.303 55.2466 150.434 54.8989 150.901C54.6675 151.212 46.3304 153.998 29.8881 159.257L30.5935 162.127C50.201 159.307 60.5325 157.119 61.5879 155.563C63.1711 153.228 71.0761 134.789 74.138 123.459H60.8358Z" fill="#B28B67"/>
<path fill-rule="evenodd" clip-rule="evenodd" d="M35.6679 156.775L36.9105 161.399C51.5757 162.681 60.5613 161.754 63.8674 158.619C67.1739 155.483 70.9417 143.763 75.1718 123.459H58.2131C55.5328 140.085 54.0346 148.748 53.7182 149.446C53.4014 150.144 47.3847 152.587 35.6679 156.775Z" fill="#344054"/>
<path fill-rule="evenodd" clip-rule="evenodd" d="M31.1057 158.823C31.1889 158.474 30.9773 158.115 30.6239 158.055C30.0539 157.958 29.2529 157.852 28.8175 157.928C28.0925 158.056 26.7444 158.541 26.7444 158.541C26.8927 159.38 29.4094 173.611 29.4094 173.611C29.4094 173.611 31.4613 173.856 31.3925 172.563C31.3241 171.27 31.3011 170.411 31.3011 170.411L33.1858 162.891C33.2277 162.724 33.1228 162.555 32.9543 162.518L31.8139 162.268C31.8139 162.268 31.0584 161.193 30.9287 160.46C30.8535 160.035 30.9834 159.335 31.1057 158.823Z" fill="#E4E8FC"/>
<path fill-rule="evenodd" clip-rule="evenodd" d="M81.2949 99.5409L72.6595 105.963L76.6331 109.173L82.5574 102.014C85.9996 100.527 87.5357 99.5776 87.166 99.1648C86.8542 98.8169 86.4405 98.8887 86.0592 98.9548C85.7623 99.0065 85.4853 99.0545 85.2918 98.8979C84.8496 98.5408 85.3807 96.9998 85.9476 95.5588C86.5142 94.1177 85.7238 94.3474 85.2896 94.6042C83.9232 95.8352 82.5916 97.4807 81.2949 99.5409ZM91.7065 105.385L87.9142 108.213L88.726 112.291C88.726 112.291 91.1179 110.002 93.3175 109.044C96.1226 107.822 97.2165 107.037 98.3882 105.024C99.0153 103.947 99.3889 101.907 98.5735 101.375C98.2604 101.171 97.3031 101.892 96.3262 102.628C95.5817 103.188 94.8258 103.758 94.3354 103.932C93.6753 104.167 93.6313 103.278 93.5964 102.567C93.571 102.057 93.5505 101.638 93.3099 101.794C92.1101 101.984 91.7065 105.385 91.7065 105.385Z" fill="#997659"/>
<path fill-rule="evenodd" clip-rule="evenodd" d="M67.9439 105.465C71.2151 104.97 75.4869 103.666 79.7338 100.061L82.1367 103.874C79.3684 107.507 75.2144 110.757 71.2457 111.202C68.1181 111.552 65.998 108.019 67.9439 105.465Z" fill="#9CA7E2"/>
<path fill-rule="evenodd" clip-rule="evenodd" d="M63.0277 134.593C59.8561 134.626 56.9419 134.656 55.2927 135.227C52.524 129.333 53.559 125.232 54.5142 121.446C55.0899 119.164 55.6369 116.996 55.3049 114.62C54.3375 107.7 58.4135 96.2663 59.2332 96.1511L59.4687 96.118L65.9663 95.2047L66.7102 95.1002C67.6464 99.3352 69.7246 103.77 71.8163 108.235C72.3046 109.277 72.7938 110.321 73.2696 111.365C78.8762 111.831 90.3405 105.854 90.3405 105.854C90.3405 105.854 94.2698 111.709 94.416 114.417C87.9067 119.061 82.1166 121.538 77.1725 122.342C77.7422 125.254 77.7764 128.096 76.9316 130.816C75.8 134.46 68.9633 134.531 63.0277 134.593Z" fill="#C0C7EC"/>
<rect x="78.9521" y="83.5129" width="31.605" height="21.8897" rx="1.15" transform="rotate(-14 78.9521 83.5129)" fill="#D8DCF0" stroke="#A3ACD8" stroke-width="0.3"/>
<mask id="path-86-outside-1_9700_50746" maskUnits="userSpaceOnUse" x="79.2299" y="76.1799" width="35.1595" height="27.8758" fill="black">
<rect fill="white" x="79.2299" y="76.1799" width="35.1595" height="27.8758"/>
<path fill-rule="evenodd" clip-rule="evenodd" d="M90.9162 81.7964L80.9272 84.2869C80.6593 84.3537 80.4962 84.6251 80.563 84.893L85.0218 102.776C85.0886 103.044 85.36 103.207 85.6279 103.14L112.938 96.3313C113.206 96.2645 113.369 95.9931 113.302 95.7252L108.843 77.8419C108.777 77.574 108.505 77.411 108.237 77.4778L98.2482 79.9683L98.3886 80.5315C98.4554 80.7995 98.2923 81.0708 98.0244 81.1376L91.6628 82.7238C91.3948 82.7906 91.1235 82.6275 91.0566 82.3596L90.9162 81.7964Z"/>
</mask>
<path fill-rule="evenodd" clip-rule="evenodd" d="M90.9162 81.7964L80.9272 84.2869C80.6593 84.3537 80.4962 84.6251 80.563 84.893L85.0218 102.776C85.0886 103.044 85.36 103.207 85.6279 103.14L112.938 96.3313C113.206 96.2645 113.369 95.9931 113.302 95.7252L108.843 77.8419C108.777 77.574 108.505 77.411 108.237 77.4778L98.2482 79.9683L98.3886 80.5315C98.4554 80.7995 98.2923 81.0708 98.0244 81.1376L91.6628 82.7238C91.3948 82.7906 91.1235 82.6275 91.0566 82.3596L90.9162 81.7964Z" fill="#E7E9F4"/>
<path d="M90.9162 81.7964L91.2073 81.7238L91.1347 81.4327L90.8436 81.5053L90.9162 81.7964ZM80.563 84.893L80.8541 84.8204L80.563 84.893ZM85.0218 102.776L84.7307 102.849L85.0218 102.776ZM85.6279 103.14L85.7005 103.432L85.6279 103.14ZM112.938 96.3313L112.865 96.0402L112.938 96.3313ZM108.237 77.4778L108.165 77.1867L108.237 77.4778ZM98.2482 79.9683L98.1756 79.6772L97.8845 79.7498L97.9571 80.0409L98.2482 79.9683ZM98.3886 80.5315L98.6797 80.4589L98.3886 80.5315ZM98.0244 81.1376L97.9518 80.8465L98.0244 81.1376ZM91.6628 82.7238L91.7353 83.0149L91.6628 82.7238ZM80.9998 84.578L90.9888 82.0875L90.8436 81.5053L80.8546 83.9958L80.9998 84.578ZM80.8541 84.8204C80.8274 84.7133 80.8926 84.6047 80.9998 84.578L80.8546 83.9958C80.4259 84.1027 80.1651 84.5369 80.2719 84.9656L80.8541 84.8204ZM85.3129 102.704L80.8541 84.8204L80.2719 84.9656L84.7307 102.849L85.3129 102.704ZM85.5554 102.849C85.4482 102.876 85.3396 102.811 85.3129 102.704L84.7307 102.849C84.8376 103.278 85.2718 103.538 85.7005 103.432L85.5554 102.849ZM112.865 96.0402L85.5554 102.849L85.7005 103.432L113.011 96.6224L112.865 96.0402ZM113.011 95.7978C113.038 95.9049 112.973 96.0135 112.865 96.0402L113.011 96.6224C113.439 96.5155 113.7 96.0813 113.593 95.6526L113.011 95.7978ZM108.552 77.9145L113.011 95.7978L113.593 95.6526L109.134 77.7694L108.552 77.9145ZM108.31 77.7688C108.417 77.7421 108.526 77.8073 108.552 77.9145L109.134 77.7694C109.028 77.3407 108.593 77.0798 108.165 77.1867L108.31 77.7688ZM98.3207 80.2594L108.31 77.7688L108.165 77.1867L98.1756 79.6772L98.3207 80.2594ZM97.9571 80.0409L98.0975 80.6041L98.6797 80.4589L98.5392 79.8957L97.9571 80.0409ZM98.0975 80.6041C98.1242 80.7113 98.059 80.8198 97.9518 80.8465L98.097 81.4287C98.5257 81.3218 98.7866 80.8876 98.6797 80.4589L98.0975 80.6041ZM97.9518 80.8465L91.5902 82.4327L91.7353 83.0149L98.097 81.4287L97.9518 80.8465ZM91.5902 82.4327C91.483 82.4594 91.3745 82.3942 91.3477 82.287L90.7656 82.4322C90.8724 82.8609 91.3066 83.1217 91.7353 83.0149L91.5902 82.4327ZM91.3477 82.287L91.2073 81.7238L90.6251 81.8689L90.7656 82.4322L91.3477 82.287Z" fill="#A3ACD8" mask="url(#path-86-outside-1_9700_50746)"/>
<rect x="83.9138" y="103.414" width="31.605" height="1.37948" rx="0.689742" transform="rotate(-14 83.9138 103.414)" fill="#6175DB" stroke="#6175DB" stroke-width="0.3"/>
<rect x="82.012" y="86.2421" width="9.71535" height="1.07948" rx="0.2" transform="rotate(-14 82.012 86.2421)" fill="#6175DB" fill-opacity="0.63"/>
<rect x="82.5342" y="88.3371" width="14.0333" height="0.539742" rx="0.2" transform="rotate(-14 82.5342 88.3371)" fill="#6175DB" fill-opacity="0.63"/>
<rect x="82.7956" y="89.3844" width="14.0333" height="0.539742" rx="0.2" transform="rotate(-14 82.7956 89.3844)" fill="#6175DB" fill-opacity="0.63"/>
<rect x="83.0568" y="90.4313" width="14.0333" height="0.539742" rx="0.2" transform="rotate(-14 83.0568 90.4313)" fill="#6175DB" fill-opacity="0.63"/>
<rect x="83.3178" y="91.4792" width="14.0333" height="0.539742" rx="0.2" transform="rotate(-14 83.3178 91.4792)" fill="#6175DB" fill-opacity="0.63"/>
<rect x="83.5789" y="92.5268" width="14.0333" height="0.539742" rx="0.2" transform="rotate(-14 83.5789 92.5268)" fill="#6175DB" fill-opacity="0.63"/>
<rect x="83.8402" y="93.5739" width="14.0333" height="0.539742" rx="0.2" transform="rotate(-14 83.8402 93.5739)" fill="#6175DB" fill-opacity="0.63"/>
<rect x="84.1013" y="94.6215" width="14.0333" height="0.539742" rx="0.2" transform="rotate(-14 84.1013 94.6215)" fill="#6175DB" fill-opacity="0.63"/>
<rect x="84.6236" y="96.7163" width="9.71535" height="1.07948" rx="0.2" transform="rotate(-14 84.6236 96.7163)" fill="#6175DB" fill-opacity="0.63"/>
<rect x="85.1461" y="98.8114" width="14.0333" height="0.539742" rx="0.2" transform="rotate(-14 85.1461 98.8114)" fill="#6175DB" fill-opacity="0.63"/>
<rect x="85.4071" y="99.8587" width="14.0333" height="0.539742" rx="0.2" transform="rotate(-14 85.4071 99.8587)" fill="#6175DB" fill-opacity="0.63"/>
<rect x="85.6684" y="100.906" width="14.0333" height="0.539742" rx="0.2" transform="rotate(-14 85.6684 100.906)" fill="#6175DB" fill-opacity="0.63"/>
<rect x="98.2457" y="84.4198" width="10.7948" height="7.55639" rx="0.4" transform="rotate(-14 98.2457 84.4198)" fill="#8D9BE3"/>
<path fill-rule="evenodd" clip-rule="evenodd" d="M102.746 85.2861L100.973 90.8962L106.944 89.4074L102.746 85.2861Z" fill="#6175DB" fill-opacity="0.67"/>
<path fill-rule="evenodd" clip-rule="evenodd" d="M106.149 85.822L104.398 90.0424L109.677 88.7263L106.149 85.822Z" fill="#6175DB" fill-opacity="0.67"/>
<path fill-rule="evenodd" clip-rule="evenodd" d="M107.291 85.5884C107.834 85.453 108.164 84.9029 108.029 84.3597C107.893 83.8165 107.343 83.486 106.8 83.6214C106.257 83.7569 105.926 84.3069 106.062 84.8501C106.197 85.3932 106.747 85.7238 107.291 85.5884Z" fill="#6175DB"/>
<path fill-rule="evenodd" clip-rule="evenodd" d="M152.224 68.5619C150.301 69.7209 148.412 70.2808 147.525 70.0522C145.301 69.4791 145.097 61.3431 146.817 58.1357C148.538 54.9281 157.385 53.5301 157.83 59.8852C157.985 62.0906 157.059 64.0592 155.691 65.6652L158.144 77.101H151.017L152.224 68.5619Z" fill="#9E573B"/>
<path fill-rule="evenodd" clip-rule="evenodd" d="M150.88 54.4387C151.819 54.2846 154.348 54.1787 154.815 54.1787C155.113 54.1787 155.436 54.2468 155.612 53.9734C155.757 53.749 155.704 53.3702 155.747 53.11C155.797 52.808 155.868 52.5097 155.94 52.2122C156.145 51.3657 156.455 50.5604 156.888 49.8044C157.701 48.3859 158.893 47.2746 160.396 46.6282C162.057 45.9141 163.936 45.7508 165.723 45.8954C167.634 46.0503 169.365 46.6815 171.17 47.2754C172.89 47.8413 174.691 48.0638 176.49 47.7877C178.302 47.5093 179.672 46.5268 181.2 45.5945C182.765 44.64 184.554 44.0157 186.404 44.1593C188.131 44.2932 189.723 45.0064 191.151 45.959C192.488 46.8501 193.589 47.9226 194.212 49.4317C194.882 51.055 194.88 52.837 193.779 54.2719C192.185 56.3514 189.221 56.8893 186.756 56.8358C185.33 56.8049 183.93 56.5446 182.584 56.0713C180.788 55.4397 179.237 54.3696 177.557 53.5011C176.769 53.0936 175.954 52.7589 175.101 52.5179C174.272 52.284 173.456 52.1766 172.705 52.6771C171.912 53.2068 171.2 53.7271 170.292 54.0586C169.421 54.3764 168.499 54.5544 167.571 54.5472C165.765 54.5332 163.985 53.9707 162.231 53.5938C160.801 53.2866 159.271 52.9804 157.813 53.2757C157.204 53.399 156.316 53.6535 156.096 54.2859C159.794 54.9561 161.247 59.53 160.204 62.8876C159.641 64.6999 156.259 66.8185 154.944 65.8658C154.11 65.2622 154.616 64.4697 154.944 63.9466C155.571 62.9448 155.785 61.658 154.625 60.9607C153.624 60.3591 152.572 61.7876 152.552 61.7861C152.277 61.7644 149.901 60.4203 148.264 58.4591C146.648 58.5549 146.403 57.4899 146.789 56.6188C147.175 55.748 149.582 54.6517 150.88 54.4387Z" fill="#191847"/>
<path fill-rule="evenodd" clip-rule="evenodd" d="M162.885 102.177L151.727 138.727L146.322 169.81H142.084L147.796 102.177H162.885Z" fill="#864A32"/>
<path fill-rule="evenodd" clip-rule="evenodd" d="M166.877 102.177C166.12 122.245 167.011 132.596 167.181 134.419C167.351 136.242 169.673 148.064 175.172 170.422L170.656 168.868C161.966 148.363 159.005 137.706 158.008 135.013C157.011 132.321 154.364 121.375 150.066 102.177H166.877Z" fill="#9E573B"/>
<path fill-rule="evenodd" clip-rule="evenodd" d="M174.381 168.484C174.663 168.358 175 168.484 175.106 168.775C175.324 169.37 175.636 170.313 175.636 170.837C175.636 171.64 175.369 173.182 175.369 173.182C174.438 173.182 158.645 173.182 158.645 173.182C158.645 173.182 157.993 171.023 159.397 170.851C160.802 170.679 161.731 170.54 161.731 170.54L169.534 167.054C169.67 166.993 169.829 167.057 169.886 167.194L170.398 168.44C170.398 168.44 171.699 169.048 172.511 169.048C173.027 169.048 173.848 168.723 174.381 168.484Z" fill="#1D2939"/>
<path fill-rule="evenodd" clip-rule="evenodd" d="M146.509 168.484C146.791 168.358 147.128 168.484 147.234 168.775C147.451 169.37 147.764 170.313 147.764 170.837C147.764 171.64 147.497 173.182 147.497 173.182C146.566 173.182 130.773 173.182 130.773 173.182C130.773 173.182 130.121 171.023 131.525 170.851C132.93 170.679 133.859 170.54 133.859 170.54L141.662 167.054C141.798 166.993 141.957 167.057 142.014 167.194L142.526 168.44C142.526 168.44 143.826 169.048 144.639 169.048C145.155 169.048 145.976 168.723 146.509 168.484Z" fill="#1D2939"/>
<path fill-rule="evenodd" clip-rule="evenodd" d="M164.368 102.177L159.624 120.799H145.133L147.294 102.177H164.368Z" fill="#1D2939"/>
<path fill-rule="evenodd" clip-rule="evenodd" d="M167.037 102.177C169.379 109.21 167.927 120.799 167.927 120.799H153.14L149.073 102.177H167.037Z" fill="#344054"/>
<path fill-rule="evenodd" clip-rule="evenodd" d="M183.172 111.544C182.065 109.92 174.603 88.0648 174.603 88.0648L168.167 88.9939C168.167 88.9939 178.867 111.752 179.479 112.81C180.273 114.185 179.57 116.444 179.093 117.976C179.019 118.212 178.951 118.432 178.894 118.628C179.895 118.916 180.276 118.344 180.677 117.741C181.131 117.06 181.611 116.339 183.041 116.774C183.593 116.942 184.123 117.158 184.642 117.368C186.432 118.096 188.077 118.765 189.967 117.2C190.267 116.952 190.519 116.141 189.567 115.668C187.196 114.491 183.713 112.337 183.172 111.544ZM127.71 110.414L134.9 101.132L138.338 105.521L130.392 111.837C128.701 115.558 127.632 117.213 127.188 116.802C126.813 116.456 126.899 116.006 126.979 115.592C127.041 115.27 127.099 114.969 126.931 114.755C126.548 114.267 124.852 114.816 123.265 115.405C121.677 115.995 121.943 115.138 122.232 114.67C123.605 113.206 125.431 111.787 127.71 110.414Z" fill="#9E573B"/>
<path fill-rule="evenodd" clip-rule="evenodd" d="M152.419 72.5883L149.815 72.5102C147.796 87.2077 128.569 99.735 128.048 105.196C127.857 107.199 129.391 107.982 128.753 108.674L132.397 110.625C132.865 109.894 134.227 110.919 136.605 109.734C138.982 108.549 154.771 89.3247 152.419 72.5883Z" fill="#9CA7E2"/>
<path fill-rule="evenodd" clip-rule="evenodd" d="M156.656 68.9742C157.226 68.853 157.787 69.2173 157.908 69.7877L158.297 71.6172C163.599 74.6208 177.004 83.9386 182.969 103.953C183.595 106.056 183.17 107.289 182.83 108.274C182.597 108.948 182.405 109.506 182.616 110.147L178.458 111.947C178.39 111.461 177.793 111.168 177.023 110.791C175.903 110.241 174.416 109.513 173.657 107.75C172.937 106.079 171.935 104.007 170.764 101.709C171.135 104.918 170.941 107.944 169.96 110.566C167.512 117.106 147.496 113.123 144.632 107.205C143.103 104.046 144.222 101.057 145.702 97.1033C147.58 92.0847 150.041 85.5126 148.406 75.0685L147.742 71.9471C147.62 71.377 147.984 70.8163 148.555 70.6952L156.656 68.9742Z" fill="#C0C7EC"/>
</svg>
