<svg width="198" height="160" viewBox="0 0 198 160" fill="none" xmlns="http://www.w3.org/2000/svg">
<path fill-rule="evenodd" clip-rule="evenodd" d="M162.778 46.9129C162.677 46.84 162.44 46.8143 162.329 46.7923C161.869 46.7018 161.396 46.6624 160.926 46.6624C159.482 46.6646 158.013 46.8064 156.594 47.0519C155.69 47.2076 154.601 47.7322 153.703 47.4472C152.139 46.951 150.559 46.9754 149.076 47.6839C147.72 48.3317 146.69 49.5621 146.089 50.8914C145.999 51.0922 145.631 51.8309 145.527 52.3288C145.482 52.4306 145.44 52.533 145.401 52.637C145.292 52.9324 145.194 53.233 145.102 53.5342C145.063 53.6627 144.966 53.9463 145.082 54.0011C144.896 54.3443 144.731 54.6977 144.594 55.0627C144.195 56.1242 143.758 57.2887 143.618 58.4137C143.566 58.8303 143.564 59.2493 143.613 59.6666C143.636 59.873 143.627 60.2877 143.766 60.4448C144.063 60.7776 144.216 60.3116 144.182 60.0896C143.927 58.3981 144.42 56.8096 145.005 55.2195C145.383 54.1914 146.004 53.2506 146.7 52.3989C147.264 51.7092 147.868 51.1662 148.64 50.7091C149.584 50.1499 150.594 49.698 151.594 49.2447C152.252 48.9464 152.911 48.656 153.587 48.3991C153.737 48.3418 153.974 48.1951 154.14 48.1946C154.494 48.1934 154.993 48.4536 155.333 48.5503C156.453 48.8688 157.587 49.2766 158.746 49.4392C159.488 49.5437 160.185 49.4261 160.878 49.1787C160.949 49.1536 161.067 49.0886 161.214 48.9958C161.73 48.7975 162.217 48.5479 162.641 48.1876C162.887 47.9803 163.109 47.7121 163.312 47.4666C163.372 47.3933 163.398 47.3092 163.4 47.2292C163.445 47.2053 163.475 47.1772 163.483 47.1445C163.533 46.9029 163.073 46.8986 162.778 46.9129Z" fill="#D4DAFC"/>
<path fill-rule="evenodd" clip-rule="evenodd" d="M65.9873 60.346C64.3334 58.6427 62.6738 56.9608 60.8261 55.4611C59.7371 54.5772 58.5896 53.7737 57.4657 52.9357C57.5952 53.0493 57.7224 53.1661 57.8465 53.2859C57.4957 53.0478 57.0365 52.9131 56.6646 52.6926C56.2497 52.4468 55.8531 52.1656 55.4641 51.882C54.7047 51.3287 53.9569 50.7649 53.1763 50.2405C52.3067 49.6562 51.4055 49.1164 50.5211 48.5543C49.7704 48.077 49.0107 47.5547 48.2076 47.1648C47.77 46.9522 47.3314 46.7001 46.8919 46.4783C46.7449 46.4041 45.2525 45.4619 45.2562 45.459C45.3387 45.3969 46.0898 45.7498 46.2058 45.7971C46.545 45.9357 46.8696 46.1016 47.1956 46.2667C47.0166 45.9136 46.875 45.5426 46.7978 45.152C46.774 45.0316 46.5831 44.1539 46.6808 44.0803C46.7295 44.0437 47.2056 45.6136 47.23 45.7646C47.2499 45.8871 47.2469 46.0638 47.2871 46.1799C47.3519 46.3673 47.3487 46.3108 47.4914 46.4163C47.7531 46.61 48.1003 46.7309 48.3834 46.8928C48.5363 46.9781 49.009 47.316 49.2937 47.4123C50.1552 47.831 51.0286 48.4746 51.8473 49.0092C51.6324 48.6054 51.4688 48.1831 51.3498 47.7408C51.3214 47.6357 51.0153 46.6934 51.0896 46.6374C51.1732 46.5745 51.7562 48.0137 51.7908 48.1499C51.8548 48.4031 51.8681 48.6848 51.9485 48.931C52.0366 49.2013 52.3118 49.2971 52.5597 49.4547C53.4719 50.0343 54.353 50.6501 55.2192 51.2943C56.1645 49.6132 55.0746 47.5833 54.1561 46.1727C53.4939 45.1563 52.6027 44.2846 51.6615 43.5238C50.4054 42.5084 48.9684 41.6971 47.5331 40.955C45.8608 40.0905 44.0532 39.5548 42.1739 39.3073C41.1911 39.1779 40.1857 39.1814 39.1929 39.2229C38.708 39.2432 38.2424 39.3075 37.7777 39.4656C37.5681 39.537 37.3656 39.6269 37.1684 39.7276C37.0186 39.8041 36.6559 39.885 36.5699 39.999C35.8603 40.9223 35.4974 41.8424 35.5528 43.0028C35.6052 44.1011 35.9521 45.2 36.4228 46.1799C36.9472 47.2709 37.6214 48.2611 38.5034 49.092C39.1762 49.7261 39.9284 50.2781 40.6757 50.8225C43.3335 52.7595 46.7032 54.4442 50.1455 54.0115C51.2598 53.8714 52.3197 53.4817 53.31 52.9522C53.5435 52.8273 53.7754 52.7011 53.9957 52.5538C54.1443 52.4545 54.5413 52.0069 54.6907 51.9908C54.8956 51.9684 55.3366 52.385 55.5287 52.5118C56.9888 53.4755 58.4106 54.4915 59.8025 55.5486C61.2836 56.6734 62.6919 57.8745 64.0588 59.1321C64.6401 59.6672 65.2178 60.2033 65.7822 60.7562C65.9137 60.8849 66.235 61.3585 66.4734 61.3801C66.624 61.3936 66.7256 61.265 66.7042 61.1254C66.6668 60.8832 66.1567 60.5203 65.9873 60.346Z" fill="#D4DAFC"/>
<path fill-rule="evenodd" clip-rule="evenodd" d="M161.041 53.7356C160.4 53.5957 159.692 53.6064 159.041 53.6179C155.542 53.6656 152.104 55.3225 149.867 57.97C147.963 60.2238 147.44 63.026 147.064 65.8587C147.026 66.1398 147.01 66.4193 146.989 66.7012C146.985 66.7617 146.978 66.8156 146.971 66.8665C146.823 66.9987 146.745 67.1529 146.833 67.3223C146.507 68.0355 146.231 68.7666 145.995 69.5209C145.298 71.7409 144.59 74.0032 145.026 76.3376C145.128 75.0529 145.343 73.7393 145.599 72.4757C145.614 72.4032 145.63 72.3312 145.646 72.2595C145.648 72.252 145.65 72.2443 145.652 72.2367C145.742 71.8498 145.86 71.4746 146.004 71.1052C146.005 71.101 146.007 71.0971 146.008 71.0931C146.027 71.0445 146.047 70.996 146.067 70.9478C146.108 70.8477 146.151 70.7477 146.195 70.6484C146.21 70.6144 146.225 70.5802 146.239 70.5458C146.448 70.0338 146.536 69.4569 146.723 68.9272C146.768 68.8068 146.815 68.6868 146.864 68.5674C146.867 68.5604 146.87 68.5535 146.873 68.5465C147.005 68.2252 147.151 67.9079 147.306 67.5939C147.391 67.5306 147.435 67.3738 147.508 67.2312C147.523 67.2031 147.64 67.0158 147.675 66.9078C147.767 66.7315 147.857 66.5551 147.949 66.3789C147.946 66.38 147.944 66.381 147.941 66.3821C148.033 66.2129 148.125 66.0446 148.216 65.8769C148.236 65.8401 148.257 65.8033 148.277 65.7663C148.31 65.7075 148.343 65.6487 148.375 65.5901C148.682 65.0415 149.007 64.5039 149.345 63.973C149.465 63.7835 149.753 63.5117 149.808 63.2991C149.81 63.291 149.811 63.2837 149.812 63.2762C150.544 62.2473 151.387 61.2985 152.399 60.5466C152.277 60.6789 152.017 61.1272 151.948 61.216C151.738 61.4878 151.51 61.7408 151.281 61.997C150.87 62.4558 150.47 62.9291 150.114 63.4296C149.463 64.345 148.901 65.3084 148.371 66.2912C148.366 66.2968 148.36 66.3023 148.355 66.3083C148.088 66.6372 147.921 67.1341 147.729 67.5103C148.488 67.1584 149.329 66.929 150.109 66.6165C150.887 66.3049 151.643 65.9578 152.374 65.5505C153.345 65.0088 154.352 64.3974 155.269 63.7055C156.321 63.0534 157.204 62.1558 157.983 61.2139C158.907 60.0994 159.752 58.9753 160.275 57.6221C160.532 56.9573 160.733 56.2638 160.853 55.5623C160.859 55.5319 160.866 55.4987 160.872 55.4643C160.996 55.222 161.105 54.9743 161.197 54.7209C161.343 54.319 161.687 53.8769 161.041 53.7356Z" fill="#A9B5F9"/>
<path fill-rule="evenodd" clip-rule="evenodd" d="M39.2061 55.8677C38.9522 55.6147 38.6671 55.3864 38.3324 55.2235C38.2477 55.1824 37.6174 54.9065 37.5763 54.9672C37.4807 55.108 39.1299 55.787 39.2061 55.8677ZM42.1949 54.1772C42.1928 54.1879 42.4114 54.5294 42.471 54.6343C42.5976 54.8577 42.7146 55.0853 42.8246 55.3133C42.6618 54.9104 42.4944 54.5369 42.1949 54.1772ZM26.909 56.9573C26.6985 57.0196 26.4455 56.7736 26.7184 56.7129C26.9394 56.6643 26.9285 56.6528 27.0277 56.489C27.1083 56.3559 27.158 56.1936 27.2287 56.0541C27.3785 55.7577 27.5487 55.4752 27.7576 55.2106C28.2049 54.6432 28.7502 54.1541 29.3617 53.7422C30.4289 53.0231 31.6253 52.3661 32.8945 52.0359C34.9126 51.5109 37.2096 51.4784 39.2309 51.8424C40.4827 52.0678 41.6269 52.4596 42.458 53.3878C42.8735 53.8515 43.1997 54.3951 43.3423 54.9934C43.3794 55.1497 43.3725 55.3236 43.4191 55.4769C43.4906 55.7122 43.4591 55.6495 43.7581 55.6953C44.0847 55.7453 44.4109 55.7964 44.737 55.8484C45.591 55.9844 46.4501 56.1288 47.2821 56.3495C47.5561 56.4222 47.824 56.5108 48.0856 56.6141C48.2834 56.6919 49.0714 56.9366 49.1672 57.1734C49.3267 57.5673 48.7925 57.3887 48.6267 57.303C48.4813 57.2277 48.332 57.1577 48.1806 57.0932C47.7993 56.9308 47.4021 56.8051 46.9959 56.705C46.5569 56.5968 46.109 56.5163 45.6627 56.4353C45.2467 56.36 44.829 56.2915 44.4107 56.2261C44.1784 56.1897 43.9459 56.1543 43.7134 56.1189C43.6339 56.1068 43.494 56.0435 43.5045 56.1386C43.0156 56.0518 42.4869 56.0644 41.989 56.0403C41.3792 56.0112 40.7669 55.9872 40.155 56.0047C39.7136 56.0174 39.2719 56.0441 38.8328 56.0986C38.5762 56.1305 38.3238 56.1773 38.0719 56.2364C37.9337 56.2689 37.3884 56.3377 37.3131 56.4487C37.3454 56.4009 37.9472 56.4473 38.0238 56.4445C38.3302 56.434 38.6342 56.406 38.9394 56.3747C39.5059 56.3164 40.0727 56.286 40.6409 56.2903C40.6388 56.3822 40.2506 56.5458 40.1557 56.6066C39.9433 56.7432 39.7399 56.8921 39.55 57.0555C39.2157 57.3432 38.8153 57.6995 38.5839 58.0404C38.6521 57.9399 38.9885 57.8092 39.1077 57.7326C39.2989 57.6096 39.4862 57.4783 39.6635 57.338C39.8271 57.2086 39.9798 57.0686 40.1298 56.9257C40.2799 56.7828 40.4837 56.4857 40.6809 56.3904C40.6929 56.3846 40.7789 56.4472 40.8278 56.4259C40.877 56.4045 40.9382 56.2973 40.9508 56.293C41.1345 56.2278 41.4831 56.3089 41.6761 56.3172C42.1768 56.3384 42.677 56.3662 43.1772 56.3916C43.3321 56.3993 43.464 56.367 43.5224 56.4721C43.5847 56.5844 43.4705 56.8795 43.438 57.0018C43.3173 57.4559 43.1032 57.8633 42.7658 58.2151C42.1344 58.8741 41.3555 59.3134 40.4758 59.6074C37.1062 60.7331 33.5211 61.1839 30.1524 60.0129C28.7579 59.5281 26.6575 58.6617 26.909 56.9573Z" fill="#D4DAFC"/>
<g opacity="0.6">
<path fill-rule="evenodd" clip-rule="evenodd" d="M181.134 109.992C183.427 124.282 127.853 133.603 80.0203 127.098C32.1874 120.594 10.244 95.192 33.069 81.657C55.8941 68.1221 178.842 95.7027 181.134 109.992Z" fill="#D4DAFC" fill-opacity="0.63"/>
</g>
<path d="M87.4203 24.5H60.5625C59.7326 24.5 59.0599 25.1727 59.0599 26.0025V79.7183C59.0599 80.5481 59.7326 81.2208 60.5625 81.2208H87.4203C88.2502 81.2208 88.9229 80.5481 88.9229 79.7183V26.0025C88.9229 25.1727 88.2502 24.5 87.4203 24.5Z" fill="#A9B5F9" fill-opacity="0.63"/>
<path fill-rule="evenodd" clip-rule="evenodd" d="M73.8973 77.6524C75.4532 77.6524 76.7145 76.391 76.7145 74.8351C76.7145 73.2792 75.4532 72.0179 73.8973 72.0179C72.3414 72.0179 71.08 73.2792 71.08 74.8351C71.08 76.391 72.3414 77.6524 73.8973 77.6524Z" fill="white"/>
<path fill-rule="evenodd" clip-rule="evenodd" d="M71.4557 28.2564C71.6632 28.2564 71.8313 28.0883 71.8313 27.8808C71.8313 27.6733 71.6632 27.5052 71.4557 27.5052C71.2481 27.5052 71.08 27.6733 71.08 27.8808C71.08 28.0883 71.2481 28.2564 71.4557 28.2564Z" fill="white"/>
<path d="M76.3391 27.5052H73.1462C72.9387 27.5052 72.7706 27.6734 72.7706 27.8808C72.7706 28.0883 72.9387 28.2565 73.1462 28.2565H76.3391C76.5466 28.2565 76.7147 28.0883 76.7147 27.8808C76.7147 27.6734 76.5466 27.5052 76.3391 27.5052Z" fill="white"/>
<path d="M85.5419 29.759H62.4404C62.0254 29.759 61.6891 30.0954 61.6891 30.5103V39.1499C61.6891 39.5648 62.0254 39.9012 62.4404 39.9012H85.5419C85.9568 39.9012 86.2931 39.5648 86.2931 39.1499V30.5103C86.2931 30.0954 85.9568 29.759 85.5419 29.759Z" fill="white"/>
<path d="M82.1612 32.8017H69.5774C69.2662 32.8017 69.014 33.0539 69.014 33.3651V33.7595C69.014 34.0707 69.2662 34.323 69.5774 34.323H82.1612C82.4724 34.323 82.7246 34.0707 82.7246 33.7595V33.3651C82.7246 33.0539 82.4724 32.8017 82.1612 32.8017Z" fill="#EFF1FE"/>
<path d="M77.6537 35.337H69.5776C69.2664 35.337 69.0141 35.5892 69.0141 35.9004V36.2948C69.0141 36.606 69.2664 36.8583 69.5776 36.8583H77.6537C77.9649 36.8583 78.2171 36.606 78.2171 36.2948V35.9004C78.2171 35.5892 77.9649 35.337 77.6537 35.337Z" fill="#EFF1FE"/>
<path fill-rule="evenodd" clip-rule="evenodd" d="M65.6334 37.0839C66.8781 37.0839 67.8872 36.0747 67.8872 34.8301C67.8872 33.5854 66.8781 32.5763 65.6334 32.5763C64.3887 32.5763 63.3796 33.5854 63.3796 34.8301C63.3796 36.0747 64.3887 37.0839 65.6334 37.0839Z" fill="#D4DAFC"/>
<path d="M85.5418 41.4038H62.4402C62.0253 41.4038 61.689 41.7402 61.689 42.1551V48.5409C61.689 48.9558 62.0253 49.2922 62.4402 49.2922H85.5418C85.9567 49.2922 86.293 48.9558 86.293 48.5409V42.1551C86.293 41.7402 85.9567 41.4038 85.5418 41.4038Z" fill="white"/>
<path d="M82.1612 43.7703H69.5774C69.2662 43.7703 69.014 44.0226 69.014 44.3337V44.3901C69.014 44.7013 69.2662 44.9535 69.5774 44.9535H82.1612C82.4724 44.9535 82.7246 44.7013 82.7246 44.3901V44.3337C82.7246 44.0226 82.4724 43.7703 82.1612 43.7703Z" fill="#EFF1FE"/>
<path d="M77.6536 45.7424H69.5774C69.2662 45.7424 69.014 45.9946 69.014 46.3058V46.3622C69.014 46.6734 69.2662 46.9256 69.5774 46.9256H77.6536C77.9648 46.9256 78.217 46.6734 78.217 46.3622V46.3058C78.217 45.9946 77.9648 45.7424 77.6536 45.7424Z" fill="#EFF1FE"/>
<path fill-rule="evenodd" clip-rule="evenodd" d="M65.6333 47.6018C66.8779 47.6018 67.8871 46.5926 67.8871 45.348C67.8871 44.1033 66.8779 43.0941 65.6333 43.0941C64.3886 43.0941 63.3795 44.1033 63.3795 45.348C63.3795 46.5926 64.3886 47.6018 65.6333 47.6018Z" fill="#D4DAFC"/>
<path d="M85.5418 50.7945H62.4402C62.0253 50.7945 61.689 51.1308 61.689 51.5457V57.9315C61.689 58.3464 62.0253 58.6828 62.4402 58.6828H85.5418C85.9567 58.6828 86.293 58.3464 86.293 57.9315V51.5457C86.293 51.1308 85.9567 50.7945 85.5418 50.7945Z" fill="white"/>
<path d="M82.1612 53.1609H69.5774C69.2662 53.1609 69.014 53.4132 69.014 53.7244V53.7807C69.014 54.0919 69.2662 54.3442 69.5774 54.3442H82.1612C82.4724 54.3442 82.7246 54.0919 82.7246 53.7807V53.7244C82.7246 53.4132 82.4724 53.1609 82.1612 53.1609Z" fill="#EFF1FE"/>
<path d="M77.6536 55.1331H69.5774C69.2662 55.1331 69.014 55.3853 69.014 55.6965V55.7529C69.014 56.064 69.2662 56.3163 69.5774 56.3163H77.6536C77.9648 56.3163 78.217 56.064 78.217 55.7529V55.6965C78.217 55.3853 77.9648 55.1331 77.6536 55.1331Z" fill="#EFF1FE"/>
<path fill-rule="evenodd" clip-rule="evenodd" d="M65.6333 56.9927C66.8779 56.9927 67.8871 55.9835 67.8871 54.7389C67.8871 53.4942 66.8779 52.485 65.6333 52.485C64.3886 52.485 63.3795 53.4942 63.3795 54.7389C63.3795 55.9835 64.3886 56.9927 65.6333 56.9927Z" fill="#D4DAFC"/>
<path d="M85.5418 60.1854H62.4402C62.0253 60.1854 61.689 60.5217 61.689 60.9366V67.3224C61.689 67.7373 62.0253 68.0737 62.4402 68.0737H85.5418C85.9567 68.0737 86.293 67.7373 86.293 67.3224V60.9366C86.293 60.5217 85.9567 60.1854 85.5418 60.1854Z" fill="white"/>
<path d="M82.1612 62.5519H69.5774C69.2662 62.5519 69.014 62.8041 69.014 63.1153V63.1717C69.014 63.4829 69.2662 63.7351 69.5774 63.7351H82.1612C82.4724 63.7351 82.7246 63.4829 82.7246 63.1717V63.1153C82.7246 62.8041 82.4724 62.5519 82.1612 62.5519Z" fill="#EFF1FE"/>
<path d="M77.6536 64.524H69.5774C69.2662 64.524 69.014 64.7763 69.014 65.0875V65.1438C69.014 65.455 69.2662 65.7073 69.5774 65.7073H77.6536C77.9648 65.7073 78.217 65.455 78.217 65.1438V65.0875C78.217 64.7763 77.9648 64.524 77.6536 64.524Z" fill="#EFF1FE"/>
<path fill-rule="evenodd" clip-rule="evenodd" d="M65.6333 66.3833C66.8779 66.3833 67.8871 65.3742 67.8871 64.1295C67.8871 62.8849 66.8779 61.8757 65.6333 61.8757C64.3886 61.8757 63.3795 62.8849 63.3795 64.1295C63.3795 65.3742 64.3886 66.3833 65.6333 66.3833Z" fill="#D4DAFC"/>
<path d="M145.268 34.0786H85.3542C84.5243 34.0786 83.8516 34.7513 83.8516 35.5812V97.5609C83.8516 98.3907 84.5243 99.0634 85.3542 99.0634H145.268C146.098 99.0634 146.77 98.3907 146.77 97.5609V35.5812C146.77 34.7513 146.098 34.0786 145.268 34.0786Z" fill="#C9D0FB"/>
<path d="M142.263 42.1546H132.121C131.291 42.1546 130.618 42.8273 130.618 43.6571V55.8653C130.618 56.6951 131.291 57.3678 132.121 57.3678H142.263C143.093 57.3678 143.765 56.6951 143.765 55.8653V43.6571C143.765 42.8273 143.093 42.1546 142.263 42.1546Z" fill="white"/>
<path fill-rule="evenodd" clip-rule="evenodd" d="M137.192 50.9821C138.852 50.9821 140.197 49.6368 140.197 47.9771C140.197 46.3173 138.852 44.972 137.192 44.972C135.532 44.972 134.187 46.3173 134.187 47.9771C134.187 49.6368 135.532 50.9821 137.192 50.9821Z" fill="#D4DAFC"/>
<path d="M141.324 51.7336H133.06C132.748 51.7336 132.496 51.9859 132.496 52.2971C132.496 52.6082 132.748 52.8605 133.06 52.8605H141.324C141.635 52.8605 141.887 52.6082 141.887 52.2971C141.887 51.9859 141.635 51.7336 141.324 51.7336Z" fill="#D4DAFC"/>
<path d="M139.821 53.6116H134.562C134.251 53.6116 133.999 53.8639 133.999 54.1751C133.999 54.4862 134.251 54.7385 134.562 54.7385H139.821C140.132 54.7385 140.385 54.4862 140.385 54.1751C140.385 53.8639 140.132 53.6116 139.821 53.6116Z" fill="#D4DAFC"/>
<path d="M83.8516 35.5812C83.8516 34.7514 84.5244 34.0786 85.3542 34.0786H145.268C146.098 34.0786 146.77 34.7514 146.77 35.5812V39.1497H83.8516V35.5812Z" fill="#6175DB"/>
<path fill-rule="evenodd" clip-rule="evenodd" d="M86.2934 37.4594C86.7083 37.4594 87.0447 37.123 87.0447 36.7081C87.0447 36.2932 86.7083 35.9568 86.2934 35.9568C85.8785 35.9568 85.5421 36.2932 85.5421 36.7081C85.5421 37.123 85.8785 37.4594 86.2934 37.4594Z" fill="#F2F2F2"/>
<path fill-rule="evenodd" clip-rule="evenodd" d="M88.5472 37.4594C88.9621 37.4594 89.2984 37.123 89.2984 36.7081C89.2984 36.2932 88.9621 35.9568 88.5472 35.9568C88.1323 35.9568 87.7959 36.2932 87.7959 36.7081C87.7959 37.123 88.1323 37.4594 88.5472 37.4594Z" fill="#F2F2F2"/>
<path fill-rule="evenodd" clip-rule="evenodd" d="M90.801 37.4594C91.2158 37.4594 91.5522 37.123 91.5522 36.7081C91.5522 36.2932 91.2158 35.9568 90.801 35.9568C90.3861 35.9568 90.0497 36.2932 90.0497 36.7081C90.0497 37.123 90.3861 37.4594 90.801 37.4594Z" fill="#F2F2F2"/>
<path d="M142.263 58.8705H132.121C131.291 58.8705 130.618 59.5432 130.618 60.373V93.8045C130.618 94.6343 131.291 95.307 132.121 95.307H142.263C143.093 95.307 143.765 94.6343 143.765 93.8045V60.373C143.765 59.5432 143.093 58.8705 142.263 58.8705Z" fill="white"/>
<path d="M139.633 62.2509H134.75C134.335 62.2509 133.999 62.5873 133.999 63.0022V66.3829C133.999 66.7978 134.335 67.1342 134.75 67.1342H139.633C140.048 67.1342 140.385 66.7978 140.385 66.3829V63.0022C140.385 62.5873 140.048 62.2509 139.633 62.2509Z" fill="#D4DAFC"/>
<path d="M139.633 68.6367H134.75C134.335 68.6367 133.999 68.9731 133.999 69.388V72.5809C133.999 72.9958 134.335 73.3321 134.75 73.3321H139.633C140.048 73.3321 140.385 72.9958 140.385 72.5809V69.388C140.385 68.9731 140.048 68.6367 139.633 68.6367Z" fill="#D4DAFC"/>
<path d="M139.633 74.8347H134.75C134.335 74.8347 133.999 75.1711 133.999 75.586V78.7789C133.999 79.1938 134.335 79.5302 134.75 79.5302H139.633C140.048 79.5302 140.385 79.1938 140.385 78.7789V75.586C140.385 75.1711 140.048 74.8347 139.633 74.8347Z" fill="#D4DAFC"/>
<path d="M139.633 87.2308H134.75C134.335 87.2308 133.999 87.5672 133.999 87.9821V91.175C133.999 91.5899 134.335 91.9263 134.75 91.9263H139.633C140.048 91.9263 140.385 91.5899 140.385 91.175V87.9821C140.385 87.5672 140.048 87.2308 139.633 87.2308Z" fill="#D4DAFC"/>
<path d="M139.633 81.0328H134.75C134.335 81.0328 133.999 81.3692 133.999 81.7841V84.977C133.999 85.3919 134.335 85.7282 134.75 85.7282H139.633C140.048 85.7282 140.385 85.3919 140.385 84.977V81.7841C140.385 81.3692 140.048 81.0328 139.633 81.0328Z" fill="#D4DAFC"/>
<path d="M128.364 42.3426H87.6081C87.1932 42.3426 86.8568 42.6789 86.8568 43.0938V50.4187C86.8568 50.8336 87.1932 51.17 87.6081 51.17H128.364C128.779 51.17 129.116 50.8336 129.116 50.4187V43.0938C129.116 42.6789 128.779 42.3426 128.364 42.3426Z" fill="white"/>
<path d="M119.349 44.9908H89.1107C88.7995 44.9908 88.5472 45.2431 88.5472 45.5543V45.7515C88.5472 46.0627 88.7995 46.315 89.1107 46.315H119.349C119.66 46.315 119.913 46.0627 119.913 45.7515V45.5543C119.913 45.2431 119.66 44.9908 119.349 44.9908Z" fill="#EFF1FE"/>
<path d="M109.037 47.1978H89.1107C88.7995 47.1978 88.5472 47.45 88.5472 47.7612V47.9584C88.5472 48.2696 88.7995 48.5219 89.1107 48.5219H109.037C109.349 48.5219 109.601 48.2696 109.601 47.9584V47.7612C109.601 47.45 109.349 47.1978 109.037 47.1978Z" fill="#EFF1FE"/>
<path fill-rule="evenodd" clip-rule="evenodd" d="M124.6 48.0711C125.326 48.0711 125.914 47.4824 125.914 46.7563C125.914 46.0302 125.326 45.4416 124.6 45.4416C123.873 45.4416 123.285 46.0302 123.285 46.7563C123.285 47.4824 123.873 48.0711 124.6 48.0711Z" fill="#EFF1FE"/>
<path fill-rule="evenodd" clip-rule="evenodd" d="M124.599 47.3197C124.911 47.3197 125.163 47.0675 125.163 46.7563C125.163 46.4451 124.911 46.1928 124.599 46.1928C124.288 46.1928 124.036 46.4451 124.036 46.7563C124.036 47.0675 124.288 47.3197 124.599 47.3197Z" fill="#F2F2F2"/>
<path d="M128.364 52.6725H87.6081C87.1932 52.6725 86.8568 53.0088 86.8568 53.4238V59.2461C86.8568 59.661 87.1932 59.9974 87.6081 59.9974H128.364C128.779 59.9974 129.116 59.661 129.116 59.2461V53.4238C129.116 53.0088 128.779 52.6725 128.364 52.6725Z" fill="white"/>
<path d="M119.363 54.8701H89.0966C88.7932 54.8701 88.5472 55.116 88.5472 55.4194C88.5472 55.7228 88.7932 55.9688 89.0966 55.9688H119.363C119.667 55.9688 119.913 55.7228 119.913 55.4194C119.913 55.116 119.667 54.8701 119.363 54.8701Z" fill="#EFF1FE"/>
<path d="M109.051 56.7013H89.0966C88.7932 56.7013 88.5472 56.9473 88.5472 57.2507C88.5472 57.5541 88.7932 57.8 89.0966 57.8H109.051C109.355 57.8 109.601 57.5541 109.601 57.2507C109.601 56.9473 109.355 56.7013 109.051 56.7013Z" fill="#EFF1FE"/>
<path fill-rule="evenodd" clip-rule="evenodd" d="M124.6 57.6495C125.326 57.6495 125.914 57.0609 125.914 56.3348C125.914 55.6087 125.326 55.0201 124.6 55.0201C123.874 55.0201 123.285 55.6087 123.285 56.3348C123.285 57.0609 123.874 57.6495 124.6 57.6495Z" fill="#EFF1FE"/>
<path fill-rule="evenodd" clip-rule="evenodd" d="M124.599 56.8981C124.911 56.8981 125.163 56.6459 125.163 56.3347C125.163 56.0235 124.911 55.7712 124.599 55.7712C124.288 55.7712 124.036 56.0235 124.036 56.3347C124.036 56.6459 124.288 56.8981 124.599 56.8981Z" fill="#F2F2F2"/>
<path d="M128.364 61.4998H87.6081C87.1932 61.4998 86.8568 61.8361 86.8568 62.2511V68.0734C86.8568 68.4883 87.1932 68.8247 87.6081 68.8247H128.364C128.779 68.8247 129.116 68.4883 129.116 68.0734V62.2511C129.116 61.8361 128.779 61.4998 128.364 61.4998Z" fill="white"/>
<path d="M119.363 63.6973H89.0966C88.7932 63.6973 88.5472 63.9432 88.5472 64.2466C88.5472 64.55 88.7932 64.796 89.0966 64.796H119.363C119.667 64.796 119.913 64.55 119.913 64.2466C119.913 63.9432 119.667 63.6973 119.363 63.6973Z" fill="#EFF1FE"/>
<path d="M109.051 65.5284H89.0966C88.7932 65.5284 88.5472 65.7744 88.5472 66.0778C88.5472 66.3812 88.7932 66.6271 89.0966 66.6271H109.051C109.355 66.6271 109.601 66.3812 109.601 66.0778C109.601 65.7744 109.355 65.5284 109.051 65.5284Z" fill="#EFF1FE"/>
<path fill-rule="evenodd" clip-rule="evenodd" d="M124.6 66.4772C125.326 66.4772 125.914 65.8886 125.914 65.1625C125.914 64.4364 125.326 63.8478 124.6 63.8478C123.874 63.8478 123.285 64.4364 123.285 65.1625C123.285 65.8886 123.874 66.4772 124.6 66.4772Z" fill="#EFF1FE"/>
<path fill-rule="evenodd" clip-rule="evenodd" d="M124.599 65.7261C124.911 65.7261 125.163 65.4738 125.163 65.1626C125.163 64.8514 124.911 64.5992 124.599 64.5992C124.288 64.5992 124.036 64.8514 124.036 65.1626C124.036 65.4738 124.288 65.7261 124.599 65.7261Z" fill="#D4DAFC"/>
<path d="M128.364 87.9822H87.6081C87.1932 87.9822 86.8568 88.3186 86.8568 88.7335V94.5558C86.8568 94.9707 87.1932 95.3071 87.6081 95.3071H128.364C128.779 95.3071 129.116 94.9707 129.116 94.5558V88.7335C129.116 88.3186 128.779 87.9822 128.364 87.9822Z" fill="white"/>
<path d="M119.363 90.1797H89.0966C88.7932 90.1797 88.5472 90.4256 88.5472 90.7291C88.5472 91.0325 88.7932 91.2784 89.0966 91.2784H119.363C119.667 91.2784 119.913 91.0325 119.913 90.7291C119.913 90.4256 119.667 90.1797 119.363 90.1797Z" fill="#EFF1FE"/>
<path d="M109.051 92.0108H89.0966C88.7932 92.0108 88.5472 92.2568 88.5472 92.5602C88.5472 92.8636 88.7932 93.1096 89.0966 93.1096H109.051C109.355 93.1096 109.601 92.8636 109.601 92.5602C109.601 92.2568 109.355 92.0108 109.051 92.0108Z" fill="#EFF1FE"/>
<path fill-rule="evenodd" clip-rule="evenodd" d="M124.6 92.9594C125.326 92.9594 125.914 92.3708 125.914 91.6447C125.914 90.9186 125.326 90.33 124.6 90.33C123.874 90.33 123.285 90.9186 123.285 91.6447C123.285 92.3708 123.874 92.9594 124.6 92.9594Z" fill="#EFF1FE"/>
<path fill-rule="evenodd" clip-rule="evenodd" d="M124.599 92.2082C124.911 92.2082 125.163 91.956 125.163 91.6448C125.163 91.3336 124.911 91.0813 124.599 91.0813C124.288 91.0813 124.036 91.3336 124.036 91.6448C124.036 91.956 124.288 92.2082 124.599 92.2082Z" fill="#F2F2F2"/>
<path d="M128.364 79.1547H87.6081C87.1932 79.1547 86.8568 79.491 86.8568 79.9059V85.7283C86.8568 86.1432 87.1932 86.4795 87.6081 86.4795H128.364C128.779 86.4795 129.116 86.1432 129.116 85.7283V79.9059C129.116 79.491 128.779 79.1547 128.364 79.1547Z" fill="white"/>
<path d="M119.363 81.3522H89.0966C88.7932 81.3522 88.5472 81.5982 88.5472 81.9016C88.5472 82.205 88.7932 82.4509 89.0966 82.4509H119.363C119.667 82.4509 119.913 82.205 119.913 81.9016C119.913 81.5982 119.667 81.3522 119.363 81.3522Z" fill="#EFF1FE"/>
<path d="M109.051 83.1834H89.0966C88.7932 83.1834 88.5472 83.4294 88.5472 83.7328C88.5472 84.0362 88.7932 84.2822 89.0966 84.2822H109.051C109.355 84.2822 109.601 84.0362 109.601 83.7328C109.601 83.4294 109.355 83.1834 109.051 83.1834Z" fill="#EFF1FE"/>
<path fill-rule="evenodd" clip-rule="evenodd" d="M124.6 84.1319C125.326 84.1319 125.914 83.5433 125.914 82.8172C125.914 82.0911 125.326 81.5025 124.6 81.5025C123.874 81.5025 123.285 82.0911 123.285 82.8172C123.285 83.5433 123.874 84.1319 124.6 84.1319Z" fill="#EFF1FE"/>
<path fill-rule="evenodd" clip-rule="evenodd" d="M124.599 83.3803C124.911 83.3803 125.163 83.1281 125.163 82.8169C125.163 82.5057 124.911 82.2534 124.599 82.2534C124.288 82.2534 124.036 82.5057 124.036 82.8169C124.036 83.1281 124.288 83.3803 124.599 83.3803Z" fill="#F2F2F2"/>
<path d="M128.364 70.3274H87.6081C87.1932 70.3274 86.8568 70.6637 86.8568 71.0786V76.901C86.8568 77.3159 87.1932 77.6522 87.6081 77.6522H128.364C128.779 77.6522 129.116 77.3159 129.116 76.901V71.0786C129.116 70.6637 128.779 70.3274 128.364 70.3274Z" fill="white"/>
<path d="M119.363 72.5247H89.0966C88.7932 72.5247 88.5472 72.7707 88.5472 73.0741C88.5472 73.3775 88.7932 73.6235 89.0966 73.6235H119.363C119.667 73.6235 119.913 73.3775 119.913 73.0741C119.913 72.7707 119.667 72.5247 119.363 72.5247Z" fill="#EFF1FE"/>
<path d="M109.051 74.3558H89.0966C88.7932 74.3558 88.5472 74.6018 88.5472 74.9052C88.5472 75.2086 88.7932 75.4545 89.0966 75.4545H109.051C109.355 75.4545 109.601 75.2086 109.601 74.9052C109.601 74.6018 109.355 74.3558 109.051 74.3558Z" fill="#EFF1FE"/>
<path fill-rule="evenodd" clip-rule="evenodd" d="M124.6 75.3045C125.326 75.3045 125.914 74.7158 125.914 73.9897C125.914 73.2636 125.326 72.675 124.6 72.675C123.874 72.675 123.285 73.2636 123.285 73.9897C123.285 74.7158 123.874 75.3045 124.6 75.3045Z" fill="#EFF1FE"/>
<path fill-rule="evenodd" clip-rule="evenodd" d="M124.599 74.5532C124.911 74.5532 125.163 74.301 125.163 73.9898C125.163 73.6785 124.911 73.4263 124.599 73.4263C124.288 73.4263 124.036 73.6785 124.036 73.9898C124.036 74.301 124.288 74.5532 124.599 74.5532Z" fill="#F2F2F2"/>
<path fill-rule="evenodd" clip-rule="evenodd" d="M148.427 83.8503C149.831 83.8503 151.081 84.0329 152.375 84.5909C153.492 85.0727 154.509 85.7103 155.499 86.4045C156.888 87.3809 157.983 88.5172 158.75 90.023C159.208 90.9224 159.544 92.1953 159.236 93.1764C158.874 94.3319 157.878 95.2957 156.569 95.0921C155.76 94.9663 155.016 94.4301 154.401 93.9254C153.664 93.3216 153.075 92.5957 152.588 91.7894C151.794 90.4741 151.327 88.9873 150.652 87.6129C150.332 86.9606 150.023 86.3038 149.64 85.6838C149.45 85.3769 149.248 85.0728 148.96 84.8446C148.806 84.7226 148.156 84.5115 148.405 84.2374C144.763 84.2851 141.537 87.0821 140.837 90.5443C140.772 90.867 140.721 91.1923 140.668 91.517C140.634 91.722 140.647 92.4781 140.464 92.609C140.06 92.8979 140.23 92.0202 140.247 91.8938C140.292 91.5672 140.34 91.2409 140.39 90.9151C140.663 89.1432 141.452 87.4961 142.767 86.2324C144.272 84.7876 146.301 83.8503 148.427 83.8503Z" fill="#D4DAFC"/>
<path fill-rule="evenodd" clip-rule="evenodd" d="M28.8098 89.9986C32.3156 95.8803 36.3989 101.575 38.851 108.006C38.7522 107.248 38.6474 106.491 38.5301 105.735C37.908 101.726 37.1346 97.7475 36.3221 93.7735C35.9083 91.7502 35.4705 89.7339 35.0216 87.7181C34.7803 86.6353 34.5418 85.552 34.2953 84.4704C34.2356 84.2082 34.1843 83.7505 34.1098 83.2867C36.4928 91.1069 38.7909 98.9329 40.4719 106.941C40.6924 107.992 40.8802 109.041 41.034 110.088C41.0866 109.849 41.1385 109.61 41.195 109.372C41.8753 106.516 42.8955 103.683 44.1103 101.012C44.691 99.7348 45.358 98.4857 46.1434 97.3216C46.6332 96.596 47.7883 95.7336 48.235 94.9904C45.7916 99.4721 44.9093 105.08 43.4984 109.952C43.1541 111.141 42.8076 112.328 42.468 113.517C44.5956 109.25 47.8967 105.744 52.4864 104.225C46.9308 107.896 43.5985 114.324 41.353 120.899C41.3456 120.977 41.3368 121.055 41.3291 121.133C41.99 119.879 42.8222 118.745 43.9503 117.95C46.3649 116.249 49.0431 116.745 51.3852 118.204C49.547 117.035 46.2251 118.099 44.6784 119.287C43.5713 120.137 42.625 121.277 41.8033 122.39C41.6065 122.657 41.3377 122.968 41.054 123.3C40.6562 125.883 40.0078 128.448 39.0898 130.992C39.2413 130.262 39.1318 129.094 39.1739 128.549C39.1784 128.491 39.1822 128.431 39.1867 128.373C39.0471 128.93 38.9123 129.481 38.7825 130.023C39.0406 128.989 39.1807 127.909 39.2902 126.818C39.3183 126.35 39.3459 125.881 39.3749 125.412C39.3657 124.523 39.329 123.63 39.2671 122.735C39.0475 121.866 38.8015 121.046 38.5984 120.364C37.8665 117.903 36.7931 115.546 35.4722 113.347C34.267 111.34 32.8242 109.523 31.1588 107.879C30.2608 106.992 29.3212 106.149 28.3949 105.293C28.0598 104.984 27.461 104.223 26.9432 103.827C30.7146 105.906 34.5966 108.156 37.3479 111.506C37.0253 110.267 36.675 109.046 36.3044 107.849C34.4242 101.778 32.0502 95.486 28.8098 89.9986Z" fill="#A9B5F9"/>
<path fill-rule="evenodd" clip-rule="evenodd" d="M32.5776 123.292C32.5776 130.034 33.1115 135.5 40.2781 135.5C47.4446 135.5 47.9786 130.034 47.9786 123.292" fill="#343956"/>
<path fill-rule="evenodd" clip-rule="evenodd" d="M61.5632 67.6272C62.9096 68.1988 64.1804 68.3878 64.7323 68.1603C66.1164 67.5894 65.5125 62.3332 64.1112 60.4246C62.7099 58.516 56.8713 58.4187 57.1583 62.5503C57.2579 63.9843 58.0342 65.1673 59.063 66.0772L58.5132 73.6614L63.1152 73.0146L61.5632 67.6272Z" fill="#B28B67"/>
<path fill-rule="evenodd" clip-rule="evenodd" d="M61.9777 58.4311C61.3219 58.3284 60.4001 58.3919 60.0223 58.4896C60.1674 57.9373 60.1724 57.3438 60.022 56.7877C59.8761 56.2473 59.5639 55.8137 59.2669 55.3551C59.1301 55.1436 58.9793 54.9354 58.7774 54.7873C58.5718 54.6365 58.3266 54.5523 58.0786 54.5305C57.8249 54.5083 57.5686 54.549 57.33 54.6352C57.2243 54.6733 57.1335 54.7368 57.0306 54.7792C56.9253 54.8229 56.8627 54.762 56.7737 54.7048C56.5592 54.5664 56.2674 54.5242 56.0214 54.529C55.7453 54.5345 55.4694 54.615 55.2232 54.7403C54.9832 54.8623 54.7611 55.0368 54.6077 55.2674C54.5394 55.3699 54.4802 55.4841 54.4485 55.6055C54.4356 55.6553 54.4363 55.6836 54.3915 55.7073C54.3503 55.7295 54.2994 55.7371 54.2566 55.7587C53.8428 55.9664 53.5184 56.3532 53.3766 56.8114C53.2937 57.0786 53.2998 57.5278 53.3846 58.0204C53.4694 58.5129 54.0991 59.7408 54.5842 60.1529C55.0174 60.5205 55.6061 60.7205 56.1539 60.7674C55.858 61.2182 55.694 61.7528 55.5924 62.2871C55.4818 62.8677 55.4464 63.4597 55.4858 64.0523C55.5232 64.6154 55.6022 65.2054 55.8099 65.7323C56.0042 66.2253 56.3251 66.6069 56.8 66.8107C57.0178 66.9041 57.2462 66.9652 57.4749 67.0183C57.7003 67.0705 57.9259 67.1203 58.1565 67.1349C58.5925 67.1627 59.0789 67.0792 59.358 66.697C59.4588 66.559 59.5667 66.3885 59.6317 66.2283C59.6552 66.1707 59.6689 66.1333 59.6241 66.0865C59.5704 66.0304 59.491 65.9927 59.4264 65.952C59.0583 65.7201 58.8022 65.3775 58.6888 64.9434C58.5738 64.5029 58.6131 63.9081 59.0224 63.6512C59.5275 63.3342 60.16 63.5278 60.6754 63.7186C60.7783 62.9735 61.1057 62.2697 61.7148 61.8489C62.389 61.3834 63.2151 61.2239 63.9165 60.8073C64.0993 60.6987 64.284 60.5786 64.4036 60.3928C64.4537 60.3152 64.5111 60.2155 64.5222 60.1207C64.5365 59.996 64.4445 59.9061 64.3714 59.8209C63.9829 59.3686 62.6334 58.534 61.9777 58.4311Z" fill="#191847"/>
<path fill-rule="evenodd" clip-rule="evenodd" d="M60.1614 88.865L74.549 112.846L85.3355 133.12H87.6588L69.5859 88.865H60.1614Z" fill="#997659"/>
<path fill-rule="evenodd" clip-rule="evenodd" d="M84.4989 131.989C84.2655 131.888 83.9887 131.992 83.9028 132.231C83.7642 132.617 83.5904 133.164 83.5904 133.478C83.5904 134 83.7649 135.002 83.7649 135.002C84.3725 135.002 94.6858 135.002 94.6858 135.002C94.6858 135.002 95.1113 133.599 94.1943 133.487C93.2771 133.375 92.6705 133.285 92.6705 133.285L87.6167 131.039C87.5049 130.989 87.3741 131.042 87.3274 131.155L87.0104 131.921C87.0104 131.921 86.1615 132.316 85.6306 132.316C85.3217 132.316 84.8442 132.138 84.4989 131.989Z" fill="#E4E8FC"/>
<path fill-rule="evenodd" clip-rule="evenodd" d="M82.3396 129.874L86.8201 128.522C86.8201 128.522 83.8755 119.746 79.6023 109.207C75.3288 98.6672 70.4233 88.865 70.4233 88.865H57.7687C57.7687 88.865 63.2227 101.264 69.3325 111.398C75.4422 121.532 82.3396 129.874 82.3396 129.874Z" fill="#1D2939"/>
<path fill-rule="evenodd" clip-rule="evenodd" d="M59.2157 88.865C57.8577 97.292 55.2388 108.059 54.9914 108.391C54.8267 108.612 48.8946 110.594 37.1953 114.336L37.6972 116.379C51.6487 114.372 58.9999 112.815 59.7509 111.708C60.8774 110.047 66.5021 96.927 68.6807 88.865H59.2157Z" fill="#B28B67"/>
<path fill-rule="evenodd" clip-rule="evenodd" d="M41.3079 112.571L42.1921 115.86C52.627 116.773 59.0205 116.113 61.3729 113.882C63.7256 111.651 66.4065 103.312 69.4164 88.865H57.3497C55.4426 100.695 54.3765 106.859 54.1514 107.356C53.926 107.852 49.6449 109.591 41.3079 112.571Z" fill="#344054"/>
<path fill-rule="evenodd" clip-rule="evenodd" d="M38.0618 114.028C38.121 113.779 37.9704 113.524 37.7189 113.481C37.3134 113.412 36.7434 113.337 36.4336 113.391C35.9178 113.482 34.9586 113.827 34.9586 113.827C35.0641 114.424 36.8548 124.55 36.8548 124.55C36.8548 124.55 38.3148 124.724 38.2658 123.804C38.2171 122.884 38.2008 122.273 38.2008 122.273L39.5418 116.922C39.5716 116.803 39.497 116.683 39.3771 116.657L38.5656 116.479C38.5656 116.479 38.0281 115.714 37.9358 115.193C37.8823 114.89 37.9748 114.392 38.0618 114.028Z" fill="#E4E8FC"/>
<path fill-rule="evenodd" clip-rule="evenodd" d="M73.7733 71.8462L67.6288 76.4155L70.4562 78.7001L74.6716 73.606C77.1208 72.548 78.2138 71.8723 77.9508 71.5786C77.7289 71.331 77.4346 71.3822 77.1633 71.4291C76.952 71.4659 76.7549 71.5001 76.6172 71.3887C76.3026 71.1346 76.6805 70.0381 77.0839 69.0127C77.487 67.9874 76.9246 68.1508 76.6157 68.3335C75.6434 69.2094 74.696 70.3803 73.7733 71.8462ZM81.1815 76.0048L78.4832 78.0168L79.0608 80.9183C79.0608 80.9183 80.7627 79.2899 82.3278 78.6081C84.3237 77.7387 85.1021 77.1798 85.9358 75.7479C86.382 74.9816 86.6479 73.5301 86.0676 73.1511C85.8449 73.0058 85.1637 73.5188 84.4686 74.0424C83.9388 74.4414 83.401 74.8465 83.0521 74.9707C82.5824 75.138 82.551 74.505 82.5262 73.9991C82.5082 73.6363 82.4936 73.3386 82.3224 73.4494C81.4687 73.5843 81.1815 76.0048 81.1815 76.0048Z" fill="#997659"/>
<path fill-rule="evenodd" clip-rule="evenodd" d="M64.2735 76.0616C66.6011 75.7094 69.6406 74.7817 72.6624 72.2165L74.3722 74.9295C72.4025 77.5147 69.4467 79.8269 66.6229 80.1434C64.3975 80.3927 62.8889 77.8789 64.2735 76.0616Z" fill="#9CA7E2"/>
<path fill-rule="evenodd" clip-rule="evenodd" d="M60.7754 96.7867C58.5187 96.8102 56.4452 96.8315 55.2717 97.2381C53.3017 93.0443 54.0381 90.1262 54.7178 87.4322C55.1274 85.8086 55.5166 84.2663 55.2804 82.5755C54.592 77.6517 57.4923 69.5162 58.0755 69.4342L58.243 69.4107L62.8663 68.7609L63.3957 68.6865C64.0618 71.6998 65.5405 74.8557 67.0288 78.032C67.3763 78.7739 67.7244 79.5166 68.0629 80.2592C72.0522 80.5907 80.2095 76.3384 80.2095 76.3384C80.2095 76.3384 83.0053 80.5041 83.1093 82.4308C78.4778 85.7355 74.3579 87.4979 70.84 88.0703C71.2453 90.1421 71.2697 92.1643 70.6686 94.0995C69.8634 96.6925 64.9988 96.743 60.7754 96.7867Z" fill="#C0C7EC"/>
<rect x="72.0537" y="60.4102" width="22.5747" height="15.6618" rx="1.15" transform="rotate(-14 72.0537 60.4102)" fill="#D8DCF0" stroke="#A3ACD8" stroke-width="0.3"/>
<mask id="path-86-outside-1_10678_57677" maskUnits="userSpaceOnUse" x="71.9542" y="54.7859" width="26.1876" height="21.0889" fill="black">
<rect fill="white" x="71.9542" y="54.7859" width="26.1876" height="21.0889"/>
<path fill-rule="evenodd" clip-rule="evenodd" d="M80.6192 59.2203L73.6516 60.9576C73.3837 61.0244 73.2206 61.2957 73.2874 61.5637L76.3902 74.0083C76.457 74.2763 76.7284 74.4393 76.9963 74.3725L96.1485 69.5974C96.4164 69.5306 96.5795 69.2592 96.5127 68.9913L93.4099 56.5466C93.3431 56.2786 93.0717 56.1156 92.8038 56.1824L85.8362 57.9196L85.9012 58.1802C85.968 58.4481 85.8049 58.7195 85.537 58.7863L81.2903 59.8451C81.0224 59.9119 80.751 59.7489 80.6842 59.4809L80.6192 59.2203Z"/>
</mask>
<path fill-rule="evenodd" clip-rule="evenodd" d="M80.6192 59.2203L73.6516 60.9576C73.3837 61.0244 73.2206 61.2957 73.2874 61.5637L76.3902 74.0083C76.457 74.2763 76.7284 74.4393 76.9963 74.3725L96.1485 69.5974C96.4164 69.5306 96.5795 69.2592 96.5127 68.9913L93.4099 56.5466C93.3431 56.2786 93.0717 56.1156 92.8038 56.1824L85.8362 57.9196L85.9012 58.1802C85.968 58.4481 85.8049 58.7195 85.537 58.7863L81.2903 59.8451C81.0224 59.9119 80.751 59.7489 80.6842 59.4809L80.6192 59.2203Z" fill="#E7E9F4"/>
<path d="M80.6192 59.2203L80.9103 59.1478L80.8378 58.8567L80.5467 58.9292L80.6192 59.2203ZM96.5127 68.9913L96.8038 68.9187L96.5127 68.9913ZM93.4099 56.5466L93.1188 56.6192L93.4099 56.5466ZM92.8038 56.1824L92.7312 55.8913L92.8038 56.1824ZM85.8362 57.9196L85.7636 57.6285L85.4725 57.7011L85.5451 57.9922L85.8362 57.9196ZM80.6842 59.4809L80.3931 59.5535L80.6842 59.4809ZM73.7242 61.2486L80.6918 59.5114L80.5467 58.9292L73.579 60.6665L73.7242 61.2486ZM73.5785 61.4911C73.5518 61.3839 73.617 61.2754 73.7242 61.2486L73.579 60.6665C73.1503 60.7734 72.8894 61.2075 72.9963 61.6362L73.5785 61.4911ZM76.6813 73.9358L73.5785 61.4911L72.9963 61.6362L76.0991 74.0809L76.6813 73.9358ZM76.9237 74.0814C76.8166 74.1082 76.708 74.0429 76.6813 73.9358L76.0991 74.0809C76.206 74.5096 76.6402 74.7705 77.0689 74.6636L76.9237 74.0814ZM96.0759 69.3063L76.9237 74.0814L77.0689 74.6636L96.2211 69.8885L96.0759 69.3063ZM96.2216 69.0638C96.2483 69.171 96.1831 69.2796 96.0759 69.3063L96.2211 69.8885C96.6498 69.7816 96.9107 69.3474 96.8038 68.9187L96.2216 69.0638ZM93.1188 56.6192L96.2216 69.0638L96.8038 68.9187L93.701 56.474L93.1188 56.6192ZM92.8763 56.4735C92.9835 56.4468 93.0921 56.512 93.1188 56.6192L93.701 56.474C93.5941 56.0453 93.1599 55.7844 92.7312 55.8913L92.8763 56.4735ZM85.9088 58.2107L92.8763 56.4735L92.7312 55.8913L85.7636 57.6285L85.9088 58.2107ZM85.5451 57.9922L85.6101 58.2528L86.1922 58.1076L86.1273 57.847L85.5451 57.9922ZM85.6101 58.2528C85.6368 58.36 85.5716 58.4685 85.4644 58.4952L85.6095 59.0774C86.0383 58.9705 86.2991 58.5363 86.1922 58.1076L85.6101 58.2528ZM85.4644 58.4952L81.2178 59.554L81.3629 60.1362L85.6095 59.0774L85.4644 58.4952ZM81.2178 59.554C81.1106 59.5808 81.002 59.5155 80.9753 59.4084L80.3931 59.5535C80.5 59.9822 80.9342 60.2431 81.3629 60.1362L81.2178 59.554ZM80.9753 59.4084L80.9103 59.1478L80.3282 59.2929L80.3931 59.5535L80.9753 59.4084Z" fill="#A3ACD8" mask="url(#path-86-outside-1_10678_57677)"/>
<rect x="75.5842" y="74.5704" width="22.5747" height="1.06809" rx="0.534046" transform="rotate(-14 75.5842 74.5704)" fill="#6175DB" stroke="#6175DB" stroke-width="0.3"/>
<rect x="74.2834" y="62.3835" width="6.91283" height="0.768092" rx="0.2" transform="rotate(-14 74.2834 62.3835)" fill="#6175DB" fill-opacity="0.63"/>
<rect x="74.655" y="63.8742" width="9.9852" height="0.384046" rx="0.192023" transform="rotate(-14 74.655 63.8742)" fill="#6175DB" fill-opacity="0.63"/>
<rect x="74.8409" y="64.6194" width="9.9852" height="0.384046" rx="0.192023" transform="rotate(-14 74.8409 64.6194)" fill="#6175DB" fill-opacity="0.63"/>
<rect x="75.0269" y="65.3644" width="9.9852" height="0.384046" rx="0.192023" transform="rotate(-14 75.0269 65.3644)" fill="#6175DB" fill-opacity="0.63"/>
<rect x="75.2126" y="66.1099" width="9.9852" height="0.384046" rx="0.192023" transform="rotate(-14 75.2126 66.1099)" fill="#6175DB" fill-opacity="0.63"/>
<rect x="75.3984" y="66.8554" width="9.9852" height="0.384046" rx="0.192023" transform="rotate(-14 75.3984 66.8554)" fill="#6175DB" fill-opacity="0.63"/>
<rect x="75.5843" y="67.6003" width="9.9852" height="0.384046" rx="0.192023" transform="rotate(-14 75.5843 67.6003)" fill="#6175DB" fill-opacity="0.63"/>
<rect x="75.7701" y="68.3458" width="9.9852" height="0.384046" rx="0.192023" transform="rotate(-14 75.7701 68.3458)" fill="#6175DB" fill-opacity="0.63"/>
<rect x="76.1417" y="69.8363" width="6.91283" height="0.768092" rx="0.2" transform="rotate(-14 76.1417 69.8363)" fill="#6175DB" fill-opacity="0.63"/>
<rect x="76.5135" y="71.3269" width="9.9852" height="0.384046" rx="0.192023" transform="rotate(-14 76.5135 71.3269)" fill="#6175DB" fill-opacity="0.63"/>
<rect x="76.6992" y="72.0721" width="9.9852" height="0.384046" rx="0.192023" transform="rotate(-14 76.6992 72.0721)" fill="#6175DB" fill-opacity="0.63"/>
<rect x="76.8851" y="72.8173" width="9.9852" height="0.384046" rx="0.192023" transform="rotate(-14 76.8851 72.8173)" fill="#6175DB" fill-opacity="0.63"/>
<rect x="85.8344" y="61.0869" width="7.68092" height="5.37664" rx="0.4" transform="rotate(-14 85.8344 61.0869)" fill="#8D9BE3"/>
<path fill-rule="evenodd" clip-rule="evenodd" d="M89.0361 61.7033L87.7749 65.6951L92.0238 64.6358L89.0361 61.7033Z" fill="#6175DB" fill-opacity="0.67"/>
<path fill-rule="evenodd" clip-rule="evenodd" d="M91.458 62.0848L90.2118 65.0878L93.9681 64.1513L91.458 62.0848Z" fill="#6175DB" fill-opacity="0.67"/>
<path fill-rule="evenodd" clip-rule="evenodd" d="M92.27 61.9184C92.6564 61.8221 92.8916 61.4306 92.7953 61.0442C92.699 60.6577 92.3075 60.4225 91.921 60.5188C91.5345 60.6152 91.2993 61.0066 91.3958 61.3931C91.4921 61.7796 91.8835 62.0148 92.27 61.9184Z" fill="#6175DB"/>
<path fill-rule="evenodd" clip-rule="evenodd" d="M124.242 49.8036C122.874 50.6283 121.529 51.0266 120.898 50.864C119.316 50.4562 119.17 44.6671 120.395 42.385C121.619 40.1026 127.914 39.1079 128.231 43.6298C128.341 45.199 127.682 46.5998 126.708 47.7424L128.454 55.8794H123.383L124.242 49.8036Z" fill="#9E573B"/>
<path fill-rule="evenodd" clip-rule="evenodd" d="M123.285 39.7545C123.954 39.6448 125.753 39.5695 126.085 39.5695C126.297 39.5695 126.527 39.6179 126.653 39.4233C126.755 39.2637 126.718 38.9942 126.749 38.809C126.784 38.5941 126.835 38.3819 126.886 38.1702C127.032 37.5679 127.252 36.9949 127.56 36.4569C128.139 35.4476 128.987 34.6569 130.057 34.1969C131.238 33.6889 132.576 33.5726 133.847 33.6756C135.207 33.7858 136.438 34.2349 137.722 34.6575C138.946 35.0601 140.228 35.2185 141.508 35.022C142.798 34.8239 143.772 34.1248 144.86 33.4614C145.973 32.7823 147.246 32.3381 148.562 32.4403C149.791 32.5355 150.924 33.043 151.94 33.7208C152.891 34.3549 153.675 35.118 154.118 36.1917C154.595 37.3468 154.593 38.6148 153.81 39.6358C152.675 41.1154 150.566 41.4981 148.813 41.46C147.798 41.438 146.802 41.2529 145.844 40.9161C144.566 40.4667 143.462 39.7052 142.267 39.0873C141.707 38.7973 141.127 38.5592 140.519 38.3877C139.93 38.2213 139.349 38.1449 138.815 38.501C138.25 38.8779 137.744 39.2481 137.098 39.484C136.478 39.7101 135.822 39.8367 135.161 39.8316C133.877 39.8217 132.61 39.4215 131.362 39.1533C130.345 38.9346 129.256 38.7168 128.218 38.9269C127.785 39.0146 127.153 39.1957 126.997 39.6457C129.628 40.1226 130.662 43.3771 129.92 45.7661C129.52 47.0557 127.113 48.5631 126.177 47.8853C125.584 47.4557 125.944 46.8919 126.177 46.5196C126.623 45.8069 126.776 44.8913 125.95 44.395C125.238 43.967 124.49 44.9835 124.475 44.9823C124.28 44.9669 122.589 44.0106 121.424 42.6151C120.274 42.6833 120.1 41.9254 120.375 41.3056C120.649 40.686 122.362 39.906 123.285 39.7545Z" fill="#191847"/>
<path fill-rule="evenodd" clip-rule="evenodd" d="M131.828 73.7219L123.888 99.7284L120.043 121.845H117.027L121.091 73.7219H131.828Z" fill="#864A32"/>
<path fill-rule="evenodd" clip-rule="evenodd" d="M134.668 73.7219C134.129 88.0009 134.764 95.3661 134.884 96.6634C135.005 97.9607 136.658 106.372 140.57 122.281L137.357 121.175C131.174 106.585 129.067 99.0021 128.357 97.0862C127.648 95.1704 125.765 87.3822 122.707 73.7219H134.668Z" fill="#9E573B"/>
<path fill-rule="evenodd" clip-rule="evenodd" d="M140.007 120.902C140.208 120.812 140.447 120.902 140.523 121.109C140.678 121.532 140.9 122.204 140.9 122.576C140.9 123.148 140.71 124.245 140.71 124.245C140.048 124.245 128.81 124.245 128.81 124.245C128.81 124.245 128.347 122.708 129.346 122.586C130.345 122.463 131.006 122.364 131.006 122.364L136.559 119.884C136.655 119.841 136.769 119.886 136.809 119.984L137.174 120.871C137.174 120.871 138.099 121.303 138.677 121.303C139.044 121.303 139.628 121.072 140.007 120.902Z" fill="#1D2939"/>
<path fill-rule="evenodd" clip-rule="evenodd" d="M120.175 120.902C120.376 120.812 120.616 120.902 120.691 121.109C120.846 121.532 121.068 122.204 121.068 122.576C121.068 123.148 120.878 124.245 120.878 124.245C120.216 124.245 108.978 124.245 108.978 124.245C108.978 124.245 108.515 122.708 109.514 122.586C110.513 122.463 111.174 122.364 111.174 122.364L116.727 119.884C116.824 119.841 116.937 119.886 116.977 119.984L117.342 120.871C117.342 120.871 118.267 121.303 118.845 121.303C119.212 121.303 119.796 121.072 120.175 120.902Z" fill="#1D2939"/>
<path fill-rule="evenodd" clip-rule="evenodd" d="M132.883 73.7219L129.507 86.9718H119.197L120.734 73.7219H132.883Z" fill="#1D2939"/>
<path fill-rule="evenodd" clip-rule="evenodd" d="M134.782 73.7219C136.448 78.7257 135.415 86.9718 135.415 86.9718H124.893L122 73.7219H134.782Z" fill="#344054"/>
<path fill-rule="evenodd" clip-rule="evenodd" d="M146.262 80.3867C145.475 79.2311 140.165 63.6805 140.165 63.6805L135.586 64.3417C135.586 64.3417 143.2 80.5347 143.635 81.2878C144.2 82.2662 143.699 83.8733 143.36 84.9632C143.307 85.1317 143.259 85.288 143.219 85.4275C143.931 85.6326 144.202 85.2256 144.487 84.7965C144.81 84.3119 145.152 83.799 146.169 84.1083C146.562 84.2278 146.939 84.3812 147.308 84.5311C148.582 85.0491 149.753 85.5248 151.097 84.4112C151.311 84.2347 151.49 83.6575 150.813 83.3213C149.125 82.4841 146.648 80.9515 146.262 80.3867ZM106.799 79.583L111.915 72.9781L114.362 76.1017L108.708 80.5952C107.504 83.2426 106.744 84.4203 106.428 84.128C106.161 83.8816 106.222 83.5619 106.279 83.2674C106.323 83.0381 106.364 82.8238 106.245 82.6717C105.973 82.3242 104.766 82.7147 103.636 83.1343C102.507 83.5539 102.696 82.9444 102.902 82.6114C103.879 81.5692 105.178 80.5597 106.799 79.583Z" fill="#9E573B"/>
<path fill-rule="evenodd" clip-rule="evenodd" d="M124.381 52.6686L122.528 52.613C121.091 63.0709 107.41 71.9845 107.04 75.8704C106.904 77.2956 107.996 77.8528 107.541 78.3449L110.134 79.7329C110.467 79.213 111.437 79.9421 113.128 79.0992C114.819 78.2563 126.054 64.5772 124.381 52.6686Z" fill="#9CA7E2"/>
<path fill-rule="evenodd" clip-rule="evenodd" d="M127.395 50.0969C127.801 50.0107 128.2 50.2699 128.286 50.6758L128.563 51.9775C132.336 54.1147 141.874 60.7447 146.118 74.9859C146.563 76.4819 146.261 77.3594 146.019 78.0603C145.854 78.54 145.716 78.937 145.867 79.393L142.908 80.6736C142.86 80.328 142.435 80.1197 141.887 79.8509C141.09 79.4601 140.032 78.9415 139.492 77.6873C138.98 76.4984 138.267 75.0238 137.434 73.3891C137.697 75.6722 137.559 77.8253 136.861 79.6907C135.12 84.3445 120.878 81.5107 118.839 77.2993C117.752 75.0518 118.548 72.9248 119.601 70.1119C120.938 66.5409 122.688 61.8646 121.525 54.4333L121.052 52.2123C120.966 51.8066 121.225 51.4077 121.631 51.3215L127.395 50.0969Z" fill="#C0C7EC"/>
</svg>
