<svg width="520" height="108" viewBox="0 0 520 108" fill="none" xmlns="http://www.w3.org/2000/svg">
<g clip-path="url(#clip0_6794_36190)">
<path d="M508 0H12C5.37258 0 0 5.37258 0 12V96C0 102.627 5.37258 108 12 108H508C514.627 108 520 102.627 520 96V12C520 5.37258 514.627 0 508 0Z" fill="#E4E8FC"/>
<path fill-rule="evenodd" clip-rule="evenodd" d="M512.44 0.848026C511.066 0.300867 509.568 0 508 0H499.83C500.151 0.269906 500.452 0.523515 500.732 0.759074V0.759155V0.759331L500.733 0.759445V0.75975C501.647 1.5291 502.332 2.10583 502.7 2.42885C504.519 4.02761 506.485 3.40265 508.224 2.84958L508.226 2.84904C509.255 2.52195 510.204 2.22027 510.998 2.41891C511.405 2.52093 511.906 1.93293 512.44 0.848026ZM485.913 0H460.351C461.299 0.920398 462.133 1.93177 462.845 3.01182C471.616 6.76028 488.762 6.17911 487.789 2.55C487.589 1.80498 486.907 0.937299 485.913 0ZM435.053 0H54.5607C52.5583 1.51036 49.6741 3.3674 46.5681 5.36726L46.568 5.36728L46.5677 5.36747C39.1565 10.1392 30.4826 15.7241 29.5103 19.353C28.0636 24.7521 53.5713 25.6167 66.6207 20.04C68.8567 16.6494 71.8948 13.7137 75.6516 11.5447C88.5621 4.09084 105.071 8.51433 112.525 21.4248C119.979 34.3354 115.555 50.8441 102.645 58.298C89.734 65.7519 73.2254 61.3284 65.7715 48.4179C64.4118 46.0628 63.4474 43.5881 62.8575 41.0704C46.5121 30.5342 12.7609 26.5527 11.5661 31.0117C10.2699 35.8493 28.568 54.5998 40.2493 63.155C55.5355 54.5324 74.8239 59.5982 83.4655 74.5659C89.6675 85.3081 88.7105 98.2492 82.09 108H508C514.627 108 520 102.627 520 96V67.5993C515.821 68.0887 511.476 67.2933 507.578 65.0429C497.815 59.4063 494.555 46.7759 500.296 36.8323C504.48 29.5846 512.292 25.7647 520 26.4086V12C520 11.6886 519.988 11.3799 519.965 11.0744C517.434 11.114 514.981 11.4389 512.783 12.1791C503.732 15.2275 500.183 24.9626 497.081 33.4742L497.08 33.4769C495.247 38.5045 493.57 43.1049 491.006 45.6476C492.279 50.7634 491.661 56.3242 488.841 61.2086C482.996 71.3331 469.903 74.7174 459.598 68.7676C449.292 62.8178 445.677 49.7871 451.522 39.6626C457.331 29.6018 470.296 26.1967 480.571 31.9925C488.423 26.242 500.722 13.6384 499.851 10.3867C499.048 7.38947 476.361 10.0657 465.374 17.1478C464.978 18.8402 464.33 20.5036 463.416 22.0866C458.405 30.7648 447.309 33.7381 438.631 28.7278C429.952 23.7175 426.979 12.6208 431.989 3.94263C432.846 2.45755 433.882 1.13953 435.053 0ZM0 37.9052V59.1998C4.36662 61.839 8.15994 65.6015 10.9044 70.3551C17.9116 82.4918 15.9052 97.3186 6.93828 106.883C8.47628 107.6 10.1914 108 12 108H28.7907C28.499 107.55 28.2172 107.09 27.946 106.62C23.7507 99.3535 22.8311 91.0807 24.7245 83.4699C20.9092 79.6864 18.4139 72.8405 15.687 65.3592V65.3591C12.0711 55.4389 8.04798 44.4014 0 37.9052ZM10.2555 16.6885C14.5798 13.0487 22.3455 6.51208 29.306 0H12C5.37258 0 0 5.37258 0 12V20.0773C2.35662 20.7896 4.92834 21.282 7.32821 19.1728C7.8742 18.6929 8.89144 17.8366 10.2484 16.6945L10.2538 16.69L10.2547 16.6891L10.2555 16.6885Z" fill="#C5CDF9"/>
</g>
<defs>
<clipPath id="clip0_6794_36190">
<rect width="520" height="108" fill="white"/>
</clipPath>
</defs>
</svg>
