<?xml version="1.0" standalone="no"?>
<!DOCTYPE svg PUBLIC "-//W3C//DTD SVG 20010904//EN"
 "http://www.w3.org/TR/2001/REC-SVG-20010904/DTD/svg10.dtd">
<svg version="1.0" xmlns="http://www.w3.org/2000/svg"
 width="700.000000pt" height="700.000000pt" viewBox="0 0 700.000000 700.000000"
 preserveAspectRatio="xMidYMid meet">
<metadata>
Created by potrace 1.14, written by Peter Selinger 2001-2017
</metadata>
<g transform="translate(0.000000,700.000000) scale(0.100000,-0.100000)"
fill="#000000" stroke="none">
<path d="M3235 6990 c-450 -37 -899 -162 -1290 -357 -354 -177 -621 -370 -906
-653 -293 -290 -488 -558 -666 -915 -435 -867 -489 -1871 -153 -2783 64 -172
227 -503 318 -644 362 -561 821 -977 1402 -1267 815 -407 1744 -480 2620 -206
310 97 674 278 945 468 346 244 673 579 908 930 632 946 760 2163 340 3222
-166 419 -425 821 -738 1144 -576 594 -1315 957 -2145 1051 -132 15 -503 20
-635 10z m625 -175 c635 -70 1230 -317 1735 -721 141 -113 386 -358 499 -499
413 -517 660 -1119 726 -1775 13 -135 14 -504 0 -640 -49 -494 -209 -979 -460
-1395 -238 -394 -563 -744 -940 -1011 -462 -328 -1024 -537 -1600 -594 -135
-13 -505 -13 -640 0 -648 64 -1261 315 -1775 726 -141 113 -386 358 -499 499
-404 506 -651 1099 -721 1734 -20 189 -20 533 0 722 71 640 312 1221 721 1734
113 141 358 386 499 499 504 402 1095 649 1720 720 167 19 567 19 735 1z"/>
<path d="M3197 6659 c-526 -51 -1036 -236 -1488 -540 -287 -193 -588 -488
-800 -785 -425 -595 -638 -1359 -578 -2081 81 -986 591 -1856 1411 -2406 387
-259 842 -431 1333 -504 153 -22 666 -26 815 -5 368 52 686 147 995 297 805
391 1399 1088 1658 1945 309 1021 78 2141 -611 2960 -95 113 -297 314 -404
403 -494 407 -1103 658 -1743 717 -128 12 -461 11 -588 -1z m609 -234 c66 -19
129 -65 154 -114 31 -62 28 -164 -8 -231 -32 -62 -100 -115 -163 -125 -45 -8
-218 2 -237 14 -8 5 -7 52 3 181 21 248 20 250 -10 250 -20 0 -25 5 -25 26 l0
27 118 -7 c64 -4 140 -13 168 -21z m-495 -34 c34 -34 39 -44 39 -86 0 -42 -5
-52 -39 -86 l-39 -40 61 -70 c49 -56 70 -72 104 -82 35 -9 43 -16 43 -34 0
-20 -5 -23 -39 -23 -21 0 -52 -3 -68 -6 -28 -5 -36 1 -123 100 -51 59 -94 105
-96 104 -1 -2 2 -52 8 -111 6 -59 9 -109 7 -111 -2 -2 -24 -6 -49 -7 l-45 -4
-17 180 c-24 258 -24 255 -79 255 -13 0 -19 7 -19 24 0 29 14 31 204 34 l108
2 39 -39z m-413 -70 c18 -52 18 -60 5 -65 -25 -10 -33 -7 -45 19 -8 18 -19 25
-37 25 -39 -1 -126 -26 -126 -36 1 -21 29 -124 33 -124 3 0 31 7 63 16 39 11
59 22 62 35 3 10 14 19 24 19 15 0 22 -11 31 -47 6 -27 13 -55 17 -64 10 -26
-36 -34 -53 -10 -13 19 -16 19 -65 4 -29 -8 -54 -17 -56 -19 -2 -2 2 -31 9
-64 16 -76 30 -85 101 -64 62 18 79 35 79 79 0 24 6 35 24 43 31 14 36 2 36
-78 0 -47 -3 -60 -17 -64 -105 -30 -286 -77 -288 -74 -2 2 -24 84 -50 183 -26
99 -50 188 -53 198 -4 15 -12 18 -38 15 -23 -3 -34 0 -35 9 -1 7 -2 18 -3 25
-1 11 295 95 341 97 17 1 25 -10 41 -58z m1378 18 c8 -14 67 -519 61 -526 -3
-2 -25 1 -50 7 l-45 12 -7 79 -7 79 -71 22 -71 21 -28 -34 c-34 -41 -35 -47
-3 -55 24 -6 35 -37 17 -48 -10 -6 -142 32 -142 41 0 9 324 413 332 413 4 0
10 -5 14 -11z m-1806 -303 c0 -128 3 -247 6 -264 5 -23 2 -32 -12 -40 -16 -8
-46 15 -191 149 -124 114 -179 159 -197 159 -13 0 -27 7 -30 16 -8 20 -10 17
31 38 83 42 73 46 196 -67 166 -151 150 -148 143 -31 -4 54 -9 131 -12 171 -5
71 -4 72 23 87 15 8 31 15 36 16 4 0 7 -105 7 -234z m2206 157 c144 -71 185
-105 203 -170 35 -124 -16 -245 -124 -299 -81 -39 -150 -32 -273 30 -50 25
-92 48 -92 50 0 3 95 204 149 315 17 36 31 68 31 71 0 4 -11 12 -24 18 -18 8
-23 16 -19 31 3 12 8 21 10 21 3 0 66 -30 139 -67z m-756 -532 c374 -68 707
-219 1000 -451 103 -82 293 -277 372 -380 654 -863 585 -2068 -164 -2845 -189
-197 -382 -338 -623 -456 -307 -149 -613 -219 -964 -219 -980 0 -1847 660
-2105 1603 -227 829 45 1715 694 2259 320 269 715 444 1125 502 161 22 510 16
665 -13z m1587 -152 c97 -37 120 -160 43 -234 -23 -22 -41 -29 -82 -32 -88 -7
-151 48 -151 132 0 102 96 170 190 134z m-3924 -43 c54 -22 87 -70 87 -124 0
-85 -54 -143 -134 -144 -151 -3 -201 197 -66 264 42 22 70 22 113 4z m-663
-587 c-9 -16 -7 -21 17 -30 105 -38 383 -166 383 -176 0 -26 -35 -41 -209 -88
-99 -27 -181 -52 -181 -56 0 -3 57 -30 128 -59 70 -29 129 -54 131 -56 3 -3
-16 -59 -24 -72 -1 -1 -91 37 -201 84 -109 47 -209 90 -221 95 -20 7 -21 11
-12 39 6 16 14 32 18 35 4 2 81 24 170 49 90 25 165 47 167 49 3 2 -51 28
-118 57 -68 29 -124 54 -126 55 -2 1 9 28 24 58 24 48 30 54 46 46 15 -8 16
-14 8 -30z m5196 -45 l25 -57 -33 -36 c-18 -20 -73 -78 -123 -129 l-90 -93
177 7 177 7 11 -28 c6 -15 9 -29 8 -30 -2 -2 -121 -6 -265 -10 -238 -7 -263
-6 -269 9 -4 11 39 64 155 185 116 122 161 177 161 194 0 59 36 48 66 -19z
m187 -469 c9 -24 13 -47 9 -49 -23 -13 -445 -137 -450 -131 -4 3 -12 24 -18
45 l-12 39 102 31 c55 17 155 49 221 70 66 21 123 39 127 39 3 1 13 -19 21
-44z m-5337 -6 c127 -59 175 -200 108 -319 -17 -29 -49 -67 -73 -84 -41 -29
-48 -31 -135 -31 -86 0 -96 2 -141 30 -27 17 -63 50 -80 74 -27 38 -30 51 -30
115 0 63 4 79 30 121 69 112 200 150 321 94z m5402 -218 c17 -109 18 -131 7
-175 -14 -55 -39 -81 -90 -95 -48 -13 -83 -3 -121 35 l-33 34 -66 -77 c-56
-65 -65 -82 -65 -115 0 -33 -3 -38 -23 -38 -21 0 -24 7 -35 73 l-11 72 102
104 c56 56 93 101 82 98 -41 -11 -216 -39 -219 -36 -2 2 -6 24 -10 49 l-7 46
202 34 c110 19 206 38 212 42 6 4 10 22 9 42 -2 26 2 35 15 38 10 3 21 2 25
-1 3 -3 15 -62 26 -130z m-5598 -379 l185 -144 3 92 c3 98 -6 122 -49 135 -12
4 -19 16 -19 32 0 21 3 24 23 19 12 -3 46 -11 75 -17 61 -14 57 9 40 -236 -11
-164 -13 -173 -32 -173 -12 0 -99 66 -201 152 l-180 151 -7 -79 c-9 -93 1
-127 43 -144 23 -10 29 -19 29 -42 0 -23 -4 -28 -17 -24 -10 2 -44 10 -75 16
-43 9 -58 16 -58 28 0 9 7 98 15 197 8 99 15 184 15 188 0 12 5 8 210 -151z
m5660 -207 l0 -205 -55 -2 c-30 -1 -63 -2 -72 -2 -11 -1 -19 8 -21 21 -3 18 5
26 36 39 39 15 52 34 52 77 0 16 -17 17 -210 17 l-210 0 0 48 0 49 122 6 c66
4 161 7 211 7 l89 0 -7 37 c-9 49 -10 51 -48 61 -22 6 -33 15 -35 30 -3 21 0
22 72 22 l76 0 0 -205z m-5416 -166 c4 -22 4 -45 0 -50 -3 -5 -32 -23 -64 -39
-32 -16 -61 -34 -65 -39 -3 -6 -3 -40 1 -76 6 -59 10 -67 35 -80 44 -23 69
-19 69 9 0 26 35 46 50 29 4 -4 11 -40 15 -80 l7 -71 -253 76 c-181 56 -255
82 -263 96 -7 12 -7 20 -1 23 6 2 109 57 230 123 121 66 223 120 226 120 4 0
9 -18 13 -41z m5412 -126 c-3 -16 -8 -50 -12 -78 -4 -27 -8 -53 -10 -56 -2 -3
-54 2 -116 12 -156 26 -259 25 -283 -1 -23 -26 -32 -104 -14 -136 21 -40 55
-52 225 -79 87 -14 159 -27 161 -29 7 -7 -9 -56 -19 -56 -5 0 -80 11 -166 25
-179 29 -234 51 -264 105 -27 48 -20 150 12 209 48 84 103 98 277 70 164 -26
163 -26 163 11 0 26 4 30 26 30 23 0 25 -3 20 -27z m-5337 -380 l22 -62 -81
-112 c-45 -61 -80 -113 -77 -115 2 -3 48 11 102 31 54 19 100 34 102 32 1 -2
9 -24 16 -49 l14 -45 -146 -48 c-257 -84 -253 -82 -249 -118 2 -26 -1 -33 -17
-35 -18 -2 -25 12 -58 111 -40 123 -45 172 -22 218 36 69 137 91 195 43 l31
-27 17 24 c88 120 94 133 88 176 -4 34 -2 42 12 46 23 5 25 2 51 -70z m4991
-88 c101 -36 189 -65 195 -65 7 0 17 11 23 25 12 26 20 29 46 19 12 -5 7 -28
-33 -145 -55 -159 -83 -202 -155 -235 -63 -29 -126 -30 -186 -3 -124 56 -176
150 -151 270 14 66 61 199 70 199 4 0 90 -29 191 -65z m-3210 -1920 l0 -285
-85 0 c-84 0 -85 0 -85 25 0 22 4 25 35 25 l35 0 0 210 c0 210 0 211 -21 200
-26 -14 -49 -6 -49 17 0 12 24 31 68 55 110 61 102 82 102 -247z m417 247 c16
-11 43 -40 59 -63 27 -39 29 -49 29 -133 0 -78 -4 -99 -27 -148 -50 -108 -161
-186 -269 -191 -49 -2 -54 0 -57 21 -3 16 2 22 15 22 35 0 121 48 146 81 23
31 67 112 67 123 0 2 -13 -9 -29 -25 -43 -42 -89 -40 -140 7 -48 43 -65 88
-59 160 6 66 46 130 98 157 46 24 126 19 167 -11z m430 17 c65 -24 104 -92 89
-154 -7 -26 -51 -55 -85 -55 -19 0 -19 2 -6 41 18 50 11 83 -22 109 -35 27
-69 25 -98 -6 -38 -41 -32 -63 36 -124 162 -145 190 -175 199 -213 31 -140
-147 -230 -273 -139 -79 57 -83 136 -11 221 l37 42 -31 32 c-56 59 -68 131
-29 187 41 61 123 86 194 59z m472 -3 c46 -24 88 -80 101 -136 28 -116 -10
-241 -99 -323 -59 -56 -114 -82 -188 -92 -52 -7 -53 -6 -53 18 0 21 7 26 45
36 57 14 118 69 151 134 29 57 27 67 -6 32 -58 -61 -172 2 -196 108 -16 76 32
183 98 218 40 22 109 24 147 5z"/>
<path d="M3692 6343 c-6 -16 -18 -93 -27 -172 -17 -162 -18 -161 51 -161 46 0
94 28 128 73 31 42 35 160 8 214 -23 44 -70 73 -120 73 -23 0 -32 -6 -40 -27z"/>
<path d="M3140 6351 c-6 -11 -7 -45 -4 -80 6 -54 9 -61 29 -61 12 0 34 9 49
21 37 29 37 89 0 118 -33 26 -60 27 -74 2z"/>
<path d="M4175 6145 c-20 -25 -36 -47 -34 -49 2 -2 23 -8 47 -14 l43 -10 -7
56 c-3 32 -8 58 -9 60 -1 1 -19 -18 -40 -43z"/>
<path d="M4644 6102 c-19 -14 -144 -261 -144 -282 0 -4 23 -17 50 -29 64 -28
105 -21 159 25 39 34 81 119 81 165 0 34 -39 99 -73 119 -39 24 -46 24 -73 2z"/>
<path d="M3682 5405 c-16 -34 -18 -30 33 -65 36 -25 45 -37 45 -60 0 -18 5
-30 13 -30 24 0 28 13 10 32 -18 20 -11 23 18 8 16 -9 19 -7 19 9 0 11 -4 22
-10 26 -5 3 -7 12 -4 20 8 19 -62 85 -90 85 -15 0 -27 -9 -34 -25z"/>
<path d="M3836 5404 c-21 -20 -20 -31 4 -51 28 -24 28 -83 0 -83 -11 0 -23 -7
-26 -15 -3 -8 -14 -17 -24 -20 -31 -10 -31 -33 0 -52 19 -11 28 -23 25 -33 -3
-9 1 -25 9 -36 14 -18 17 -18 43 -4 56 31 30 102 -31 86 -13 -3 -31 0 -40 7
-17 12 -16 15 9 31 27 18 91 18 173 1 38 -8 62 7 62 39 0 50 -61 63 -100 21
-13 -14 -32 -25 -42 -25 -14 0 -18 8 -18 39 0 22 5 43 10 46 16 10 12 52 -6
59 -24 9 -31 8 -48 -10z"/>
<path d="M3260 5359 c-9 -15 -9 -28 -2 -44 8 -17 6 -29 -9 -54 -10 -17 -23
-31 -29 -31 -15 0 -12 26 5 40 32 27 11 70 -35 70 -52 0 -67 -45 -25 -78 14
-11 25 -29 25 -40 0 -18 -4 -18 -50 -9 -47 9 -50 11 -50 41 0 17 7 39 15 50
10 13 11 24 4 37 -13 25 -41 24 -64 -1 -18 -20 -18 -21 3 -43 23 -25 30 -77
10 -77 -6 0 -31 9 -54 20 -35 17 -46 19 -67 9 -31 -14 -40 -34 -27 -59 20 -38
103 -45 125 -11 7 12 60 14 118 5 l38 -7 -22 -23 c-15 -16 -34 -24 -54 -24
-25 0 -35 -6 -44 -26 -10 -22 -9 -30 6 -46 10 -11 27 -18 42 -16 21 2 27 9 29
33 2 18 16 42 34 58 l31 29 47 -22 47 -22 -5 -47 c-7 -68 -14 -73 -96 -68 -39
3 -87 8 -108 12 -31 6 -38 4 -53 -18 -19 -29 -12 -67 15 -92 27 -25 68 -12 76
23 4 15 11 33 17 40 9 12 97 18 97 6 0 -3 -11 -15 -25 -26 -31 -24 -32 -62 -3
-82 52 -37 80 -8 76 76 -3 47 -1 53 17 53 17 0 20 -7 20 -40 0 -22 4 -46 8
-52 11 -18 52 -16 67 2 18 22 -2 63 -33 70 -36 10 -65 93 -38 109 15 9 80 -74
87 -109 6 -31 -10 -441 -22 -598 -4 -43 -10 -75 -14 -70 -4 4 -13 39 -19 77
-15 89 -48 153 -103 199 -24 20 -46 37 -50 37 -14 0 15 61 33 71 23 12 25 42
3 60 -11 9 -20 10 -32 2 -13 -8 -16 -22 -14 -62 3 -38 0 -51 -10 -51 -34 1
-40 17 -37 91 l4 74 -30 0 c-24 0 -31 -5 -33 -23 -2 -13 5 -29 17 -40 25 -21
39 -72 20 -72 -7 0 -20 7 -30 16 -20 18 -59 11 -59 -10 0 -22 28 -39 53 -32
27 6 115 -33 107 -49 -3 -5 -17 -10 -32 -10 -34 -1 -51 -16 -46 -41 6 -32 44
-29 69 5 13 17 27 31 31 31 20 0 58 -106 58 -162 0 -32 -3 -58 -8 -58 -15 0
-148 83 -215 133 -71 54 -121 118 -132 168 -4 16 -10 60 -14 97 l-8 67 -17
-40 c-25 -55 -18 -143 17 -219 l27 -59 -73 5 c-55 4 -89 13 -141 38 l-70 33
28 23 c33 29 67 31 91 4 30 -33 85 -24 85 14 0 43 -53 63 -80 31 -15 -17 -46
-20 -56 -4 -9 15 11 32 53 44 46 13 61 35 45 69 -8 19 -19 26 -40 26 -36 0
-52 -16 -52 -52 0 -41 -17 -34 -43 18 l-22 46 28 20 c35 25 36 62 2 84 -31 20
-69 12 -91 -20 -14 -22 -14 -27 0 -54 9 -17 19 -32 24 -34 4 -1 20 -25 36 -51
32 -56 30 -80 -13 -121 -33 -32 -57 -27 -81 18 -11 22 -11 28 2 43 33 38 49
82 38 103 -12 22 -49 27 -68 8 -17 -17 -15 -63 3 -78 18 -15 20 -43 3 -38 -18
6 -57 107 -58 147 0 24 8 43 26 62 53 55 4 141 -62 110 -23 -10 -25 -16 -21
-54 3 -23 11 -70 19 -105 8 -35 11 -65 6 -68 -4 -3 -8 -14 -8 -26 0 -36 -29
-83 -59 -95 -36 -13 -51 -41 -40 -70 10 -28 50 -31 74 -6 12 11 15 26 12 49
-3 20 0 39 8 51 8 10 15 36 15 58 l0 40 25 -43 c13 -23 38 -62 56 -86 37 -52
32 -71 -18 -61 -67 12 -110 -48 -64 -89 32 -29 57 -14 110 62 14 20 15 20 55
-14 22 -19 43 -34 48 -34 4 0 8 -5 8 -11 0 -6 -11 -8 -28 -4 -60 13 -98 -62
-41 -80 23 -7 69 18 69 38 0 31 21 33 93 10 39 -13 110 -27 157 -30 l85 -6
100 -76 c55 -41 128 -105 164 -141 l64 -65 -6 -166 c-7 -175 -24 -442 -33
-496 l-5 -31 -59 21 -60 22 25 18 c30 22 32 57 6 81 -15 14 -29 16 -61 11 -49
-8 -75 7 -60 35 14 26 43 33 87 20 27 -8 46 -9 66 -1 60 23 15 133 -48 117
-15 -4 -35 -21 -47 -41 -11 -19 -24 -32 -29 -29 -5 3 -9 29 -9 58 0 57 19 86
57 86 23 0 37 14 47 47 11 35 -40 85 -88 86 -27 1 -42 -5 -52 -18 -16 -22 -19
-91 -4 -100 6 -3 10 -46 10 -94 0 -67 -4 -92 -15 -101 -20 -16 -19 -17 -40 55
-9 33 -32 89 -51 125 -19 35 -34 70 -34 76 0 7 11 25 24 41 36 43 41 75 17 97
-49 44 -102 -17 -68 -77 31 -54 17 -53 -43 4 -67 63 -69 79 -14 105 60 28 70
87 18 100 -38 10 -66 -21 -63 -71 4 -78 0 -80 -72 -33 -48 31 -49 32 -43 72 4
23 13 49 21 58 19 21 13 57 -12 74 -16 11 -25 11 -45 1 -37 -18 -37 -52 -1
-93 31 -35 36 -46 25 -57 -9 -9 -103 29 -128 51 -32 29 -56 34 -82 17 -43 -28
-27 -95 27 -114 25 -9 37 -7 68 9 37 19 38 18 103 -4 61 -21 149 -73 163 -96
11 -18 -25 -10 -45 10 -26 26 -55 25 -81 -1 -27 -27 -21 -61 14 -77 24 -12 32
-11 70 8 48 24 85 24 100 -1 7 -11 2 -26 -19 -57 -16 -23 -37 -44 -46 -47 -18
-6 -160 60 -167 78 -10 27 -52 57 -80 57 -60 0 -95 -96 -51 -140 29 -29 65
-25 90 10 26 37 39 37 101 4 52 -29 55 -44 8 -44 -32 0 -79 -38 -79 -63 0 -25
41 -67 64 -67 32 0 55 30 70 87 10 41 16 48 39 51 24 3 27 0 27 -26 0 -16 -9
-37 -20 -47 -31 -28 -23 -76 13 -93 25 -12 31 -12 48 4 26 24 25 78 -3 104
-29 27 -28 83 3 116 l23 25 13 -23 c43 -77 63 -210 46 -312 l-6 -39 -68 6
c-86 7 -236 57 -320 107 -121 72 -185 167 -211 312 -9 51 -8 63 12 103 22 46
22 79 -2 135 -24 58 -38 76 -72 94 l-36 20 -30 -29 c-17 -16 -30 -34 -30 -39
0 -6 -6 -23 -14 -37 -14 -28 -9 -98 11 -133 6 -11 28 -31 49 -46 26 -17 43
-39 52 -64 7 -22 11 -40 9 -42 -2 -2 -25 5 -53 15 -27 11 -70 22 -96 26 l-48
7 3 60 c2 52 -1 62 -20 75 -19 13 -23 13 -42 -6 -28 -28 -26 -43 10 -79 17
-17 28 -35 25 -41 -4 -5 -32 -15 -64 -21 -31 -7 -74 -19 -95 -27 -43 -18 -58
-11 -35 14 9 10 23 35 31 55 9 20 26 44 40 53 36 23 40 53 12 81 -29 29 -39
30 -66 3 -16 -16 -19 -28 -14 -47 17 -66 16 -97 -5 -122 -16 -21 -22 -22 -29
-11 -6 10 -5 22 5 35 29 43 11 86 -36 86 -59 0 -71 -66 -16 -98 55 -33 51 -92
-7 -92 -8 0 -26 -10 -41 -21 -34 -26 -31 -58 6 -78 25 -14 29 -14 55 5 15 12
30 34 33 49 3 19 16 36 38 48 42 25 105 40 99 24 -2 -7 -17 -14 -33 -15 -62
-7 -86 -67 -40 -97 19 -12 29 -14 44 -6 20 11 42 59 42 92 0 55 72 63 160 19
80 -40 119 -77 200 -186 111 -150 226 -225 406 -264 86 -18 230 -63 241 -74
13 -12 -78 -156 -98 -156 -15 0 -10 33 11 65 26 39 25 60 -2 79 -32 23 -55 20
-73 -8 -19 -29 -8 -61 25 -71 22 -7 28 -45 6 -45 -26 0 -66 48 -66 80 0 46
-16 70 -48 70 -34 0 -52 -16 -52 -46 0 -23 33 -54 58 -54 8 0 30 -13 49 -30
18 -16 43 -30 53 -30 32 0 23 -18 -21 -40 -60 -31 -81 -24 -99 33 -18 55 -40
73 -70 57 -43 -23 -11 -90 42 -90 14 0 28 -7 32 -15 4 -12 -5 -15 -49 -15 -59
0 -65 5 -80 65 -9 35 -14 40 -42 43 -28 3 -33 -1 -39 -23 -8 -34 19 -65 58
-65 15 0 28 -4 28 -10 0 -19 -41 -10 -76 16 -28 22 -37 24 -49 14 -8 -7 -15
-20 -15 -30 0 -34 25 -42 109 -37 76 5 80 5 96 -19 8 -13 22 -24 29 -24 23 0
67 -60 60 -82 -3 -10 2 -30 11 -44 13 -20 23 -25 48 -22 28 3 32 7 35 36 4 41
-12 62 -48 62 -15 0 -35 9 -46 21 -10 12 -34 28 -51 36 -18 7 -33 17 -33 22 0
4 28 11 63 14 34 3 69 8 78 10 30 5 148 87 209 144 l60 55 65 -46 c35 -26 69
-55 75 -66 16 -29 13 -414 -4 -475 -33 -125 -90 -212 -195 -298 -93 -78 -126
-99 -310 -202 -80 -44 -146 -86 -149 -93 -3 -9 24 -12 108 -12 l112 0 142 90
c143 90 206 120 255 120 65 0 125 -72 138 -165 l6 -45 98 0 99 0 0 31 c0 94
51 159 123 159 56 0 121 -32 244 -119 l102 -72 116 3 116 3 -247 165 c-135 91
-259 180 -275 198 -76 86 -96 173 -105 457 -6 183 -5 214 9 241 24 47 64 91
114 125 l44 31 72 -69 c88 -84 124 -110 195 -139 l55 -22 -31 -16 c-48 -25
-54 -78 -11 -91 32 -11 49 12 49 66 l0 48 70 -3 c39 -2 73 -6 76 -9 3 -3 -12
-17 -35 -31 -22 -14 -45 -35 -51 -46 -6 -11 -19 -20 -28 -20 -27 0 -42 -20
-42 -57 0 -46 32 -63 69 -35 22 17 26 26 23 62 -2 36 2 48 25 72 14 15 30 28
35 28 16 0 8 -40 -12 -60 -25 -25 -25 -41 -1 -71 16 -20 23 -22 47 -14 41 14
45 62 10 100 -15 16 -26 38 -26 50 0 25 22 48 42 44 7 -2 22 2 33 8 11 6 35 8
54 5 l34 -5 -24 -13 c-13 -7 -35 -11 -49 -9 -24 4 -24 4 2 -7 16 -7 30 -20 34
-30 9 -31 42 -42 70 -23 32 21 32 62 0 76 -20 10 -23 15 -14 29 30 47 -38 71
-69 24 -18 -28 -65 -52 -71 -35 -2 5 -14 3 -30 -5 -36 -18 -82 -18 -82 0 0 8
15 19 34 26 37 12 51 41 35 72 -21 39 -69 15 -69 -35 0 -65 -35 -82 -107 -52
l-36 15 35 33 c19 17 38 42 42 55 4 13 15 22 27 22 39 0 59 19 59 55 0 44 -28
62 -68 43 -24 -12 -27 -19 -27 -67 0 -46 -4 -56 -30 -79 l-30 -25 -3 22 c-2
14 6 33 19 48 22 22 22 26 8 51 -18 33 -42 39 -74 18 -33 -22 -32 -60 1 -91
18 -17 24 -32 22 -51 l-3 -27 -45 34 c-49 38 -96 107 -106 156 -7 36 -25 29
184 77 63 14 160 44 217 67 l103 41 32 -19 c17 -10 45 -25 61 -34 16 -9 37
-26 46 -37 20 -23 102 -43 148 -35 17 3 42 15 57 27 25 19 27 25 19 54 -12 40
-64 93 -119 122 l-42 22 -56 -22 c-30 -13 -57 -20 -60 -17 -10 10 93 150 152
210 63 61 129 102 187 112 40 8 45 0 26 -38 -23 -44 -52 -67 -84 -67 -51 0
-85 -56 -53 -88 31 -31 78 -3 78 47 0 21 32 46 44 34 14 -14 4 -54 -19 -79
-44 -47 -25 -98 35 -92 45 4 67 42 44 73 -40 55 -30 65 33 34 47 -23 48 -25
48 -69 0 -37 4 -46 24 -56 32 -16 62 -4 85 35 15 26 16 37 7 57 -12 27 -54 47
-81 39 -9 -3 -48 7 -86 22 -80 33 -90 55 -53 117 19 32 25 37 48 31 38 -9 50
-25 60 -78 4 -26 14 -54 21 -62 27 -32 90 -7 90 35 0 23 -37 60 -61 60 -9 0
-22 7 -29 15 -19 23 -1 18 65 -18 49 -27 61 -37 66 -65 12 -61 53 -86 100 -62
37 20 11 90 -33 90 -9 0 -26 8 -37 18 -29 22 -18 52 29 84 45 30 52 70 16 93
-26 17 -50 11 -75 -19 -10 -12 -10 -22 0 -51 17 -47 -1 -70 -26 -32 -21 33
-22 81 -1 102 21 22 20 48 -3 69 -27 24 -62 17 -81 -17 -14 -27 -14 -29 16
-56 17 -16 34 -43 38 -61 3 -19 16 -45 29 -59 25 -28 34 -29 -100 16 -86 29
-102 48 -65 75 45 32 48 84 4 95 -38 9 -55 -20 -47 -84 l6 -51 -58 -7 c-51 -7
-137 -29 -184 -49 -14 -6 -16 0 -11 42 2 27 0 57 -5 66 -7 13 -16 -5 -37 -76
-15 -51 -38 -112 -52 -134 -35 -62 -148 -160 -228 -199 -62 -31 -218 -74 -268
-75 -38 0 -53 186 -23 286 21 73 54 144 66 144 5 0 21 -12 34 -26 33 -36 33
-86 0 -126 -29 -34 -31 -55 -9 -86 18 -26 41 -28 72 -6 28 20 28 55 -1 91 -26
32 -25 73 2 73 24 0 41 -20 41 -49 1 -62 52 -109 97 -88 26 12 38 45 29 81 -6
25 -66 54 -86 41 -5 -3 -10 0 -10 8 0 8 15 24 33 34 58 34 66 35 99 3 80 -76
164 18 90 101 -27 31 -30 31 -65 20 -23 -8 -43 -23 -51 -39 -14 -27 -127 -92
-160 -92 -9 0 -39 21 -67 47 -38 35 -52 44 -61 35 -21 -21 -30 -13 -24 21 11
57 -45 102 -82 65 -27 -27 0 -88 40 -88 9 0 22 -7 29 -16 11 -14 10 -21 -6
-48 -53 -89 -87 -157 -106 -216 -26 -79 -32 -86 -53 -64 -15 14 -17 31 -12
103 2 47 8 107 11 132 8 53 -9 79 -53 79 -35 0 -88 -33 -97 -60 -9 -30 18 -67
55 -75 40 -9 55 -40 46 -99 -8 -49 -20 -59 -31 -26 -16 49 -77 67 -107 33 -60
-69 -4 -125 91 -92 28 10 35 9 57 -12 24 -22 24 -24 7 -41 -15 -15 -25 -16
-52 -8 -54 15 -92 -19 -76 -69 15 -47 99 -31 113 21 6 26 56 70 65 58 2 -3 1
-28 -1 -56 l-4 -52 -64 -15 c-35 -9 -92 -28 -127 -42 -100 -42 -94 -43 -100
17 -4 29 -9 127 -12 218 -3 91 -8 203 -11 250 l-5 85 53 70 c68 90 125 147
219 218 62 47 83 57 115 57 53 0 131 22 210 59 65 31 84 32 84 7 0 -18 33 -46
55 -46 17 0 17 -1 2 -18 -23 -25 -21 -74 4 -106 11 -14 19 -33 17 -42 -2 -14
-116 -84 -135 -84 -14 0 11 55 33 72 29 23 31 58 6 81 -49 44 -102 -7 -69 -65
29 -50 18 -78 -15 -40 -32 36 -38 58 -25 92 11 29 10 33 -12 51 -32 26 -57 24
-77 -6 -23 -35 -12 -72 25 -80 20 -4 33 -16 41 -36 7 -16 26 -40 41 -54 16
-13 29 -28 29 -34 0 -6 21 2 48 18 46 29 157 71 185 71 8 0 20 -7 27 -15 20
-24 77 -19 105 10 29 28 31 51 9 83 -21 30 -53 28 -96 -8 -62 -51 -125 -65
-80 -17 48 51 46 113 -6 123 -24 5 -28 10 -24 33 5 33 -12 48 -56 53 l-32 3
46 38 c51 41 62 39 90 -14 17 -34 48 -52 74 -44 27 9 35 42 16 70 -13 20 -25
25 -61 25 -24 0 -46 4 -50 10 -3 5 10 29 29 54 19 25 40 61 47 80 l13 35 18
-52 c11 -29 19 -67 18 -86 0 -18 4 -39 11 -47 17 -20 53 -17 75 7 17 19 17 23
3 47 -8 15 -24 28 -35 30 -23 3 -44 40 -44 77 0 18 4 23 15 19 8 -4 15 -16 15
-29 0 -30 22 -47 57 -43 23 2 29 8 31 34 4 42 -19 59 -82 59 -48 0 -51 1 -54
28 -2 16 6 56 17 90 33 96 26 130 -28 130 -57 0 -94 -62 -55 -94 27 -22 46
-69 39 -98 -13 -55 -58 -142 -68 -132 -6 6 -3 18 7 32 40 58 -11 146 -54 94
-14 -17 -7 -70 14 -94 25 -30 26 -50 2 -78 -22 -25 -25 -26 -56 -13 -18 7 -41
27 -50 43 -18 30 -18 31 9 81 15 28 39 64 54 80 32 34 34 57 9 79 -22 20 -73
22 -90 5 -19 -19 -14 -63 8 -83 26 -23 25 -39 -2 -83 l-22 -35 -10 38 c-14 49
-36 64 -70 45 -53 -28 -36 -86 27 -92 36 -4 58 -31 39 -50 -10 -10 -18 -9 -41
5 -36 21 -65 22 -81 2 -18 -22 -8 -48 22 -59 23 -8 32 -6 52 13 21 20 31 22
63 16 39 -7 63 -21 63 -36 0 -25 -172 -89 -241 -89 l-37 0 19 61 c13 42 19 96
21 175 l2 114 -34 30 c-34 30 -87 47 -116 36 -12 -4 -14 -18 -12 -63 3 -48 8
-62 34 -90 20 -21 41 -33 58 -33 24 0 26 -3 26 -40 0 -24 -11 -62 -26 -93 -51
-100 -292 -311 -316 -276 -22 34 20 209 50 209 5 0 18 -14 31 -31 25 -34 63
-37 69 -5 5 25 -13 40 -50 41 -38 0 -46 15 -17 33 16 10 27 10 55 0 19 -6 34
-17 34 -24 0 -18 26 -35 44 -28 9 3 21 15 27 26 16 30 -5 47 -56 45 -43 -2
-65 7 -51 20 3 4 23 6 44 6 56 -2 81 26 43 46 -14 8 -25 6 -42 -8 -13 -10 -42
-24 -64 -32 -123 -42 -191 -138 -197 -276 -1 -30 -8 -59 -14 -64 -15 -12 -19
23 -33 266 -18 304 -21 439 -12 473 9 29 8 32 -13 32 -27 0 -146 58 -146 70 0
18 63 80 86 86 40 10 80 106 64 150 -16 42 -96 23 -141 -34 -18 -23 -20 -35
-14 -92 8 -93 2 -97 -81 -54 -38 20 -71 38 -73 40 -3 3 4 11 16 19 11 8 25 27
32 42 6 16 22 33 34 38 16 7 22 19 22 40 0 26 -4 30 -32 33 -24 2 -34 -2 -43
-19z m-172 -1765 c12 -8 22 -23 22 -33 0 -10 7 -24 15 -31 24 -20 11 -23 -28
-7 -29 13 -35 21 -39 51 -5 40 -2 42 30 20z"/>
<path d="M3568 5194 c-11 -24 -10 -29 15 -50 l28 -24 -27 -35 c-32 -42 -18
-46 27 -8 l32 28 -6 -40 c-4 -22 -12 -42 -19 -44 -20 -7 -58 -49 -58 -65 0
-16 26 -46 40 -46 4 0 18 8 30 18 20 16 22 23 13 49 -7 19 -7 35 -1 47 9 16
11 16 28 1 14 -12 17 -26 13 -56 -9 -65 42 -103 80 -61 27 30 22 70 -10 84
-16 7 -30 14 -33 16 -11 8 28 22 62 22 31 0 40 -5 52 -29 21 -39 44 -46 76
-23 33 25 38 74 10 102 -22 22 -50 20 -80 -5 -8 -7 -45 -16 -83 -20 -80 -9
-97 1 -98 54 0 20 -3 30 -6 24 -2 -7 -9 -13 -14 -13 -5 0 -4 9 3 20 8 12 16
16 22 10 9 -9 85 47 86 63 0 5 -20 -3 -44 -17 -54 -32 -54 -32 -58 -3 -2 17
-11 23 -35 25 -27 3 -35 -1 -45 -24z"/>
<path d="M2327 4752 c-23 -25 -21 -45 4 -68 18 -17 23 -17 46 -4 35 20 48 66
23 80 -28 15 -55 12 -73 -8z"/>
<path d="M3736 4714 c-24 -23 -17 -44 17 -57 9 -3 18 -17 18 -29 1 -13 6 -2
11 25 8 35 7 51 -2 62 -16 19 -25 19 -44 -1z"/>
<path d="M3286 4635 c-22 -33 -21 -35 14 -35 18 0 33 7 38 18 23 43 -25 59
-52 17z"/>
<path d="M3647 4633 c-24 -24 14 -70 47 -57 20 8 20 14 0 42 -15 22 -35 28
-47 15z"/>
<path d="M2766 4324 c-18 -17 -20 -42 -7 -63 6 -9 2 -26 -11 -47 -11 -19 -18
-34 -15 -34 3 0 15 16 26 36 19 31 26 36 52 32 39 -6 59 27 41 67 -14 29 -61
35 -86 9z"/>
<path d="M4250 4100 c-8 -5 -26 -7 -40 -4 -23 5 -24 4 -5 -7 11 -7 34 -28 51
-46 45 -47 94 -41 94 12 0 43 -60 70 -100 45z"/>
<path d="M2145 3853 c19 -39 -90 -93 -186 -93 -52 0 -79 -18 -79 -51 0 -31 18
-57 51 -75 28 -14 33 -14 55 1 19 12 24 24 24 56 0 38 2 41 46 59 71 31 85 22
40 -23 -28 -28 -25 -59 7 -82 28 -19 52 -19 71 1 22 22 20 45 -9 89 -17 23
-23 44 -20 57 10 29 38 17 46 -19 9 -45 28 -65 58 -61 20 2 27 9 29 31 5 38
-23 67 -62 67 -21 0 -38 9 -54 28 -13 15 -21 21 -17 15z"/>
<path d="M4362 3293 c-5 -10 -12 -34 -15 -54 -5 -36 -5 -36 26 -30 41 9 62 47
43 76 -18 27 -42 30 -54 8z"/>
<path d="M2880 3115 c0 -39 18 -65 45 -65 54 0 36 67 -22 85 -20 5 -23 3 -23
-20z"/>
<path d="M2513 3114 c-16 -7 -17 -38 -3 -65 14 -25 66 -26 74 -1 3 9 6 22 7
27 0 6 10 15 22 22 21 11 21 11 -3 12 -14 0 -38 2 -55 5 -16 3 -36 3 -42 0z"/>
<path d="M2695 3034 c-35 -54 19 -111 65 -69 27 25 25 50 -6 74 -34 27 -38 26
-59 -5z"/>
<path d="M3383 2038 c2 -7 17 -53 32 -103 15 -49 30 -94 35 -98 4 -5 22 36 40
90 18 54 35 104 38 111 3 9 -16 12 -73 12 -58 0 -76 -3 -72 -12z"/>
<path d="M2730 2027 c0 -7 15 -58 33 -112 l34 -100 27 85 c15 47 31 97 36 113
l9 27 -70 0 c-50 0 -69 -4 -69 -13z"/>
<path d="M4040 2032 c0 -4 14 -52 31 -106 16 -53 29 -101 27 -106 -2 -4 -50 7
-108 25 l-105 33 -3 -70 c-2 -39 -1 -72 1 -74 2 -2 50 12 107 31 57 19 105 33
108 31 2 -3 -10 -50 -27 -104 -17 -55 -31 -103 -31 -106 0 -3 33 -6 73 -6 l74
0 -38 110 c-21 61 -35 110 -31 110 5 0 55 -16 112 -35 57 -19 105 -33 107 -31
2 2 3 35 1 73 l-3 70 -89 -28 c-152 -47 -140 -55 -100 63 19 56 34 108 34 115
0 9 -19 13 -70 13 -38 0 -70 -4 -70 -8z"/>
<path d="M3220 1823 c0 -38 3 -72 6 -75 7 -7 214 61 214 70 0 6 -123 48 -202
70 -16 4 -18 -4 -18 -65z"/>
<path d="M3573 1857 c-56 -18 -109 -39 -117 -47 -8 -8 -26 -54 -40 -103 -15
-48 -29 -94 -32 -102 -5 -12 7 -15 70 -15 42 0 76 2 76 4 0 2 -16 50 -36 106
-19 56 -33 104 -30 107 3 3 52 -11 110 -30 57 -19 107 -33 110 -29 9 8 7 142
-1 141 -5 0 -54 -15 -110 -32z"/>
<path d="M2570 1810 c0 -49 4 -70 12 -70 7 0 55 14 106 31 51 17 95 29 97 27
3 -2 -10 -50 -27 -106 -17 -56 -29 -105 -26 -108 3 -3 35 -4 71 -2 l65 3 -33
105 c-18 58 -31 106 -30 108 2 2 48 -10 103 -27 54 -17 102 -31 106 -31 3 0 6
32 6 70 0 39 -2 70 -5 70 -3 0 -52 -16 -110 -36 l-104 -36 -108 36 c-59 20
-111 36 -116 36 -4 0 -7 -31 -7 -70z"/>
<path d="M755 4276 c-16 -7 -41 -26 -55 -41 -34 -36 -35 -106 -2 -152 53 -75
206 -104 286 -54 45 28 70 79 61 123 -22 96 -190 168 -290 124z"/>
<path d="M6193 4073 c-41 -5 -43 -29 -7 -72 29 -35 59 -39 103 -16 32 16 45
49 30 77 -10 18 -43 21 -126 11z"/>
<path d="M777 3205 c-62 -36 -62 -40 -2 -57 l55 -15 -1 31 c-1 59 -9 65 -52
41z"/>
<path d="M782 2645 c-31 -14 -33 -17 -30 -57 4 -53 16 -56 103 -33 60 17 64
19 53 39 -19 37 -51 66 -72 66 -12 -1 -36 -7 -54 -15z"/>
<path d="M5896 2709 c-31 -78 -9 -153 60 -199 50 -34 153 -40 204 -12 48 26
78 81 65 119 -9 25 -24 33 -162 80 l-151 51 -16 -39z"/>
<path d="M3157 1089 c-58 -45 -56 -151 3 -211 23 -23 35 -27 57 -22 40 9 45
17 51 72 5 61 -21 158 -48 172 -26 14 -34 13 -63 -11z"/>
<path d="M3586 801 c-27 -30 -35 -73 -21 -115 23 -65 70 -84 119 -45 42 33 36
78 -17 134 -49 50 -57 53 -81 26z"/>
<path d="M4093 1100 c-52 -21 -69 -120 -33 -191 26 -51 57 -66 96 -48 27 13
29 19 32 74 4 65 -11 130 -36 158 -17 19 -26 20 -59 7z"/>
</g>
</svg>
